<svg xmlns="http://www.w3.org/2000/svg" width="270.0mm" height="202.99999999999997mm"><style >
.valley {stroke: #00f; stroke-width: 2px; fill:none}
.mountain {stroke: #f00; stroke-width: 2px; fill:none }
.cut {stroke: #000; stroke-width: 3px; fill:none } 
.hint {stroke: #000; stroke-width: 1px; fill:none } 
</style><line class="valley" x1="6.25mm" y1="0mm" x2="6.25mm" y2="92.01608993193582mm"/><line class="valley" x1="12.5mm" y1="0mm" x2="12.5mm" y2="92.01608993193582mm"/><line class="valley" x1="18.75mm" y1="0mm" x2="18.75mm" y2="92.01608993193582mm"/><line class="valley" x1="8.333124999999999mm" y1="0mm" x2="18.75mm" y2="10.644793077514207mm"/><line class="valley" x1="18.75mm" y1="10.644793077514207mm" x2="25.0mm" y2="4.258044965967914mm"/><line class="valley" x1="12.5mm" y1="4.258044965967914mm" x2="6.25mm" y2="8.003038852693326mm"/><line class="valley" x1="6.25mm" y1="8.003038852693326mm" x2="0mm" y2="4.258044965967914mm"/><line class="valley" x1="12.5mm" y1="4.258044965967914mm" x2="6.25mm" y2="0.9152463465712524mm"/><line class="valley" x1="6.25mm" y1="0.9152463465712524mm" x2="0mm" y2="4.258044965967914mm"/><line class="valley" x1="16.666875000000008mm" y1="92.01608993193582mm" x2="6.250000000000007mm" y2="81.37129685442162mm"/><line class="valley" x1="6.250000000000007mm" y1="81.37129685442162mm" x2="7.105427357601002e-15mm" y2="87.75804496596791mm"/><line class="valley" x1="12.500000000000007mm" y1="87.75804496596791mm" x2="18.750000000000007mm" y2="84.0130510792425mm"/><line class="valley" x1="18.750000000000007mm" y1="84.0130510792425mm" x2="25.000000000000007mm" y2="87.75804496596791mm"/><line class="valley" x1="12.500000000000007mm" y1="87.75804496596791mm" x2="18.750000000000007mm" y2="91.10084358536457mm"/><line class="valley" x1="18.750000000000007mm" y1="91.10084358536457mm" x2="25.000000000000007mm" y2="87.75804496596791mm"/><line class="valley" x1="31.25mm" y1="0mm" x2="31.25mm" y2="92.01608993193582mm"/><line class="valley" x1="37.5mm" y1="0mm" x2="37.5mm" y2="92.01608993193582mm"/><line class="valley" x1="43.75mm" y1="0mm" x2="43.75mm" y2="92.01608993193582mm"/><line class="valley" x1="33.333124999999995mm" y1="0mm" x2="43.75mm" y2="10.644793077514207mm"/><line class="valley" x1="43.75mm" y1="10.644793077514207mm" x2="50.0mm" y2="4.258044965967914mm"/><line class="valley" x1="37.5mm" y1="4.258044965967914mm" x2="31.25mm" y2="8.003038852693326mm"/><line class="valley" x1="31.25mm" y1="8.003038852693326mm" x2="25mm" y2="4.258044965967914mm"/><line class="valley" x1="37.5mm" y1="4.258044965967914mm" x2="31.25mm" y2="0.9152463465712524mm"/><line class="valley" x1="31.25mm" y1="0.9152463465712524mm" x2="25mm" y2="4.258044965967914mm"/><line class="valley" x1="41.666875000000005mm" y1="92.01608993193582mm" x2="31.250000000000007mm" y2="81.37129685442162mm"/><line class="valley" x1="31.250000000000007mm" y1="81.37129685442162mm" x2="25.000000000000007mm" y2="87.75804496596791mm"/><line class="valley" x1="37.50000000000001mm" y1="87.75804496596791mm" x2="43.75000000000001mm" y2="84.0130510792425mm"/><line class="valley" x1="43.75000000000001mm" y1="84.0130510792425mm" x2="50.00000000000001mm" y2="87.75804496596791mm"/><line class="valley" x1="37.50000000000001mm" y1="87.75804496596791mm" x2="43.75000000000001mm" y2="91.10084358536457mm"/><line class="valley" x1="43.75000000000001mm" y1="91.10084358536457mm" x2="50.00000000000001mm" y2="87.75804496596791mm"/><line class="valley" x1="56.25mm" y1="0mm" x2="56.25mm" y2="92.01608993193582mm"/><line class="valley" x1="62.5mm" y1="0mm" x2="62.5mm" y2="92.01608993193582mm"/><line class="valley" x1="68.75mm" y1="0mm" x2="68.75mm" y2="92.01608993193582mm"/><line class="valley" x1="58.333124999999995mm" y1="0mm" x2="68.75mm" y2="10.644793077514207mm"/><line class="valley" x1="68.75mm" y1="10.644793077514207mm" x2="75.0mm" y2="4.258044965967914mm"/><line class="valley" x1="62.5mm" y1="4.258044965967914mm" x2="56.25mm" y2="8.003038852693326mm"/><line class="valley" x1="56.25mm" y1="8.003038852693326mm" x2="50mm" y2="4.258044965967914mm"/><line class="valley" x1="62.5mm" y1="4.258044965967914mm" x2="56.25mm" y2="0.9152463465712524mm"/><line class="valley" x1="56.25mm" y1="0.9152463465712524mm" x2="50mm" y2="4.258044965967914mm"/><line class="valley" x1="66.666875mm" y1="92.01608993193582mm" x2="56.25mm" y2="81.37129685442162mm"/><line class="valley" x1="56.25mm" y1="81.37129685442162mm" x2="50.0mm" y2="87.75804496596791mm"/><line class="valley" x1="62.5mm" y1="87.75804496596791mm" x2="68.75mm" y2="84.0130510792425mm"/><line class="valley" x1="68.75mm" y1="84.0130510792425mm" x2="75.0mm" y2="87.75804496596791mm"/><line class="valley" x1="62.5mm" y1="87.75804496596791mm" x2="68.75mm" y2="91.10084358536457mm"/><line class="valley" x1="68.75mm" y1="91.10084358536457mm" x2="75.0mm" y2="87.75804496596791mm"/><line class="valley" x1="81.25mm" y1="0mm" x2="81.25mm" y2="78.72193251070357mm"/><line class="valley" x1="87.5mm" y1="0mm" x2="87.5mm" y2="78.72193251070357mm"/><line class="valley" x1="93.75mm" y1="0mm" x2="93.75mm" y2="78.72193251070357mm"/><line class="valley" x1="78.125mm" y1="0mm" x2="93.75mm" y2="5.3100561474862955mm"/><line class="valley" x1="93.75mm" y1="5.3100561474862955mm" x2="100.0mm" y2="3.1860336884917766mm"/><line class="valley" x1="87.5mm" y1="3.1860336884917775mm" x2="81.25mm" y2="9.572781800038069mm"/><line class="valley" x1="81.25mm" y1="9.572781800038069mm" x2="75mm" y2="3.1860336884917775mm"/><line class="valley" x1="87.5mm" y1="3.1860336884917775mm" x2="81.25mm" y2="3.3213178276310735mm"/><line class="valley" x1="81.25mm" y1="3.3213178276310735mm" x2="75mm" y2="3.1860336884917775mm"/><line class="valley" x1="90.625mm" y1="78.72193251070357mm" x2="81.25mm" y2="68.11423604406819mm"/><line class="valley" x1="81.25mm" y1="68.11423604406819mm" x2="75.0mm" y2="75.18603368849178mm"/><line class="valley" x1="106.25mm" y1="0mm" x2="106.25mm" y2="78.72193251070357mm"/><line class="valley" x1="112.5mm" y1="0mm" x2="112.5mm" y2="78.72193251070357mm"/><line class="valley" x1="118.75mm" y1="0mm" x2="118.75mm" y2="78.72193251070357mm"/><line class="valley" x1="103.125mm" y1="0mm" x2="118.75mm" y2="5.3100561474862955mm"/><line class="valley" x1="118.75mm" y1="5.3100561474862955mm" x2="125.0mm" y2="3.1860336884917766mm"/><line class="valley" x1="112.5mm" y1="3.1860336884917775mm" x2="106.25mm" y2="9.572781800038069mm"/><line class="valley" x1="106.25mm" y1="9.572781800038069mm" x2="100mm" y2="3.1860336884917775mm"/><line class="valley" x1="112.5mm" y1="3.1860336884917775mm" x2="106.25mm" y2="3.3213178276310735mm"/><line class="valley" x1="106.25mm" y1="3.3213178276310735mm" x2="100mm" y2="3.1860336884917775mm"/><line class="valley" x1="115.625mm" y1="78.72193251070357mm" x2="106.25mm" y2="68.11423604406819mm"/><line class="valley" x1="106.25mm" y1="68.11423604406819mm" x2="100.0mm" y2="75.18603368849178mm"/><line class="valley" x1="131.25mm" y1="0mm" x2="131.25mm" y2="78.72193251070357mm"/><line class="valley" x1="137.5mm" y1="0mm" x2="137.5mm" y2="78.72193251070357mm"/><line class="valley" x1="143.75mm" y1="0mm" x2="143.75mm" y2="78.72193251070357mm"/><line class="valley" x1="128.125mm" y1="0mm" x2="143.75mm" y2="5.3100561474862955mm"/><line class="valley" x1="143.75mm" y1="5.3100561474862955mm" x2="150.0mm" y2="3.1860336884917766mm"/><line class="valley" x1="137.5mm" y1="3.1860336884917775mm" x2="131.25mm" y2="9.572781800038069mm"/><line class="valley" x1="131.25mm" y1="9.572781800038069mm" x2="125mm" y2="3.1860336884917775mm"/><line class="valley" x1="137.5mm" y1="3.1860336884917775mm" x2="131.25mm" y2="3.3213178276310735mm"/><line class="valley" x1="131.25mm" y1="3.3213178276310735mm" x2="125mm" y2="3.1860336884917775mm"/><line class="valley" x1="140.625mm" y1="78.72193251070357mm" x2="131.25mm" y2="68.11423604406819mm"/><line class="valley" x1="131.25mm" y1="68.11423604406819mm" x2="125.0mm" y2="75.18603368849178mm"/><line class="valley" x1="156.25mm" y1="0mm" x2="156.25mm" y2="78.72193251070357mm"/><line class="valley" x1="162.5mm" y1="0mm" x2="162.5mm" y2="78.72193251070357mm"/><line class="valley" x1="168.75mm" y1="0mm" x2="168.75mm" y2="78.72193251070357mm"/><line class="valley" x1="153.125mm" y1="0mm" x2="168.75mm" y2="5.3100561474862955mm"/><line class="valley" x1="168.75mm" y1="5.3100561474862955mm" x2="175.0mm" y2="3.1860336884917766mm"/><line class="valley" x1="162.5mm" y1="3.1860336884917775mm" x2="156.25mm" y2="9.572781800038069mm"/><line class="valley" x1="156.25mm" y1="9.572781800038069mm" x2="150mm" y2="3.1860336884917775mm"/><line class="valley" x1="162.5mm" y1="3.1860336884917775mm" x2="156.25mm" y2="3.3213178276310735mm"/><line class="valley" x1="156.25mm" y1="3.3213178276310735mm" x2="150mm" y2="3.1860336884917775mm"/><line class="valley" x1="165.625mm" y1="78.72193251070357mm" x2="156.25mm" y2="68.11423604406819mm"/><line class="valley" x1="156.25mm" y1="68.11423604406819mm" x2="150.0mm" y2="75.18603368849178mm"/><line class="valley" x1="181.25mm" y1="0mm" x2="181.25mm" y2="78.72193251070357mm"/><line class="valley" x1="187.5mm" y1="0mm" x2="187.5mm" y2="78.72193251070357mm"/><line class="valley" x1="193.75mm" y1="0mm" x2="193.75mm" y2="78.72193251070357mm"/><line class="valley" x1="178.125mm" y1="0mm" x2="193.75mm" y2="5.3100561474862955mm"/><line class="valley" x1="193.75mm" y1="5.3100561474862955mm" x2="200.0mm" y2="3.1860336884917766mm"/><line class="valley" x1="187.5mm" y1="3.1860336884917775mm" x2="181.25mm" y2="9.572781800038069mm"/><line class="valley" x1="181.25mm" y1="9.572781800038069mm" x2="175mm" y2="3.1860336884917775mm"/><line class="valley" x1="187.5mm" y1="3.1860336884917775mm" x2="181.25mm" y2="3.3213178276310735mm"/><line class="valley" x1="181.25mm" y1="3.3213178276310735mm" x2="175mm" y2="3.1860336884917775mm"/><line class="valley" x1="190.625mm" y1="78.72193251070357mm" x2="181.25mm" y2="68.11423604406819mm"/><line class="valley" x1="181.25mm" y1="68.11423604406819mm" x2="175.0mm" y2="75.18603368849178mm"/><line class="valley" x1="206.25mm" y1="0mm" x2="206.25mm" y2="78.72193251070357mm"/><line class="valley" x1="212.5mm" y1="0mm" x2="212.5mm" y2="78.72193251070357mm"/><line class="valley" x1="218.75mm" y1="0mm" x2="218.75mm" y2="78.72193251070357mm"/><line class="valley" x1="203.125mm" y1="0mm" x2="218.75mm" y2="5.3100561474862955mm"/><line class="valley" x1="218.75mm" y1="5.3100561474862955mm" x2="225.0mm" y2="3.1860336884917766mm"/><line class="valley" x1="212.5mm" y1="3.1860336884917775mm" x2="206.25mm" y2="9.572781800038069mm"/><line class="valley" x1="206.25mm" y1="9.572781800038069mm" x2="200mm" y2="3.1860336884917775mm"/><line class="valley" x1="212.5mm" y1="3.1860336884917775mm" x2="206.25mm" y2="3.3213178276310735mm"/><line class="valley" x1="206.25mm" y1="3.3213178276310735mm" x2="200mm" y2="3.1860336884917775mm"/><line class="valley" x1="215.625mm" y1="78.72193251070357mm" x2="206.25mm" y2="68.11423604406819mm"/><line class="valley" x1="206.25mm" y1="68.11423604406819mm" x2="200.0mm" y2="75.18603368849178mm"/><line class="valley" x1="270.0mm" y1="184.24999999999997mm" x2="224.96424008110657mm" y2="184.24999999999997mm"/><line class="valley" x1="270.0mm" y1="190.49999999999997mm" x2="224.96424008110657mm" y2="190.49999999999997mm"/><line class="valley" x1="270.0mm" y1="196.74999999999997mm" x2="224.96424008110657mm" y2="196.74999999999997mm"/><line class="valley" x1="270.0mm" y1="184.24999999999997mm" x2="262.5100122265492mm" y2="196.74999999999997mm"/><line class="valley" x1="262.5100122265492mm" y1="196.74999999999997mm" x2="266.2550061132746mm" y2="202.99999999999997mm"/><line class="valley" x1="266.2550061132746mm" y1="190.49999999999997mm" x2="264.13098365428004mm" y2="184.24999999999997mm"/><line class="valley" x1="264.13098365428004mm" y1="184.24999999999997mm" x2="266.2550061132746mm" y2="177.99999999999997mm"/><line class="valley" x1="266.2550061132746mm" y1="190.49999999999997mm" x2="270.0mm" y2="187.62220900217446mm"/><line class="valley" x1="270.0mm" y1="180.87779099782549mm" x2="266.2550061132746mm" y2="177.99999999999997mm"/><line class="valley" x1="224.96424008110657mm" y1="194.66687499999998mm" x2="232.56592711547648mm" y2="184.24999999999997mm"/><line class="valley" x1="232.56592711547648mm" y1="184.24999999999997mm" x2="228.0050061132746mm" y2="177.99999999999997mm"/><line class="valley" x1="270.0mm" y1="159.24999999999997mm" x2="224.96424008110657mm" y2="159.24999999999997mm"/><line class="valley" x1="270.0mm" y1="165.49999999999997mm" x2="224.96424008110657mm" y2="165.49999999999997mm"/><line class="valley" x1="270.0mm" y1="171.74999999999997mm" x2="224.96424008110657mm" y2="171.74999999999997mm"/><line class="valley" x1="270.0mm" y1="159.24999999999997mm" x2="262.5100122265492mm" y2="171.74999999999997mm"/><line class="valley" x1="262.5100122265492mm" y1="171.74999999999997mm" x2="266.2550061132746mm" y2="177.99999999999997mm"/><line class="valley" x1="266.2550061132746mm" y1="165.49999999999997mm" x2="264.13098365428004mm" y2="159.24999999999997mm"/><line class="valley" x1="264.13098365428004mm" y1="159.24999999999997mm" x2="266.2550061132746mm" y2="152.99999999999997mm"/><line class="valley" x1="266.2550061132746mm" y1="165.49999999999997mm" x2="270.0mm" y2="162.62220900217446mm"/><line class="valley" x1="270.0mm" y1="155.87779099782549mm" x2="266.2550061132746mm" y2="152.99999999999997mm"/><line class="valley" x1="224.96424008110657mm" y1="169.66687499999998mm" x2="232.56592711547648mm" y2="159.24999999999997mm"/><line class="valley" x1="232.56592711547648mm" y1="159.24999999999997mm" x2="228.0050061132746mm" y2="152.99999999999997mm"/><line class="valley" x1="270.0mm" y1="134.25mm" x2="224.96424008110657mm" y2="134.25mm"/><line class="valley" x1="270.0mm" y1="140.5mm" x2="224.96424008110657mm" y2="140.5mm"/><line class="valley" x1="270.0mm" y1="146.75mm" x2="224.96424008110657mm" y2="146.75mm"/><line class="valley" x1="270.0mm" y1="134.25mm" x2="262.5100122265492mm" y2="146.75mm"/><line class="valley" x1="262.5100122265492mm" y1="146.75mm" x2="266.2550061132746mm" y2="153.0mm"/><line class="valley" x1="266.2550061132746mm" y1="140.5mm" x2="264.13098365428004mm" y2="134.25mm"/><line class="valley" x1="264.13098365428004mm" y1="134.25mm" x2="266.2550061132746mm" y2="127.99999999999999mm"/><line class="valley" x1="266.2550061132746mm" y1="140.5mm" x2="270.0mm" y2="137.62220900217446mm"/><line class="valley" x1="270.0mm" y1="130.8777909978255mm" x2="266.2550061132746mm" y2="127.99999999999999mm"/><line class="valley" x1="224.96424008110657mm" y1="144.666875mm" x2="232.56592711547648mm" y2="134.25mm"/><line class="valley" x1="232.56592711547648mm" y1="134.25mm" x2="228.0050061132746mm" y2="128.0mm"/><line class="valley" x1="270.0mm" y1="109.24999999999999mm" x2="224.96424008110657mm" y2="109.24999999999999mm"/><line class="valley" x1="270.0mm" y1="115.49999999999999mm" x2="224.96424008110657mm" y2="115.49999999999999mm"/><line class="valley" x1="270.0mm" y1="121.74999999999999mm" x2="224.96424008110657mm" y2="121.74999999999999mm"/><line class="valley" x1="270.0mm" y1="109.24999999999999mm" x2="262.5100122265492mm" y2="121.74999999999999mm"/><line class="valley" x1="262.5100122265492mm" y1="121.74999999999999mm" x2="266.2550061132746mm" y2="127.99999999999999mm"/><line class="valley" x1="266.2550061132746mm" y1="115.49999999999999mm" x2="264.13098365428004mm" y2="109.24999999999999mm"/><line class="valley" x1="264.13098365428004mm" y1="109.24999999999999mm" x2="266.2550061132746mm" y2="102.99999999999999mm"/><line class="valley" x1="266.2550061132746mm" y1="115.49999999999999mm" x2="270.0mm" y2="112.62220900217446mm"/><line class="valley" x1="270.0mm" y1="105.87779099782551mm" x2="266.2550061132746mm" y2="102.99999999999999mm"/><line class="valley" x1="224.96424008110657mm" y1="119.666875mm" x2="232.56592711547648mm" y2="109.25mm"/><line class="valley" x1="232.56592711547648mm" y1="109.25mm" x2="228.0050061132746mm" y2="103.0mm"/><line class="valley" x1="270.0mm" y1="84.24999999999999mm" x2="224.96424008110657mm" y2="84.24999999999999mm"/><line class="valley" x1="270.0mm" y1="90.49999999999999mm" x2="224.96424008110657mm" y2="90.49999999999999mm"/><line class="valley" x1="270.0mm" y1="96.74999999999999mm" x2="224.96424008110657mm" y2="96.74999999999999mm"/><line class="valley" x1="270.0mm" y1="84.24999999999999mm" x2="262.5100122265492mm" y2="96.74999999999999mm"/><line class="valley" x1="262.5100122265492mm" y1="96.74999999999999mm" x2="266.2550061132746mm" y2="102.99999999999999mm"/><line class="valley" x1="266.2550061132746mm" y1="90.49999999999999mm" x2="264.13098365428004mm" y2="84.24999999999999mm"/><line class="valley" x1="264.13098365428004mm" y1="84.24999999999999mm" x2="266.2550061132746mm" y2="77.99999999999999mm"/><line class="valley" x1="266.2550061132746mm" y1="90.49999999999999mm" x2="270.0mm" y2="87.62220900217446mm"/><line class="valley" x1="270.0mm" y1="80.87779099782551mm" x2="266.2550061132746mm" y2="77.99999999999999mm"/><line class="valley" x1="224.96424008110657mm" y1="94.666875mm" x2="232.56592711547648mm" y2="84.25mm"/><line class="valley" x1="232.56592711547648mm" y1="84.25mm" x2="228.0050061132746mm" y2="78.0mm"/><line class="valley" x1="270.0mm" y1="59.24999999999998mm" x2="224.96424008110657mm" y2="59.24999999999998mm"/><line class="valley" x1="270.0mm" y1="65.49999999999997mm" x2="224.96424008110657mm" y2="65.49999999999999mm"/><line class="valley" x1="270.0mm" y1="71.74999999999997mm" x2="224.96424008110657mm" y2="71.74999999999999mm"/><line class="valley" x1="270.0mm" y1="59.24999999999998mm" x2="262.5100122265492mm" y2="71.74999999999997mm"/><line class="valley" x1="262.5100122265492mm" y1="71.74999999999997mm" x2="266.2550061132746mm" y2="77.99999999999997mm"/><line class="valley" x1="266.2550061132746mm" y1="65.49999999999997mm" x2="264.13098365428004mm" y2="59.24999999999998mm"/><line class="valley" x1="264.13098365428004mm" y1="59.24999999999998mm" x2="266.2550061132746mm" y2="52.99999999999998mm"/><line class="valley" x1="266.2550061132746mm" y1="65.49999999999997mm" x2="270.0mm" y2="62.62220900217446mm"/><line class="valley" x1="270.0mm" y1="55.8777909978255mm" x2="266.2550061132746mm" y2="52.99999999999998mm"/><line class="valley" x1="224.96424008110657mm" y1="69.66687499999999mm" x2="232.56592711547648mm" y2="59.249999999999986mm"/><line class="valley" x1="232.56592711547648mm" y1="59.249999999999986mm" x2="228.0050061132746mm" y2="52.999999999999986mm"/><line class="valley" x1="270.0mm" y1="34.24999999999998mm" x2="224.96424008110657mm" y2="34.24999999999998mm"/><line class="valley" x1="270.0mm" y1="40.49999999999998mm" x2="224.96424008110657mm" y2="40.499999999999986mm"/><line class="valley" x1="270.0mm" y1="46.74999999999998mm" x2="224.96424008110657mm" y2="46.749999999999986mm"/><line class="valley" x1="270.0mm" y1="34.24999999999998mm" x2="262.5100122265492mm" y2="46.74999999999998mm"/><line class="valley" x1="262.5100122265492mm" y1="46.74999999999998mm" x2="266.2550061132746mm" y2="52.99999999999998mm"/><line class="valley" x1="266.2550061132746mm" y1="40.49999999999998mm" x2="264.13098365428004mm" y2="34.24999999999998mm"/><line class="valley" x1="264.13098365428004mm" y1="34.24999999999998mm" x2="266.2550061132746mm" y2="27.99999999999998mm"/><line class="valley" x1="266.2550061132746mm" y1="40.49999999999998mm" x2="270.0mm" y2="37.62220900217446mm"/><line class="valley" x1="270.0mm" y1="30.877790997825503mm" x2="266.2550061132746mm" y2="27.99999999999998mm"/><line class="valley" x1="224.96424008110657mm" y1="44.66687499999999mm" x2="232.56592711547648mm" y2="34.249999999999986mm"/><line class="valley" x1="232.56592711547648mm" y1="34.249999999999986mm" x2="228.0050061132746mm" y2="27.999999999999986mm"/><line class="valley" x1="270.0mm" y1="9.24999999999998mm" x2="224.96424008110657mm" y2="9.249999999999982mm"/><line class="valley" x1="270.0mm" y1="15.49999999999998mm" x2="224.96424008110657mm" y2="15.499999999999984mm"/><line class="valley" x1="270.0mm" y1="21.74999999999998mm" x2="224.96424008110657mm" y2="21.749999999999986mm"/><line class="valley" x1="270.0mm" y1="9.24999999999998mm" x2="262.5100122265492mm" y2="21.74999999999998mm"/><line class="valley" x1="262.5100122265492mm" y1="21.74999999999998mm" x2="266.2550061132746mm" y2="27.99999999999998mm"/><line class="valley" x1="266.2550061132746mm" y1="15.49999999999998mm" x2="264.13098365428004mm" y2="9.24999999999998mm"/><line class="valley" x1="264.13098365428004mm" y1="9.24999999999998mm" x2="266.2550061132746mm" y2="2.999999999999981mm"/><line class="valley" x1="266.2550061132746mm" y1="15.49999999999998mm" x2="270.0mm" y2="12.622209002174458mm"/><line class="valley" x1="270.0mm" y1="5.877790997825503mm" x2="266.2550061132746mm" y2="2.999999999999981mm"/><line class="valley" x1="224.96424008110657mm" y1="19.666874999999987mm" x2="232.56592711547648mm" y2="9.249999999999986mm"/><line class="valley" x1="232.56592711547648mm" y1="9.249999999999986mm" x2="228.0050061132746mm" y2="2.999999999999986mm"/><line class="valley" x1="6.25mm" y1="92.01608993193582mm" x2="6.25mm" y2="184.03217986387165mm"/><line class="valley" x1="12.5mm" y1="92.01608993193582mm" x2="12.5mm" y2="184.03217986387165mm"/><line class="valley" x1="18.75mm" y1="92.01608993193582mm" x2="18.75mm" y2="184.03217986387165mm"/><line class="valley" x1="8.333124999999999mm" y1="92.01608993193582mm" x2="18.75mm" y2="102.66088300945003mm"/><line class="valley" x1="18.75mm" y1="102.66088300945003mm" x2="25.0mm" y2="96.27413489790374mm"/><line class="valley" x1="12.5mm" y1="96.27413489790374mm" x2="6.25mm" y2="100.01912878462915mm"/><line class="valley" x1="6.25mm" y1="100.01912878462915mm" x2="0mm" y2="96.27413489790374mm"/><line class="valley" x1="12.5mm" y1="96.27413489790374mm" x2="6.25mm" y2="92.93133627850708mm"/><line class="valley" x1="6.25mm" y1="92.93133627850708mm" x2="0mm" y2="96.27413489790374mm"/><line class="valley" x1="16.666875000000008mm" y1="184.03217986387165mm" x2="6.250000000000007mm" y2="173.38738678635744mm"/><line class="valley" x1="6.250000000000007mm" y1="173.38738678635744mm" x2="7.105427357601002e-15mm" y2="179.77413489790374mm"/><line class="valley" x1="12.500000000000007mm" y1="179.77413489790374mm" x2="18.750000000000007mm" y2="176.02914101117833mm"/><line class="valley" x1="18.750000000000007mm" y1="176.02914101117833mm" x2="25.000000000000007mm" y2="179.77413489790374mm"/><line class="valley" x1="12.500000000000007mm" y1="179.77413489790374mm" x2="18.750000000000007mm" y2="183.1169335173004mm"/><line class="valley" x1="18.750000000000007mm" y1="183.1169335173004mm" x2="25.000000000000007mm" y2="179.77413489790374mm"/><line class="valley" x1="31.25mm" y1="92.01608993193582mm" x2="31.25mm" y2="184.03217986387165mm"/><line class="valley" x1="37.5mm" y1="92.01608993193582mm" x2="37.5mm" y2="184.03217986387165mm"/><line class="valley" x1="43.75mm" y1="92.01608993193582mm" x2="43.75mm" y2="184.03217986387165mm"/><line class="valley" x1="33.333124999999995mm" y1="92.01608993193582mm" x2="43.75mm" y2="102.66088300945003mm"/><line class="valley" x1="43.75mm" y1="102.66088300945003mm" x2="50.0mm" y2="96.27413489790374mm"/><line class="valley" x1="37.5mm" y1="96.27413489790374mm" x2="31.25mm" y2="100.01912878462915mm"/><line class="valley" x1="31.25mm" y1="100.01912878462915mm" x2="25mm" y2="96.27413489790374mm"/><line class="valley" x1="37.5mm" y1="96.27413489790374mm" x2="31.25mm" y2="92.93133627850708mm"/><line class="valley" x1="31.25mm" y1="92.93133627850708mm" x2="25mm" y2="96.27413489790374mm"/><line class="valley" x1="41.666875000000005mm" y1="184.03217986387165mm" x2="31.250000000000007mm" y2="173.38738678635744mm"/><line class="valley" x1="31.250000000000007mm" y1="173.38738678635744mm" x2="25.000000000000007mm" y2="179.77413489790374mm"/><line class="valley" x1="37.50000000000001mm" y1="179.77413489790374mm" x2="43.75000000000001mm" y2="176.02914101117833mm"/><line class="valley" x1="43.75000000000001mm" y1="176.02914101117833mm" x2="50.00000000000001mm" y2="179.77413489790374mm"/><line class="valley" x1="37.50000000000001mm" y1="179.77413489790374mm" x2="43.75000000000001mm" y2="183.1169335173004mm"/><line class="valley" x1="43.75000000000001mm" y1="183.1169335173004mm" x2="50.00000000000001mm" y2="179.77413489790374mm"/><line class="valley" x1="56.25mm" y1="92.01608993193582mm" x2="56.25mm" y2="184.03217986387165mm"/><line class="valley" x1="62.5mm" y1="92.01608993193582mm" x2="62.5mm" y2="184.03217986387165mm"/><line class="valley" x1="68.75mm" y1="92.01608993193582mm" x2="68.75mm" y2="184.03217986387165mm"/><line class="valley" x1="58.333124999999995mm" y1="92.01608993193582mm" x2="68.75mm" y2="102.66088300945003mm"/><line class="valley" x1="68.75mm" y1="102.66088300945003mm" x2="75.0mm" y2="96.27413489790374mm"/><line class="valley" x1="62.5mm" y1="96.27413489790374mm" x2="56.25mm" y2="100.01912878462915mm"/><line class="valley" x1="56.25mm" y1="100.01912878462915mm" x2="50mm" y2="96.27413489790374mm"/><line class="valley" x1="62.5mm" y1="96.27413489790374mm" x2="56.25mm" y2="92.93133627850708mm"/><line class="valley" x1="56.25mm" y1="92.93133627850708mm" x2="50mm" y2="96.27413489790374mm"/><line class="valley" x1="66.666875mm" y1="184.03217986387165mm" x2="56.25mm" y2="173.38738678635744mm"/><line class="valley" x1="56.25mm" y1="173.38738678635744mm" x2="50.0mm" y2="179.77413489790374mm"/><line class="valley" x1="62.5mm" y1="179.77413489790374mm" x2="68.75mm" y2="176.02914101117833mm"/><line class="valley" x1="68.75mm" y1="176.02914101117833mm" x2="75.0mm" y2="179.77413489790374mm"/><line class="valley" x1="62.5mm" y1="179.77413489790374mm" x2="68.75mm" y2="183.1169335173004mm"/><line class="valley" x1="68.75mm" y1="183.1169335173004mm" x2="75.0mm" y2="179.77413489790374mm"/><line class="valley" x1="81.25mm" y1="78.72193251070357mm" x2="81.25mm" y2="157.44386502140713mm"/><line class="valley" x1="87.5mm" y1="78.72193251070357mm" x2="87.5mm" y2="157.44386502140713mm"/><line class="valley" x1="93.75mm" y1="78.72193251070357mm" x2="93.75mm" y2="157.44386502140713mm"/><line class="valley" x1="78.125mm" y1="78.72193251070357mm" x2="93.75mm" y2="84.03198865818986mm"/><line class="valley" x1="93.75mm" y1="84.03198865818986mm" x2="100.0mm" y2="81.90796619919534mm"/><line class="valley" x1="87.5mm" y1="81.90796619919534mm" x2="81.25mm" y2="88.29471431074164mm"/><line class="valley" x1="81.25mm" y1="88.29471431074164mm" x2="75mm" y2="81.90796619919534mm"/><line class="valley" x1="87.5mm" y1="81.90796619919534mm" x2="81.25mm" y2="82.04325033833464mm"/><line class="valley" x1="81.25mm" y1="82.04325033833464mm" x2="75mm" y2="81.90796619919534mm"/><line class="valley" x1="90.625mm" y1="157.44386502140713mm" x2="81.25mm" y2="146.83616855477177mm"/><line class="valley" x1="81.25mm" y1="146.83616855477177mm" x2="75.0mm" y2="153.90796619919536mm"/><line class="valley" x1="106.25mm" y1="78.72193251070357mm" x2="106.25mm" y2="157.44386502140713mm"/><line class="valley" x1="112.5mm" y1="78.72193251070357mm" x2="112.5mm" y2="157.44386502140713mm"/><line class="valley" x1="118.75mm" y1="78.72193251070357mm" x2="118.75mm" y2="157.44386502140713mm"/><line class="valley" x1="103.125mm" y1="78.72193251070357mm" x2="118.75mm" y2="84.03198865818986mm"/><line class="valley" x1="118.75mm" y1="84.03198865818986mm" x2="125.0mm" y2="81.90796619919534mm"/><line class="valley" x1="112.5mm" y1="81.90796619919534mm" x2="106.25mm" y2="88.29471431074164mm"/><line class="valley" x1="106.25mm" y1="88.29471431074164mm" x2="100mm" y2="81.90796619919534mm"/><line class="valley" x1="112.5mm" y1="81.90796619919534mm" x2="106.25mm" y2="82.04325033833464mm"/><line class="valley" x1="106.25mm" y1="82.04325033833464mm" x2="100mm" y2="81.90796619919534mm"/><line class="valley" x1="115.625mm" y1="157.44386502140713mm" x2="106.25mm" y2="146.83616855477177mm"/><line class="valley" x1="106.25mm" y1="146.83616855477177mm" x2="100.0mm" y2="153.90796619919536mm"/><line class="valley" x1="131.25mm" y1="78.72193251070357mm" x2="131.25mm" y2="157.44386502140713mm"/><line class="valley" x1="137.5mm" y1="78.72193251070357mm" x2="137.5mm" y2="157.44386502140713mm"/><line class="valley" x1="143.75mm" y1="78.72193251070357mm" x2="143.75mm" y2="157.44386502140713mm"/><line class="valley" x1="128.125mm" y1="78.72193251070357mm" x2="143.75mm" y2="84.03198865818986mm"/><line class="valley" x1="143.75mm" y1="84.03198865818986mm" x2="150.0mm" y2="81.90796619919534mm"/><line class="valley" x1="137.5mm" y1="81.90796619919534mm" x2="131.25mm" y2="88.29471431074164mm"/><line class="valley" x1="131.25mm" y1="88.29471431074164mm" x2="125mm" y2="81.90796619919534mm"/><line class="valley" x1="137.5mm" y1="81.90796619919534mm" x2="131.25mm" y2="82.04325033833464mm"/><line class="valley" x1="131.25mm" y1="82.04325033833464mm" x2="125mm" y2="81.90796619919534mm"/><line class="valley" x1="140.625mm" y1="157.44386502140713mm" x2="131.25mm" y2="146.83616855477177mm"/><line class="valley" x1="131.25mm" y1="146.83616855477177mm" x2="125.0mm" y2="153.90796619919536mm"/><line class="valley" x1="156.25mm" y1="78.72193251070357mm" x2="156.25mm" y2="157.44386502140713mm"/><line class="valley" x1="162.5mm" y1="78.72193251070357mm" x2="162.5mm" y2="157.44386502140713mm"/><line class="valley" x1="168.75mm" y1="78.72193251070357mm" x2="168.75mm" y2="157.44386502140713mm"/><line class="valley" x1="153.125mm" y1="78.72193251070357mm" x2="168.75mm" y2="84.03198865818986mm"/><line class="valley" x1="168.75mm" y1="84.03198865818986mm" x2="175.0mm" y2="81.90796619919534mm"/><line class="valley" x1="162.5mm" y1="81.90796619919534mm" x2="156.25mm" y2="88.29471431074164mm"/><line class="valley" x1="156.25mm" y1="88.29471431074164mm" x2="150mm" y2="81.90796619919534mm"/><line class="valley" x1="162.5mm" y1="81.90796619919534mm" x2="156.25mm" y2="82.04325033833464mm"/><line class="valley" x1="156.25mm" y1="82.04325033833464mm" x2="150mm" y2="81.90796619919534mm"/><line class="valley" x1="165.625mm" y1="157.44386502140713mm" x2="156.25mm" y2="146.83616855477177mm"/><line class="valley" x1="156.25mm" y1="146.83616855477177mm" x2="150.0mm" y2="153.90796619919536mm"/><line class="valley" x1="181.25mm" y1="78.72193251070357mm" x2="181.25mm" y2="157.44386502140713mm"/><line class="valley" x1="187.5mm" y1="78.72193251070357mm" x2="187.5mm" y2="157.44386502140713mm"/><line class="valley" x1="193.75mm" y1="78.72193251070357mm" x2="193.75mm" y2="157.44386502140713mm"/><line class="valley" x1="178.125mm" y1="78.72193251070357mm" x2="193.75mm" y2="84.03198865818986mm"/><line class="valley" x1="193.75mm" y1="84.03198865818986mm" x2="200.0mm" y2="81.90796619919534mm"/><line class="valley" x1="187.5mm" y1="81.90796619919534mm" x2="181.25mm" y2="88.29471431074164mm"/><line class="valley" x1="181.25mm" y1="88.29471431074164mm" x2="175mm" y2="81.90796619919534mm"/><line class="valley" x1="187.5mm" y1="81.90796619919534mm" x2="181.25mm" y2="82.04325033833464mm"/><line class="valley" x1="181.25mm" y1="82.04325033833464mm" x2="175mm" y2="81.90796619919534mm"/><line class="valley" x1="190.625mm" y1="157.44386502140713mm" x2="181.25mm" y2="146.83616855477177mm"/><line class="valley" x1="181.25mm" y1="146.83616855477177mm" x2="175.0mm" y2="153.90796619919536mm"/><line class="valley" x1="206.25mm" y1="78.72193251070357mm" x2="206.25mm" y2="157.44386502140713mm"/><line class="valley" x1="212.5mm" y1="78.72193251070357mm" x2="212.5mm" y2="157.44386502140713mm"/><line class="valley" x1="218.75mm" y1="78.72193251070357mm" x2="218.75mm" y2="157.44386502140713mm"/><line class="valley" x1="203.125mm" y1="78.72193251070357mm" x2="218.75mm" y2="84.03198865818986mm"/><line class="valley" x1="218.75mm" y1="84.03198865818986mm" x2="225.0mm" y2="81.90796619919534mm"/><line class="valley" x1="212.5mm" y1="81.90796619919534mm" x2="206.25mm" y2="88.29471431074164mm"/><line class="valley" x1="206.25mm" y1="88.29471431074164mm" x2="200mm" y2="81.90796619919534mm"/><line class="valley" x1="212.5mm" y1="81.90796619919534mm" x2="206.25mm" y2="82.04325033833464mm"/><line class="valley" x1="206.25mm" y1="82.04325033833464mm" x2="200mm" y2="81.90796619919534mm"/><line class="valley" x1="215.625mm" y1="157.44386502140713mm" x2="206.25mm" y2="146.83616855477177mm"/><line class="valley" x1="206.25mm" y1="146.83616855477177mm" x2="200.0mm" y2="153.90796619919536mm"/><line class="valley" x1="81.25mm" y1="157.44386502140713mm" x2="81.25mm" y2="202.47962494030057mm"/><line class="valley" x1="87.5mm" y1="157.44386502140713mm" x2="87.5mm" y2="202.47962494030057mm"/><line class="valley" x1="93.75mm" y1="157.44386502140713mm" x2="93.75mm" y2="202.47962494030057mm"/><line class="valley" x1="81.25mm" y1="157.44386502140713mm" x2="93.75mm" y2="164.93385279485796mm"/><line class="valley" x1="93.75mm" y1="164.93385279485796mm" x2="100.0mm" y2="161.18885890813254mm"/><line class="valley" x1="87.5mm" y1="161.18885890813254mm" x2="81.25mm" y2="163.31288136712706mm"/><line class="valley" x1="81.25mm" y1="163.31288136712706mm" x2="75mm" y2="161.18885890813254mm"/><line class="valley" x1="87.5mm" y1="161.18885890813254mm" x2="84.62220900217447mm" y2="157.44386502140713mm"/><line class="valley" x1="77.87779099782553mm" y1="157.44386502140713mm" x2="75mm" y2="161.18885890813254mm"/><line class="valley" x1="91.666875mm" y1="202.47962494030057mm" x2="81.25mm" y2="194.87793790593065mm"/><line class="valley" x1="81.25mm" y1="194.87793790593065mm" x2="75.0mm" y2="199.43885890813254mm"/><line class="valley" x1="106.25mm" y1="157.44386502140713mm" x2="106.25mm" y2="202.47962494030057mm"/><line class="valley" x1="112.5mm" y1="157.44386502140713mm" x2="112.5mm" y2="202.47962494030057mm"/><line class="valley" x1="118.75mm" y1="157.44386502140713mm" x2="118.75mm" y2="202.47962494030057mm"/><line class="valley" x1="106.25mm" y1="157.44386502140713mm" x2="118.75mm" y2="164.93385279485796mm"/><line class="valley" x1="118.75mm" y1="164.93385279485796mm" x2="125.0mm" y2="161.18885890813254mm"/><line class="valley" x1="112.5mm" y1="161.18885890813254mm" x2="106.25mm" y2="163.31288136712706mm"/><line class="valley" x1="106.25mm" y1="163.31288136712706mm" x2="100mm" y2="161.18885890813254mm"/><line class="valley" x1="112.5mm" y1="161.18885890813254mm" x2="109.62220900217447mm" y2="157.44386502140713mm"/><line class="valley" x1="102.87779099782553mm" y1="157.44386502140713mm" x2="100mm" y2="161.18885890813254mm"/><line class="valley" x1="116.666875mm" y1="202.47962494030057mm" x2="106.25mm" y2="194.87793790593065mm"/><line class="valley" x1="106.25mm" y1="194.87793790593065mm" x2="100.0mm" y2="199.43885890813254mm"/><line class="valley" x1="131.25mm" y1="157.44386502140713mm" x2="131.25mm" y2="202.47962494030057mm"/><line class="valley" x1="137.5mm" y1="157.44386502140713mm" x2="137.5mm" y2="202.47962494030057mm"/><line class="valley" x1="143.75mm" y1="157.44386502140713mm" x2="143.75mm" y2="202.47962494030057mm"/><line class="valley" x1="131.25mm" y1="157.44386502140713mm" x2="143.75mm" y2="164.93385279485796mm"/><line class="valley" x1="143.75mm" y1="164.93385279485796mm" x2="150.0mm" y2="161.18885890813254mm"/><line class="valley" x1="137.5mm" y1="161.18885890813254mm" x2="131.25mm" y2="163.31288136712706mm"/><line class="valley" x1="131.25mm" y1="163.31288136712706mm" x2="125mm" y2="161.18885890813254mm"/><line class="valley" x1="137.5mm" y1="161.18885890813254mm" x2="134.6222090021745mm" y2="157.44386502140713mm"/><line class="valley" x1="127.87779099782553mm" y1="157.44386502140713mm" x2="125mm" y2="161.18885890813254mm"/><line class="valley" x1="141.666875mm" y1="202.47962494030057mm" x2="131.25mm" y2="194.87793790593065mm"/><line class="valley" x1="131.25mm" y1="194.87793790593065mm" x2="125.0mm" y2="199.43885890813254mm"/><line class="valley" x1="156.25mm" y1="157.44386502140713mm" x2="156.25mm" y2="202.47962494030057mm"/><line class="valley" x1="162.5mm" y1="157.44386502140713mm" x2="162.5mm" y2="202.47962494030057mm"/><line class="valley" x1="168.75mm" y1="157.44386502140713mm" x2="168.75mm" y2="202.47962494030057mm"/><line class="valley" x1="156.25mm" y1="157.44386502140713mm" x2="168.75mm" y2="164.93385279485796mm"/><line class="valley" x1="168.75mm" y1="164.93385279485796mm" x2="175.0mm" y2="161.18885890813254mm"/><line class="valley" x1="162.5mm" y1="161.18885890813254mm" x2="156.25mm" y2="163.31288136712706mm"/><line class="valley" x1="156.25mm" y1="163.31288136712706mm" x2="150mm" y2="161.18885890813254mm"/><line class="valley" x1="162.5mm" y1="161.18885890813254mm" x2="159.6222090021745mm" y2="157.44386502140713mm"/><line class="valley" x1="152.8777909978255mm" y1="157.44386502140713mm" x2="150mm" y2="161.18885890813254mm"/><line class="valley" x1="166.666875mm" y1="202.47962494030057mm" x2="156.25mm" y2="194.87793790593065mm"/><line class="valley" x1="156.25mm" y1="194.87793790593065mm" x2="150.0mm" y2="199.43885890813254mm"/><line class="cut" x1="0mm" y1="0mm" x2="225mm" y2="0mm"/><line class="cut" x1="224.9642400811066mm" y1="27.99999999999998mm" x2="270.0mm" y2="27.99999999999998mm"/><line class="cut" x1="224.9642400811066mm" y1="52.99999999999998mm" x2="270.0mm" y2="52.99999999999998mm"/><line class="cut" x1="0mm" y1="92.01608993193582mm" x2="75mm" y2="92.01608993193582mm"/><line class="cut" x1="75mm" y1="78.72193251070357mm" x2="225mm" y2="78.72193251070357mm"/><line class="cut" x1="224.9642400811066mm" y1="127.99999999999999mm" x2="270.0mm" y2="127.99999999999999mm"/><line class="cut" x1="224.9642400811066mm" y1="152.99999999999997mm" x2="270.0mm" y2="152.99999999999997mm"/><line class="cut" x1="224.9642400811066mm" y1="177.99999999999997mm" x2="270.0mm" y2="177.99999999999997mm"/><line class="cut" x1="224.9642400811066mm" y1="202.99999999999997mm" x2="270.0mm" y2="202.99999999999997mm"/><line class="cut" x1="224.9642400811066mm" y1="102.99999999999999mm" x2="270.0mm" y2="102.99999999999999mm"/><line class="cut" x1="224.9642400811066mm" y1="77.99999999999999mm" x2="270.0mm" y2="77.99999999999999mm"/><line class="cut" x1="0mm" y1="184.03217986387165mm" x2="75mm" y2="184.03217986387165mm"/><line class="cut" x1="75mm" y1="157.44386502140713mm" x2="225mm" y2="157.44386502140713mm"/><line class="cut" x1="75mm" y1="202.47962494030057mm" x2="175mm" y2="202.47962494030057mm"/><line class="cut" x1="224.9642400811066mm" y1="2.9999999999999805mm" x2="270.0mm" y2="2.9999999999999805mm"/><line class="cut" x1="0mm" y1="0mm" x2="0mm" y2="184.03217986387165mm"/><line class="cut" x1="25mm" y1="0mm" x2="25mm" y2="184.03217986387165mm"/><line class="cut" x1="50mm" y1="0mm" x2="50mm" y2="184.03217986387165mm"/><line class="cut" x1="75mm" y1="0mm" x2="75mm" y2="202.47962494030057mm"/><line class="cut" x1="100mm" y1="0mm" x2="100mm" y2="202.47962494030057mm"/><line class="cut" x1="125mm" y1="0mm" x2="125mm" y2="202.47962494030057mm"/><line class="cut" x1="150mm" y1="0mm" x2="150mm" y2="202.47962494030057mm"/><line class="cut" x1="175mm" y1="0mm" x2="175mm" y2="202.47962494030057mm"/><line class="cut" x1="200mm" y1="0mm" x2="200mm" y2="157.44386502140713mm"/><line class="cut" x1="225mm" y1="0mm" x2="225mm" y2="157.44386502140713mm"/><line class="cut" x1="224.9642400811066mm" y1="2.9999999999999805mm" x2="224.9642400811066mm" y2="202.99999999999997mm"/><line class="cut" x1="270.0mm" y1="2.9999999999999805mm" x2="270.0mm" y2="202.99999999999997mm"/></svg>