<svg xmlns="http://www.w3.org/2000/svg" width="240mm" height="207.2257438910973mm"><style >
.valley {stroke: #00f; stroke-width: 2px; fill:none}
.mountain {stroke: #f00; stroke-width: 2px; fill:none }
.cut {stroke: #000; stroke-width: 3px; fill:none } 
.hint {stroke: #000; stroke-width: 1px; fill:none } 
</style><text font-family="sans-serif" font-size="20" font-weight="bold" x="30mm" y="17mm">Outer tri-vertex Unit x60</text> <text font-family="sans-serif" font-size="20" font-weight="bold" x="30mm" y="25mm">Length ratio 3.15</text> <rect class="cut" x="30mm" y="30mm" width="40mm" height="125.95509201712571mm"/> <line class="valley" x1="40.0mm" y1="30mm" x2="40.0mm" y2="155.9550920171257mm"/> <line class="valley" x1="50.0mm" y1="30mm" x2="50.0mm" y2="155.9550920171257mm"/> <line class="valley" x1="60.0mm" y1="30mm" x2="60.0mm" y2="155.9550920171257mm"/> <line class="valley" x1="35.0mm" y1="30mm" x2="60.0mm" y2="38.49608983597807mm"/> <line class="valley" x1="60.0mm" y1="38.49608983597807mm" x2="70.0mm" y2="35.097653901586845mm"/> <line class="valley" x1="50.0mm" y1="35.097653901586845mm" x2="40.0mm" y2="45.31645088006091mm"/> <line class="valley" x1="40.0mm" y1="45.31645088006091mm" x2="30mm" y2="35.097653901586845mm"/> <line class="valley" x1="50.0mm" y1="35.097653901586845mm" x2="40.0mm" y2="35.314108524209715mm"/> <line class="valley" x1="40.0mm" y1="35.314108524209715mm" x2="30mm" y2="35.097653901586845mm"/> <circle class="hint" cx="66.52870781267775mm" cy="30mm" r="2mm"/> <circle class="hint" cx="60.0mm" cy="49.21091919553063mm" r="2mm"/> <line class="hint" x1="66.52870781267775mm" y1="30mm" x2="60.0mm" y2="49.21091919553063mm"/> <line class="valley" x1="55.0mm" y1="155.9550920171257mm" x2="40.0mm" y2="138.9827776705091mm"/> <line class="valley" x1="40.0mm" y1="138.9827776705091mm" x2="30.0mm" y2="150.29765390158684mm"/> <circle class="hint" cx="30.0mm" cy="155.9550920171257mm" r="2mm"/> <circle class="hint" cx="58.07271670730717mm" cy="131.1446423630659mm" r="2mm"/> <line class="hint" x1="30.0mm" y1="155.9550920171257mm" x2="58.07271670730717mm" y2="131.1446423630659mm"/><text font-family="sans-serif" font-size="20" font-weight="bold" x="100mm" y="17mm">Inner tri-vertex Unit x60</text> <text font-family="sans-serif" font-size="20" font-weight="bold" x="100mm" y="25mm">Length ratio 1.80</text> <rect class="cut" x="100mm" y="30mm" width="40mm" height="72.05721587022948mm"/> <line class="valley" x1="110.0mm" y1="30mm" x2="110.0mm" y2="102.05721587022948mm"/> <line class="valley" x1="120.0mm" y1="30mm" x2="120.0mm" y2="102.05721587022948mm"/> <line class="valley" x1="130.0mm" y1="30mm" x2="130.0mm" y2="102.05721587022948mm"/> <line class="valley" x1="110.0mm" y1="30mm" x2="130.0mm" y2="41.98398043752132mm"/> <line class="valley" x1="130.0mm" y1="41.98398043752132mm" x2="140.0mm" y2="35.99199021876066mm"/> <line class="valley" x1="120.0mm" y1="35.99199021876066mm" x2="110.0mm" y2="39.390426153151886mm"/> <line class="valley" x1="110.0mm" y1="39.390426153151886mm" x2="100mm" y2="35.99199021876066mm"/> <line class="valley" x1="120.0mm" y1="35.99199021876066mm" x2="115.39553440347916mm" y2="30mm"/> <line class="valley" x1="104.60446559652084mm" y1="30mm" x2="100mm" y2="35.99199021876066mm"/> <circle class="hint" cx="131.20316929950553mm" cy="30mm" r="2mm"/> <circle class="hint" cx="120.0mm" cy="48.696908523697mm" r="2mm"/> <line class="hint" x1="131.20316929950553mm" y1="30mm" x2="120.0mm" y2="48.696908523697mm"/> <line class="valley" x1="126.667mm" y1="102.05721587022948mm" x2="110.0mm" y2="89.8945166152376mm"/> <line class="valley" x1="110.0mm" y1="89.8945166152376mm" x2="100.0mm" y2="97.19199021876067mm"/> <circle class="hint" cx="104.81017063735612mm" cy="102.05721587022948mm" r="2mm"/> <circle class="hint" cx="120.0mm" cy="81.24202668570052mm" r="2mm"/> <line class="hint" x1="104.81017063735612mm" y1="102.05721587022948mm" x2="120.0mm" y2="81.24202668570052mm"/><text font-family="sans-serif" font-size="20" font-weight="bold" x="170mm" y="17mm">Symmetrical Unit x30</text> <text font-family="sans-serif" font-size="20" font-weight="bold" x="170mm" y="25mm">Length ratio 3.68</text> <rect class="cut" x="170mm" y="30mm" width="40mm" height="147.2257438910973mm"/> <line class="valley" x1="180.0mm" y1="30mm" x2="180.0mm" y2="177.2257438910973mm"/> <line class="valley" x1="190.0mm" y1="30mm" x2="190.0mm" y2="177.2257438910973mm"/> <line class="valley" x1="200.0mm" y1="30mm" x2="200.0mm" y2="177.2257438910973mm"/> <line class="valley" x1="183.333mm" y1="30mm" x2="200.0mm" y2="47.031668924022725mm"/> <line class="valley" x1="200.0mm" y1="47.031668924022725mm" x2="210.0mm" y2="36.812871945548665mm"/> <line class="valley" x1="190.0mm" y1="36.812871945548665mm" x2="180.0mm" y2="42.80486216430932mm"/> <line class="valley" x1="180.0mm" y1="42.80486216430932mm" x2="170mm" y2="36.812871945548665mm"/> <line class="valley" x1="190.0mm" y1="36.812871945548665mm" x2="180.0mm" y2="31.464394154514004mm"/> <line class="valley" x1="180.0mm" y1="31.464394154514004mm" x2="170mm" y2="36.812871945548665mm"/> <circle class="hint" cx="210.0mm" cy="30mm" r="2mm"/> <circle class="hint" cx="182.7559156315463mm" cy="56.66075510242886mm" r="2mm"/> <line class="hint" x1="210.0mm" y1="30mm" x2="182.7559156315463mm" y2="56.66075510242886mm"/> <line class="valley" x1="196.667mm" y1="177.2257438910973mm" x2="180.0mm" y2="160.19407496707458mm"/> <line class="valley" x1="180.0mm" y1="160.19407496707458mm" x2="170.0mm" y2="170.41287194554863mm"/> <line class="valley" x1="190.0mm" y1="170.41287194554863mm" x2="200.0mm" y2="164.42088172678797mm"/> <line class="valley" x1="200.0mm" y1="164.42088172678797mm" x2="210.0mm" y2="170.41287194554863mm"/> <line class="valley" x1="190.0mm" y1="170.41287194554863mm" x2="200.0mm" y2="175.7613497365833mm"/> <line class="valley" x1="200.0mm" y1="175.7613497365833mm" x2="210.0mm" y2="170.41287194554863mm"/> <circle class="hint" cx="170.0mm" cy="177.2257438910973mm" r="2mm"/> <circle class="hint" cx="197.2440843684537mm" cy="150.56498878866844mm" r="2mm"/> <line class="hint" x1="170.0mm" y1="177.2257438910973mm" x2="197.2440843684537mm" y2="150.56498878866844mm"/></svg>