<svg xmlns="http://www.w3.org/2000/svg" width="240mm" height="301.8045177159386mm"><style >
.valley {stroke: #00f; stroke-width: 2px; fill:none}
.mountain {stroke: #f00; stroke-width: 2px; fill:none }
.cut {stroke: #000; stroke-width: 3px; fill:none } 
.hint {stroke: #000; stroke-width: 1px; fill:none } 
</style><text font-family="sans-serif" font-size="20" font-weight="bold" x="30mm" y="17mm">Small Eq. Triangle Unit x60</text> <text font-family="sans-serif" font-size="20" font-weight="bold" x="30mm" y="25mm">Length ratio 4.32</text> <rect class="cut" x="30mm" y="30mm" width="40mm" height="172.66205889335978mm"/> <line class="valley" x1="40.0mm" y1="30mm" x2="40.0mm" y2="202.66205889335978mm"/> <line class="valley" x1="50.0mm" y1="30mm" x2="50.0mm" y2="202.66205889335978mm"/> <line class="valley" x1="60.0mm" y1="30mm" x2="60.0mm" y2="202.66205889335978mm"/> <line class="valley" x1="46.7mm" y1="30mm" x2="60.0mm" y2="46.91950691942424mm"/> <line class="valley" x1="60.0mm" y1="46.91950691942424mm" x2="70.0mm" y2="34.198073145421056mm"/> <line class="valley" x1="50.0mm" y1="34.19807314542105mm" x2="40.0mm" y2="46.02309998775229mm"/> <line class="valley" x1="40.0mm" y1="46.02309998775229mm" x2="30mm" y2="34.19807314542105mm"/> <line class="valley" x1="50.0mm" y1="34.19807314542105mm" x2="40.0mm" y2="35.882266354998656mm"/> <line class="valley" x1="40.0mm" y1="35.882266354998656mm" x2="30mm" y2="34.19807314542105mm"/> <circle class="hint" cx="70.0mm" cy="30mm" r="2mm"/> <circle class="hint" cx="41.19747621345212mm" cy="52.640941499382805mm" r="2mm"/> <line class="hint" x1="70.0mm" y1="30mm" x2="41.19747621345212mm" y2="52.640941499382805mm"/> <line class="valley" x1="55.000000000000014mm" y1="202.66205889335978mm" x2="40.000000000000014mm" y2="188.07010164954355mm"/> <line class="valley" x1="40.000000000000014mm" y1="188.07010164954355mm" x2="30.000000000000014mm" y2="197.79807314542106mm"/> <line class="valley" x1="50.000000000000014mm" y1="197.79807314542106mm" x2="60.000000000000014mm" y2="185.07663937141785mm"/> <line class="valley" x1="60.000000000000014mm" y1="185.07663937141785mm" x2="70.00000000000001mm" y2="197.79807314542103mm"/> <line class="valley" x1="50.000000000000014mm" y1="197.79807314542106mm" x2="60.000000000000014mm" y2="195.36773084419744mm"/> <line class="valley" x1="60.000000000000014mm" y1="195.36773084419744mm" x2="70.00000000000001mm" y2="197.79807314542103mm"/> <circle class="hint" cx="30.000000000000014mm" cy="202.66205889335978mm" r="2mm"/> <circle class="hint" cx="54.31068231813258mm" cy="177.671563877585mm" r="2mm"/> <line class="hint" x1="30.000000000000014mm" y1="202.66205889335978mm" x2="54.31068231813258mm" y2="177.671563877585mm"/><text font-family="sans-serif" font-size="20" font-weight="bold" x="100mm" y="17mm">Large Eq. Triangle Unit x60</text> <text font-family="sans-serif" font-size="20" font-weight="bold" x="100mm" y="25mm">Length ratio 5.67</text> <rect class="cut" x="100mm" y="30mm" width="40mm" height="226.95583547820578mm"/> <line class="valley" x1="110.0mm" y1="30mm" x2="110.0mm" y2="256.9558354782058mm"/> <line class="valley" x1="120.0mm" y1="30mm" x2="120.0mm" y2="256.9558354782058mm"/> <line class="valley" x1="130.0mm" y1="30mm" x2="130.0mm" y2="256.9558354782058mm"/> <line class="valley" x1="116.7mm" y1="30mm" x2="130.0mm" y2="46.91950691942424mm"/> <line class="valley" x1="130.0mm" y1="46.91950691942424mm" x2="140.0mm" y2="34.198073145421056mm"/> <line class="valley" x1="120.0mm" y1="34.19807314542105mm" x2="110.0mm" y2="43.92604464129854mm"/> <line class="valley" x1="110.0mm" y1="43.92604464129854mm" x2="100mm" y2="34.19807314542105mm"/> <line class="valley" x1="120.0mm" y1="34.19807314542105mm" x2="110.0mm" y2="33.92224120154306mm"/> <line class="valley" x1="110.0mm" y1="33.92224120154306mm" x2="100mm" y2="34.19807314542105mm"/> <circle class="hint" cx="140.0mm" cy="30mm" r="2mm"/> <circle class="hint" cx="111.19747621345212mm" cy="52.640941499382805mm" r="2mm"/> <line class="hint" x1="140.0mm" y1="30mm" x2="111.19747621345212mm" y2="52.640941499382805mm"/> <line class="valley" x1="122.5mm" y1="256.9558354782058mm" x2="110.0mm" y2="233.16702381428217mm"/> <line class="valley" x1="110.0mm" y1="233.16702381428217mm" x2="100.0mm" y2="252.1980731454211mm"/> <line class="valley" x1="120.0mm" y1="252.1980731454211mm" x2="130.0mm" y2="239.4766393714179mm"/> <line class="valley" x1="130.0mm" y1="239.4766393714179mm" x2="140.0mm" y2="252.1980731454211mm"/> <line class="valley" x1="120.0mm" y1="252.1980731454211mm" x2="130.0mm" y2="249.7677308441975mm"/> <line class="valley" x1="130.0mm" y1="249.7677308441975mm" x2="140.0mm" y2="252.1980731454211mm"/> <circle class="hint" cx="110.0mm" cy="256.9558354782058mm" r="2mm"/> <circle class="hint" cx="129.59086186408445mm" cy="246.66167800785047mm" r="2mm"/> <line class="hint" x1="110.0mm" y1="256.9558354782058mm" x2="129.59086186408445mm" y2="246.66167800785047mm"/><text font-family="sans-serif" font-size="20" font-weight="bold" x="170mm" y="17mm">Symmetrical Unit x30</text> <text font-family="sans-serif" font-size="20" font-weight="bold" x="170mm" y="25mm">Length ratio 6.05</text> <rect class="cut" x="170mm" y="30mm" width="40mm" height="241.80451771593857mm"/> <line class="valley" x1="180.0mm" y1="30mm" x2="180.0mm" y2="271.8045177159386mm"/> <line class="valley" x1="190.0mm" y1="30mm" x2="190.0mm" y2="271.8045177159386mm"/> <line class="valley" x1="200.0mm" y1="30mm" x2="200.0mm" y2="271.8045177159386mm"/> <line class="valley" x1="186.7mm" y1="30mm" x2="200.0mm" y2="45.72728570030055mm"/> <line class="valley" x1="200.0mm" y1="45.72728570030055mm" x2="210.0mm" y2="33.90225885796931mm"/> <line class="valley" x1="190.0mm" y1="33.90225885796931mm" x2="180.0mm" y2="52.93330818910822mm"/> <line class="valley" x1="180.0mm" y1="52.93330818910822mm" x2="170mm" y2="33.90225885796931mm"/> <line class="valley" x1="190.0mm" y1="33.90225885796931mm" x2="180.0mm" y2="40.79049802130483mm"/> <line class="valley" x1="180.0mm" y1="40.79049802130483mm" x2="170mm" y2="33.90225885796931mm"/> <circle class="hint" cx="210.0mm" cy="30mm" r="2mm"/> <circle class="hint" cx="182.83032782074125mm" cy="52.97641480355608mm" r="2mm"/> <line class="hint" x1="210.0mm" y1="30mm" x2="182.83032782074125mm" y2="52.97641480355608mm"/> <line class="valley" x1="193.3mm" y1="271.8045177159386mm" x2="180.0mm" y2="256.077232015638mm"/> <line class="valley" x1="180.0mm" y1="256.077232015638mm" x2="170.0mm" y2="267.9022588579693mm"/> <line class="valley" x1="190.0mm" y1="267.9022588579693mm" x2="200.0mm" y2="248.87120952683037mm"/> <line class="valley" x1="200.0mm" y1="248.87120952683037mm" x2="210.0mm" y2="267.9022588579693mm"/> <line class="valley" x1="190.0mm" y1="267.9022588579693mm" x2="200.0mm" y2="261.01401969463376mm"/> <line class="valley" x1="200.0mm" y1="261.01401969463376mm" x2="210.0mm" y2="267.9022588579693mm"/> <circle class="hint" cx="170.0mm" cy="271.8045177159386mm" r="2mm"/> <circle class="hint" cx="197.16967217925873mm" cy="248.8281029123825mm" r="2mm"/> <line class="hint" x1="170.0mm" y1="271.8045177159386mm" x2="197.16967217925873mm" y2="248.8281029123825mm"/></svg>