<svg xmlns="http://www.w3.org/2000/svg" width="210mm" height="279.249146881194mm"><style >
.valley {stroke: #00f; stroke-width: 2px; fill:none}
.mountain {stroke: #f00; stroke-width: 2px; fill:none }
.cut {stroke: #000; stroke-width: 3px; fill:none } 
</style><line class="valley" x1="7.5mm" y1="0mm" x2="7.5mm" y2="211.14470971357838mm"/><line class="valley" x1="15.0mm" y1="0mm" x2="15.0mm" y2="211.14470971357838mm"/><line class="valley" x1="22.5mm" y1="0mm" x2="22.5mm" y2="211.14470971357838mm"/><line class="valley" x1="12.524999999999999mm" y1="0mm" x2="22.5mm" y2="15.002218059180661mm"/><line class="valley" x1="22.5mm" y1="15.002218059180661mm" x2="30.0mm" y2="3.7223548567891878mm"/><line class="valley" x1="17.475mm" y1="211.14470971357838mm" x2="7.4999999999999964mm" y2="196.14249165439773mm"/><line class="valley" x1="7.4999999999999964mm" y1="196.14249165439773mm" x2="0.0mm" y2="207.42235485678918mm"/><line class="valley" x1="37.5mm" y1="0mm" x2="37.5mm" y2="211.14470971357838mm"/><line class="valley" x1="45.0mm" y1="0mm" x2="45.0mm" y2="211.14470971357838mm"/><line class="valley" x1="52.5mm" y1="0mm" x2="52.5mm" y2="211.14470971357838mm"/><line class="valley" x1="42.525mm" y1="0mm" x2="52.5mm" y2="15.002218059180661mm"/><line class="valley" x1="52.5mm" y1="15.002218059180661mm" x2="60.0mm" y2="3.7223548567891878mm"/><line class="valley" x1="47.475mm" y1="211.14470971357838mm" x2="37.5mm" y2="196.14249165439773mm"/><line class="valley" x1="37.5mm" y1="196.14249165439773mm" x2="30.0mm" y2="207.42235485678918mm"/><line class="valley" x1="67.5mm" y1="0mm" x2="67.5mm" y2="189.249146881194mm"/><line class="valley" x1="75.0mm" y1="0mm" x2="75.0mm" y2="189.249146881194mm"/><line class="valley" x1="82.5mm" y1="0mm" x2="82.5mm" y2="189.249146881194mm"/><line class="valley" x1="72.525mm" y1="0mm" x2="82.5mm" y2="15.110659597946217mm"/><line class="valley" x1="82.5mm" y1="15.110659597946217mm" x2="90.0mm" y2="3.749261404001693mm"/><line class="valley" x1="76.875mm" y1="189.249146881194mm" x2="67.5mm" y2="167.74971949523245mm"/><line class="valley" x1="67.5mm" y1="167.74971949523245mm" x2="60.0mm" y2="184.9492614040017mm"/><line class="valley" x1="97.5mm" y1="0mm" x2="97.5mm" y2="189.249146881194mm"/><line class="valley" x1="105.0mm" y1="0mm" x2="105.0mm" y2="189.249146881194mm"/><line class="valley" x1="112.5mm" y1="0mm" x2="112.5mm" y2="189.249146881194mm"/><line class="valley" x1="102.525mm" y1="0mm" x2="112.5mm" y2="15.110659597946217mm"/><line class="valley" x1="112.5mm" y1="15.110659597946217mm" x2="120.0mm" y2="3.749261404001693mm"/><line class="valley" x1="106.875mm" y1="189.249146881194mm" x2="97.5mm" y2="167.74971949523245mm"/><line class="valley" x1="97.5mm" y1="167.74971949523245mm" x2="90.0mm" y2="184.9492614040017mm"/><line class="valley" x1="127.5mm" y1="0mm" x2="127.5mm" y2="146.70740926082618mm"/><line class="valley" x1="135.0mm" y1="0mm" x2="135.0mm" y2="146.70740926082618mm"/><line class="valley" x1="142.5mm" y1="0mm" x2="142.5mm" y2="146.70740926082618mm"/><line class="valley" x1="132.525mm" y1="0mm" x2="142.5mm" y2="15.110659597946217mm"/><line class="valley" x1="142.5mm" y1="15.110659597946217mm" x2="150.0mm" y2="3.749261404001693mm"/><line class="valley" x1="138.75mm" y1="146.70740926082618mm" x2="127.5mm" y2="134.53296569035274mm"/><line class="valley" x1="127.5mm" y1="134.53296569035274mm" x2="120.0mm" y2="142.6492614040017mm"/><line class="valley" x1="157.5mm" y1="0mm" x2="157.5mm" y2="146.70740926082618mm"/><line class="valley" x1="165.0mm" y1="0mm" x2="165.0mm" y2="146.70740926082618mm"/><line class="valley" x1="172.5mm" y1="0mm" x2="172.5mm" y2="146.70740926082618mm"/><line class="valley" x1="162.525mm" y1="0mm" x2="172.5mm" y2="15.110659597946217mm"/><line class="valley" x1="172.5mm" y1="15.110659597946217mm" x2="180.0mm" y2="3.749261404001693mm"/><line class="valley" x1="168.75mm" y1="146.70740926082618mm" x2="157.5mm" y2="134.53296569035274mm"/><line class="valley" x1="157.5mm" y1="134.53296569035274mm" x2="150.0mm" y2="142.6492614040017mm"/><line class="valley" x1="187.5mm" y1="0mm" x2="187.5mm" y2="146.70740926082618mm"/><line class="valley" x1="195.0mm" y1="0mm" x2="195.0mm" y2="146.70740926082618mm"/><line class="valley" x1="202.5mm" y1="0mm" x2="202.5mm" y2="146.70740926082618mm"/><line class="valley" x1="192.525mm" y1="0mm" x2="202.5mm" y2="15.110659597946217mm"/><line class="valley" x1="202.5mm" y1="15.110659597946217mm" x2="210.0mm" y2="3.749261404001693mm"/><line class="valley" x1="198.75mm" y1="146.70740926082618mm" x2="187.5mm" y2="134.53296569035274mm"/><line class="valley" x1="187.5mm" y1="134.53296569035274mm" x2="180.0mm" y2="142.6492614040017mm"/><line class="valley" x1="210.0mm" y1="256.749146881194mm" x2="20.750853118805992mm" y2="256.749146881194mm"/><line class="valley" x1="210.0mm" y1="264.249146881194mm" x2="20.750853118805992mm" y2="264.249146881194mm"/><line class="valley" x1="210.0mm" y1="271.749146881194mm" x2="20.750853118805992mm" y2="271.749146881194mm"/><line class="valley" x1="210.0mm" y1="261.774146881194mm" x2="194.8893404020538mm" y2="271.749146881194mm"/><line class="valley" x1="194.8893404020538mm" y1="271.749146881194mm" x2="206.2507385959983mm" y2="279.249146881194mm"/><line class="valley" x1="20.75085311880599mm" y1="266.124146881194mm" x2="42.250280504767545mm" y2="256.749146881194mm"/><line class="valley" x1="42.250280504767545mm" y1="256.749146881194mm" x2="25.050738595998297mm" y2="249.249146881194mm"/><line class="valley" x1="210.0mm" y1="226.749146881194mm" x2="20.750853118805992mm" y2="226.749146881194mm"/><line class="valley" x1="210.0mm" y1="234.249146881194mm" x2="20.750853118805992mm" y2="234.249146881194mm"/><line class="valley" x1="210.0mm" y1="241.749146881194mm" x2="20.750853118805992mm" y2="241.749146881194mm"/><line class="valley" x1="210.0mm" y1="231.774146881194mm" x2="194.8893404020538mm" y2="241.749146881194mm"/><line class="valley" x1="194.8893404020538mm" y1="241.749146881194mm" x2="206.2507385959983mm" y2="249.249146881194mm"/><line class="valley" x1="20.75085311880599mm" y1="236.124146881194mm" x2="42.250280504767545mm" y2="226.749146881194mm"/><line class="valley" x1="42.250280504767545mm" y1="226.749146881194mm" x2="25.050738595998297mm" y2="219.249146881194mm"/><line class="valley" x1="210.0mm" y1="196.749146881194mm" x2="63.29259073917382mm" y2="196.749146881194mm"/><line class="valley" x1="210.0mm" y1="204.249146881194mm" x2="63.29259073917382mm" y2="204.249146881194mm"/><line class="valley" x1="210.0mm" y1="211.749146881194mm" x2="63.29259073917382mm" y2="211.749146881194mm"/><line class="valley" x1="210.0mm" y1="201.774146881194mm" x2="194.8893404020538mm" y2="211.749146881194mm"/><line class="valley" x1="194.8893404020538mm" y1="211.749146881194mm" x2="206.2507385959983mm" y2="219.249146881194mm"/><line class="valley" x1="63.29259073917382mm" y1="207.999146881194mm" x2="75.46703430964727mm" y2="196.749146881194mm"/><line class="valley" x1="75.46703430964727mm" y1="196.749146881194mm" x2="67.3507385959983mm" y2="189.249146881194mm"/><line class="cut" x1="0mm" y1="0mm" x2="210mm" y2="0mm"/><line class="cut" x1="120mm" y1="146.70740926082618mm" x2="210mm" y2="146.70740926082618mm"/><line class="cut" x1="60mm" y1="189.249146881194mm" x2="210mm" y2="189.249146881194mm"/><line class="cut" x1="0mm" y1="211.14470971357838mm" x2="60mm" y2="211.14470971357838mm"/><line class="cut" x1="20.750853118805992mm" y1="249.249146881194mm" x2="210mm" y2="249.249146881194mm"/><line class="cut" x1="20.750853118805992mm" y1="279.249146881194mm" x2="210mm" y2="279.249146881194mm"/><line class="cut" x1="20.750853118805992mm" y1="219.249146881194mm" x2="210mm" y2="219.249146881194mm"/><line class="cut" x1="0mm" y1="0mm" x2="0mm" y2="211.14470971357838mm"/><line class="cut" x1="30mm" y1="0mm" x2="30mm" y2="211.14470971357838mm"/><line class="cut" x1="60mm" y1="0mm" x2="60mm" y2="211.14470971357838mm"/><line class="cut" x1="90mm" y1="0mm" x2="90mm" y2="189.249146881194mm"/><line class="cut" x1="120mm" y1="0mm" x2="120mm" y2="189.249146881194mm"/><line class="cut" x1="150mm" y1="0mm" x2="150mm" y2="146.70740926082618mm"/><line class="cut" x1="180mm" y1="0mm" x2="180mm" y2="146.70740926082618mm"/><line class="cut" x1="210mm" y1="0mm" x2="210mm" y2="279.249146881194mm"/><line class="cut" x1="20.750853118805992mm" y1="219.249146881194mm" x2="20.750853118805992mm" y2="279.249146881194mm"/><line class="cut" x1="63.29259073917383mm" y1="189.249146881194mm" x2="63.29259073917383mm" y2="219.249146881194mm"/></svg>