<svg xmlns="http://www.w3.org/2000/svg" width="210mm" height="260.21687660865433mm"><style >
.valley {stroke: #00f; stroke-width: 2px; fill:none}
.mountain {stroke: #f00; stroke-width: 2px; fill:none }
.cut {stroke: #000; stroke-width: 3px; fill:none } 
.hint {stroke: #000; stroke-width: 1px; fill:none } 
</style><line class="valley" x1="7.5mm" y1="0mm" x2="7.5mm" y2="181.35338828695393mm"/><line class="valley" x1="15.0mm" y1="0mm" x2="15.0mm" y2="181.35338828695393mm"/><line class="valley" x1="22.5mm" y1="0mm" x2="22.5mm" y2="181.35338828695393mm"/><line class="valley" x1="12.524999999999999mm" y1="0mm" x2="22.5mm" y2="11.795464275225411mm"/><line class="valley" x1="22.5mm" y1="11.795464275225411mm" x2="30.0mm" y2="2.926694143476982mm"/><line class="valley" x1="15.0mm" y1="2.926694143476982mm" x2="7.5mm" y2="17.19998114183116mm"/><line class="valley" x1="7.5mm" y1="17.19998114183116mm" x2="0mm" y2="2.926694143476982mm"/><line class="valley" x1="15.0mm" y1="2.926694143476982mm" x2="7.5mm" y2="8.09287351597862mm"/><line class="valley" x1="7.5mm" y1="8.09287351597862mm" x2="0mm" y2="2.926694143476982mm"/><line class="valley" x1="17.475mm" y1="181.35338828695393mm" x2="7.5mm" y2="169.55792401172852mm"/><line class="valley" x1="7.5mm" y1="169.55792401172852mm" x2="0.0mm" y2="178.42669414347696mm"/><line class="valley" x1="15.0mm" y1="178.42669414347694mm" x2="22.5mm" y2="164.15340714512277mm"/><line class="valley" x1="22.5mm" y1="164.15340714512277mm" x2="30.0mm" y2="178.42669414347694mm"/><line class="valley" x1="15.0mm" y1="178.42669414347694mm" x2="22.5mm" y2="173.2605147709753mm"/><line class="valley" x1="22.5mm" y1="173.2605147709753mm" x2="30.0mm" y2="178.42669414347694mm"/><line class="valley" x1="37.5mm" y1="0mm" x2="37.5mm" y2="181.35338828695393mm"/><line class="valley" x1="45.0mm" y1="0mm" x2="45.0mm" y2="181.35338828695393mm"/><line class="valley" x1="52.5mm" y1="0mm" x2="52.5mm" y2="181.35338828695393mm"/><line class="valley" x1="42.525mm" y1="0mm" x2="52.5mm" y2="11.795464275225411mm"/><line class="valley" x1="52.5mm" y1="11.795464275225411mm" x2="60.0mm" y2="2.926694143476982mm"/><line class="valley" x1="45.0mm" y1="2.926694143476982mm" x2="37.5mm" y2="17.19998114183116mm"/><line class="valley" x1="37.5mm" y1="17.19998114183116mm" x2="30mm" y2="2.926694143476982mm"/><line class="valley" x1="45.0mm" y1="2.926694143476982mm" x2="37.5mm" y2="8.09287351597862mm"/><line class="valley" x1="37.5mm" y1="8.09287351597862mm" x2="30mm" y2="2.926694143476982mm"/><line class="valley" x1="47.475mm" y1="181.35338828695393mm" x2="37.5mm" y2="169.55792401172852mm"/><line class="valley" x1="37.5mm" y1="169.55792401172852mm" x2="30.0mm" y2="178.42669414347696mm"/><line class="valley" x1="45.0mm" y1="178.42669414347694mm" x2="52.5mm" y2="164.15340714512277mm"/><line class="valley" x1="52.5mm" y1="164.15340714512277mm" x2="60.0mm" y2="178.42669414347694mm"/><line class="valley" x1="45.0mm" y1="178.42669414347694mm" x2="52.5mm" y2="173.2605147709753mm"/><line class="valley" x1="52.5mm" y1="173.2605147709753mm" x2="60.0mm" y2="178.42669414347694mm"/><line class="valley" x1="67.5mm" y1="0mm" x2="67.5mm" y2="170.21687660865433mm"/><line class="valley" x1="75.0mm" y1="0mm" x2="75.0mm" y2="170.21687660865433mm"/><line class="valley" x1="82.5mm" y1="0mm" x2="82.5mm" y2="170.21687660865433mm"/><line class="valley" x1="72.525mm" y1="0mm" x2="82.5mm" y2="12.68963018956818mm"/><line class="valley" x1="82.5mm" y1="12.68963018956818mm" x2="90.0mm" y2="3.14855485906579mm"/><line class="valley" x1="75.0mm" y1="3.1485548590657895mm" x2="67.5mm" y2="10.444533480973906mm"/><line class="valley" x1="67.5mm" y1="10.444533480973906mm" x2="60mm" y2="3.1485548590657895mm"/><line class="valley" x1="75.0mm" y1="3.1485548590657895mm" x2="67.5mm" y2="2.941680901157297mm"/><line class="valley" x1="67.5mm" y1="2.941680901157297mm" x2="60mm" y2="3.1485548590657895mm"/><line class="valley" x1="76.875mm" y1="170.21687660865433mm" x2="67.5mm" y2="152.3752678607116mm"/><line class="valley" x1="67.5mm" y1="152.3752678607116mm" x2="60.0mm" y2="166.6485548590658mm"/><line class="valley" x1="75.0mm" y1="166.6485548590658mm" x2="82.5mm" y2="157.1074795285634mm"/><line class="valley" x1="82.5mm" y1="157.1074795285634mm" x2="90.0mm" y2="166.6485548590658mm"/><line class="valley" x1="75.0mm" y1="166.6485548590658mm" x2="82.5mm" y2="164.82579813314808mm"/><line class="valley" x1="82.5mm" y1="164.82579813314808mm" x2="90.0mm" y2="166.6485548590658mm"/><line class="valley" x1="97.5mm" y1="0mm" x2="97.5mm" y2="170.21687660865433mm"/><line class="valley" x1="105.0mm" y1="0mm" x2="105.0mm" y2="170.21687660865433mm"/><line class="valley" x1="112.5mm" y1="0mm" x2="112.5mm" y2="170.21687660865433mm"/><line class="valley" x1="102.525mm" y1="0mm" x2="112.5mm" y2="12.68963018956818mm"/><line class="valley" x1="112.5mm" y1="12.68963018956818mm" x2="120.0mm" y2="3.14855485906579mm"/><line class="valley" x1="105.0mm" y1="3.1485548590657895mm" x2="97.5mm" y2="10.444533480973906mm"/><line class="valley" x1="97.5mm" y1="10.444533480973906mm" x2="90mm" y2="3.1485548590657895mm"/><line class="valley" x1="105.0mm" y1="3.1485548590657895mm" x2="97.5mm" y2="2.941680901157297mm"/><line class="valley" x1="97.5mm" y1="2.941680901157297mm" x2="90mm" y2="3.1485548590657895mm"/><line class="valley" x1="106.875mm" y1="170.21687660865433mm" x2="97.5mm" y2="152.3752678607116mm"/><line class="valley" x1="97.5mm" y1="152.3752678607116mm" x2="90.0mm" y2="166.6485548590658mm"/><line class="valley" x1="105.0mm" y1="166.6485548590658mm" x2="112.5mm" y2="157.1074795285634mm"/><line class="valley" x1="112.5mm" y1="157.1074795285634mm" x2="120.0mm" y2="166.6485548590658mm"/><line class="valley" x1="105.0mm" y1="166.6485548590658mm" x2="112.5mm" y2="164.82579813314808mm"/><line class="valley" x1="112.5mm" y1="164.82579813314808mm" x2="120.0mm" y2="166.6485548590658mm"/><line class="valley" x1="127.5mm" y1="0mm" x2="127.5mm" y2="129.49654417001983mm"/><line class="valley" x1="135.0mm" y1="0mm" x2="135.0mm" y2="129.49654417001983mm"/><line class="valley" x1="142.5mm" y1="0mm" x2="142.5mm" y2="129.49654417001983mm"/><line class="valley" x1="132.525mm" y1="0mm" x2="142.5mm" y2="12.68963018956818mm"/><line class="valley" x1="142.5mm" y1="12.68963018956818mm" x2="150.0mm" y2="3.14855485906579mm"/><line class="valley" x1="135.0mm" y1="3.1485548590657895mm" x2="127.5mm" y2="12.017324990814219mm"/><line class="valley" x1="127.5mm" y1="12.017324990814219mm" x2="120mm" y2="3.1485548590657895mm"/><line class="valley" x1="135.0mm" y1="3.1485548590657895mm" x2="127.5mm" y2="4.411699766248991mm"/><line class="valley" x1="127.5mm" y1="4.411699766248991mm" x2="120mm" y2="3.1485548590657895mm"/><line class="valley" x1="138.75mm" y1="129.49654417001983mm" x2="127.5mm" y2="118.55257623715767mm"/><line class="valley" x1="127.5mm" y1="118.55257623715767mm" x2="120.0mm" y2="125.84855485906577mm"/><line class="valley" x1="135.0mm" y1="125.84855485906577mm" x2="142.5mm" y2="116.30747952856339mm"/><line class="valley" x1="142.5mm" y1="116.30747952856339mm" x2="150.0mm" y2="125.84855485906577mm"/><line class="valley" x1="135.0mm" y1="125.84855485906577mm" x2="142.5mm" y2="124.02579813314807mm"/><line class="valley" x1="142.5mm" y1="124.02579813314807mm" x2="150.0mm" y2="125.84855485906577mm"/><line class="valley" x1="157.5mm" y1="0mm" x2="157.5mm" y2="129.49654417001983mm"/><line class="valley" x1="165.0mm" y1="0mm" x2="165.0mm" y2="129.49654417001983mm"/><line class="valley" x1="172.5mm" y1="0mm" x2="172.5mm" y2="129.49654417001983mm"/><line class="valley" x1="162.525mm" y1="0mm" x2="172.5mm" y2="12.68963018956818mm"/><line class="valley" x1="172.5mm" y1="12.68963018956818mm" x2="180.0mm" y2="3.14855485906579mm"/><line class="valley" x1="165.0mm" y1="3.1485548590657895mm" x2="157.5mm" y2="12.017324990814219mm"/><line class="valley" x1="157.5mm" y1="12.017324990814219mm" x2="150mm" y2="3.1485548590657895mm"/><line class="valley" x1="165.0mm" y1="3.1485548590657895mm" x2="157.5mm" y2="4.411699766248991mm"/><line class="valley" x1="157.5mm" y1="4.411699766248991mm" x2="150mm" y2="3.1485548590657895mm"/><line class="valley" x1="168.75mm" y1="129.49654417001983mm" x2="157.5mm" y2="118.55257623715767mm"/><line class="valley" x1="157.5mm" y1="118.55257623715767mm" x2="150.0mm" y2="125.84855485906577mm"/><line class="valley" x1="165.0mm" y1="125.84855485906577mm" x2="172.5mm" y2="116.30747952856339mm"/><line class="valley" x1="172.5mm" y1="116.30747952856339mm" x2="180.0mm" y2="125.84855485906577mm"/><line class="valley" x1="165.0mm" y1="125.84855485906577mm" x2="172.5mm" y2="124.02579813314807mm"/><line class="valley" x1="172.5mm" y1="124.02579813314807mm" x2="180.0mm" y2="125.84855485906577mm"/><line class="valley" x1="187.5mm" y1="0mm" x2="187.5mm" y2="129.49654417001983mm"/><line class="valley" x1="195.0mm" y1="0mm" x2="195.0mm" y2="129.49654417001983mm"/><line class="valley" x1="202.5mm" y1="0mm" x2="202.5mm" y2="129.49654417001983mm"/><line class="valley" x1="192.525mm" y1="0mm" x2="202.5mm" y2="12.68963018956818mm"/><line class="valley" x1="202.5mm" y1="12.68963018956818mm" x2="210.0mm" y2="3.14855485906579mm"/><line class="valley" x1="195.0mm" y1="3.1485548590657895mm" x2="187.5mm" y2="12.017324990814219mm"/><line class="valley" x1="187.5mm" y1="12.017324990814219mm" x2="180mm" y2="3.1485548590657895mm"/><line class="valley" x1="195.0mm" y1="3.1485548590657895mm" x2="187.5mm" y2="4.411699766248991mm"/><line class="valley" x1="187.5mm" y1="4.411699766248991mm" x2="180mm" y2="3.1485548590657895mm"/><line class="valley" x1="198.75mm" y1="129.49654417001983mm" x2="187.5mm" y2="118.55257623715767mm"/><line class="valley" x1="187.5mm" y1="118.55257623715767mm" x2="180.0mm" y2="125.84855485906577mm"/><line class="valley" x1="195.0mm" y1="125.84855485906577mm" x2="202.5mm" y2="116.30747952856339mm"/><line class="valley" x1="202.5mm" y1="116.30747952856339mm" x2="210.0mm" y2="125.84855485906577mm"/><line class="valley" x1="195.0mm" y1="125.84855485906577mm" x2="202.5mm" y2="124.02579813314807mm"/><line class="valley" x1="202.5mm" y1="124.02579813314807mm" x2="210.0mm" y2="125.84855485906577mm"/><line class="valley" x1="210.0mm" y1="237.71687660865433mm" x2="39.78312339134567mm" y2="237.71687660865433mm"/><line class="valley" x1="210.0mm" y1="245.21687660865433mm" x2="39.78312339134567mm" y2="245.21687660865433mm"/><line class="valley" x1="210.0mm" y1="252.71687660865433mm" x2="39.78312339134567mm" y2="252.71687660865433mm"/><line class="valley" x1="210.0mm" y1="242.74187660865434mm" x2="197.31036981043184mm" y2="252.71687660865433mm"/><line class="valley" x1="197.31036981043184mm" y1="252.71687660865433mm" x2="206.8514451409342mm" y2="260.21687660865433mm"/><line class="valley" x1="206.8514451409342mm" y1="245.21687660865433mm" x2="199.55546651902608mm" y2="237.71687660865433mm"/><line class="valley" x1="199.55546651902608mm" y1="237.71687660865433mm" x2="206.8514451409342mm" y2="230.21687660865433mm"/><line class="valley" x1="206.8514451409342mm" y1="245.21687660865433mm" x2="207.0583190988427mm" y2="237.71687660865433mm"/><line class="valley" x1="207.0583190988427mm" y1="237.71687660865433mm" x2="206.8514451409342mm" y2="230.21687660865433mm"/><line class="valley" x1="39.78312339134567mm" y1="247.09187660865433mm" x2="57.62473213928839mm" y2="237.71687660865433mm"/><line class="valley" x1="57.62473213928839mm" y1="237.71687660865433mm" x2="43.35144514093421mm" y2="230.21687660865433mm"/><line class="valley" x1="43.35144514093421mm" y1="245.21687660865433mm" x2="52.8925204714366mm" y2="252.71687660865433mm"/><line class="valley" x1="52.8925204714366mm" y1="252.71687660865433mm" x2="43.35144514093421mm" y2="260.21687660865433mm"/><line class="valley" x1="43.35144514093421mm" y1="245.21687660865433mm" x2="45.17420186685191mm" y2="252.71687660865433mm"/><line class="valley" x1="45.17420186685191mm" y1="252.71687660865433mm" x2="43.35144514093421mm" y2="260.21687660865433mm"/><line class="valley" x1="210.0mm" y1="207.71687660865433mm" x2="39.78312339134567mm" y2="207.71687660865433mm"/><line class="valley" x1="210.0mm" y1="215.21687660865433mm" x2="39.78312339134567mm" y2="215.21687660865433mm"/><line class="valley" x1="210.0mm" y1="222.71687660865433mm" x2="39.78312339134567mm" y2="222.71687660865433mm"/><line class="valley" x1="210.0mm" y1="212.74187660865434mm" x2="197.31036981043184mm" y2="222.71687660865433mm"/><line class="valley" x1="197.31036981043184mm" y1="222.71687660865433mm" x2="206.8514451409342mm" y2="230.21687660865433mm"/><line class="valley" x1="206.8514451409342mm" y1="215.21687660865433mm" x2="199.55546651902608mm" y2="207.71687660865433mm"/><line class="valley" x1="199.55546651902608mm" y1="207.71687660865433mm" x2="206.8514451409342mm" y2="200.21687660865433mm"/><line class="valley" x1="206.8514451409342mm" y1="215.21687660865433mm" x2="207.0583190988427mm" y2="207.71687660865433mm"/><line class="valley" x1="207.0583190988427mm" y1="207.71687660865433mm" x2="206.8514451409342mm" y2="200.21687660865433mm"/><line class="valley" x1="39.78312339134567mm" y1="217.09187660865433mm" x2="57.62473213928839mm" y2="207.71687660865433mm"/><line class="valley" x1="57.62473213928839mm" y1="207.71687660865433mm" x2="43.35144514093421mm" y2="200.21687660865433mm"/><line class="valley" x1="43.35144514093421mm" y1="215.21687660865433mm" x2="52.8925204714366mm" y2="222.71687660865433mm"/><line class="valley" x1="52.8925204714366mm" y1="222.71687660865433mm" x2="43.35144514093421mm" y2="230.21687660865433mm"/><line class="valley" x1="43.35144514093421mm" y1="215.21687660865433mm" x2="45.17420186685191mm" y2="222.71687660865433mm"/><line class="valley" x1="45.17420186685191mm" y1="222.71687660865433mm" x2="43.35144514093421mm" y2="230.21687660865433mm"/><line class="valley" x1="210.0mm" y1="177.71687660865433mm" x2="80.50345582998017mm" y2="177.71687660865433mm"/><line class="valley" x1="210.0mm" y1="185.21687660865433mm" x2="80.50345582998017mm" y2="185.21687660865433mm"/><line class="valley" x1="210.0mm" y1="192.71687660865433mm" x2="80.50345582998017mm" y2="192.71687660865433mm"/><line class="valley" x1="210.0mm" y1="182.74187660865434mm" x2="197.31036981043184mm" y2="192.71687660865433mm"/><line class="valley" x1="197.31036981043184mm" y1="192.71687660865433mm" x2="206.8514451409342mm" y2="200.21687660865433mm"/><line class="valley" x1="206.8514451409342mm" y1="185.21687660865433mm" x2="197.98267500918578mm" y2="177.71687660865433mm"/><line class="valley" x1="197.98267500918578mm" y1="177.71687660865433mm" x2="206.8514451409342mm" y2="170.21687660865433mm"/><line class="valley" x1="206.8514451409342mm" y1="185.21687660865433mm" x2="205.588300233751mm" y2="177.71687660865433mm"/><line class="valley" x1="205.588300233751mm" y1="177.71687660865433mm" x2="206.8514451409342mm" y2="170.21687660865433mm"/><line class="valley" x1="80.50345582998017mm" y1="188.96687660865433mm" x2="91.44742376284233mm" y2="177.71687660865433mm"/><line class="valley" x1="91.44742376284233mm" y1="177.71687660865433mm" x2="84.15144514093421mm" y2="170.21687660865433mm"/><line class="valley" x1="84.15144514093423mm" y1="185.21687660865433mm" x2="93.69252047143661mm" y2="192.71687660865433mm"/><line class="valley" x1="93.69252047143661mm" y1="192.71687660865433mm" x2="84.15144514093423mm" y2="200.21687660865433mm"/><line class="valley" x1="84.15144514093423mm" y1="185.21687660865433mm" x2="85.97420186685193mm" y2="192.71687660865433mm"/><line class="valley" x1="85.97420186685193mm" y1="192.71687660865433mm" x2="84.15144514093423mm" y2="200.21687660865433mm"/><line class="cut" x1="0mm" y1="0mm" x2="210mm" y2="0mm"/><line class="cut" x1="120mm" y1="129.49654417001983mm" x2="210mm" y2="129.49654417001983mm"/><line class="cut" x1="60mm" y1="170.21687660865433mm" x2="120mm" y2="170.21687660865433mm"/><line class="cut" x1="0mm" y1="181.35338828695393mm" x2="60mm" y2="181.35338828695393mm"/><line class="cut" x1="39.783123391345654mm" y1="230.21687660865433mm" x2="210mm" y2="230.21687660865433mm"/><line class="cut" x1="39.783123391345654mm" y1="260.21687660865433mm" x2="210mm" y2="260.21687660865433mm"/><line class="cut" x1="39.783123391345654mm" y1="200.21687660865433mm" x2="210mm" y2="200.21687660865433mm"/><line class="cut" x1="80.50345582998017mm" y1="170.21687660865433mm" x2="210mm" y2="170.21687660865433mm"/><line class="cut" x1="0mm" y1="0mm" x2="0mm" y2="181.35338828695393mm"/><line class="cut" x1="30mm" y1="0mm" x2="30mm" y2="181.35338828695393mm"/><line class="cut" x1="60mm" y1="0mm" x2="60mm" y2="181.35338828695393mm"/><line class="cut" x1="90mm" y1="0mm" x2="90mm" y2="170.21687660865433mm"/><line class="cut" x1="120mm" y1="0mm" x2="120mm" y2="170.21687660865433mm"/><line class="cut" x1="150mm" y1="0mm" x2="150mm" y2="129.49654417001983mm"/><line class="cut" x1="180mm" y1="0mm" x2="180mm" y2="129.49654417001983mm"/><line class="cut" x1="210mm" y1="0mm" x2="210mm" y2="260.21687660865433mm"/><line class="cut" x1="39.783123391345654mm" y1="200.21687660865433mm" x2="39.783123391345654mm" y2="260.21687660865433mm"/><line class="cut" x1="80.50345582998017mm" y1="170.21687660865433mm" x2="80.50345582998017mm" y2="200.21687660865433mm"/></svg>