<svg xmlns="http://www.w3.org/2000/svg" width="297.0mm" height="297.0mm"><style >
.valley {stroke: #00f; stroke-width: 2px; fill:none}
.mountain {stroke: #f00; stroke-width: 2px; fill:none }
.cut {stroke: #000; stroke-width: 3px; fill:none } 
.hint {stroke: #000; stroke-width: 1px; fill:none } 
</style><line class="valley" x1="7.25mm" y1="0mm" x2="7.25mm" y2="52.57442908605799mm"/><line class="valley" x1="14.5mm" y1="0mm" x2="14.5mm" y2="52.57442908605799mm"/><line class="valley" x1="21.75mm" y1="0mm" x2="21.75mm" y2="52.57442908605799mm"/><line class="valley" x1="7.25mm" y1="0mm" x2="21.75mm" y2="9.887521447007547mm"/><line class="valley" x1="21.75mm" y1="9.887521447007547mm" x2="29.0mm" y2="4.9437607235037735mm"/><line class="valley" x1="14.5mm" y1="4.9437607235037735mm" x2="7.25mm" y2="9.099236329648898mm"/><line class="valley" x1="7.25mm" y1="9.099236329648898mm" x2="0mm" y2="4.9437607235037735mm"/><line class="valley" x1="14.5mm" y1="4.9437607235037735mm" x2="7.25mm" y2="0.6970118754851242mm"/><line class="valley" x1="7.25mm" y1="0.6970118754851242mm" x2="0mm" y2="4.9437607235037735mm"/><line class="valley" x1="21.75mm" y1="52.57442908605799mm" x2="7.25mm" y2="41.993092360949554mm"/><line class="valley" x1="7.25mm" y1="41.993092360949554mm" x2="0.0mm" y2="47.283760723503775mm"/><line class="valley" x1="14.5mm" y1="47.283760723503775mm" x2="21.75mm" y2="42.339999999999996mm"/><line class="valley" x1="21.75mm" y1="42.339999999999996mm" x2="29.0mm" y2="47.283760723503775mm"/><line class="valley" x1="14.5mm" y1="47.283760723503775mm" x2="21.75mm" y2="50.12792445649395mm"/><line class="valley" x1="21.75mm" y1="50.12792445649395mm" x2="29.0mm" y2="47.283760723503775mm"/><line class="valley" x1="36.25mm" y1="0mm" x2="36.25mm" y2="52.57442908605799mm"/><line class="valley" x1="43.5mm" y1="0mm" x2="43.5mm" y2="52.57442908605799mm"/><line class="valley" x1="50.75mm" y1="0mm" x2="50.75mm" y2="52.57442908605799mm"/><line class="valley" x1="36.25mm" y1="0mm" x2="50.75mm" y2="9.887521447007547mm"/><line class="valley" x1="50.75mm" y1="9.887521447007547mm" x2="58.0mm" y2="4.9437607235037735mm"/><line class="valley" x1="43.5mm" y1="4.9437607235037735mm" x2="36.25mm" y2="9.099236329648898mm"/><line class="valley" x1="36.25mm" y1="9.099236329648898mm" x2="29mm" y2="4.9437607235037735mm"/><line class="valley" x1="43.5mm" y1="4.9437607235037735mm" x2="36.25mm" y2="0.6970118754851242mm"/><line class="valley" x1="36.25mm" y1="0.6970118754851242mm" x2="29mm" y2="4.9437607235037735mm"/><line class="valley" x1="50.75mm" y1="52.57442908605799mm" x2="36.25mm" y2="41.993092360949554mm"/><line class="valley" x1="36.25mm" y1="41.993092360949554mm" x2="29.0mm" y2="47.283760723503775mm"/><line class="valley" x1="43.5mm" y1="47.283760723503775mm" x2="50.75mm" y2="42.339999999999996mm"/><line class="valley" x1="50.75mm" y1="42.339999999999996mm" x2="58.0mm" y2="47.283760723503775mm"/><line class="valley" x1="43.5mm" y1="47.283760723503775mm" x2="50.75mm" y2="50.12792445649395mm"/><line class="valley" x1="50.75mm" y1="50.12792445649395mm" x2="58.0mm" y2="47.283760723503775mm"/><line class="valley" x1="65.25mm" y1="0mm" x2="65.25mm" y2="52.57442908605799mm"/><line class="valley" x1="72.5mm" y1="0mm" x2="72.5mm" y2="52.57442908605799mm"/><line class="valley" x1="79.75mm" y1="0mm" x2="79.75mm" y2="52.57442908605799mm"/><line class="valley" x1="65.25mm" y1="0mm" x2="79.75mm" y2="9.887521447007547mm"/><line class="valley" x1="79.75mm" y1="9.887521447007547mm" x2="87.0mm" y2="4.9437607235037735mm"/><line class="valley" x1="72.5mm" y1="4.9437607235037735mm" x2="65.25mm" y2="9.099236329648898mm"/><line class="valley" x1="65.25mm" y1="9.099236329648898mm" x2="58mm" y2="4.9437607235037735mm"/><line class="valley" x1="72.5mm" y1="4.9437607235037735mm" x2="65.25mm" y2="0.6970118754851242mm"/><line class="valley" x1="65.25mm" y1="0.6970118754851242mm" x2="58mm" y2="4.9437607235037735mm"/><line class="valley" x1="79.75mm" y1="52.57442908605799mm" x2="65.25mm" y2="41.993092360949554mm"/><line class="valley" x1="65.25mm" y1="41.993092360949554mm" x2="58.0mm" y2="47.283760723503775mm"/><line class="valley" x1="72.5mm" y1="47.283760723503775mm" x2="79.75mm" y2="42.339999999999996mm"/><line class="valley" x1="79.75mm" y1="42.339999999999996mm" x2="87.0mm" y2="47.283760723503775mm"/><line class="valley" x1="72.5mm" y1="47.283760723503775mm" x2="79.75mm" y2="50.12792445649395mm"/><line class="valley" x1="79.75mm" y1="50.12792445649395mm" x2="87.0mm" y2="47.283760723503775mm"/><line class="valley" x1="94.25mm" y1="0mm" x2="94.25mm" y2="52.57442908605799mm"/><line class="valley" x1="101.5mm" y1="0mm" x2="101.5mm" y2="52.57442908605799mm"/><line class="valley" x1="108.75mm" y1="0mm" x2="108.75mm" y2="52.57442908605799mm"/><line class="valley" x1="94.25mm" y1="0mm" x2="108.75mm" y2="9.887521447007547mm"/><line class="valley" x1="108.75mm" y1="9.887521447007547mm" x2="116.0mm" y2="4.9437607235037735mm"/><line class="valley" x1="101.5mm" y1="4.9437607235037735mm" x2="94.25mm" y2="9.099236329648898mm"/><line class="valley" x1="94.25mm" y1="9.099236329648898mm" x2="87mm" y2="4.9437607235037735mm"/><line class="valley" x1="101.5mm" y1="4.9437607235037735mm" x2="94.25mm" y2="0.6970118754851242mm"/><line class="valley" x1="94.25mm" y1="0.6970118754851242mm" x2="87mm" y2="4.9437607235037735mm"/><line class="valley" x1="108.75mm" y1="52.57442908605799mm" x2="94.25mm" y2="41.993092360949554mm"/><line class="valley" x1="94.25mm" y1="41.993092360949554mm" x2="87.0mm" y2="47.283760723503775mm"/><line class="valley" x1="101.5mm" y1="47.283760723503775mm" x2="108.75mm" y2="42.339999999999996mm"/><line class="valley" x1="108.75mm" y1="42.339999999999996mm" x2="116.0mm" y2="47.283760723503775mm"/><line class="valley" x1="101.5mm" y1="47.283760723503775mm" x2="108.75mm" y2="50.12792445649395mm"/><line class="valley" x1="108.75mm" y1="50.12792445649395mm" x2="116.0mm" y2="47.283760723503775mm"/><line class="valley" x1="123.25mm" y1="0mm" x2="123.25mm" y2="52.57442908605799mm"/><line class="valley" x1="130.5mm" y1="0mm" x2="130.5mm" y2="52.57442908605799mm"/><line class="valley" x1="137.75mm" y1="0mm" x2="137.75mm" y2="52.57442908605799mm"/><line class="valley" x1="123.25mm" y1="0mm" x2="137.75mm" y2="9.887521447007547mm"/><line class="valley" x1="137.75mm" y1="9.887521447007547mm" x2="145.0mm" y2="4.9437607235037735mm"/><line class="valley" x1="130.5mm" y1="4.9437607235037735mm" x2="123.25mm" y2="9.099236329648898mm"/><line class="valley" x1="123.25mm" y1="9.099236329648898mm" x2="116mm" y2="4.9437607235037735mm"/><line class="valley" x1="130.5mm" y1="4.9437607235037735mm" x2="123.25mm" y2="0.6970118754851242mm"/><line class="valley" x1="123.25mm" y1="0.6970118754851242mm" x2="116mm" y2="4.9437607235037735mm"/><line class="valley" x1="137.75mm" y1="52.57442908605799mm" x2="123.25mm" y2="41.993092360949554mm"/><line class="valley" x1="123.25mm" y1="41.993092360949554mm" x2="116.0mm" y2="47.283760723503775mm"/><line class="valley" x1="130.5mm" y1="47.283760723503775mm" x2="137.75mm" y2="42.339999999999996mm"/><line class="valley" x1="137.75mm" y1="42.339999999999996mm" x2="145.0mm" y2="47.283760723503775mm"/><line class="valley" x1="130.5mm" y1="47.283760723503775mm" x2="137.75mm" y2="50.12792445649395mm"/><line class="valley" x1="137.75mm" y1="50.12792445649395mm" x2="145.0mm" y2="47.283760723503775mm"/><line class="valley" x1="152.25mm" y1="0mm" x2="152.25mm" y2="52.57442908605799mm"/><line class="valley" x1="159.5mm" y1="0mm" x2="159.5mm" y2="52.57442908605799mm"/><line class="valley" x1="166.75mm" y1="0mm" x2="166.75mm" y2="52.57442908605799mm"/><line class="valley" x1="152.25mm" y1="0mm" x2="166.75mm" y2="9.887521447007547mm"/><line class="valley" x1="166.75mm" y1="9.887521447007547mm" x2="174.0mm" y2="4.9437607235037735mm"/><line class="valley" x1="159.5mm" y1="4.9437607235037735mm" x2="152.25mm" y2="9.099236329648898mm"/><line class="valley" x1="152.25mm" y1="9.099236329648898mm" x2="145mm" y2="4.9437607235037735mm"/><line class="valley" x1="159.5mm" y1="4.9437607235037735mm" x2="152.25mm" y2="0.6970118754851242mm"/><line class="valley" x1="152.25mm" y1="0.6970118754851242mm" x2="145mm" y2="4.9437607235037735mm"/><line class="valley" x1="166.75mm" y1="52.57442908605799mm" x2="152.25mm" y2="41.993092360949554mm"/><line class="valley" x1="152.25mm" y1="41.993092360949554mm" x2="145.0mm" y2="47.283760723503775mm"/><line class="valley" x1="159.5mm" y1="47.283760723503775mm" x2="166.75mm" y2="42.339999999999996mm"/><line class="valley" x1="166.75mm" y1="42.339999999999996mm" x2="174.0mm" y2="47.283760723503775mm"/><line class="valley" x1="159.5mm" y1="47.283760723503775mm" x2="166.75mm" y2="50.12792445649395mm"/><line class="valley" x1="166.75mm" y1="50.12792445649395mm" x2="174.0mm" y2="47.283760723503775mm"/><line class="valley" x1="181.25mm" y1="0mm" x2="181.25mm" y2="52.57442908605799mm"/><line class="valley" x1="188.5mm" y1="0mm" x2="188.5mm" y2="52.57442908605799mm"/><line class="valley" x1="195.75mm" y1="0mm" x2="195.75mm" y2="52.57442908605799mm"/><line class="valley" x1="181.25mm" y1="0mm" x2="195.75mm" y2="9.887521447007547mm"/><line class="valley" x1="195.75mm" y1="9.887521447007547mm" x2="203.0mm" y2="4.9437607235037735mm"/><line class="valley" x1="188.5mm" y1="4.9437607235037735mm" x2="181.25mm" y2="9.099236329648898mm"/><line class="valley" x1="181.25mm" y1="9.099236329648898mm" x2="174mm" y2="4.9437607235037735mm"/><line class="valley" x1="188.5mm" y1="4.9437607235037735mm" x2="181.25mm" y2="0.6970118754851242mm"/><line class="valley" x1="181.25mm" y1="0.6970118754851242mm" x2="174mm" y2="4.9437607235037735mm"/><line class="valley" x1="195.75mm" y1="52.57442908605799mm" x2="181.25mm" y2="41.993092360949554mm"/><line class="valley" x1="181.25mm" y1="41.993092360949554mm" x2="174.0mm" y2="47.283760723503775mm"/><line class="valley" x1="188.5mm" y1="47.283760723503775mm" x2="195.75mm" y2="42.339999999999996mm"/><line class="valley" x1="195.75mm" y1="42.339999999999996mm" x2="203.0mm" y2="47.283760723503775mm"/><line class="valley" x1="188.5mm" y1="47.283760723503775mm" x2="195.75mm" y2="50.12792445649395mm"/><line class="valley" x1="195.75mm" y1="50.12792445649395mm" x2="203.0mm" y2="47.283760723503775mm"/><line class="valley" x1="210.25mm" y1="0mm" x2="210.25mm" y2="52.57442908605799mm"/><line class="valley" x1="217.5mm" y1="0mm" x2="217.5mm" y2="52.57442908605799mm"/><line class="valley" x1="224.75mm" y1="0mm" x2="224.75mm" y2="52.57442908605799mm"/><line class="valley" x1="210.25mm" y1="0mm" x2="224.75mm" y2="9.887521447007547mm"/><line class="valley" x1="224.75mm" y1="9.887521447007547mm" x2="232.0mm" y2="4.9437607235037735mm"/><line class="valley" x1="217.5mm" y1="4.9437607235037735mm" x2="210.25mm" y2="9.099236329648898mm"/><line class="valley" x1="210.25mm" y1="9.099236329648898mm" x2="203mm" y2="4.9437607235037735mm"/><line class="valley" x1="217.5mm" y1="4.9437607235037735mm" x2="210.25mm" y2="0.6970118754851242mm"/><line class="valley" x1="210.25mm" y1="0.6970118754851242mm" x2="203mm" y2="4.9437607235037735mm"/><line class="valley" x1="224.75mm" y1="52.57442908605799mm" x2="210.25mm" y2="41.993092360949554mm"/><line class="valley" x1="210.25mm" y1="41.993092360949554mm" x2="203.0mm" y2="47.283760723503775mm"/><line class="valley" x1="217.5mm" y1="47.283760723503775mm" x2="224.75mm" y2="42.339999999999996mm"/><line class="valley" x1="224.75mm" y1="42.339999999999996mm" x2="232.0mm" y2="47.283760723503775mm"/><line class="valley" x1="217.5mm" y1="47.283760723503775mm" x2="224.75mm" y2="50.12792445649395mm"/><line class="valley" x1="224.75mm" y1="50.12792445649395mm" x2="232.0mm" y2="47.283760723503775mm"/><line class="valley" x1="239.25mm" y1="0mm" x2="239.25mm" y2="52.57442908605799mm"/><line class="valley" x1="246.5mm" y1="0mm" x2="246.5mm" y2="52.57442908605799mm"/><line class="valley" x1="253.75mm" y1="0mm" x2="253.75mm" y2="52.57442908605799mm"/><line class="valley" x1="239.25mm" y1="0mm" x2="253.75mm" y2="9.887521447007547mm"/><line class="valley" x1="253.75mm" y1="9.887521447007547mm" x2="261.0mm" y2="4.9437607235037735mm"/><line class="valley" x1="246.5mm" y1="4.9437607235037735mm" x2="239.25mm" y2="9.099236329648898mm"/><line class="valley" x1="239.25mm" y1="9.099236329648898mm" x2="232mm" y2="4.9437607235037735mm"/><line class="valley" x1="246.5mm" y1="4.9437607235037735mm" x2="239.25mm" y2="0.6970118754851242mm"/><line class="valley" x1="239.25mm" y1="0.6970118754851242mm" x2="232mm" y2="4.9437607235037735mm"/><line class="valley" x1="253.75mm" y1="52.57442908605799mm" x2="239.25mm" y2="41.993092360949554mm"/><line class="valley" x1="239.25mm" y1="41.993092360949554mm" x2="232.0mm" y2="47.283760723503775mm"/><line class="valley" x1="246.5mm" y1="47.283760723503775mm" x2="253.75mm" y2="42.339999999999996mm"/><line class="valley" x1="253.75mm" y1="42.339999999999996mm" x2="261.0mm" y2="47.283760723503775mm"/><line class="valley" x1="246.5mm" y1="47.283760723503775mm" x2="253.75mm" y2="50.12792445649395mm"/><line class="valley" x1="253.75mm" y1="50.12792445649395mm" x2="261.0mm" y2="47.283760723503775mm"/><line class="valley" x1="268.25mm" y1="0mm" x2="268.25mm" y2="52.57442908605799mm"/><line class="valley" x1="275.5mm" y1="0mm" x2="275.5mm" y2="52.57442908605799mm"/><line class="valley" x1="282.75mm" y1="0mm" x2="282.75mm" y2="52.57442908605799mm"/><line class="valley" x1="268.25mm" y1="0mm" x2="282.75mm" y2="9.887521447007547mm"/><line class="valley" x1="282.75mm" y1="9.887521447007547mm" x2="290.0mm" y2="4.9437607235037735mm"/><line class="valley" x1="275.5mm" y1="4.9437607235037735mm" x2="268.25mm" y2="9.099236329648898mm"/><line class="valley" x1="268.25mm" y1="9.099236329648898mm" x2="261mm" y2="4.9437607235037735mm"/><line class="valley" x1="275.5mm" y1="4.9437607235037735mm" x2="268.25mm" y2="0.6970118754851242mm"/><line class="valley" x1="268.25mm" y1="0.6970118754851242mm" x2="261mm" y2="4.9437607235037735mm"/><line class="valley" x1="282.75mm" y1="52.57442908605799mm" x2="268.25mm" y2="41.993092360949554mm"/><line class="valley" x1="268.25mm" y1="41.993092360949554mm" x2="261.0mm" y2="47.283760723503775mm"/><line class="valley" x1="275.5mm" y1="47.283760723503775mm" x2="282.75mm" y2="42.339999999999996mm"/><line class="valley" x1="282.75mm" y1="42.339999999999996mm" x2="290.0mm" y2="47.283760723503775mm"/><line class="valley" x1="275.5mm" y1="47.283760723503775mm" x2="282.75mm" y2="50.12792445649395mm"/><line class="valley" x1="282.75mm" y1="50.12792445649395mm" x2="290.0mm" y2="47.283760723503775mm"/><line class="cut" x1="0mm" y1="0mm" x2="290mm" y2="0mm"/><line class="cut" x1="0mm" y1="52.57442908605799mm" x2="290mm" y2="52.57442908605799mm"/><line class="cut" x1="0mm" y1="0mm" x2="0mm" y2="52.57442908605799mm"/><line class="cut" x1="29mm" y1="0mm" x2="29mm" y2="52.57442908605799mm"/><line class="cut" x1="58mm" y1="0mm" x2="58mm" y2="52.57442908605799mm"/><line class="cut" x1="87mm" y1="0mm" x2="87mm" y2="52.57442908605799mm"/><line class="cut" x1="116mm" y1="0mm" x2="116mm" y2="52.57442908605799mm"/><line class="cut" x1="145mm" y1="0mm" x2="145mm" y2="52.57442908605799mm"/><line class="cut" x1="174mm" y1="0mm" x2="174mm" y2="52.57442908605799mm"/><line class="cut" x1="203mm" y1="0mm" x2="203mm" y2="52.57442908605799mm"/><line class="cut" x1="232mm" y1="0mm" x2="232mm" y2="52.57442908605799mm"/><line class="cut" x1="261mm" y1="0mm" x2="261mm" y2="52.57442908605799mm"/><line class="cut" x1="290mm" y1="0mm" x2="290mm" y2="52.57442908605799mm"/></svg>