<svg xmlns="http://www.w3.org/2000/svg" width="297.0mm" height="210.0mm"><style >
.valley {stroke: #00f; stroke-width: 2px; fill:none}
.mountain {stroke: #f00; stroke-width: 2px; fill:none }
.cut {stroke: #000; stroke-width: 3px; fill:none } 
.hint {stroke: #000; stroke-width: 1px; fill:none } 
</style><line class="valley" x1="7.25mm" y1="0mm" x2="7.25mm" y2="63.9864998906027mm"/><line class="valley" x1="14.5mm" y1="0mm" x2="14.5mm" y2="63.9864998906027mm"/><line class="valley" x1="21.75mm" y1="0mm" x2="21.75mm" y2="63.9864998906027mm"/><line class="valley" x1="7.25mm" y1="0mm" x2="21.75mm" y2="8.310951212290249mm"/><line class="valley" x1="21.75mm" y1="8.310951212290249mm" x2="29.0mm" y2="4.155475606145124mm"/><line class="valley" x1="14.5mm" y1="4.155475606145124mm" x2="7.25mm" y2="9.446143968699342mm"/><line class="valley" x1="7.25mm" y1="9.446143968699342mm" x2="0mm" y2="4.155475606145124mm"/><line class="valley" x1="14.5mm" y1="4.155475606145124mm" x2="7.25mm" y2="1.833337211365322mm"/><line class="valley" x1="7.25mm" y1="1.833337211365322mm" x2="0mm" y2="4.155475606145124mm"/><line class="valley" x1="19.33285mm" y1="63.9864998906027mm" x2="7.25mm" y2="52.158229454843635mm"/><line class="valley" x1="7.25mm" y1="52.158229454843635mm" x2="0.0mm" y2="59.25547560614513mm"/><line class="valley" x1="14.5mm" y1="59.255475606145126mm" x2="21.75mm" y2="54.70755917964036mm"/><line class="valley" x1="21.75mm" y1="54.70755917964036mm" x2="29.0mm" y2="59.255475606145126mm"/><line class="valley" x1="14.5mm" y1="59.255475606145126mm" x2="21.75mm" y2="62.76026254459248mm"/><line class="valley" x1="21.75mm" y1="62.76026254459248mm" x2="29.0mm" y2="59.255475606145126mm"/><line class="valley" x1="36.25mm" y1="0mm" x2="36.25mm" y2="63.9864998906027mm"/><line class="valley" x1="43.5mm" y1="0mm" x2="43.5mm" y2="63.9864998906027mm"/><line class="valley" x1="50.75mm" y1="0mm" x2="50.75mm" y2="63.9864998906027mm"/><line class="valley" x1="36.25mm" y1="0mm" x2="50.75mm" y2="8.310951212290249mm"/><line class="valley" x1="50.75mm" y1="8.310951212290249mm" x2="58.0mm" y2="4.155475606145124mm"/><line class="valley" x1="43.5mm" y1="4.155475606145124mm" x2="36.25mm" y2="9.446143968699342mm"/><line class="valley" x1="36.25mm" y1="9.446143968699342mm" x2="29mm" y2="4.155475606145124mm"/><line class="valley" x1="43.5mm" y1="4.155475606145124mm" x2="36.25mm" y2="1.833337211365322mm"/><line class="valley" x1="36.25mm" y1="1.833337211365322mm" x2="29mm" y2="4.155475606145124mm"/><line class="valley" x1="48.33285mm" y1="63.9864998906027mm" x2="36.25mm" y2="52.158229454843635mm"/><line class="valley" x1="36.25mm" y1="52.158229454843635mm" x2="29.0mm" y2="59.25547560614513mm"/><line class="valley" x1="43.5mm" y1="59.255475606145126mm" x2="50.75mm" y2="54.70755917964036mm"/><line class="valley" x1="50.75mm" y1="54.70755917964036mm" x2="58.0mm" y2="59.255475606145126mm"/><line class="valley" x1="43.5mm" y1="59.255475606145126mm" x2="50.75mm" y2="62.76026254459248mm"/><line class="valley" x1="50.75mm" y1="62.76026254459248mm" x2="58.0mm" y2="59.255475606145126mm"/><line class="valley" x1="65.25mm" y1="0mm" x2="65.25mm" y2="63.9864998906027mm"/><line class="valley" x1="72.5mm" y1="0mm" x2="72.5mm" y2="63.9864998906027mm"/><line class="valley" x1="79.75mm" y1="0mm" x2="79.75mm" y2="63.9864998906027mm"/><line class="valley" x1="65.25mm" y1="0mm" x2="79.75mm" y2="8.310951212290249mm"/><line class="valley" x1="79.75mm" y1="8.310951212290249mm" x2="87.0mm" y2="4.155475606145124mm"/><line class="valley" x1="72.5mm" y1="4.155475606145124mm" x2="65.25mm" y2="9.446143968699342mm"/><line class="valley" x1="65.25mm" y1="9.446143968699342mm" x2="58mm" y2="4.155475606145124mm"/><line class="valley" x1="72.5mm" y1="4.155475606145124mm" x2="65.25mm" y2="1.833337211365322mm"/><line class="valley" x1="65.25mm" y1="1.833337211365322mm" x2="58mm" y2="4.155475606145124mm"/><line class="valley" x1="77.33285mm" y1="63.9864998906027mm" x2="65.25mm" y2="52.158229454843635mm"/><line class="valley" x1="65.25mm" y1="52.158229454843635mm" x2="58.0mm" y2="59.25547560614513mm"/><line class="valley" x1="72.5mm" y1="59.255475606145126mm" x2="79.75mm" y2="54.70755917964036mm"/><line class="valley" x1="79.75mm" y1="54.70755917964036mm" x2="87.0mm" y2="59.255475606145126mm"/><line class="valley" x1="72.5mm" y1="59.255475606145126mm" x2="79.75mm" y2="62.76026254459248mm"/><line class="valley" x1="79.75mm" y1="62.76026254459248mm" x2="87.0mm" y2="59.255475606145126mm"/><line class="valley" x1="94.25mm" y1="0mm" x2="94.25mm" y2="63.9864998906027mm"/><line class="valley" x1="101.5mm" y1="0mm" x2="101.5mm" y2="63.9864998906027mm"/><line class="valley" x1="108.75mm" y1="0mm" x2="108.75mm" y2="63.9864998906027mm"/><line class="valley" x1="94.25mm" y1="0mm" x2="108.75mm" y2="8.310951212290249mm"/><line class="valley" x1="108.75mm" y1="8.310951212290249mm" x2="116.0mm" y2="4.155475606145124mm"/><line class="valley" x1="101.5mm" y1="4.155475606145124mm" x2="94.25mm" y2="9.446143968699342mm"/><line class="valley" x1="94.25mm" y1="9.446143968699342mm" x2="87mm" y2="4.155475606145124mm"/><line class="valley" x1="101.5mm" y1="4.155475606145124mm" x2="94.25mm" y2="1.833337211365322mm"/><line class="valley" x1="94.25mm" y1="1.833337211365322mm" x2="87mm" y2="4.155475606145124mm"/><line class="valley" x1="106.33285mm" y1="63.9864998906027mm" x2="94.25mm" y2="52.158229454843635mm"/><line class="valley" x1="94.25mm" y1="52.158229454843635mm" x2="87.0mm" y2="59.25547560614513mm"/><line class="valley" x1="101.5mm" y1="59.255475606145126mm" x2="108.75mm" y2="54.70755917964036mm"/><line class="valley" x1="108.75mm" y1="54.70755917964036mm" x2="116.0mm" y2="59.255475606145126mm"/><line class="valley" x1="101.5mm" y1="59.255475606145126mm" x2="108.75mm" y2="62.76026254459248mm"/><line class="valley" x1="108.75mm" y1="62.76026254459248mm" x2="116.0mm" y2="59.255475606145126mm"/><line class="valley" x1="123.25mm" y1="0mm" x2="123.25mm" y2="63.9864998906027mm"/><line class="valley" x1="130.5mm" y1="0mm" x2="130.5mm" y2="63.9864998906027mm"/><line class="valley" x1="137.75mm" y1="0mm" x2="137.75mm" y2="63.9864998906027mm"/><line class="valley" x1="123.25mm" y1="0mm" x2="137.75mm" y2="8.310951212290249mm"/><line class="valley" x1="137.75mm" y1="8.310951212290249mm" x2="145.0mm" y2="4.155475606145124mm"/><line class="valley" x1="130.5mm" y1="4.155475606145124mm" x2="123.25mm" y2="9.446143968699342mm"/><line class="valley" x1="123.25mm" y1="9.446143968699342mm" x2="116mm" y2="4.155475606145124mm"/><line class="valley" x1="130.5mm" y1="4.155475606145124mm" x2="123.25mm" y2="1.833337211365322mm"/><line class="valley" x1="123.25mm" y1="1.833337211365322mm" x2="116mm" y2="4.155475606145124mm"/><line class="valley" x1="135.33285mm" y1="63.9864998906027mm" x2="123.25mm" y2="52.158229454843635mm"/><line class="valley" x1="123.25mm" y1="52.158229454843635mm" x2="116.0mm" y2="59.25547560614513mm"/><line class="valley" x1="130.5mm" y1="59.255475606145126mm" x2="137.75mm" y2="54.70755917964036mm"/><line class="valley" x1="137.75mm" y1="54.70755917964036mm" x2="145.0mm" y2="59.255475606145126mm"/><line class="valley" x1="130.5mm" y1="59.255475606145126mm" x2="137.75mm" y2="62.76026254459248mm"/><line class="valley" x1="137.75mm" y1="62.76026254459248mm" x2="145.0mm" y2="59.255475606145126mm"/><line class="valley" x1="152.25mm" y1="0mm" x2="152.25mm" y2="63.9864998906027mm"/><line class="valley" x1="159.5mm" y1="0mm" x2="159.5mm" y2="63.9864998906027mm"/><line class="valley" x1="166.75mm" y1="0mm" x2="166.75mm" y2="63.9864998906027mm"/><line class="valley" x1="152.25mm" y1="0mm" x2="166.75mm" y2="8.310951212290249mm"/><line class="valley" x1="166.75mm" y1="8.310951212290249mm" x2="174.0mm" y2="4.155475606145124mm"/><line class="valley" x1="159.5mm" y1="4.155475606145124mm" x2="152.25mm" y2="9.446143968699342mm"/><line class="valley" x1="152.25mm" y1="9.446143968699342mm" x2="145mm" y2="4.155475606145124mm"/><line class="valley" x1="159.5mm" y1="4.155475606145124mm" x2="152.25mm" y2="1.833337211365322mm"/><line class="valley" x1="152.25mm" y1="1.833337211365322mm" x2="145mm" y2="4.155475606145124mm"/><line class="valley" x1="164.33285mm" y1="63.9864998906027mm" x2="152.25mm" y2="52.158229454843635mm"/><line class="valley" x1="152.25mm" y1="52.158229454843635mm" x2="145.0mm" y2="59.25547560614513mm"/><line class="valley" x1="159.5mm" y1="59.255475606145126mm" x2="166.75mm" y2="54.70755917964036mm"/><line class="valley" x1="166.75mm" y1="54.70755917964036mm" x2="174.0mm" y2="59.255475606145126mm"/><line class="valley" x1="159.5mm" y1="59.255475606145126mm" x2="166.75mm" y2="62.76026254459248mm"/><line class="valley" x1="166.75mm" y1="62.76026254459248mm" x2="174.0mm" y2="59.255475606145126mm"/><line class="valley" x1="181.25mm" y1="0mm" x2="181.25mm" y2="63.9864998906027mm"/><line class="valley" x1="188.5mm" y1="0mm" x2="188.5mm" y2="63.9864998906027mm"/><line class="valley" x1="195.75mm" y1="0mm" x2="195.75mm" y2="63.9864998906027mm"/><line class="valley" x1="181.25mm" y1="0mm" x2="195.75mm" y2="8.310951212290249mm"/><line class="valley" x1="195.75mm" y1="8.310951212290249mm" x2="203.0mm" y2="4.155475606145124mm"/><line class="valley" x1="188.5mm" y1="4.155475606145124mm" x2="181.25mm" y2="9.446143968699342mm"/><line class="valley" x1="181.25mm" y1="9.446143968699342mm" x2="174mm" y2="4.155475606145124mm"/><line class="valley" x1="188.5mm" y1="4.155475606145124mm" x2="181.25mm" y2="1.833337211365322mm"/><line class="valley" x1="181.25mm" y1="1.833337211365322mm" x2="174mm" y2="4.155475606145124mm"/><line class="valley" x1="193.33285mm" y1="63.9864998906027mm" x2="181.25mm" y2="52.158229454843635mm"/><line class="valley" x1="181.25mm" y1="52.158229454843635mm" x2="174.0mm" y2="59.25547560614513mm"/><line class="valley" x1="188.5mm" y1="59.255475606145126mm" x2="195.75mm" y2="54.70755917964036mm"/><line class="valley" x1="195.75mm" y1="54.70755917964036mm" x2="203.0mm" y2="59.255475606145126mm"/><line class="valley" x1="188.5mm" y1="59.255475606145126mm" x2="195.75mm" y2="62.76026254459248mm"/><line class="valley" x1="195.75mm" y1="62.76026254459248mm" x2="203.0mm" y2="59.255475606145126mm"/><line class="valley" x1="210.25mm" y1="0mm" x2="210.25mm" y2="63.9864998906027mm"/><line class="valley" x1="217.5mm" y1="0mm" x2="217.5mm" y2="63.9864998906027mm"/><line class="valley" x1="224.75mm" y1="0mm" x2="224.75mm" y2="63.9864998906027mm"/><line class="valley" x1="210.25mm" y1="0mm" x2="224.75mm" y2="8.310951212290249mm"/><line class="valley" x1="224.75mm" y1="8.310951212290249mm" x2="232.0mm" y2="4.155475606145124mm"/><line class="valley" x1="217.5mm" y1="4.155475606145124mm" x2="210.25mm" y2="9.446143968699342mm"/><line class="valley" x1="210.25mm" y1="9.446143968699342mm" x2="203mm" y2="4.155475606145124mm"/><line class="valley" x1="217.5mm" y1="4.155475606145124mm" x2="210.25mm" y2="1.833337211365322mm"/><line class="valley" x1="210.25mm" y1="1.833337211365322mm" x2="203mm" y2="4.155475606145124mm"/><line class="valley" x1="222.33285mm" y1="63.9864998906027mm" x2="210.25mm" y2="52.158229454843635mm"/><line class="valley" x1="210.25mm" y1="52.158229454843635mm" x2="203.0mm" y2="59.25547560614513mm"/><line class="valley" x1="217.5mm" y1="59.255475606145126mm" x2="224.75mm" y2="54.70755917964036mm"/><line class="valley" x1="224.75mm" y1="54.70755917964036mm" x2="232.0mm" y2="59.255475606145126mm"/><line class="valley" x1="217.5mm" y1="59.255475606145126mm" x2="224.75mm" y2="62.76026254459248mm"/><line class="valley" x1="224.75mm" y1="62.76026254459248mm" x2="232.0mm" y2="59.255475606145126mm"/><line class="valley" x1="239.25mm" y1="0mm" x2="239.25mm" y2="63.9864998906027mm"/><line class="valley" x1="246.5mm" y1="0mm" x2="246.5mm" y2="63.9864998906027mm"/><line class="valley" x1="253.75mm" y1="0mm" x2="253.75mm" y2="63.9864998906027mm"/><line class="valley" x1="239.25mm" y1="0mm" x2="253.75mm" y2="8.310951212290249mm"/><line class="valley" x1="253.75mm" y1="8.310951212290249mm" x2="261.0mm" y2="4.155475606145124mm"/><line class="valley" x1="246.5mm" y1="4.155475606145124mm" x2="239.25mm" y2="9.446143968699342mm"/><line class="valley" x1="239.25mm" y1="9.446143968699342mm" x2="232mm" y2="4.155475606145124mm"/><line class="valley" x1="246.5mm" y1="4.155475606145124mm" x2="239.25mm" y2="1.833337211365322mm"/><line class="valley" x1="239.25mm" y1="1.833337211365322mm" x2="232mm" y2="4.155475606145124mm"/><line class="valley" x1="251.33285mm" y1="63.9864998906027mm" x2="239.25mm" y2="52.158229454843635mm"/><line class="valley" x1="239.25mm" y1="52.158229454843635mm" x2="232.0mm" y2="59.25547560614513mm"/><line class="valley" x1="246.5mm" y1="59.255475606145126mm" x2="253.75mm" y2="54.70755917964036mm"/><line class="valley" x1="253.75mm" y1="54.70755917964036mm" x2="261.0mm" y2="59.255475606145126mm"/><line class="valley" x1="246.5mm" y1="59.255475606145126mm" x2="253.75mm" y2="62.76026254459248mm"/><line class="valley" x1="253.75mm" y1="62.76026254459248mm" x2="261.0mm" y2="59.255475606145126mm"/><line class="valley" x1="268.25mm" y1="0mm" x2="268.25mm" y2="63.9864998906027mm"/><line class="valley" x1="275.5mm" y1="0mm" x2="275.5mm" y2="63.9864998906027mm"/><line class="valley" x1="282.75mm" y1="0mm" x2="282.75mm" y2="63.9864998906027mm"/><line class="valley" x1="268.25mm" y1="0mm" x2="282.75mm" y2="8.310951212290249mm"/><line class="valley" x1="282.75mm" y1="8.310951212290249mm" x2="290.0mm" y2="4.155475606145124mm"/><line class="valley" x1="275.5mm" y1="4.155475606145124mm" x2="268.25mm" y2="9.446143968699342mm"/><line class="valley" x1="268.25mm" y1="9.446143968699342mm" x2="261mm" y2="4.155475606145124mm"/><line class="valley" x1="275.5mm" y1="4.155475606145124mm" x2="268.25mm" y2="1.833337211365322mm"/><line class="valley" x1="268.25mm" y1="1.833337211365322mm" x2="261mm" y2="4.155475606145124mm"/><line class="valley" x1="280.33285mm" y1="63.9864998906027mm" x2="268.25mm" y2="52.158229454843635mm"/><line class="valley" x1="268.25mm" y1="52.158229454843635mm" x2="261.0mm" y2="59.25547560614513mm"/><line class="valley" x1="275.5mm" y1="59.255475606145126mm" x2="282.75mm" y2="54.70755917964036mm"/><line class="valley" x1="282.75mm" y1="54.70755917964036mm" x2="290.0mm" y2="59.255475606145126mm"/><line class="valley" x1="275.5mm" y1="59.255475606145126mm" x2="282.75mm" y2="62.76026254459248mm"/><line class="valley" x1="282.75mm" y1="62.76026254459248mm" x2="290.0mm" y2="59.255475606145126mm"/><line class="valley" x1="7.25mm" y1="63.9864998906027mm" x2="7.25mm" y2="148.25299282584382mm"/><line class="valley" x1="14.5mm" y1="63.9864998906027mm" x2="14.5mm" y2="148.25299282584382mm"/><line class="valley" x1="21.75mm" y1="63.9864998906027mm" x2="21.75mm" y2="148.25299282584382mm"/><line class="valley" x1="7.25mm" y1="63.9864998906027mm" x2="21.75mm" y2="74.36365290807538mm"/><line class="valley" x1="21.75mm" y1="74.36365290807538mm" x2="29.0mm" y2="69.17507639933905mm"/><line class="valley" x1="14.5mm" y1="69.17507639933905mm" x2="7.25mm" y2="76.27232255064054mm"/><line class="valley" x1="7.25mm" y1="76.27232255064054mm" x2="0mm" y2="69.17507639933905mm"/><line class="valley" x1="14.5mm" y1="69.17507639933905mm" x2="7.25mm" y2="69.02067869203717mm"/><line class="valley" x1="7.25mm" y1="69.02067869203717mm" x2="0mm" y2="69.17507639933905mm"/><line class="valley" x1="21.75mm" y1="148.25299282584382mm" x2="7.25mm" y2="139.15715997283428mm"/><line class="valley" x1="7.25mm" y1="139.15715997283428mm" x2="0.0mm" y2="143.70507639933905mm"/><line class="valley" x1="14.5mm" y1="143.70507639933905mm" x2="21.75mm" y2="138.51649989060272mm"/><line class="valley" x1="21.75mm" y1="138.51649989060272mm" x2="29.0mm" y2="143.70507639933905mm"/><line class="valley" x1="14.5mm" y1="143.70507639933905mm" x2="21.75mm" y2="146.1760020732513mm"/><line class="valley" x1="21.75mm" y1="146.1760020732513mm" x2="29.0mm" y2="143.70507639933905mm"/><line class="valley" x1="36.25mm" y1="63.9864998906027mm" x2="36.25mm" y2="148.25299282584382mm"/><line class="valley" x1="43.5mm" y1="63.9864998906027mm" x2="43.5mm" y2="148.25299282584382mm"/><line class="valley" x1="50.75mm" y1="63.9864998906027mm" x2="50.75mm" y2="148.25299282584382mm"/><line class="valley" x1="36.25mm" y1="63.9864998906027mm" x2="50.75mm" y2="74.36365290807538mm"/><line class="valley" x1="50.75mm" y1="74.36365290807538mm" x2="58.0mm" y2="69.17507639933905mm"/><line class="valley" x1="43.5mm" y1="69.17507639933905mm" x2="36.25mm" y2="76.27232255064054mm"/><line class="valley" x1="36.25mm" y1="76.27232255064054mm" x2="29mm" y2="69.17507639933905mm"/><line class="valley" x1="43.5mm" y1="69.17507639933905mm" x2="36.25mm" y2="69.02067869203717mm"/><line class="valley" x1="36.25mm" y1="69.02067869203717mm" x2="29mm" y2="69.17507639933905mm"/><line class="valley" x1="50.75mm" y1="148.25299282584382mm" x2="36.25mm" y2="139.15715997283428mm"/><line class="valley" x1="36.25mm" y1="139.15715997283428mm" x2="29.0mm" y2="143.70507639933905mm"/><line class="valley" x1="43.5mm" y1="143.70507639933905mm" x2="50.75mm" y2="138.51649989060272mm"/><line class="valley" x1="50.75mm" y1="138.51649989060272mm" x2="58.0mm" y2="143.70507639933905mm"/><line class="valley" x1="43.5mm" y1="143.70507639933905mm" x2="50.75mm" y2="146.1760020732513mm"/><line class="valley" x1="50.75mm" y1="146.1760020732513mm" x2="58.0mm" y2="143.70507639933905mm"/><line class="valley" x1="65.25mm" y1="63.9864998906027mm" x2="65.25mm" y2="148.25299282584382mm"/><line class="valley" x1="72.5mm" y1="63.9864998906027mm" x2="72.5mm" y2="148.25299282584382mm"/><line class="valley" x1="79.75mm" y1="63.9864998906027mm" x2="79.75mm" y2="148.25299282584382mm"/><line class="valley" x1="65.25mm" y1="63.9864998906027mm" x2="79.75mm" y2="74.36365290807538mm"/><line class="valley" x1="79.75mm" y1="74.36365290807538mm" x2="87.0mm" y2="69.17507639933905mm"/><line class="valley" x1="72.5mm" y1="69.17507639933905mm" x2="65.25mm" y2="76.27232255064054mm"/><line class="valley" x1="65.25mm" y1="76.27232255064054mm" x2="58mm" y2="69.17507639933905mm"/><line class="valley" x1="72.5mm" y1="69.17507639933905mm" x2="65.25mm" y2="69.02067869203717mm"/><line class="valley" x1="65.25mm" y1="69.02067869203717mm" x2="58mm" y2="69.17507639933905mm"/><line class="valley" x1="79.75mm" y1="148.25299282584382mm" x2="65.25mm" y2="139.15715997283428mm"/><line class="valley" x1="65.25mm" y1="139.15715997283428mm" x2="58.0mm" y2="143.70507639933905mm"/><line class="valley" x1="72.5mm" y1="143.70507639933905mm" x2="79.75mm" y2="138.51649989060272mm"/><line class="valley" x1="79.75mm" y1="138.51649989060272mm" x2="87.0mm" y2="143.70507639933905mm"/><line class="valley" x1="72.5mm" y1="143.70507639933905mm" x2="79.75mm" y2="146.1760020732513mm"/><line class="valley" x1="79.75mm" y1="146.1760020732513mm" x2="87.0mm" y2="143.70507639933905mm"/><line class="valley" x1="94.25mm" y1="63.9864998906027mm" x2="94.25mm" y2="148.25299282584382mm"/><line class="valley" x1="101.5mm" y1="63.9864998906027mm" x2="101.5mm" y2="148.25299282584382mm"/><line class="valley" x1="108.75mm" y1="63.9864998906027mm" x2="108.75mm" y2="148.25299282584382mm"/><line class="valley" x1="94.25mm" y1="63.9864998906027mm" x2="108.75mm" y2="74.36365290807538mm"/><line class="valley" x1="108.75mm" y1="74.36365290807538mm" x2="116.0mm" y2="69.17507639933905mm"/><line class="valley" x1="101.5mm" y1="69.17507639933905mm" x2="94.25mm" y2="76.27232255064054mm"/><line class="valley" x1="94.25mm" y1="76.27232255064054mm" x2="87mm" y2="69.17507639933905mm"/><line class="valley" x1="101.5mm" y1="69.17507639933905mm" x2="94.25mm" y2="69.02067869203717mm"/><line class="valley" x1="94.25mm" y1="69.02067869203717mm" x2="87mm" y2="69.17507639933905mm"/><line class="valley" x1="108.75mm" y1="148.25299282584382mm" x2="94.25mm" y2="139.15715997283428mm"/><line class="valley" x1="94.25mm" y1="139.15715997283428mm" x2="87.0mm" y2="143.70507639933905mm"/><line class="valley" x1="101.5mm" y1="143.70507639933905mm" x2="108.75mm" y2="138.51649989060272mm"/><line class="valley" x1="108.75mm" y1="138.51649989060272mm" x2="116.0mm" y2="143.70507639933905mm"/><line class="valley" x1="101.5mm" y1="143.70507639933905mm" x2="108.75mm" y2="146.1760020732513mm"/><line class="valley" x1="108.75mm" y1="146.1760020732513mm" x2="116.0mm" y2="143.70507639933905mm"/><line class="valley" x1="123.25mm" y1="63.9864998906027mm" x2="123.25mm" y2="148.25299282584382mm"/><line class="valley" x1="130.5mm" y1="63.9864998906027mm" x2="130.5mm" y2="148.25299282584382mm"/><line class="valley" x1="137.75mm" y1="63.9864998906027mm" x2="137.75mm" y2="148.25299282584382mm"/><line class="valley" x1="123.25mm" y1="63.9864998906027mm" x2="137.75mm" y2="74.36365290807538mm"/><line class="valley" x1="137.75mm" y1="74.36365290807538mm" x2="145.0mm" y2="69.17507639933905mm"/><line class="valley" x1="130.5mm" y1="69.17507639933905mm" x2="123.25mm" y2="76.27232255064054mm"/><line class="valley" x1="123.25mm" y1="76.27232255064054mm" x2="116mm" y2="69.17507639933905mm"/><line class="valley" x1="130.5mm" y1="69.17507639933905mm" x2="123.25mm" y2="69.02067869203717mm"/><line class="valley" x1="123.25mm" y1="69.02067869203717mm" x2="116mm" y2="69.17507639933905mm"/><line class="valley" x1="137.75mm" y1="148.25299282584382mm" x2="123.25mm" y2="139.15715997283428mm"/><line class="valley" x1="123.25mm" y1="139.15715997283428mm" x2="116.0mm" y2="143.70507639933905mm"/><line class="valley" x1="130.5mm" y1="143.70507639933905mm" x2="137.75mm" y2="138.51649989060272mm"/><line class="valley" x1="137.75mm" y1="138.51649989060272mm" x2="145.0mm" y2="143.70507639933905mm"/><line class="valley" x1="130.5mm" y1="143.70507639933905mm" x2="137.75mm" y2="146.1760020732513mm"/><line class="valley" x1="137.75mm" y1="146.1760020732513mm" x2="145.0mm" y2="143.70507639933905mm"/><line class="valley" x1="152.25mm" y1="63.9864998906027mm" x2="152.25mm" y2="148.25299282584382mm"/><line class="valley" x1="159.5mm" y1="63.9864998906027mm" x2="159.5mm" y2="148.25299282584382mm"/><line class="valley" x1="166.75mm" y1="63.9864998906027mm" x2="166.75mm" y2="148.25299282584382mm"/><line class="valley" x1="152.25mm" y1="63.9864998906027mm" x2="166.75mm" y2="74.36365290807538mm"/><line class="valley" x1="166.75mm" y1="74.36365290807538mm" x2="174.0mm" y2="69.17507639933905mm"/><line class="valley" x1="159.5mm" y1="69.17507639933905mm" x2="152.25mm" y2="76.27232255064054mm"/><line class="valley" x1="152.25mm" y1="76.27232255064054mm" x2="145mm" y2="69.17507639933905mm"/><line class="valley" x1="159.5mm" y1="69.17507639933905mm" x2="152.25mm" y2="69.02067869203717mm"/><line class="valley" x1="152.25mm" y1="69.02067869203717mm" x2="145mm" y2="69.17507639933905mm"/><line class="valley" x1="166.75mm" y1="148.25299282584382mm" x2="152.25mm" y2="139.15715997283428mm"/><line class="valley" x1="152.25mm" y1="139.15715997283428mm" x2="145.0mm" y2="143.70507639933905mm"/><line class="valley" x1="159.5mm" y1="143.70507639933905mm" x2="166.75mm" y2="138.51649989060272mm"/><line class="valley" x1="166.75mm" y1="138.51649989060272mm" x2="174.0mm" y2="143.70507639933905mm"/><line class="valley" x1="159.5mm" y1="143.70507639933905mm" x2="166.75mm" y2="146.1760020732513mm"/><line class="valley" x1="166.75mm" y1="146.1760020732513mm" x2="174.0mm" y2="143.70507639933905mm"/><line class="valley" x1="181.25mm" y1="63.9864998906027mm" x2="181.25mm" y2="148.25299282584382mm"/><line class="valley" x1="188.5mm" y1="63.9864998906027mm" x2="188.5mm" y2="148.25299282584382mm"/><line class="valley" x1="195.75mm" y1="63.9864998906027mm" x2="195.75mm" y2="148.25299282584382mm"/><line class="valley" x1="181.25mm" y1="63.9864998906027mm" x2="195.75mm" y2="74.36365290807538mm"/><line class="valley" x1="195.75mm" y1="74.36365290807538mm" x2="203.0mm" y2="69.17507639933905mm"/><line class="valley" x1="188.5mm" y1="69.17507639933905mm" x2="181.25mm" y2="76.27232255064054mm"/><line class="valley" x1="181.25mm" y1="76.27232255064054mm" x2="174mm" y2="69.17507639933905mm"/><line class="valley" x1="188.5mm" y1="69.17507639933905mm" x2="181.25mm" y2="69.02067869203717mm"/><line class="valley" x1="181.25mm" y1="69.02067869203717mm" x2="174mm" y2="69.17507639933905mm"/><line class="valley" x1="195.75mm" y1="148.25299282584382mm" x2="181.25mm" y2="139.15715997283428mm"/><line class="valley" x1="181.25mm" y1="139.15715997283428mm" x2="174.0mm" y2="143.70507639933905mm"/><line class="valley" x1="188.5mm" y1="143.70507639933905mm" x2="195.75mm" y2="138.51649989060272mm"/><line class="valley" x1="195.75mm" y1="138.51649989060272mm" x2="203.0mm" y2="143.70507639933905mm"/><line class="valley" x1="188.5mm" y1="143.70507639933905mm" x2="195.75mm" y2="146.1760020732513mm"/><line class="valley" x1="195.75mm" y1="146.1760020732513mm" x2="203.0mm" y2="143.70507639933905mm"/><line class="valley" x1="210.25mm" y1="63.9864998906027mm" x2="210.25mm" y2="148.25299282584382mm"/><line class="valley" x1="217.5mm" y1="63.9864998906027mm" x2="217.5mm" y2="148.25299282584382mm"/><line class="valley" x1="224.75mm" y1="63.9864998906027mm" x2="224.75mm" y2="148.25299282584382mm"/><line class="valley" x1="210.25mm" y1="63.9864998906027mm" x2="224.75mm" y2="74.36365290807538mm"/><line class="valley" x1="224.75mm" y1="74.36365290807538mm" x2="232.0mm" y2="69.17507639933905mm"/><line class="valley" x1="217.5mm" y1="69.17507639933905mm" x2="210.25mm" y2="76.27232255064054mm"/><line class="valley" x1="210.25mm" y1="76.27232255064054mm" x2="203mm" y2="69.17507639933905mm"/><line class="valley" x1="217.5mm" y1="69.17507639933905mm" x2="210.25mm" y2="69.02067869203717mm"/><line class="valley" x1="210.25mm" y1="69.02067869203717mm" x2="203mm" y2="69.17507639933905mm"/><line class="valley" x1="224.75mm" y1="148.25299282584382mm" x2="210.25mm" y2="139.15715997283428mm"/><line class="valley" x1="210.25mm" y1="139.15715997283428mm" x2="203.0mm" y2="143.70507639933905mm"/><line class="valley" x1="217.5mm" y1="143.70507639933905mm" x2="224.75mm" y2="138.51649989060272mm"/><line class="valley" x1="224.75mm" y1="138.51649989060272mm" x2="232.0mm" y2="143.70507639933905mm"/><line class="valley" x1="217.5mm" y1="143.70507639933905mm" x2="224.75mm" y2="146.1760020732513mm"/><line class="valley" x1="224.75mm" y1="146.1760020732513mm" x2="232.0mm" y2="143.70507639933905mm"/><line class="valley" x1="239.25mm" y1="63.9864998906027mm" x2="239.25mm" y2="148.25299282584382mm"/><line class="valley" x1="246.5mm" y1="63.9864998906027mm" x2="246.5mm" y2="148.25299282584382mm"/><line class="valley" x1="253.75mm" y1="63.9864998906027mm" x2="253.75mm" y2="148.25299282584382mm"/><line class="valley" x1="239.25mm" y1="63.9864998906027mm" x2="253.75mm" y2="74.36365290807538mm"/><line class="valley" x1="253.75mm" y1="74.36365290807538mm" x2="261.0mm" y2="69.17507639933905mm"/><line class="valley" x1="246.5mm" y1="69.17507639933905mm" x2="239.25mm" y2="76.27232255064054mm"/><line class="valley" x1="239.25mm" y1="76.27232255064054mm" x2="232mm" y2="69.17507639933905mm"/><line class="valley" x1="246.5mm" y1="69.17507639933905mm" x2="239.25mm" y2="69.02067869203717mm"/><line class="valley" x1="239.25mm" y1="69.02067869203717mm" x2="232mm" y2="69.17507639933905mm"/><line class="valley" x1="253.75mm" y1="148.25299282584382mm" x2="239.25mm" y2="139.15715997283428mm"/><line class="valley" x1="239.25mm" y1="139.15715997283428mm" x2="232.0mm" y2="143.70507639933905mm"/><line class="valley" x1="246.5mm" y1="143.70507639933905mm" x2="253.75mm" y2="138.51649989060272mm"/><line class="valley" x1="253.75mm" y1="138.51649989060272mm" x2="261.0mm" y2="143.70507639933905mm"/><line class="valley" x1="246.5mm" y1="143.70507639933905mm" x2="253.75mm" y2="146.1760020732513mm"/><line class="valley" x1="253.75mm" y1="146.1760020732513mm" x2="261.0mm" y2="143.70507639933905mm"/><line class="valley" x1="268.25mm" y1="63.9864998906027mm" x2="268.25mm" y2="148.25299282584382mm"/><line class="valley" x1="275.5mm" y1="63.9864998906027mm" x2="275.5mm" y2="148.25299282584382mm"/><line class="valley" x1="282.75mm" y1="63.9864998906027mm" x2="282.75mm" y2="148.25299282584382mm"/><line class="valley" x1="268.25mm" y1="63.9864998906027mm" x2="282.75mm" y2="74.36365290807538mm"/><line class="valley" x1="282.75mm" y1="74.36365290807538mm" x2="290.0mm" y2="69.17507639933905mm"/><line class="valley" x1="275.5mm" y1="69.17507639933905mm" x2="268.25mm" y2="76.27232255064054mm"/><line class="valley" x1="268.25mm" y1="76.27232255064054mm" x2="261mm" y2="69.17507639933905mm"/><line class="valley" x1="275.5mm" y1="69.17507639933905mm" x2="268.25mm" y2="69.02067869203717mm"/><line class="valley" x1="268.25mm" y1="69.02067869203717mm" x2="261mm" y2="69.17507639933905mm"/><line class="valley" x1="282.75mm" y1="148.25299282584382mm" x2="268.25mm" y2="139.15715997283428mm"/><line class="valley" x1="268.25mm" y1="139.15715997283428mm" x2="261.0mm" y2="143.70507639933905mm"/><line class="valley" x1="275.5mm" y1="143.70507639933905mm" x2="282.75mm" y2="138.51649989060272mm"/><line class="valley" x1="282.75mm" y1="138.51649989060272mm" x2="290.0mm" y2="143.70507639933905mm"/><line class="valley" x1="275.5mm" y1="143.70507639933905mm" x2="282.75mm" y2="146.1760020732513mm"/><line class="valley" x1="282.75mm" y1="146.1760020732513mm" x2="290.0mm" y2="143.70507639933905mm"/><line class="cut" x1="0mm" y1="0mm" x2="290mm" y2="0mm"/><line class="cut" x1="0mm" y1="63.9864998906027mm" x2="290mm" y2="63.9864998906027mm"/><line class="cut" x1="0mm" y1="148.25299282584382mm" x2="290mm" y2="148.25299282584382mm"/><line class="cut" x1="0mm" y1="0mm" x2="0mm" y2="148.25299282584382mm"/><line class="cut" x1="29mm" y1="0mm" x2="29mm" y2="148.25299282584382mm"/><line class="cut" x1="58mm" y1="0mm" x2="58mm" y2="148.25299282584382mm"/><line class="cut" x1="87mm" y1="0mm" x2="87mm" y2="148.25299282584382mm"/><line class="cut" x1="116mm" y1="0mm" x2="116mm" y2="148.25299282584382mm"/><line class="cut" x1="145mm" y1="0mm" x2="145mm" y2="148.25299282584382mm"/><line class="cut" x1="174mm" y1="0mm" x2="174mm" y2="148.25299282584382mm"/><line class="cut" x1="203mm" y1="0mm" x2="203mm" y2="148.25299282584382mm"/><line class="cut" x1="232mm" y1="0mm" x2="232mm" y2="148.25299282584382mm"/><line class="cut" x1="261mm" y1="0mm" x2="261mm" y2="148.25299282584382mm"/><line class="cut" x1="290mm" y1="0mm" x2="290mm" y2="148.25299282584382mm"/></svg>