<svg xmlns="http://www.w3.org/2000/svg" width="1600" height="1221.8183153411178"><style >
.valley {stroke: #00f; stroke-width: 2px; fill:none}
.mountain {stroke: #f00; stroke-width: 2px; fill:none }
.cut {stroke: #000; stroke-width: 3px; fill:none } 
.hint {stroke: #000; stroke-width: 1px; fill:none } 
</style><rect class="cut" x="0" y="0" width="1600" height="1221.8183153411178"/><line class="cut" x1="200" y1="0" x2="200" y2="1221.8183153411178"/><line class="cut" x1="400" y1="0" x2="400" y2="1221.8183153411178"/><line class="cut" x1="600" y1="0" x2="600" y2="1221.8183153411178"/><line class="cut" x1="800" y1="0" x2="800" y2="1221.8183153411178"/><line class="cut" x1="1000" y1="0" x2="1000" y2="1221.8183153411178"/><line class="cut" x1="1200" y1="0" x2="1200" y2="1221.8183153411178"/><line class="cut" x1="1400" y1="0" x2="1400" y2="1221.8183153411178"/><line class="valley" x1="33.33700521407065" y1="0.0" x2="55.551883674818235" y2="1221.8183153411178"/><line class="valley" x1="144.4481163251817" y1="0.0" x2="166.66299478592944" y2="1221.8183153411178"/><line class="valley" x1="34.79746636877756" y1="0.0" x2="146.08486597111602" y2="90.02123052638744"/><line class="valley" x1="200.0" y1="43.066031030734834" x2="146.08486597111605" y2="90.02123052638746"/><line class="valley" x1="31.938468746620956" y1="0.0" x2="0.0" y2="27.815514114827767"/><line class="valley" x1="165.20253363122274" y1="1221.818315341118" x2="53.91513402888391" y2="1131.79708481473"/><line class="valley" x1="200.0" y1="1194.0028012262896" x2="168.06153125337855" y2="1221.8183153411178"/><line class="valley" x1="53.91513402888391" y1="1131.7970848147302" x2="0.0" y2="1178.7522843103825"/><line class="valley" x1="89.67815965337445" y1="44.43016082837631" x2="74.75721799999435" y2="139.22281433691467"/><line class="valley" x1="89.7140959081667" y1="44.38573517096317" x2="144.87005692589287" y2="23.206733039112926"/><line class="valley" x1="200.0" y1="42.10637264678449" x2="144.87005692589284" y2="23.206733039112954"/><line class="valley" x1="110.32184034662562" y1="1177.3881545127413" x2="125.24278200000573" y2="1082.5955010042028"/><line class="valley" x1="110.28590409183359" y1="1177.4325801701543" x2="55.12994307410708" y2="1198.6115823020048"/><line class="valley" x1="-2.905661822261152e-14" y1="1179.711942694333" x2="55.12994307410711" y2="1198.6115823020045"/><path class="valley" d="M 74.75721799999435 139.22281433691467 C 70.60545495944098 165.55984101797753 59.38856117396804 210.61335557213536 37.496808218104086 228.7891652218379"/><path class="valley" d="M 37.496808218104086 228.7891652218379 C 37.49680821810408 228.7891652218379 37.49680821810407 228.7891652218379 37.496808218104064 228.7891652218379"/><path class="valley" d="M 0.0 154.18897062200938 C 6.396804959021591 180.1776166509844 18.506951824281888 214.1554049183549 37.496808218104064 228.7891652218379"/><path class="valley" d="M 125.24278200000573 1082.5955010042028 C 129.39454504055908 1056.25847432314 140.61143882603199 1011.2049597689822 162.503191781896 993.0291501192796"/><path class="valley" d="M 199.99999999999997 1067.629344719108 C 193.60319504097842 1041.6406986901331 181.49304817571812 1007.6629104227626 162.50319178189605 993.0291501192798"/><path class="valley" d="M 162.50319178189605 993.0291501192798 C 162.50319178189602 993.0291501192798 162.503191781896 993.0291501192798 162.503191781896 993.0291501192798"/><line class="valley" x1="89.67815965337445" y1="44.43016082837631" x2="33.795653174622885" y2="25.225637830372673"/><line class="valley" x1="89.7140959081667" y1="44.38573517096317" x2="63.016592007929326" y2="1.6653345369377348e-14"/><line class="valley" x1="-5.551115123125783e-15" y1="38.23174243633782" x2="33.79565317462286" y2="25.225637830372683"/><line class="valley" x1="-2.7755575615628914e-15" y1="7.727993347799799" x2="4.273681155308756" y2="5.551115123125783e-15"/><line class="valley" x1="110.32184034662562" y1="1177.3881545127413" x2="166.2043468253772" y2="1196.592677510745"/><line class="valley" x1="110.28590409183359" y1="1177.4325801701543" x2="136.98340799207097" y2="1221.8183153411178"/><line class="valley" x1="200.00000000000006" y1="1183.5865729047798" x2="166.20434682537723" y2="1196.5926775107453"/><line class="valley" x1="200.00000000000045" y1="1214.0903219933161" x2="195.72631884469052" y2="1221.8183153411178"/><path class="valley" d="M 146.08486597111607 90.02123052638747 C 146.08486597111605 90.02123052638748 146.08486597111602 90.0212305263875 146.08486597111602 90.02123052638751"/><path class="valley" d="M 146.08486597111602 90.02123052638751 C 73.9480061687596 155.82727473011678 19.178233090989217 321.2675332305207 100.0 610.9091576705589"/><path class="valley" d="M 146.08486597111607 90.02123052638753 C 165.72898558836667 106.67419124067858 184.4177626585913 130.29721251438698 199.99999999999997 161.41956706593663"/><path class="valley" d="M -2.4980018054066022e-14 222.3913478949762 C 23.558042849100776 302.26052966312653 29.549974226768207 414.1854694743772 -2.3592239273284576e-13 562.5888662366381"/><path class="valley" d="M 53.91513402888412 1131.7970848147302 C 126.05199383124042 1065.9910406110005 180.8217669090108 900.5507821105969 100.00000000000003 610.9091576705589"/><path class="valley" d="M 53.915134028884104 1131.7970848147302 C 53.915134028884104 1131.7970848147302 53.915134028884104 1131.7970848147302 53.915134028884104 1131.7970848147302"/><path class="valley" d="M 53.915134028884104 1131.7970848147302 C 53.91513402888405 1131.7970848147302 53.91513402888399 1131.7970848147304 53.91513402888394 1131.7970848147306"/><path class="valley" d="M 199.99999999999994 999.4269674461407 C 176.44195715089924 919.5577856779905 170.45002577323189 807.6328458667405 200.00000000000017 659.2294491044801"/><path class="valley" d="M 53.91513402888381 1131.7970848147302 C 53.91513402888381 1131.7970848147302 53.91513402888381 1131.7970848147302 53.91513402888381 1131.7970848147302"/><path class="valley" d="M 53.91513402888381 1131.7970848147302 C 34.271014411633274 1115.144124100439 15.58223734140867 1091.5211028267306 4.163336342344337e-15 1060.398748275181"/><path class="valley" d="M 147.70049349553406 178.88074436937785 C 48.84845978845446 242.01889047999896 51.449938309785104 385.1002091531842 155.13328927076446 587.68451200705"/><path class="valley" d="M 155.13328927076446 587.68451200705 C 155.13328927076446 587.68451200705 155.13328927076446 587.68451200705 155.13328927076446 587.68451200705"/><path class="valley" d="M 147.70049349553403 178.88074436937785 C 169.87366665921084 191.9332328141431 187.30814306317006 209.0073581257422 200.0 229.88737139653338"/><path class="valley" d="M 200.0 474.9198291165607 C 188.76463979505345 510.03119188450245 173.8099746396021 547.6691993341576 155.13328927076452 587.68451200705"/><path class="valley" d="M 1.2490009027033011e-14 295.6808186192063 C 4.420214252859462 321.9552976287558 4.421389065543781 351.60176822326366 3.642919299551295e-14 384.42638630981867"/><path class="valley" d="M 52.299506504465995 1042.93757097174 C 151.1515402115456 979.7994248611187 148.55006169021493 836.7181061879334 44.86671072923554 634.1338033340677"/><path class="valley" d="M 200.00000000000006 926.1374967219112 C 195.57978574714053 899.8630177123617 195.5786109344562 870.2165471178539 199.99999999999997 837.3919290312987"/><path class="valley" d="M 52.29950650446583 1042.93757097174 C 30.126333340789103 1029.8850825269747 12.691856936829938 1012.8109572153755 5.551115123125783e-15 991.9309439445846"/><path class="valley" d="M -2.220446049250313e-14 746.8984862245569 C 11.235360204946558 711.7871234566153 26.19002536039793 674.14911600696 44.86671072923548 634.1338033340676"/><path class="valley" d="M 148.81541286181863 240.2013095150287 C 71.7322898689728 278.40732268628494 73.29317698177118 364.25611389019605 153.27509032695687 485.4835700976319"/><path class="valley" d="M 148.8154128618186 240.20130951502873 C 173.4858307183056 251.3310599247621 190.54967387518494 267.45565928272 200.00000000000006 288.19327930378773"/><path class="valley" d="M 200.00000000000009 385.9628884109687 C 191.13263979558351 415.5998971153174 175.55957947522072 448.8784840633773 153.2750903269569 485.4835700976319"/><path class="valley" d="M 153.2750903269569 485.4835700976319 C 153.2750903269569 485.4835700976319 153.2750903269569 485.4835700976319 153.2750903269569 485.4835700976319"/><path class="valley" d="M 51.184587138181435 981.6170058260891 C 128.26771013102726 943.4109926548325 126.70682301822885 857.5622014509214 46.724909673043165 736.3347452434857"/><path class="valley" d="M 51.18458713818127 981.6170058260891 C 26.514169281694418 970.4872554163558 9.450326124815115 954.3626560583981 -5.551115123125783e-15 933.6250360373306"/><path class="valley" d="M -2.983724378680108e-14 835.8554269301487 C 8.867360204416583 806.2184182258001 24.440420524779334 772.9398312777402 46.72490967304306 736.3347452434857"/><line class="valley" x1="233.33700521407064" y1="0.0" x2="255.55188367481824" y2="1221.8183153411178"/><line class="valley" x1="344.4481163251817" y1="0.0" x2="366.6629947859294" y2="1221.8183153411178"/><line class="valley" x1="234.79746636877758" y1="0.0" x2="346.084865971116" y2="90.02123052638744"/><line class="valley" x1="400.0" y1="43.066031030734834" x2="346.0848659711161" y2="90.02123052638746"/><line class="valley" x1="231.93846874662097" y1="0.0" x2="200.0" y2="27.815514114827767"/><line class="valley" x1="365.20253363122276" y1="1221.818315341118" x2="253.91513402888393" y2="1131.79708481473"/><line class="valley" x1="400.0" y1="1194.0028012262896" x2="368.0615312533786" y2="1221.8183153411178"/><line class="valley" x1="253.91513402888393" y1="1131.7970848147302" x2="200.0" y2="1178.7522843103825"/><line class="valley" x1="289.67815965337445" y1="44.43016082837631" x2="274.75721799999434" y2="139.22281433691467"/><line class="valley" x1="289.7140959081667" y1="44.38573517096317" x2="344.87005692589287" y2="23.206733039112926"/><line class="valley" x1="400.0" y1="42.10637264678449" x2="344.87005692589287" y2="23.206733039112954"/><line class="valley" x1="310.3218403466256" y1="1177.3881545127413" x2="325.2427820000057" y2="1082.5955010042028"/><line class="valley" x1="310.2859040918336" y1="1177.4325801701543" x2="255.12994307410708" y2="1198.6115823020048"/><line class="valley" x1="199.99999999999997" y1="1179.711942694333" x2="255.1299430741071" y2="1198.6115823020045"/><path class="valley" d="M 274.75721799999434 139.22281433691467 C 270.605454959441 165.55984101797753 259.388561173968 210.61335557213536 237.4968082181041 228.7891652218379"/><path class="valley" d="M 237.4968082181041 228.7891652218379 C 237.4968082181041 228.7891652218379 237.49680821810406 228.7891652218379 237.49680821810406 228.7891652218379"/><path class="valley" d="M 200.0 154.18897062200938 C 206.39680495902158 180.1776166509844 218.50695182428188 214.1554049183549 237.49680821810406 228.7891652218379"/><path class="valley" d="M 325.2427820000057 1082.5955010042028 C 329.3945450405591 1056.25847432314 340.611438826032 1011.2049597689822 362.503191781896 993.0291501192796"/><path class="valley" d="M 400.0 1067.629344719108 C 393.60319504097845 1041.6406986901331 381.4930481757181 1007.6629104227626 362.503191781896 993.0291501192798"/><path class="valley" d="M 362.503191781896 993.0291501192798 C 362.503191781896 993.0291501192798 362.503191781896 993.0291501192798 362.503191781896 993.0291501192798"/><line class="valley" x1="289.67815965337445" y1="44.43016082837631" x2="233.79565317462288" y2="25.225637830372673"/><line class="valley" x1="289.7140959081667" y1="44.38573517096317" x2="263.0165920079293" y2="1.6653345369377348e-14"/><line class="valley" x1="200.0" y1="38.23174243633782" x2="233.79565317462286" y2="25.225637830372683"/><line class="valley" x1="200.0" y1="7.727993347799799" x2="204.27368115530876" y2="5.551115123125783e-15"/><line class="valley" x1="310.3218403466256" y1="1177.3881545127413" x2="366.20434682537723" y2="1196.592677510745"/><line class="valley" x1="310.2859040918336" y1="1177.4325801701543" x2="336.98340799207097" y2="1221.8183153411178"/><line class="valley" x1="400.00000000000006" y1="1183.5865729047798" x2="366.20434682537723" y2="1196.5926775107453"/><line class="valley" x1="400.00000000000045" y1="1214.0903219933161" x2="395.7263188446905" y2="1221.8183153411178"/><path class="valley" d="M 346.0848659711161 90.02123052638747 C 346.0848659711161 90.02123052638748 346.084865971116 90.0212305263875 346.084865971116 90.02123052638751"/><path class="valley" d="M 346.084865971116 90.02123052638751 C 273.9480061687596 155.82727473011678 219.1782330909892 321.2675332305207 300.0 610.9091576705589"/><path class="valley" d="M 346.0848659711161 90.02123052638753 C 365.72898558836664 106.67419124067858 384.4177626585913 130.29721251438698 400.0 161.41956706593663"/><path class="valley" d="M 199.99999999999997 222.3913478949762 C 223.5580428491008 302.26052966312653 229.5499742267682 414.1854694743772 199.99999999999977 562.5888662366381"/><path class="valley" d="M 253.91513402888413 1131.7970848147302 C 326.05199383124045 1065.9910406110005 380.82176690901076 900.5507821105969 300.0 610.9091576705589"/><path class="valley" d="M 253.9151340288841 1131.7970848147302 C 253.9151340288841 1131.7970848147302 253.9151340288841 1131.7970848147302 253.9151340288841 1131.7970848147302"/><path class="valley" d="M 253.9151340288841 1131.7970848147302 C 253.91513402888404 1131.7970848147302 253.91513402888398 1131.7970848147304 253.91513402888393 1131.7970848147306"/><path class="valley" d="M 399.99999999999994 999.4269674461407 C 376.44195715089927 919.5577856779905 370.4500257732319 807.6328458667405 400.00000000000017 659.2294491044801"/><path class="valley" d="M 253.9151340288838 1131.7970848147302 C 253.9151340288838 1131.7970848147302 253.9151340288838 1131.7970848147302 253.9151340288838 1131.7970848147302"/><path class="valley" d="M 253.9151340288838 1131.7970848147302 C 234.27101441163327 1115.144124100439 215.58223734140867 1091.5211028267306 200.0 1060.398748275181"/><path class="valley" d="M 347.70049349553403 178.88074436937785 C 248.84845978845448 242.01889047999896 251.4499383097851 385.1002091531842 355.13328927076446 587.68451200705"/><path class="valley" d="M 355.13328927076446 587.68451200705 C 355.13328927076446 587.68451200705 355.13328927076446 587.68451200705 355.13328927076446 587.68451200705"/><path class="valley" d="M 347.70049349553403 178.88074436937785 C 369.8736666592108 191.9332328141431 387.30814306317006 209.0073581257422 400.0 229.88737139653338"/><path class="valley" d="M 400.0 474.9198291165607 C 388.7646397950534 510.03119188450245 373.8099746396021 547.6691993341576 355.1332892707645 587.68451200705"/><path class="valley" d="M 200.0 295.6808186192063 C 204.42021425285947 321.9552976287558 204.4213890655438 351.60176822326366 200.00000000000003 384.42638630981867"/><path class="valley" d="M 252.299506504466 1042.93757097174 C 351.1515402115456 979.7994248611187 348.55006169021493 836.7181061879334 244.86671072923554 634.1338033340677"/><path class="valley" d="M 400.00000000000006 926.1374967219112 C 395.57978574714053 899.8630177123617 395.5786109344562 870.2165471178539 400.0 837.3919290312987"/><path class="valley" d="M 252.29950650446582 1042.93757097174 C 230.1263333407891 1029.8850825269747 212.69185693682994 1012.8109572153755 200.0 991.9309439445846"/><path class="valley" d="M 199.99999999999997 746.8984862245569 C 211.23536020494655 711.7871234566153 226.19002536039793 674.14911600696 244.86671072923548 634.1338033340676"/><path class="valley" d="M 348.81541286181863 240.2013095150287 C 271.73228986897277 278.40732268628494 273.2931769817712 364.25611389019605 353.27509032695684 485.4835700976319"/><path class="valley" d="M 348.8154128618186 240.20130951502873 C 373.4858307183056 251.3310599247621 390.5496738751849 267.45565928272 400.00000000000006 288.19327930378773"/><path class="valley" d="M 400.0000000000001 385.9628884109687 C 391.1326397955835 415.5998971153174 375.55957947522074 448.8784840633773 353.2750903269569 485.4835700976319"/><path class="valley" d="M 353.2750903269569 485.4835700976319 C 353.2750903269569 485.4835700976319 353.2750903269569 485.4835700976319 353.2750903269569 485.4835700976319"/><path class="valley" d="M 251.18458713818143 981.6170058260891 C 328.26771013102723 943.4109926548325 326.7068230182289 857.5622014509214 246.72490967304316 736.3347452434857"/><path class="valley" d="M 251.18458713818126 981.6170058260891 C 226.51416928169442 970.4872554163558 209.45032612481512 954.3626560583981 200.0 933.6250360373306"/><path class="valley" d="M 199.99999999999997 835.8554269301487 C 208.86736020441657 806.2184182258001 224.44042052477934 772.9398312777402 246.72490967304304 736.3347452434857"/><line class="valley" x1="433.33700521407064" y1="0.0" x2="455.5518836748182" y2="1221.8183153411178"/><line class="valley" x1="544.4481163251817" y1="0.0" x2="566.6629947859294" y2="1221.8183153411178"/><line class="valley" x1="434.7974663687776" y1="0.0" x2="546.084865971116" y2="90.02123052638744"/><line class="valley" x1="600.0" y1="43.066031030734834" x2="546.0848659711161" y2="90.02123052638746"/><line class="valley" x1="431.93846874662097" y1="0.0" x2="400.0" y2="27.815514114827767"/><line class="valley" x1="565.2025336312228" y1="1221.818315341118" x2="453.9151340288839" y2="1131.79708481473"/><line class="valley" x1="600.0" y1="1194.0028012262896" x2="568.0615312533786" y2="1221.8183153411178"/><line class="valley" x1="453.9151340288839" y1="1131.7970848147302" x2="400.0" y2="1178.7522843103825"/><line class="valley" x1="489.67815965337445" y1="44.43016082837631" x2="474.75721799999434" y2="139.22281433691467"/><line class="valley" x1="489.7140959081667" y1="44.38573517096317" x2="544.8700569258929" y2="23.206733039112926"/><line class="valley" x1="600.0" y1="42.10637264678449" x2="544.8700569258929" y2="23.206733039112954"/><line class="valley" x1="510.3218403466256" y1="1177.3881545127413" x2="525.2427820000057" y2="1082.5955010042028"/><line class="valley" x1="510.2859040918336" y1="1177.4325801701543" x2="455.1299430741071" y2="1198.6115823020048"/><line class="valley" x1="399.99999999999994" y1="1179.711942694333" x2="455.12994307410713" y2="1198.6115823020045"/><path class="valley" d="M 474.75721799999434 139.22281433691467 C 470.605454959441 165.55984101797753 459.388561173968 210.61335557213536 437.4968082181041 228.7891652218379"/><path class="valley" d="M 437.4968082181041 228.7891652218379 C 437.4968082181041 228.7891652218379 437.4968082181041 228.7891652218379 437.4968082181041 228.7891652218379"/><path class="valley" d="M 400.0 154.18897062200938 C 406.3968049590216 180.1776166509844 418.5069518242819 214.1554049183549 437.4968082181041 228.7891652218379"/><path class="valley" d="M 525.2427820000057 1082.5955010042028 C 529.394545040559 1056.25847432314 540.611438826032 1011.2049597689822 562.503191781896 993.0291501192796"/><path class="valley" d="M 600.0 1067.629344719108 C 593.6031950409784 1041.6406986901331 581.4930481757181 1007.6629104227626 562.503191781896 993.0291501192798"/><path class="valley" d="M 562.503191781896 993.0291501192798 C 562.503191781896 993.0291501192798 562.503191781896 993.0291501192798 562.503191781896 993.0291501192798"/><line class="valley" x1="489.67815965337445" y1="44.43016082837631" x2="433.7956531746229" y2="25.225637830372673"/><line class="valley" x1="489.7140959081667" y1="44.38573517096317" x2="463.0165920079293" y2="1.6653345369377348e-14"/><line class="valley" x1="400.0" y1="38.23174243633782" x2="433.7956531746229" y2="25.225637830372683"/><line class="valley" x1="400.0" y1="7.727993347799799" x2="404.27368115530874" y2="5.551115123125783e-15"/><line class="valley" x1="510.3218403466256" y1="1177.3881545127413" x2="566.2043468253772" y2="1196.592677510745"/><line class="valley" x1="510.2859040918336" y1="1177.4325801701543" x2="536.983407992071" y2="1221.8183153411178"/><line class="valley" x1="600.0" y1="1183.5865729047798" x2="566.2043468253772" y2="1196.5926775107453"/><line class="valley" x1="600.0000000000005" y1="1214.0903219933161" x2="595.7263188446905" y2="1221.8183153411178"/><path class="valley" d="M 546.0848659711161 90.02123052638747 C 546.0848659711161 90.02123052638748 546.084865971116 90.0212305263875 546.084865971116 90.02123052638751"/><path class="valley" d="M 546.084865971116 90.02123052638751 C 473.9480061687596 155.82727473011678 419.17823309098924 321.2675332305207 500.0 610.9091576705589"/><path class="valley" d="M 546.0848659711161 90.02123052638753 C 565.7289855883666 106.67419124067858 584.4177626585913 130.29721251438698 600.0 161.41956706593663"/><path class="valley" d="M 400.0 222.3913478949762 C 423.5580428491008 302.26052966312653 429.5499742267682 414.1854694743772 399.9999999999998 562.5888662366381"/><path class="valley" d="M 453.9151340288841 1131.7970848147302 C 526.0519938312405 1065.9910406110005 580.8217669090108 900.5507821105969 500.0 610.9091576705589"/><path class="valley" d="M 453.9151340288841 1131.7970848147302 C 453.9151340288841 1131.7970848147302 453.9151340288841 1131.7970848147302 453.9151340288841 1131.7970848147302"/><path class="valley" d="M 453.9151340288841 1131.7970848147302 C 453.91513402888404 1131.7970848147302 453.915134028884 1131.7970848147304 453.9151340288839 1131.7970848147306"/><path class="valley" d="M 600.0 999.4269674461407 C 576.4419571508993 919.5577856779905 570.4500257732319 807.6328458667405 600.0000000000002 659.2294491044801"/><path class="valley" d="M 453.9151340288838 1131.7970848147302 C 453.9151340288838 1131.7970848147302 453.9151340288838 1131.7970848147302 453.9151340288838 1131.7970848147302"/><path class="valley" d="M 453.9151340288838 1131.7970848147302 C 434.27101441163325 1115.144124100439 415.58223734140864 1091.5211028267306 400.0 1060.398748275181"/><path class="valley" d="M 547.700493495534 178.88074436937785 C 448.8484597884545 242.01889047999896 451.4499383097851 385.1002091531842 555.1332892707644 587.68451200705"/><path class="valley" d="M 555.1332892707644 587.68451200705 C 555.1332892707644 587.68451200705 555.1332892707644 587.68451200705 555.1332892707644 587.68451200705"/><path class="valley" d="M 547.700493495534 178.88074436937785 C 569.8736666592108 191.9332328141431 587.3081430631701 209.0073581257422 600.0 229.88737139653338"/><path class="valley" d="M 600.0 474.9198291165607 C 588.7646397950534 510.03119188450245 573.8099746396022 547.6691993341576 555.1332892707645 587.68451200705"/><path class="valley" d="M 400.0 295.6808186192063 C 404.42021425285947 321.9552976287558 404.4213890655438 351.60176822326366 400.00000000000006 384.42638630981867"/><path class="valley" d="M 452.29950650446597 1042.93757097174 C 551.1515402115456 979.7994248611187 548.550061690215 836.7181061879334 444.86671072923554 634.1338033340677"/><path class="valley" d="M 600.0 926.1374967219112 C 595.5797857471405 899.8630177123617 595.5786109344563 870.2165471178539 600.0 837.3919290312987"/><path class="valley" d="M 452.29950650446585 1042.93757097174 C 430.1263333407891 1029.8850825269747 412.69185693682994 1012.8109572153755 400.0 991.9309439445846"/><path class="valley" d="M 400.0 746.8984862245569 C 411.2353602049466 711.7871234566153 426.19002536039795 674.14911600696 444.8667107292355 634.1338033340676"/><path class="valley" d="M 548.8154128618187 240.2013095150287 C 471.73228986897277 278.40732268628494 473.2931769817712 364.25611389019605 553.2750903269568 485.4835700976319"/><path class="valley" d="M 548.8154128618186 240.20130951502873 C 573.4858307183056 251.3310599247621 590.5496738751849 267.45565928272 600.0 288.19327930378773"/><path class="valley" d="M 600.0000000000001 385.9628884109687 C 591.1326397955835 415.5998971153174 575.5595794752207 448.8784840633773 553.2750903269568 485.4835700976319"/><path class="valley" d="M 553.2750903269568 485.4835700976319 C 553.2750903269568 485.4835700976319 553.2750903269568 485.4835700976319 553.2750903269568 485.4835700976319"/><path class="valley" d="M 451.1845871381814 981.6170058260891 C 528.2677101310272 943.4109926548325 526.7068230182289 857.5622014509214 446.72490967304316 736.3347452434857"/><path class="valley" d="M 451.18458713818126 981.6170058260891 C 426.5141692816944 970.4872554163558 409.4503261248151 954.3626560583981 400.0 933.6250360373306"/><path class="valley" d="M 399.99999999999994 835.8554269301487 C 408.86736020441657 806.2184182258001 424.4404205247793 772.9398312777402 446.72490967304304 736.3347452434857"/><line class="valley" x1="633.3370052140707" y1="0.0" x2="655.5518836748182" y2="1221.8183153411178"/><line class="valley" x1="744.4481163251817" y1="0.0" x2="766.6629947859294" y2="1221.8183153411178"/><line class="valley" x1="634.7974663687776" y1="0.0" x2="746.084865971116" y2="90.02123052638744"/><line class="valley" x1="800.0" y1="43.066031030734834" x2="746.0848659711161" y2="90.02123052638746"/><line class="valley" x1="631.938468746621" y1="0.0" x2="600.0" y2="27.815514114827767"/><line class="valley" x1="765.2025336312228" y1="1221.818315341118" x2="653.9151340288839" y2="1131.79708481473"/><line class="valley" x1="800.0" y1="1194.0028012262896" x2="768.0615312533786" y2="1221.8183153411178"/><line class="valley" x1="653.9151340288839" y1="1131.7970848147302" x2="600.0" y2="1178.7522843103825"/><line class="valley" x1="689.6781596533745" y1="44.43016082837631" x2="674.7572179999944" y2="139.22281433691467"/><line class="valley" x1="689.7140959081667" y1="44.38573517096317" x2="744.8700569258929" y2="23.206733039112926"/><line class="valley" x1="800.0" y1="42.10637264678449" x2="744.8700569258929" y2="23.206733039112954"/><line class="valley" x1="710.3218403466257" y1="1177.3881545127413" x2="725.2427820000057" y2="1082.5955010042028"/><line class="valley" x1="710.2859040918336" y1="1177.4325801701543" x2="655.1299430741071" y2="1198.6115823020048"/><line class="valley" x1="600.0" y1="1179.711942694333" x2="655.1299430741071" y2="1198.6115823020045"/><path class="valley" d="M 674.7572179999944 139.22281433691467 C 670.605454959441 165.55984101797753 659.388561173968 210.61335557213536 637.4968082181041 228.7891652218379"/><path class="valley" d="M 637.4968082181041 228.7891652218379 C 637.4968082181041 228.7891652218379 637.4968082181041 228.7891652218379 637.4968082181041 228.7891652218379"/><path class="valley" d="M 600.0 154.18897062200938 C 606.3968049590216 180.1776166509844 618.5069518242819 214.1554049183549 637.4968082181041 228.7891652218379"/><path class="valley" d="M 725.2427820000057 1082.5955010042028 C 729.394545040559 1056.25847432314 740.611438826032 1011.2049597689822 762.503191781896 993.0291501192796"/><path class="valley" d="M 800.0 1067.629344719108 C 793.6031950409784 1041.6406986901331 781.4930481757181 1007.6629104227626 762.503191781896 993.0291501192798"/><path class="valley" d="M 762.503191781896 993.0291501192798 C 762.503191781896 993.0291501192798 762.503191781896 993.0291501192798 762.503191781896 993.0291501192798"/><line class="valley" x1="689.6781596533745" y1="44.43016082837631" x2="633.7956531746229" y2="25.225637830372673"/><line class="valley" x1="689.7140959081667" y1="44.38573517096317" x2="663.0165920079294" y2="1.6653345369377348e-14"/><line class="valley" x1="600.0" y1="38.23174243633782" x2="633.7956531746229" y2="25.225637830372683"/><line class="valley" x1="600.0" y1="7.727993347799799" x2="604.2736811553087" y2="5.551115123125783e-15"/><line class="valley" x1="710.3218403466257" y1="1177.3881545127413" x2="766.2043468253772" y2="1196.592677510745"/><line class="valley" x1="710.2859040918336" y1="1177.4325801701543" x2="736.983407992071" y2="1221.8183153411178"/><line class="valley" x1="800.0" y1="1183.5865729047798" x2="766.2043468253772" y2="1196.5926775107453"/><line class="valley" x1="800.0000000000005" y1="1214.0903219933161" x2="795.7263188446905" y2="1221.8183153411178"/><path class="valley" d="M 746.0848659711161 90.02123052638747 C 746.0848659711161 90.02123052638748 746.084865971116 90.0212305263875 746.084865971116 90.02123052638751"/><path class="valley" d="M 746.084865971116 90.02123052638751 C 673.9480061687595 155.82727473011678 619.1782330909892 321.2675332305207 700.0 610.9091576705589"/><path class="valley" d="M 746.0848659711161 90.02123052638753 C 765.7289855883666 106.67419124067858 784.4177626585913 130.29721251438698 800.0 161.41956706593663"/><path class="valley" d="M 600.0 222.3913478949762 C 623.5580428491007 302.26052966312653 629.5499742267682 414.1854694743772 599.9999999999998 562.5888662366381"/><path class="valley" d="M 653.9151340288842 1131.7970848147302 C 726.0519938312405 1065.9910406110005 780.8217669090108 900.5507821105969 700.0 610.9091576705589"/><path class="valley" d="M 653.9151340288842 1131.7970848147302 C 653.9151340288842 1131.7970848147302 653.9151340288842 1131.7970848147302 653.9151340288842 1131.7970848147302"/><path class="valley" d="M 653.9151340288842 1131.7970848147302 C 653.915134028884 1131.7970848147302 653.915134028884 1131.7970848147304 653.9151340288839 1131.7970848147306"/><path class="valley" d="M 800.0 999.4269674461407 C 776.4419571508993 919.5577856779905 770.4500257732319 807.6328458667405 800.0000000000002 659.2294491044801"/><path class="valley" d="M 653.9151340288838 1131.7970848147302 C 653.9151340288838 1131.7970848147302 653.9151340288838 1131.7970848147302 653.9151340288838 1131.7970848147302"/><path class="valley" d="M 653.9151340288838 1131.7970848147302 C 634.2710144116332 1115.144124100439 615.5822373414087 1091.5211028267306 600.0 1060.398748275181"/><path class="valley" d="M 747.700493495534 178.88074436937785 C 648.8484597884544 242.01889047999896 651.4499383097851 385.1002091531842 755.1332892707644 587.68451200705"/><path class="valley" d="M 755.1332892707644 587.68451200705 C 755.1332892707644 587.68451200705 755.1332892707644 587.68451200705 755.1332892707644 587.68451200705"/><path class="valley" d="M 747.700493495534 178.88074436937785 C 769.8736666592108 191.9332328141431 787.3081430631701 209.0073581257422 800.0 229.88737139653338"/><path class="valley" d="M 800.0 474.9198291165607 C 788.7646397950534 510.03119188450245 773.8099746396022 547.6691993341576 755.1332892707645 587.68451200705"/><path class="valley" d="M 600.0 295.6808186192063 C 604.4202142528594 321.9552976287558 604.4213890655437 351.60176822326366 600.0 384.42638630981867"/><path class="valley" d="M 652.299506504466 1042.93757097174 C 751.1515402115456 979.7994248611187 748.550061690215 836.7181061879334 644.8667107292356 634.1338033340677"/><path class="valley" d="M 800.0 926.1374967219112 C 795.5797857471405 899.8630177123617 795.5786109344563 870.2165471178539 800.0 837.3919290312987"/><path class="valley" d="M 652.2995065044659 1042.93757097174 C 630.1263333407891 1029.8850825269747 612.6918569368299 1012.8109572153755 600.0 991.9309439445846"/><path class="valley" d="M 600.0 746.8984862245569 C 611.2353602049466 711.7871234566153 626.190025360398 674.14911600696 644.8667107292355 634.1338033340676"/><path class="valley" d="M 748.8154128618187 240.2013095150287 C 671.7322898689728 278.40732268628494 673.2931769817712 364.25611389019605 753.2750903269568 485.4835700976319"/><path class="valley" d="M 748.8154128618186 240.20130951502873 C 773.4858307183056 251.3310599247621 790.5496738751849 267.45565928272 800.0 288.19327930378773"/><path class="valley" d="M 800.0000000000001 385.9628884109687 C 791.1326397955835 415.5998971153174 775.5595794752207 448.8784840633773 753.2750903269568 485.4835700976319"/><path class="valley" d="M 753.2750903269568 485.4835700976319 C 753.2750903269568 485.4835700976319 753.2750903269568 485.4835700976319 753.2750903269568 485.4835700976319"/><path class="valley" d="M 651.1845871381814 981.6170058260891 C 728.2677101310272 943.4109926548325 726.7068230182289 857.5622014509214 646.7249096730432 736.3347452434857"/><path class="valley" d="M 651.1845871381813 981.6170058260891 C 626.5141692816944 970.4872554163558 609.4503261248151 954.3626560583981 600.0 933.6250360373306"/><path class="valley" d="M 600.0 835.8554269301487 C 608.8673602044166 806.2184182258001 624.4404205247794 772.9398312777402 646.724909673043 736.3347452434857"/><line class="valley" x1="833.3370052140707" y1="0.0" x2="855.5518836748182" y2="1221.8183153411178"/><line class="valley" x1="944.4481163251817" y1="0.0" x2="966.6629947859294" y2="1221.8183153411178"/><line class="valley" x1="834.7974663687776" y1="0.0" x2="946.084865971116" y2="90.02123052638744"/><line class="valley" x1="1000.0" y1="43.066031030734834" x2="946.0848659711161" y2="90.02123052638746"/><line class="valley" x1="831.938468746621" y1="0.0" x2="800.0" y2="27.815514114827767"/><line class="valley" x1="965.2025336312228" y1="1221.818315341118" x2="853.9151340288839" y2="1131.79708481473"/><line class="valley" x1="1000.0" y1="1194.0028012262896" x2="968.0615312533786" y2="1221.8183153411178"/><line class="valley" x1="853.9151340288839" y1="1131.7970848147302" x2="800.0" y2="1178.7522843103825"/><line class="valley" x1="889.6781596533745" y1="44.43016082837631" x2="874.7572179999944" y2="139.22281433691467"/><line class="valley" x1="889.7140959081667" y1="44.38573517096317" x2="944.8700569258929" y2="23.206733039112926"/><line class="valley" x1="1000.0" y1="42.10637264678449" x2="944.8700569258929" y2="23.206733039112954"/><line class="valley" x1="910.3218403466257" y1="1177.3881545127413" x2="925.2427820000057" y2="1082.5955010042028"/><line class="valley" x1="910.2859040918336" y1="1177.4325801701543" x2="855.1299430741071" y2="1198.6115823020048"/><line class="valley" x1="800.0" y1="1179.711942694333" x2="855.1299430741071" y2="1198.6115823020045"/><path class="valley" d="M 874.7572179999944 139.22281433691467 C 870.605454959441 165.55984101797753 859.388561173968 210.61335557213536 837.4968082181041 228.7891652218379"/><path class="valley" d="M 837.4968082181041 228.7891652218379 C 837.4968082181041 228.7891652218379 837.4968082181041 228.7891652218379 837.4968082181041 228.7891652218379"/><path class="valley" d="M 800.0 154.18897062200938 C 806.3968049590216 180.1776166509844 818.5069518242819 214.1554049183549 837.4968082181041 228.7891652218379"/><path class="valley" d="M 925.2427820000057 1082.5955010042028 C 929.394545040559 1056.25847432314 940.611438826032 1011.2049597689822 962.503191781896 993.0291501192796"/><path class="valley" d="M 1000.0 1067.629344719108 C 993.6031950409784 1041.6406986901331 981.4930481757181 1007.6629104227626 962.503191781896 993.0291501192798"/><path class="valley" d="M 962.503191781896 993.0291501192798 C 962.503191781896 993.0291501192798 962.503191781896 993.0291501192798 962.503191781896 993.0291501192798"/><line class="valley" x1="889.6781596533745" y1="44.43016082837631" x2="833.7956531746229" y2="25.225637830372673"/><line class="valley" x1="889.7140959081667" y1="44.38573517096317" x2="863.0165920079294" y2="1.6653345369377348e-14"/><line class="valley" x1="800.0" y1="38.23174243633782" x2="833.7956531746229" y2="25.225637830372683"/><line class="valley" x1="800.0" y1="7.727993347799799" x2="804.2736811553087" y2="5.551115123125783e-15"/><line class="valley" x1="910.3218403466257" y1="1177.3881545127413" x2="966.2043468253772" y2="1196.592677510745"/><line class="valley" x1="910.2859040918336" y1="1177.4325801701543" x2="936.983407992071" y2="1221.8183153411178"/><line class="valley" x1="1000.0" y1="1183.5865729047798" x2="966.2043468253772" y2="1196.5926775107453"/><line class="valley" x1="1000.0000000000005" y1="1214.0903219933161" x2="995.7263188446905" y2="1221.8183153411178"/><path class="valley" d="M 946.0848659711161 90.02123052638747 C 946.0848659711161 90.02123052638748 946.084865971116 90.0212305263875 946.084865971116 90.02123052638751"/><path class="valley" d="M 946.084865971116 90.02123052638751 C 873.9480061687595 155.82727473011678 819.1782330909892 321.2675332305207 900.0 610.9091576705589"/><path class="valley" d="M 946.0848659711161 90.02123052638753 C 965.7289855883666 106.67419124067858 984.4177626585913 130.29721251438698 1000.0 161.41956706593663"/><path class="valley" d="M 800.0 222.3913478949762 C 823.5580428491007 302.26052966312653 829.5499742267682 414.1854694743772 799.9999999999998 562.5888662366381"/><path class="valley" d="M 853.9151340288842 1131.7970848147302 C 926.0519938312405 1065.9910406110005 980.8217669090108 900.5507821105969 900.0 610.9091576705589"/><path class="valley" d="M 853.9151340288842 1131.7970848147302 C 853.9151340288842 1131.7970848147302 853.9151340288842 1131.7970848147302 853.9151340288842 1131.7970848147302"/><path class="valley" d="M 853.9151340288842 1131.7970848147302 C 853.915134028884 1131.7970848147302 853.915134028884 1131.7970848147304 853.9151340288839 1131.7970848147306"/><path class="valley" d="M 1000.0 999.4269674461407 C 976.4419571508993 919.5577856779905 970.4500257732319 807.6328458667405 1000.0000000000002 659.2294491044801"/><path class="valley" d="M 853.9151340288838 1131.7970848147302 C 853.9151340288838 1131.7970848147302 853.9151340288838 1131.7970848147302 853.9151340288838 1131.7970848147302"/><path class="valley" d="M 853.9151340288838 1131.7970848147302 C 834.2710144116332 1115.144124100439 815.5822373414087 1091.5211028267306 800.0 1060.398748275181"/><path class="valley" d="M 947.700493495534 178.88074436937785 C 848.8484597884544 242.01889047999896 851.4499383097851 385.1002091531842 955.1332892707644 587.68451200705"/><path class="valley" d="M 955.1332892707644 587.68451200705 C 955.1332892707644 587.68451200705 955.1332892707644 587.68451200705 955.1332892707644 587.68451200705"/><path class="valley" d="M 947.700493495534 178.88074436937785 C 969.8736666592108 191.9332328141431 987.3081430631701 209.0073581257422 1000.0 229.88737139653338"/><path class="valley" d="M 1000.0 474.9198291165607 C 988.7646397950534 510.03119188450245 973.8099746396022 547.6691993341576 955.1332892707645 587.68451200705"/><path class="valley" d="M 800.0 295.6808186192063 C 804.4202142528594 321.9552976287558 804.4213890655437 351.60176822326366 800.0 384.42638630981867"/><path class="valley" d="M 852.299506504466 1042.93757097174 C 951.1515402115456 979.7994248611187 948.550061690215 836.7181061879334 844.8667107292356 634.1338033340677"/><path class="valley" d="M 1000.0 926.1374967219112 C 995.5797857471405 899.8630177123617 995.5786109344563 870.2165471178539 1000.0 837.3919290312987"/><path class="valley" d="M 852.2995065044659 1042.93757097174 C 830.1263333407891 1029.8850825269747 812.6918569368299 1012.8109572153755 800.0 991.9309439445846"/><path class="valley" d="M 800.0 746.8984862245569 C 811.2353602049466 711.7871234566153 826.190025360398 674.14911600696 844.8667107292355 634.1338033340676"/><path class="valley" d="M 948.8154128618187 240.2013095150287 C 871.7322898689728 278.40732268628494 873.2931769817712 364.25611389019605 953.2750903269568 485.4835700976319"/><path class="valley" d="M 948.8154128618186 240.20130951502873 C 973.4858307183056 251.3310599247621 990.5496738751849 267.45565928272 1000.0 288.19327930378773"/><path class="valley" d="M 1000.0000000000001 385.9628884109687 C 991.1326397955835 415.5998971153174 975.5595794752207 448.8784840633773 953.2750903269568 485.4835700976319"/><path class="valley" d="M 953.2750903269568 485.4835700976319 C 953.2750903269568 485.4835700976319 953.2750903269568 485.4835700976319 953.2750903269568 485.4835700976319"/><path class="valley" d="M 851.1845871381814 981.6170058260891 C 928.2677101310272 943.4109926548325 926.7068230182289 857.5622014509214 846.7249096730432 736.3347452434857"/><path class="valley" d="M 851.1845871381813 981.6170058260891 C 826.5141692816944 970.4872554163558 809.4503261248151 954.3626560583981 800.0 933.6250360373306"/><path class="valley" d="M 800.0 835.8554269301487 C 808.8673602044166 806.2184182258001 824.4404205247794 772.9398312777402 846.724909673043 736.3347452434857"/><line class="valley" x1="1033.3370052140706" y1="0.0" x2="1055.5518836748183" y2="1221.8183153411178"/><line class="valley" x1="1144.4481163251817" y1="0.0" x2="1166.6629947859294" y2="1221.8183153411178"/><line class="valley" x1="1034.7974663687776" y1="0.0" x2="1146.084865971116" y2="90.02123052638744"/><line class="valley" x1="1200.0" y1="43.066031030734834" x2="1146.084865971116" y2="90.02123052638746"/><line class="valley" x1="1031.9384687466209" y1="0.0" x2="1000.0" y2="27.815514114827767"/><line class="valley" x1="1165.2025336312227" y1="1221.818315341118" x2="1053.9151340288838" y2="1131.79708481473"/><line class="valley" x1="1200.0" y1="1194.0028012262896" x2="1168.0615312533785" y2="1221.8183153411178"/><line class="valley" x1="1053.9151340288838" y1="1131.7970848147302" x2="1000.0" y2="1178.7522843103825"/><line class="valley" x1="1089.6781596533745" y1="44.43016082837631" x2="1074.7572179999943" y2="139.22281433691467"/><line class="valley" x1="1089.7140959081667" y1="44.38573517096317" x2="1144.8700569258929" y2="23.206733039112926"/><line class="valley" x1="1200.0" y1="42.10637264678449" x2="1144.8700569258929" y2="23.206733039112954"/><line class="valley" x1="1110.3218403466255" y1="1177.3881545127413" x2="1125.2427820000057" y2="1082.5955010042028"/><line class="valley" x1="1110.2859040918336" y1="1177.4325801701543" x2="1055.1299430741071" y2="1198.6115823020048"/><line class="valley" x1="1000.0" y1="1179.711942694333" x2="1055.1299430741071" y2="1198.6115823020045"/><path class="valley" d="M 1074.7572179999943 139.22281433691467 C 1070.605454959441 165.55984101797753 1059.3885611739681 210.61335557213536 1037.496808218104 228.7891652218379"/><path class="valley" d="M 1037.496808218104 228.7891652218379 C 1037.496808218104 228.7891652218379 1037.496808218104 228.7891652218379 1037.496808218104 228.7891652218379"/><path class="valley" d="M 1000.0 154.18897062200938 C 1006.3968049590216 180.1776166509844 1018.5069518242819 214.1554049183549 1037.496808218104 228.7891652218379"/><path class="valley" d="M 1125.2427820000057 1082.5955010042028 C 1129.394545040559 1056.25847432314 1140.611438826032 1011.2049597689822 1162.503191781896 993.0291501192796"/><path class="valley" d="M 1200.0 1067.629344719108 C 1193.6031950409783 1041.6406986901331 1181.493048175718 1007.6629104227626 1162.503191781896 993.0291501192798"/><path class="valley" d="M 1162.503191781896 993.0291501192798 C 1162.503191781896 993.0291501192798 1162.503191781896 993.0291501192798 1162.503191781896 993.0291501192798"/><line class="valley" x1="1089.6781596533745" y1="44.43016082837631" x2="1033.7956531746229" y2="25.225637830372673"/><line class="valley" x1="1089.7140959081667" y1="44.38573517096317" x2="1063.0165920079294" y2="1.6653345369377348e-14"/><line class="valley" x1="1000.0" y1="38.23174243633782" x2="1033.7956531746229" y2="25.225637830372683"/><line class="valley" x1="1000.0" y1="7.727993347799799" x2="1004.2736811553087" y2="5.551115123125783e-15"/><line class="valley" x1="1110.3218403466255" y1="1177.3881545127413" x2="1166.2043468253771" y2="1196.592677510745"/><line class="valley" x1="1110.2859040918336" y1="1177.4325801701543" x2="1136.983407992071" y2="1221.8183153411178"/><line class="valley" x1="1200.0" y1="1183.5865729047798" x2="1166.2043468253773" y2="1196.5926775107453"/><line class="valley" x1="1200.0000000000005" y1="1214.0903219933161" x2="1195.7263188446905" y2="1221.8183153411178"/><path class="valley" d="M 1146.084865971116 90.02123052638747 C 1146.084865971116 90.02123052638748 1146.084865971116 90.0212305263875 1146.084865971116 90.02123052638751"/><path class="valley" d="M 1146.084865971116 90.02123052638751 C 1073.9480061687595 155.82727473011678 1019.1782330909892 321.2675332305207 1100.0 610.9091576705589"/><path class="valley" d="M 1146.084865971116 90.02123052638753 C 1165.7289855883666 106.67419124067858 1184.4177626585913 130.29721251438698 1200.0 161.41956706593663"/><path class="valley" d="M 1000.0 222.3913478949762 C 1023.5580428491007 302.26052966312653 1029.5499742267682 414.1854694743772 999.9999999999998 562.5888662366381"/><path class="valley" d="M 1053.915134028884 1131.7970848147302 C 1126.0519938312405 1065.9910406110005 1180.8217669090109 900.5507821105969 1100.0 610.9091576705589"/><path class="valley" d="M 1053.915134028884 1131.7970848147302 C 1053.915134028884 1131.7970848147302 1053.915134028884 1131.7970848147302 1053.915134028884 1131.7970848147302"/><path class="valley" d="M 1053.915134028884 1131.7970848147302 C 1053.915134028884 1131.7970848147302 1053.915134028884 1131.7970848147304 1053.915134028884 1131.7970848147306"/><path class="valley" d="M 1200.0 999.4269674461407 C 1176.4419571508993 919.5577856779905 1170.4500257732318 807.6328458667405 1200.0000000000002 659.2294491044801"/><path class="valley" d="M 1053.9151340288838 1131.7970848147302 C 1053.9151340288838 1131.7970848147302 1053.9151340288838 1131.7970848147302 1053.9151340288838 1131.7970848147302"/><path class="valley" d="M 1053.9151340288838 1131.7970848147302 C 1034.2710144116334 1115.144124100439 1015.5822373414087 1091.5211028267306 1000.0 1060.398748275181"/><path class="valley" d="M 1147.7004934955341 178.88074436937785 C 1048.8484597884544 242.01889047999896 1051.449938309785 385.1002091531842 1155.1332892707644 587.68451200705"/><path class="valley" d="M 1155.1332892707644 587.68451200705 C 1155.1332892707644 587.68451200705 1155.1332892707644 587.68451200705 1155.1332892707644 587.68451200705"/><path class="valley" d="M 1147.700493495534 178.88074436937785 C 1169.8736666592108 191.9332328141431 1187.30814306317 209.0073581257422 1200.0 229.88737139653338"/><path class="valley" d="M 1200.0 474.9198291165607 C 1188.7646397950534 510.03119188450245 1173.8099746396022 547.6691993341576 1155.1332892707646 587.68451200705"/><path class="valley" d="M 1000.0 295.6808186192063 C 1004.4202142528594 321.9552976287558 1004.4213890655437 351.60176822326366 1000.0 384.42638630981867"/><path class="valley" d="M 1052.299506504466 1042.93757097174 C 1151.1515402115456 979.7994248611187 1148.550061690215 836.7181061879334 1044.8667107292356 634.1338033340677"/><path class="valley" d="M 1200.0 926.1374967219112 C 1195.5797857471405 899.8630177123617 1195.5786109344563 870.2165471178539 1200.0 837.3919290312987"/><path class="valley" d="M 1052.2995065044659 1042.93757097174 C 1030.1263333407892 1029.8850825269747 1012.6918569368299 1012.8109572153755 1000.0 991.9309439445846"/><path class="valley" d="M 1000.0 746.8984862245569 C 1011.2353602049466 711.7871234566153 1026.1900253603978 674.14911600696 1044.8667107292354 634.1338033340676"/><path class="valley" d="M 1148.8154128618187 240.2013095150287 C 1071.7322898689729 278.40732268628494 1073.2931769817712 364.25611389019605 1153.2750903269568 485.4835700976319"/><path class="valley" d="M 1148.8154128618187 240.20130951502873 C 1173.4858307183056 251.3310599247621 1190.549673875185 267.45565928272 1200.0 288.19327930378773"/><path class="valley" d="M 1200.0 385.9628884109687 C 1191.1326397955836 415.5998971153174 1175.5595794752207 448.8784840633773 1153.2750903269568 485.4835700976319"/><path class="valley" d="M 1153.2750903269568 485.4835700976319 C 1153.2750903269568 485.4835700976319 1153.2750903269568 485.4835700976319 1153.2750903269568 485.4835700976319"/><path class="valley" d="M 1051.1845871381815 981.6170058260891 C 1128.2677101310273 943.4109926548325 1126.7068230182288 857.5622014509214 1046.7249096730432 736.3347452434857"/><path class="valley" d="M 1051.1845871381813 981.6170058260891 C 1026.5141692816944 970.4872554163558 1009.4503261248151 954.3626560583981 1000.0 933.6250360373306"/><path class="valley" d="M 1000.0 835.8554269301487 C 1008.8673602044166 806.2184182258001 1024.4404205247793 772.9398312777402 1046.7249096730432 736.3347452434857"/><line class="valley" x1="1233.3370052140706" y1="0.0" x2="1255.5518836748183" y2="1221.8183153411178"/><line class="valley" x1="1344.4481163251817" y1="0.0" x2="1366.6629947859294" y2="1221.8183153411178"/><line class="valley" x1="1234.7974663687776" y1="0.0" x2="1346.084865971116" y2="90.02123052638744"/><line class="valley" x1="1400.0" y1="43.066031030734834" x2="1346.084865971116" y2="90.02123052638746"/><line class="valley" x1="1231.9384687466209" y1="0.0" x2="1200.0" y2="27.815514114827767"/><line class="valley" x1="1365.2025336312227" y1="1221.818315341118" x2="1253.9151340288838" y2="1131.79708481473"/><line class="valley" x1="1400.0" y1="1194.0028012262896" x2="1368.0615312533785" y2="1221.8183153411178"/><line class="valley" x1="1253.9151340288838" y1="1131.7970848147302" x2="1200.0" y2="1178.7522843103825"/><line class="valley" x1="1289.6781596533745" y1="44.43016082837631" x2="1274.7572179999943" y2="139.22281433691467"/><line class="valley" x1="1289.7140959081667" y1="44.38573517096317" x2="1344.8700569258929" y2="23.206733039112926"/><line class="valley" x1="1400.0" y1="42.10637264678449" x2="1344.8700569258929" y2="23.206733039112954"/><line class="valley" x1="1310.3218403466255" y1="1177.3881545127413" x2="1325.2427820000057" y2="1082.5955010042028"/><line class="valley" x1="1310.2859040918336" y1="1177.4325801701543" x2="1255.1299430741071" y2="1198.6115823020048"/><line class="valley" x1="1200.0" y1="1179.711942694333" x2="1255.1299430741071" y2="1198.6115823020045"/><path class="valley" d="M 1274.7572179999943 139.22281433691467 C 1270.605454959441 165.55984101797753 1259.3885611739681 210.61335557213536 1237.496808218104 228.7891652218379"/><path class="valley" d="M 1237.496808218104 228.7891652218379 C 1237.496808218104 228.7891652218379 1237.496808218104 228.7891652218379 1237.496808218104 228.7891652218379"/><path class="valley" d="M 1200.0 154.18897062200938 C 1206.3968049590217 180.1776166509844 1218.506951824282 214.1554049183549 1237.496808218104 228.7891652218379"/><path class="valley" d="M 1325.2427820000057 1082.5955010042028 C 1329.394545040559 1056.25847432314 1340.611438826032 1011.2049597689822 1362.503191781896 993.0291501192796"/><path class="valley" d="M 1400.0 1067.629344719108 C 1393.6031950409783 1041.6406986901331 1381.493048175718 1007.6629104227626 1362.503191781896 993.0291501192798"/><path class="valley" d="M 1362.503191781896 993.0291501192798 C 1362.503191781896 993.0291501192798 1362.503191781896 993.0291501192798 1362.503191781896 993.0291501192798"/><line class="valley" x1="1289.6781596533745" y1="44.43016082837631" x2="1233.7956531746229" y2="25.225637830372673"/><line class="valley" x1="1289.7140959081667" y1="44.38573517096317" x2="1263.0165920079294" y2="1.6653345369377348e-14"/><line class="valley" x1="1200.0" y1="38.23174243633782" x2="1233.7956531746229" y2="25.225637830372683"/><line class="valley" x1="1200.0" y1="7.727993347799799" x2="1204.2736811553089" y2="5.551115123125783e-15"/><line class="valley" x1="1310.3218403466255" y1="1177.3881545127413" x2="1366.2043468253771" y2="1196.592677510745"/><line class="valley" x1="1310.2859040918336" y1="1177.4325801701543" x2="1336.983407992071" y2="1221.8183153411178"/><line class="valley" x1="1400.0" y1="1183.5865729047798" x2="1366.2043468253773" y2="1196.5926775107453"/><line class="valley" x1="1400.0000000000005" y1="1214.0903219933161" x2="1395.7263188446905" y2="1221.8183153411178"/><path class="valley" d="M 1346.084865971116 90.02123052638747 C 1346.084865971116 90.02123052638748 1346.084865971116 90.0212305263875 1346.084865971116 90.02123052638751"/><path class="valley" d="M 1346.084865971116 90.02123052638751 C 1273.9480061687595 155.82727473011678 1219.1782330909891 321.2675332305207 1300.0 610.9091576705589"/><path class="valley" d="M 1346.084865971116 90.02123052638753 C 1365.7289855883666 106.67419124067858 1384.4177626585913 130.29721251438698 1400.0 161.41956706593663"/><path class="valley" d="M 1200.0 222.3913478949762 C 1223.5580428491007 302.26052966312653 1229.5499742267682 414.1854694743772 1199.9999999999998 562.5888662366381"/><path class="valley" d="M 1253.915134028884 1131.7970848147302 C 1326.0519938312405 1065.9910406110005 1380.8217669090109 900.5507821105969 1300.0 610.9091576705589"/><path class="valley" d="M 1253.915134028884 1131.7970848147302 C 1253.915134028884 1131.7970848147302 1253.915134028884 1131.7970848147302 1253.915134028884 1131.7970848147302"/><path class="valley" d="M 1253.915134028884 1131.7970848147302 C 1253.915134028884 1131.7970848147302 1253.915134028884 1131.7970848147304 1253.915134028884 1131.7970848147306"/><path class="valley" d="M 1400.0 999.4269674461407 C 1376.4419571508993 919.5577856779905 1370.4500257732318 807.6328458667405 1400.0000000000002 659.2294491044801"/><path class="valley" d="M 1253.9151340288838 1131.7970848147302 C 1253.9151340288838 1131.7970848147302 1253.9151340288838 1131.7970848147302 1253.9151340288838 1131.7970848147302"/><path class="valley" d="M 1253.9151340288838 1131.7970848147302 C 1234.2710144116334 1115.144124100439 1215.5822373414087 1091.5211028267306 1200.0 1060.398748275181"/><path class="valley" d="M 1347.7004934955341 178.88074436937785 C 1248.8484597884544 242.01889047999896 1251.449938309785 385.1002091531842 1355.1332892707644 587.68451200705"/><path class="valley" d="M 1355.1332892707644 587.68451200705 C 1355.1332892707644 587.68451200705 1355.1332892707644 587.68451200705 1355.1332892707644 587.68451200705"/><path class="valley" d="M 1347.700493495534 178.88074436937785 C 1369.8736666592108 191.9332328141431 1387.30814306317 209.0073581257422 1400.0 229.88737139653338"/><path class="valley" d="M 1400.0 474.9198291165607 C 1388.7646397950534 510.03119188450245 1373.8099746396022 547.6691993341576 1355.1332892707646 587.68451200705"/><path class="valley" d="M 1200.0 295.6808186192063 C 1204.4202142528595 321.9552976287558 1204.4213890655437 351.60176822326366 1200.0 384.42638630981867"/><path class="valley" d="M 1252.299506504466 1042.93757097174 C 1351.1515402115456 979.7994248611187 1348.550061690215 836.7181061879334 1244.8667107292356 634.1338033340677"/><path class="valley" d="M 1400.0 926.1374967219112 C 1395.5797857471405 899.8630177123617 1395.5786109344563 870.2165471178539 1400.0 837.3919290312987"/><path class="valley" d="M 1252.2995065044659 1042.93757097174 C 1230.1263333407892 1029.8850825269747 1212.69185693683 1012.8109572153755 1200.0 991.9309439445846"/><path class="valley" d="M 1200.0 746.8984862245569 C 1211.2353602049466 711.7871234566153 1226.1900253603978 674.14911600696 1244.8667107292354 634.1338033340676"/><path class="valley" d="M 1348.8154128618187 240.2013095150287 C 1271.7322898689729 278.40732268628494 1273.2931769817712 364.25611389019605 1353.2750903269568 485.4835700976319"/><path class="valley" d="M 1348.8154128618187 240.20130951502873 C 1373.4858307183056 251.3310599247621 1390.549673875185 267.45565928272 1400.0 288.19327930378773"/><path class="valley" d="M 1400.0 385.9628884109687 C 1391.1326397955836 415.5998971153174 1375.5595794752207 448.8784840633773 1353.2750903269568 485.4835700976319"/><path class="valley" d="M 1353.2750903269568 485.4835700976319 C 1353.2750903269568 485.4835700976319 1353.2750903269568 485.4835700976319 1353.2750903269568 485.4835700976319"/><path class="valley" d="M 1251.1845871381815 981.6170058260891 C 1328.2677101310273 943.4109926548325 1326.7068230182288 857.5622014509214 1246.7249096730432 736.3347452434857"/><path class="valley" d="M 1251.1845871381813 981.6170058260891 C 1226.5141692816944 970.4872554163558 1209.450326124815 954.3626560583981 1200.0 933.6250360373306"/><path class="valley" d="M 1200.0 835.8554269301487 C 1208.8673602044166 806.2184182258001 1224.4404205247793 772.9398312777402 1246.7249096730432 736.3347452434857"/><line class="valley" x1="1433.3370052140706" y1="0.0" x2="1455.5518836748183" y2="1221.8183153411178"/><line class="valley" x1="1544.4481163251817" y1="0.0" x2="1566.6629947859294" y2="1221.8183153411178"/><line class="valley" x1="1434.7974663687776" y1="0.0" x2="1546.084865971116" y2="90.02123052638744"/><line class="valley" x1="1600.0" y1="43.066031030734834" x2="1546.084865971116" y2="90.02123052638746"/><line class="valley" x1="1431.9384687466209" y1="0.0" x2="1400.0" y2="27.815514114827767"/><line class="valley" x1="1565.2025336312227" y1="1221.818315341118" x2="1453.9151340288838" y2="1131.79708481473"/><line class="valley" x1="1600.0" y1="1194.0028012262896" x2="1568.0615312533785" y2="1221.8183153411178"/><line class="valley" x1="1453.9151340288838" y1="1131.7970848147302" x2="1400.0" y2="1178.7522843103825"/><line class="valley" x1="1489.6781596533745" y1="44.43016082837631" x2="1474.7572179999943" y2="139.22281433691467"/><line class="valley" x1="1489.7140959081667" y1="44.38573517096317" x2="1544.8700569258929" y2="23.206733039112926"/><line class="valley" x1="1600.0" y1="42.10637264678449" x2="1544.8700569258929" y2="23.206733039112954"/><line class="valley" x1="1510.3218403466255" y1="1177.3881545127413" x2="1525.2427820000057" y2="1082.5955010042028"/><line class="valley" x1="1510.2859040918336" y1="1177.4325801701543" x2="1455.1299430741071" y2="1198.6115823020048"/><line class="valley" x1="1400.0" y1="1179.711942694333" x2="1455.1299430741071" y2="1198.6115823020045"/><path class="valley" d="M 1474.7572179999943 139.22281433691467 C 1470.605454959441 165.55984101797753 1459.3885611739681 210.61335557213536 1437.496808218104 228.7891652218379"/><path class="valley" d="M 1437.496808218104 228.7891652218379 C 1437.496808218104 228.7891652218379 1437.496808218104 228.7891652218379 1437.496808218104 228.7891652218379"/><path class="valley" d="M 1400.0 154.18897062200938 C 1406.3968049590217 180.1776166509844 1418.506951824282 214.1554049183549 1437.496808218104 228.7891652218379"/><path class="valley" d="M 1525.2427820000057 1082.5955010042028 C 1529.394545040559 1056.25847432314 1540.611438826032 1011.2049597689822 1562.503191781896 993.0291501192796"/><path class="valley" d="M 1600.0 1067.629344719108 C 1593.6031950409783 1041.6406986901331 1581.493048175718 1007.6629104227626 1562.503191781896 993.0291501192798"/><path class="valley" d="M 1562.503191781896 993.0291501192798 C 1562.503191781896 993.0291501192798 1562.503191781896 993.0291501192798 1562.503191781896 993.0291501192798"/><line class="valley" x1="1489.6781596533745" y1="44.43016082837631" x2="1433.7956531746229" y2="25.225637830372673"/><line class="valley" x1="1489.7140959081667" y1="44.38573517096317" x2="1463.0165920079294" y2="1.6653345369377348e-14"/><line class="valley" x1="1400.0" y1="38.23174243633782" x2="1433.7956531746229" y2="25.225637830372683"/><line class="valley" x1="1400.0" y1="7.727993347799799" x2="1404.2736811553089" y2="5.551115123125783e-15"/><line class="valley" x1="1510.3218403466255" y1="1177.3881545127413" x2="1566.2043468253771" y2="1196.592677510745"/><line class="valley" x1="1510.2859040918336" y1="1177.4325801701543" x2="1536.983407992071" y2="1221.8183153411178"/><line class="valley" x1="1600.0" y1="1183.5865729047798" x2="1566.2043468253773" y2="1196.5926775107453"/><line class="valley" x1="1600.0000000000005" y1="1214.0903219933161" x2="1595.7263188446905" y2="1221.8183153411178"/><path class="valley" d="M 1546.084865971116 90.02123052638747 C 1546.084865971116 90.02123052638748 1546.084865971116 90.0212305263875 1546.084865971116 90.02123052638751"/><path class="valley" d="M 1546.084865971116 90.02123052638751 C 1473.9480061687595 155.82727473011678 1419.1782330909891 321.2675332305207 1500.0 610.9091576705589"/><path class="valley" d="M 1546.084865971116 90.02123052638753 C 1565.7289855883666 106.67419124067858 1584.4177626585913 130.29721251438698 1600.0 161.41956706593663"/><path class="valley" d="M 1400.0 222.3913478949762 C 1423.5580428491007 302.26052966312653 1429.5499742267682 414.1854694743772 1399.9999999999998 562.5888662366381"/><path class="valley" d="M 1453.915134028884 1131.7970848147302 C 1526.0519938312405 1065.9910406110005 1580.8217669090109 900.5507821105969 1500.0 610.9091576705589"/><path class="valley" d="M 1453.915134028884 1131.7970848147302 C 1453.915134028884 1131.7970848147302 1453.915134028884 1131.7970848147302 1453.915134028884 1131.7970848147302"/><path class="valley" d="M 1453.915134028884 1131.7970848147302 C 1453.915134028884 1131.7970848147302 1453.915134028884 1131.7970848147304 1453.915134028884 1131.7970848147306"/><path class="valley" d="M 1600.0 999.4269674461407 C 1576.4419571508993 919.5577856779905 1570.4500257732318 807.6328458667405 1600.0000000000002 659.2294491044801"/><path class="valley" d="M 1453.9151340288838 1131.7970848147302 C 1453.9151340288838 1131.7970848147302 1453.9151340288838 1131.7970848147302 1453.9151340288838 1131.7970848147302"/><path class="valley" d="M 1453.9151340288838 1131.7970848147302 C 1434.2710144116334 1115.144124100439 1415.5822373414087 1091.5211028267306 1400.0 1060.398748275181"/><path class="valley" d="M 1547.7004934955341 178.88074436937785 C 1448.8484597884544 242.01889047999896 1451.449938309785 385.1002091531842 1555.1332892707644 587.68451200705"/><path class="valley" d="M 1555.1332892707644 587.68451200705 C 1555.1332892707644 587.68451200705 1555.1332892707644 587.68451200705 1555.1332892707644 587.68451200705"/><path class="valley" d="M 1547.700493495534 178.88074436937785 C 1569.8736666592108 191.9332328141431 1587.30814306317 209.0073581257422 1600.0 229.88737139653338"/><path class="valley" d="M 1600.0 474.9198291165607 C 1588.7646397950534 510.03119188450245 1573.8099746396022 547.6691993341576 1555.1332892707646 587.68451200705"/><path class="valley" d="M 1400.0 295.6808186192063 C 1404.4202142528595 321.9552976287558 1404.4213890655437 351.60176822326366 1400.0 384.42638630981867"/><path class="valley" d="M 1452.299506504466 1042.93757097174 C 1551.1515402115456 979.7994248611187 1548.550061690215 836.7181061879334 1444.8667107292356 634.1338033340677"/><path class="valley" d="M 1600.0 926.1374967219112 C 1595.5797857471405 899.8630177123617 1595.5786109344563 870.2165471178539 1600.0 837.3919290312987"/><path class="valley" d="M 1452.2995065044659 1042.93757097174 C 1430.1263333407892 1029.8850825269747 1412.69185693683 1012.8109572153755 1400.0 991.9309439445846"/><path class="valley" d="M 1400.0 746.8984862245569 C 1411.2353602049466 711.7871234566153 1426.1900253603978 674.14911600696 1444.8667107292354 634.1338033340676"/><path class="valley" d="M 1548.8154128618187 240.2013095150287 C 1471.7322898689729 278.40732268628494 1473.2931769817712 364.25611389019605 1553.2750903269568 485.4835700976319"/><path class="valley" d="M 1548.8154128618187 240.20130951502873 C 1573.4858307183056 251.3310599247621 1590.549673875185 267.45565928272 1600.0 288.19327930378773"/><path class="valley" d="M 1600.0 385.9628884109687 C 1591.1326397955836 415.5998971153174 1575.5595794752207 448.8784840633773 1553.2750903269568 485.4835700976319"/><path class="valley" d="M 1553.2750903269568 485.4835700976319 C 1553.2750903269568 485.4835700976319 1553.2750903269568 485.4835700976319 1553.2750903269568 485.4835700976319"/><path class="valley" d="M 1451.1845871381815 981.6170058260891 C 1528.2677101310273 943.4109926548325 1526.7068230182288 857.5622014509214 1446.7249096730432 736.3347452434857"/><path class="valley" d="M 1451.1845871381813 981.6170058260891 C 1426.5141692816944 970.4872554163558 1409.450326124815 954.3626560583981 1400.0 933.6250360373306"/><path class="valley" d="M 1400.0 835.8554269301487 C 1408.8673602044166 806.2184182258001 1424.4404205247793 772.9398312777402 1446.7249096730432 736.3347452434857"/></svg>