<svg xmlns="http://www.w3.org/2000/svg" width="210mm" height="227.11017500376647mm"><style >
.valley {stroke: #00f; stroke-width: 2px; fill:none}
.mountain {stroke: #f00; stroke-width: 2px; fill:none }
.cut {stroke: #000; stroke-width: 3px; fill:none } 
.hint {stroke: #000; stroke-width: 1px; fill:none } 
</style><line class="valley" x1="7.5mm" y1="0mm" x2="7.5mm" y2="137.11017500376647mm"/><line class="valley" x1="15.0mm" y1="0mm" x2="15.0mm" y2="137.11017500376647mm"/><line class="valley" x1="22.5mm" y1="0mm" x2="22.5mm" y2="137.11017500376647mm"/><line class="valley" x1="12.524999999999999mm" y1="0mm" x2="22.5mm" y2="4.422394565451297mm"/><line class="valley" x1="22.5mm" y1="4.422394565451297mm" x2="30.0mm" y2="1.0972858696232541mm"/><line class="valley" x1="16.875000000000007mm" y1="137.11017500376647mm" x2="7.500000000000007mm" y2="130.54572933305045mm"/><line class="valley" x1="7.500000000000007mm" y1="130.54572933305045mm" x2="7.105427357601002e-15mm" y2="135.79728586962327mm"/><line class="valley" x1="37.5mm" y1="0mm" x2="37.5mm" y2="54.36372293974358mm"/><line class="valley" x1="45.0mm" y1="0mm" x2="45.0mm" y2="54.36372293974358mm"/><line class="valley" x1="52.5mm" y1="0mm" x2="52.5mm" y2="54.36372293974358mm"/><line class="valley" x1="42.525mm" y1="0mm" x2="52.5mm" y2="6.77137059466655mm"/><line class="valley" x1="52.5mm" y1="6.77137059466655mm" x2="60.0mm" y2="1.6801145084510993mm"/><line class="valley" x1="48.75mm" y1="54.36372293974358mm" x2="37.5mm" y2="44.81289764586611mm"/><line class="valley" x1="37.5mm" y1="44.81289764586611mm" x2="30.0mm" y2="51.18011450845109mm"/><line class="valley" x1="67.5mm" y1="0mm" x2="67.5mm" y2="54.36372293974358mm"/><line class="valley" x1="75.0mm" y1="0mm" x2="75.0mm" y2="54.36372293974358mm"/><line class="valley" x1="82.5mm" y1="0mm" x2="82.5mm" y2="54.36372293974358mm"/><line class="valley" x1="72.525mm" y1="0mm" x2="82.5mm" y2="6.77137059466655mm"/><line class="valley" x1="82.5mm" y1="6.77137059466655mm" x2="90.0mm" y2="1.6801145084510993mm"/><line class="valley" x1="78.75mm" y1="54.36372293974358mm" x2="67.5mm" y2="44.81289764586611mm"/><line class="valley" x1="67.5mm" y1="44.81289764586611mm" x2="60.0mm" y2="51.18011450845109mm"/><line class="valley" x1="97.5mm" y1="0mm" x2="97.5mm" y2="54.36372293974358mm"/><line class="valley" x1="105.0mm" y1="0mm" x2="105.0mm" y2="54.36372293974358mm"/><line class="valley" x1="112.5mm" y1="0mm" x2="112.5mm" y2="54.36372293974358mm"/><line class="valley" x1="102.525mm" y1="0mm" x2="112.5mm" y2="6.77137059466655mm"/><line class="valley" x1="112.5mm" y1="6.77137059466655mm" x2="120.0mm" y2="1.6801145084510993mm"/><line class="valley" x1="108.75mm" y1="54.36372293974358mm" x2="97.5mm" y2="44.81289764586611mm"/><line class="valley" x1="97.5mm" y1="44.81289764586611mm" x2="90.0mm" y2="51.18011450845109mm"/><line class="valley" x1="127.5mm" y1="0mm" x2="127.5mm" y2="54.36372293974358mm"/><line class="valley" x1="135.0mm" y1="0mm" x2="135.0mm" y2="54.36372293974358mm"/><line class="valley" x1="142.5mm" y1="0mm" x2="142.5mm" y2="54.36372293974358mm"/><line class="valley" x1="132.525mm" y1="0mm" x2="142.5mm" y2="6.77137059466655mm"/><line class="valley" x1="142.5mm" y1="6.77137059466655mm" x2="150.0mm" y2="1.6801145084510993mm"/><line class="valley" x1="138.75mm" y1="54.36372293974358mm" x2="127.5mm" y2="44.81289764586611mm"/><line class="valley" x1="127.5mm" y1="44.81289764586611mm" x2="120.0mm" y2="51.18011450845109mm"/><line class="valley" x1="157.5mm" y1="0mm" x2="157.5mm" y2="54.36372293974358mm"/><line class="valley" x1="165.0mm" y1="0mm" x2="165.0mm" y2="54.36372293974358mm"/><line class="valley" x1="172.5mm" y1="0mm" x2="172.5mm" y2="54.36372293974358mm"/><line class="valley" x1="162.525mm" y1="0mm" x2="172.5mm" y2="6.77137059466655mm"/><line class="valley" x1="172.5mm" y1="6.77137059466655mm" x2="180.0mm" y2="1.6801145084510993mm"/><line class="valley" x1="168.75mm" y1="54.36372293974358mm" x2="157.5mm" y2="44.81289764586611mm"/><line class="valley" x1="157.5mm" y1="44.81289764586611mm" x2="150.0mm" y2="51.18011450845109mm"/><line class="valley" x1="187.5mm" y1="0mm" x2="187.5mm" y2="54.36372293974358mm"/><line class="valley" x1="195.0mm" y1="0mm" x2="195.0mm" y2="54.36372293974358mm"/><line class="valley" x1="202.5mm" y1="0mm" x2="202.5mm" y2="54.36372293974358mm"/><line class="valley" x1="192.525mm" y1="0mm" x2="202.5mm" y2="6.77137059466655mm"/><line class="valley" x1="202.5mm" y1="6.77137059466655mm" x2="210.0mm" y2="1.6801145084510993mm"/><line class="valley" x1="198.75mm" y1="54.36372293974358mm" x2="187.5mm" y2="44.81289764586611mm"/><line class="valley" x1="187.5mm" y1="44.81289764586611mm" x2="180.0mm" y2="51.18011450845109mm"/><line class="valley" x1="210.0mm" y1="204.61017500376647mm" x2="72.88982499623353mm" y2="204.61017500376647mm"/><line class="valley" x1="210.0mm" y1="212.11017500376647mm" x2="72.88982499623353mm" y2="212.11017500376647mm"/><line class="valley" x1="210.0mm" y1="219.61017500376647mm" x2="72.88982499623353mm" y2="219.61017500376647mm"/><line class="valley" x1="210.0mm" y1="209.63517500376648mm" x2="205.5776054345487mm" y2="219.61017500376647mm"/><line class="valley" x1="205.5776054345487mm" y1="219.61017500376647mm" x2="208.90271413037675mm" y2="227.11017500376647mm"/><line class="valley" x1="72.88982499623353mm" y1="213.98517500376647mm" x2="79.45427066694955mm" y2="204.61017500376647mm"/><line class="valley" x1="79.45427066694955mm" y1="204.61017500376647mm" x2="74.20271413037673mm" y2="197.11017500376647mm"/><line class="valley" x1="210.0mm" y1="174.61017500376647mm" x2="72.88982499623353mm" y2="174.61017500376647mm"/><line class="valley" x1="210.0mm" y1="182.11017500376647mm" x2="72.88982499623353mm" y2="182.11017500376647mm"/><line class="valley" x1="210.0mm" y1="189.61017500376647mm" x2="72.88982499623353mm" y2="189.61017500376647mm"/><line class="valley" x1="210.0mm" y1="179.63517500376648mm" x2="205.5776054345487mm" y2="189.61017500376647mm"/><line class="valley" x1="205.5776054345487mm" y1="189.61017500376647mm" x2="208.90271413037675mm" y2="197.11017500376647mm"/><line class="valley" x1="72.88982499623353mm" y1="183.98517500376647mm" x2="79.45427066694955mm" y2="174.61017500376647mm"/><line class="valley" x1="79.45427066694955mm" y1="174.61017500376647mm" x2="74.20271413037673mm" y2="167.11017500376647mm"/><line class="valley" x1="210.0mm" y1="144.61017500376647mm" x2="72.88982499623353mm" y2="144.61017500376647mm"/><line class="valley" x1="210.0mm" y1="152.11017500376647mm" x2="72.88982499623353mm" y2="152.11017500376647mm"/><line class="valley" x1="210.0mm" y1="159.61017500376647mm" x2="72.88982499623353mm" y2="159.61017500376647mm"/><line class="valley" x1="210.0mm" y1="149.63517500376648mm" x2="205.5776054345487mm" y2="159.61017500376647mm"/><line class="valley" x1="205.5776054345487mm" y1="159.61017500376647mm" x2="208.90271413037675mm" y2="167.11017500376647mm"/><line class="valley" x1="72.88982499623353mm" y1="153.98517500376647mm" x2="79.45427066694955mm" y2="144.61017500376647mm"/><line class="valley" x1="79.45427066694955mm" y1="144.61017500376647mm" x2="74.20271413037673mm" y2="137.11017500376647mm"/><line class="valley" x1="210.0mm" y1="114.61017500376646mm" x2="72.88982499623353mm" y2="114.61017500376647mm"/><line class="valley" x1="210.0mm" y1="122.11017500376646mm" x2="72.88982499623353mm" y2="122.11017500376647mm"/><line class="valley" x1="210.0mm" y1="129.61017500376647mm" x2="72.88982499623353mm" y2="129.61017500376647mm"/><line class="valley" x1="210.0mm" y1="119.63517500376645mm" x2="205.5776054345487mm" y2="129.61017500376647mm"/><line class="valley" x1="205.5776054345487mm" y1="129.61017500376647mm" x2="208.90271413037675mm" y2="137.11017500376647mm"/><line class="valley" x1="72.88982499623353mm" y1="123.98517500376647mm" x2="79.45427066694955mm" y2="114.61017500376647mm"/><line class="valley" x1="79.45427066694955mm" y1="114.61017500376647mm" x2="74.20271413037673mm" y2="107.11017500376647mm"/><line class="valley" x1="210.0mm" y1="84.61017500376646mm" x2="72.88982499623353mm" y2="84.61017500376647mm"/><line class="valley" x1="210.0mm" y1="92.11017500376646mm" x2="72.88982499623353mm" y2="92.11017500376647mm"/><line class="valley" x1="210.0mm" y1="99.61017500376646mm" x2="72.88982499623353mm" y2="99.61017500376647mm"/><line class="valley" x1="210.0mm" y1="89.63517500376645mm" x2="205.5776054345487mm" y2="99.61017500376646mm"/><line class="valley" x1="205.5776054345487mm" y1="99.61017500376646mm" x2="208.90271413037675mm" y2="107.11017500376646mm"/><line class="valley" x1="72.88982499623353mm" y1="93.98517500376647mm" x2="79.45427066694955mm" y2="84.61017500376647mm"/><line class="valley" x1="79.45427066694955mm" y1="84.61017500376647mm" x2="74.20271413037673mm" y2="77.11017500376647mm"/><line class="cut" x1="0mm" y1="0mm" x2="210mm" y2="0mm"/><line class="cut" x1="30mm" y1="54.36372293974358mm" x2="210mm" y2="54.36372293974358mm"/><line class="cut" x1="72.88982499623354mm" y1="77.11017500376646mm" x2="210mm" y2="77.11017500376646mm"/><line class="cut" x1="72.88982499623354mm" y1="107.11017500376646mm" x2="210mm" y2="107.11017500376646mm"/><line class="cut" x1="0mm" y1="137.11017500376647mm" x2="210mm" y2="137.11017500376647mm"/><line class="cut" x1="72.88982499623354mm" y1="167.11017500376647mm" x2="210mm" y2="167.11017500376647mm"/><line class="cut" x1="72.88982499623354mm" y1="197.11017500376647mm" x2="210mm" y2="197.11017500376647mm"/><line class="cut" x1="72.88982499623354mm" y1="227.11017500376647mm" x2="210mm" y2="227.11017500376647mm"/><line class="cut" x1="0mm" y1="0mm" x2="0mm" y2="137.11017500376647mm"/><line class="cut" x1="30mm" y1="0mm" x2="30mm" y2="137.11017500376647mm"/><line class="cut" x1="60mm" y1="0mm" x2="60mm" y2="54.36372293974358mm"/><line class="cut" x1="90mm" y1="0mm" x2="90mm" y2="54.36372293974358mm"/><line class="cut" x1="120mm" y1="0mm" x2="120mm" y2="54.36372293974358mm"/><line class="cut" x1="150mm" y1="0mm" x2="150mm" y2="54.36372293974358mm"/><line class="cut" x1="180mm" y1="0mm" x2="180mm" y2="54.36372293974358mm"/><line class="cut" x1="210mm" y1="0mm" x2="210mm" y2="227.11017500376647mm"/><line class="cut" x1="72.88982499623354mm" y1="77.11017500376646mm" x2="72.88982499623354mm" y2="227.11017500376647mm"/></svg>