<svg xmlns="http://www.w3.org/2000/svg" width="1600" height="757.7485662081916"><style >
.valley {stroke: #00f; stroke-width: 2px; fill:none}
.mountain {stroke: #f00; stroke-width: 2px; fill:none }
.cut {stroke: #000; stroke-width: 3px; fill:none } 
.hint {stroke: #000; stroke-width: 1px; fill:none } 
</style><rect class="cut" x="0" y="0" width="1600" height="757.7485662081916"/><line class="cut" x1="200" y1="0" x2="200" y2="757.7485662081916"/><line class="cut" x1="400" y1="0" x2="400" y2="757.7485662081916"/><line class="cut" x1="600" y1="0" x2="600" y2="757.7485662081916"/><line class="cut" x1="800" y1="0" x2="800" y2="757.7485662081916"/><line class="cut" x1="1000" y1="0" x2="1000" y2="757.7485662081916"/><line class="cut" x1="1200" y1="0" x2="1200" y2="757.7485662081916"/><line class="cut" x1="1400" y1="0" x2="1400" y2="757.7485662081916"/><line class="valley" x1="42.10627823174135" y1="0.0" x2="52.63056387352181" y2="757.7485662081916"/><line class="valley" x1="147.36943612647815" y1="0.0" x2="157.89372176825873" y2="757.7485662081917"/><line class="valley" x1="79.87915028527246" y1="0.0" x2="148.695393153179" y2="95.46890592245965"/><line class="valley" x1="200.0" y1="19.958063694207233" x2="148.695393153179" y2="95.4689059224596"/><line class="valley" x1="5.060732081750021" y1="0.0" x2="0.0" y2="7.4484566839275885"/><line class="valley" x1="120.12084971472765" y1="757.7485662081916" x2="51.304606846820974" y2="662.2796602857319"/><line class="valley" x1="200.0" y1="750.3001095242644" x2="194.93926791825004" y2="757.7485662081917"/><line class="valley" x1="51.304606846820974" y1="662.2796602857319" x2="0.0" y2="737.7905025139843"/><line class="valley" x1="95.00914987565346" y1="21.048863624828684" x2="46.16868384662096" y2="292.4932042713299"/><line class="valley" x1="95.06511061232881" y1="21.008525803745403" x2="147.7670926384421" y2="28.631268861404873"/><line class="valley" x1="200.0" y1="19.58884096125425" x2="147.7670926384421" y2="28.631268861404823"/><line class="valley" x1="0.0" y1="71.33094333371295" x2="46.16868384662093" y2="292.49320427133"/><line class="valley" x1="104.9908501243466" y1="736.699702583363" x2="153.83131615337908" y2="465.2553619368617"/><line class="valley" x1="104.93488938767142" y1="736.7400404044462" x2="52.23290736155786" y2="729.1172973467868"/><line class="valley" x1="199.99999999999997" y1="686.4176228744784" x2="153.8313161533791" y2="465.2553619368616"/><line class="valley" x1="-6.5052130349130266e-15" y1="738.1597252469373" x2="52.23290736155789" y2="729.1172973467868"/><line class="valley" x1="95.00914987565346" y1="21.048863624828684" x2="42.52452600825627" y2="30.113839909073686"/><line class="valley" x1="95.06511061232881" y1="21.008525803745403" x2="106.3436466075101" y2="1.1102230246251565e-14"/><line class="valley" x1="200.0" y1="19.134250622287087" x2="189.03248260458776" y2="-2.7755575615628914e-15"/><line class="valley" x1="0.0" y1="23.980038343866802" x2="42.52452600825626" y2="30.113839909073683"/><line class="valley" x1="104.9908501243466" y1="736.699702583363" x2="157.4754739917438" y2="727.634726299118"/><line class="valley" x1="104.93488938767142" y1="736.7400404044462" x2="93.6563533924901" y2="757.7485662081916"/><line class="valley" x1="199.99999999999994" y1="733.7685278643248" x2="157.4754739917438" y2="727.634726299118"/><line class="valley" x1="6.149594722337781e-14" y1="738.6143155859047" x2="10.967517395412266" y2="757.7485662081917"/><path class="valley" d="M 148.69539315317905 95.46890592245973 C 148.69539315317903 95.46890592245974 148.695393153179 95.46890592245974 148.695393153179 95.46890592245975"/><path class="valley" d="M 148.695393153179 95.46890592245975 C 76.02801603816674 168.6809115363143 27.38242907171497 304.09338679388924 99.99999999999999 378.8742831040958"/><path class="valley" d="M 148.69539315317897 95.46890592245963 C 148.695393153179 95.46890592245964 148.695393153179 95.46890592245964 148.69539315317903 95.46890592245965"/><path class="valley" d="M 148.69539315317903 95.46890592245965 C 167.82278565269567 113.69797903856904 185.4879919657387 136.05039964311067 199.99999999999997 160.50794822063074"/><path class="valley" d="M 1.1102230246251565e-14 182.572544799178 C 32.5725016151985 247.2705551917223 41.88540772555582 322.2766543286343 -1.2351231148954867e-13 374.2460383323904"/><path class="valley" d="M 51.304606846821066 662.279660285732 C 123.9719839618333 589.0676546718774 172.61757092828503 453.65517941430244 99.99999999999999 378.8742831040958"/><path class="valley" d="M 200.0 575.1760214090135 C 167.42749838480157 510.47801101646934 158.11459227444425 435.47191187955747 200.00000000000006 383.5025278758013"/><path class="valley" d="M 51.304606846820946 662.279660285732 C 32.177214347304314 644.0505871696228 14.512008034261276 621.6981665650811 5.551115123125783e-15 597.2406179875611"/><path class="valley" d="M 51.304606846821 662.2796602857319 C 51.304606846821 662.2796602857319 51.304606846821 662.2796602857319 51.304606846821 662.2796602857319"/><path class="valley" d="M 149.42624632274715 148.09033413136194 C 149.42624632274712 148.09033413136194 149.4262463227471 148.09033413136194 149.4262463227471 148.09033413136194"/><path class="valley" d="M 149.4262463227471 148.09033413136194 C 72.40298431710906 210.83652235700146 70.80972440745063 323.49022991422623 99.70765873217276 357.8257118205349"/><path class="valley" d="M 149.42624632274706 148.0903341313618 C 172.0856446179311 165.5254125409825 188.61494921921235 187.2658636658051 199.99999999999994 210.2268072472217"/><path class="valley" d="M 2.4980018054066022e-14 238.71237610526083 C 14.392848129249526 282.2463949803568 12.287928977412168 326.09396156714865 -2.237793284010081e-14 350.4950000786432"/><path class="valley" d="M 50.57375367725291 609.6582320768299 C 127.59701568289097 546.9120438511902 129.19027559254937 434.25833629396544 100.29234126782724 399.9228543876567"/><path class="valley" d="M 199.99999999999997 519.0361901029308 C 185.6071518707505 475.50217122783494 187.71207102258788 431.65460464104297 200.0 407.25356612954835"/><path class="valley" d="M 50.57375367725285 609.6582320768298 C 27.914355382068823 592.2231536672091 11.385050780787621 570.4827025423865 2.7755575615628914e-15 547.5217589609699"/><path class="valley" d="M 99.70765873217276 357.8257118205349 C 152.6872049941633 420.77409531543424 138.38440846571592 414.13064000406024 153.35228137847022 430.76485814342993"/><path class="valley" d="M 153.35228137847022 430.76485814342993 C 153.35228137847025 430.76485814342993 153.35228137847028 430.76485814342993 153.3522813784703 430.76485814342993"/><path class="valley" d="M 200.00000000000006 362.6245649117287 C 154.65685606438907 420.3131608537507 167.36457172701412 414.29476686681477 153.3522813784703 430.7648581434298"/><path class="valley" d="M 100.29234126782724 399.9228543876567 C 47.31279500583668 336.9744708927575 61.6155915342841 343.6179262041314 46.64771862152973 326.98370806476174"/><path class="valley" d="M 46.64771862152973 326.98370806476174 C 46.64771862152972 326.98370806476174 46.64771862152971 326.98370806476174 46.64771862152971 326.98370806476174"/><path class="valley" d="M -3.469446951953614e-16 395.12400129646295 C 45.3431439356109 337.4354053544411 32.63542827298589 343.45379934137685 46.64771862152969 326.9837080647618"/><path class="valley" d="M 46.64771862152969 326.9837080647618 C 46.64771862152969 326.9837080647618 46.6477186215297 326.9837080647618 46.647718621529705 326.9837080647618"/><path class="valley" d="M 149.42624632274715 148.090334131362 C 111.34284119169668 210.29569101152114 111.32822412830534 322.9274729736588 126.01837283662387 357.46028523575086"/><path class="valley" d="M 149.42624632274706 148.0903341313618 C 189.22255494087196 209.21402832056023 192.36522357001473 321.8019590925239 178.63980104552607 356.7294320661827"/><path class="valley" d="M 50.57375367725291 609.6582320768299 C 88.65715880830334 547.4528751966706 88.67177587169466 434.8210932345329 73.98162716337615 400.2882809724408"/><path class="valley" d="M 50.57375367725285 609.6582320768298 C 10.77744505912801 548.5345378876314 7.634776429985268 435.9466071156678 21.36019895447392 401.01913414200885"/><path class="valley" d="M 126.01837283662387 357.46028523575086 C 152.95031213520784 420.77044104958634 145.7514084149622 414.02832056032076 153.3522813784703 430.76485814342993"/><path class="valley" d="M 178.63980104552607 356.7294320661827 C 153.4765264172969 420.7631325178906 160.48540831345483 413.82368167284164 153.3522813784703 430.7648581434298"/><path class="valley" d="M 73.98162716337615 400.2882809724408 C 47.049687864792205 336.97812515860545 54.248591585037765 343.7202456478708 46.64771862152974 326.98370806476186"/><path class="valley" d="M 46.64771862152974 326.98370806476186 C 46.647718621529734 326.9837080647618 46.64771862152972 326.9837080647618 46.64771862152971 326.98370806476174"/><path class="valley" d="M 21.36019895447392 401.01913414200885 C 46.52347358270313 336.985433690301 39.51459168654521 343.92488453535 46.647718621529705 326.9837080647618"/><line class="valley" x1="242.10627823174136" y1="0.0" x2="252.6305638735218" y2="757.7485662081916"/><line class="valley" x1="347.36943612647815" y1="0.0" x2="357.89372176825873" y2="757.7485662081917"/><line class="valley" x1="279.87915028527243" y1="0.0" x2="348.695393153179" y2="95.46890592245965"/><line class="valley" x1="400.0" y1="19.958063694207233" x2="348.695393153179" y2="95.4689059224596"/><line class="valley" x1="205.06073208175002" y1="0.0" x2="200.0" y2="7.4484566839275885"/><line class="valley" x1="320.1208497147277" y1="757.7485662081916" x2="251.30460684682097" y2="662.2796602857319"/><line class="valley" x1="400.0" y1="750.3001095242644" x2="394.93926791825004" y2="757.7485662081917"/><line class="valley" x1="251.30460684682097" y1="662.2796602857319" x2="200.0" y2="737.7905025139843"/><line class="valley" x1="295.00914987565346" y1="21.048863624828684" x2="246.16868384662095" y2="292.4932042713299"/><line class="valley" x1="295.0651106123288" y1="21.008525803745403" x2="347.76709263844214" y2="28.631268861404873"/><line class="valley" x1="400.0" y1="19.58884096125425" x2="347.76709263844214" y2="28.631268861404823"/><line class="valley" x1="200.0" y1="71.33094333371295" x2="246.16868384662092" y2="292.49320427133"/><line class="valley" x1="304.9908501243466" y1="736.699702583363" x2="353.8313161533791" y2="465.2553619368617"/><line class="valley" x1="304.93488938767143" y1="736.7400404044462" x2="252.23290736155786" y2="729.1172973467868"/><line class="valley" x1="400.0" y1="686.4176228744784" x2="353.83131615337913" y2="465.2553619368616"/><line class="valley" x1="200.0" y1="738.1597252469373" x2="252.2329073615579" y2="729.1172973467868"/><line class="valley" x1="295.00914987565346" y1="21.048863624828684" x2="242.52452600825626" y2="30.113839909073686"/><line class="valley" x1="295.0651106123288" y1="21.008525803745403" x2="306.3436466075101" y2="1.1102230246251565e-14"/><line class="valley" x1="400.0" y1="19.134250622287087" x2="389.03248260458776" y2="-2.7755575615628914e-15"/><line class="valley" x1="200.0" y1="23.980038343866802" x2="242.52452600825626" y2="30.113839909073683"/><line class="valley" x1="304.9908501243466" y1="736.699702583363" x2="357.4754739917438" y2="727.634726299118"/><line class="valley" x1="304.93488938767143" y1="736.7400404044462" x2="293.65635339249013" y2="757.7485662081916"/><line class="valley" x1="399.99999999999994" y1="733.7685278643248" x2="357.4754739917438" y2="727.634726299118"/><line class="valley" x1="200.00000000000006" y1="738.6143155859047" x2="210.96751739541227" y2="757.7485662081917"/><path class="valley" d="M 348.69539315317905 95.46890592245973 C 348.695393153179 95.46890592245974 348.695393153179 95.46890592245974 348.695393153179 95.46890592245975"/><path class="valley" d="M 348.695393153179 95.46890592245975 C 276.02801603816675 168.6809115363143 227.38242907171497 304.09338679388924 300.0 378.8742831040958"/><path class="valley" d="M 348.695393153179 95.46890592245963 C 348.695393153179 95.46890592245964 348.695393153179 95.46890592245964 348.695393153179 95.46890592245965"/><path class="valley" d="M 348.695393153179 95.46890592245965 C 367.82278565269564 113.69797903856904 385.48799196573873 136.05039964311067 400.0 160.50794822063074"/><path class="valley" d="M 200.0 182.572544799178 C 232.5725016151985 247.2705551917223 241.8854077255558 322.2766543286343 199.9999999999999 374.2460383323904"/><path class="valley" d="M 251.30460684682106 662.279660285732 C 323.9719839618333 589.0676546718774 372.61757092828503 453.65517941430244 300.0 378.8742831040958"/><path class="valley" d="M 400.0 575.1760214090135 C 367.42749838480154 510.47801101646934 358.11459227444425 435.47191187955747 400.00000000000006 383.5025278758013"/><path class="valley" d="M 251.30460684682095 662.279660285732 C 232.1772143473043 644.0505871696228 214.51200803426127 621.6981665650811 200.0 597.2406179875611"/><path class="valley" d="M 251.304606846821 662.2796602857319 C 251.304606846821 662.2796602857319 251.304606846821 662.2796602857319 251.304606846821 662.2796602857319"/><path class="valley" d="M 349.42624632274715 148.09033413136194 C 349.42624632274715 148.09033413136194 349.4262463227471 148.09033413136194 349.4262463227471 148.09033413136194"/><path class="valley" d="M 349.4262463227471 148.09033413136194 C 272.40298431710903 210.83652235700146 270.80972440745063 323.49022991422623 299.7076587321728 357.8257118205349"/><path class="valley" d="M 349.42624632274703 148.0903341313618 C 372.0856446179311 165.5254125409825 388.61494921921235 187.2658636658051 399.99999999999994 210.2268072472217"/><path class="valley" d="M 200.00000000000003 238.71237610526083 C 214.39284812924953 282.2463949803568 212.28792897741218 326.09396156714865 199.99999999999997 350.4950000786432"/><path class="valley" d="M 250.5737536772529 609.6582320768299 C 327.59701568289097 546.9120438511902 329.19027559254937 434.25833629396544 300.2923412678272 399.9228543876567"/><path class="valley" d="M 400.0 519.0361901029308 C 385.6071518707505 475.50217122783494 387.7120710225879 431.65460464104297 400.0 407.25356612954835"/><path class="valley" d="M 250.57375367725285 609.6582320768298 C 227.91435538206883 592.2231536672091 211.38505078078762 570.4827025423865 200.0 547.5217589609699"/><path class="valley" d="M 299.7076587321728 357.8257118205349 C 352.68720499416327 420.77409531543424 338.3844084657159 414.13064000406024 353.35228137847025 430.76485814342993"/><path class="valley" d="M 353.35228137847025 430.76485814342993 C 353.35228137847025 430.76485814342993 353.35228137847025 430.76485814342993 353.3522813784703 430.76485814342993"/><path class="valley" d="M 400.00000000000006 362.6245649117287 C 354.6568560643891 420.3131608537507 367.3645717270141 414.29476686681477 353.3522813784703 430.7648581434298"/><path class="valley" d="M 300.2923412678272 399.9228543876567 C 247.31279500583668 336.9744708927575 261.6155915342841 343.6179262041314 246.64771862152972 326.98370806476174"/><path class="valley" d="M 246.64771862152972 326.98370806476174 C 246.64771862152972 326.98370806476174 246.64771862152972 326.98370806476174 246.64771862152972 326.98370806476174"/><path class="valley" d="M 200.0 395.12400129646295 C 245.3431439356109 337.4354053544411 232.6354282729859 343.45379934137685 246.6477186215297 326.9837080647618"/><path class="valley" d="M 246.6477186215297 326.9837080647618 C 246.6477186215297 326.9837080647618 246.6477186215297 326.9837080647618 246.6477186215297 326.9837080647618"/><path class="valley" d="M 349.42624632274715 148.090334131362 C 311.34284119169666 210.29569101152114 311.32822412830535 322.9274729736588 326.0183728366239 357.46028523575086"/><path class="valley" d="M 349.42624632274703 148.0903341313618 C 389.222554940872 209.21402832056023 392.36522357001473 321.8019590925239 378.63980104552604 356.7294320661827"/><path class="valley" d="M 250.5737536772529 609.6582320768299 C 288.65715880830334 547.4528751966706 288.67177587169465 434.8210932345329 273.9816271633762 400.2882809724408"/><path class="valley" d="M 250.57375367725285 609.6582320768298 C 210.777445059128 548.5345378876314 207.63477642998527 435.9466071156678 221.36019895447393 401.01913414200885"/><path class="valley" d="M 326.0183728366239 357.46028523575086 C 352.9503121352078 420.77044104958634 345.7514084149622 414.02832056032076 353.3522813784703 430.76485814342993"/><path class="valley" d="M 378.63980104552604 356.7294320661827 C 353.4765264172969 420.7631325178906 360.48540831345485 413.82368167284164 353.3522813784703 430.7648581434298"/><path class="valley" d="M 273.9816271633762 400.2882809724408 C 247.0496878647922 336.97812515860545 254.24859158503776 343.7202456478708 246.64771862152975 326.98370806476186"/><path class="valley" d="M 246.64771862152975 326.98370806476186 C 246.64771862152975 326.9837080647618 246.64771862152972 326.9837080647618 246.64771862152972 326.98370806476174"/><path class="valley" d="M 221.36019895447393 401.01913414200885 C 246.52347358270313 336.985433690301 239.5145916865452 343.92488453535 246.6477186215297 326.9837080647618"/><line class="valley" x1="442.1062782317413" y1="0.0" x2="452.6305638735218" y2="757.7485662081916"/><line class="valley" x1="547.3694361264781" y1="0.0" x2="557.8937217682587" y2="757.7485662081917"/><line class="valley" x1="479.87915028527243" y1="0.0" x2="548.695393153179" y2="95.46890592245965"/><line class="valley" x1="600.0" y1="19.958063694207233" x2="548.695393153179" y2="95.4689059224596"/><line class="valley" x1="405.06073208175" y1="0.0" x2="400.0" y2="7.4484566839275885"/><line class="valley" x1="520.1208497147277" y1="757.7485662081916" x2="451.304606846821" y2="662.2796602857319"/><line class="valley" x1="600.0" y1="750.3001095242644" x2="594.93926791825" y2="757.7485662081917"/><line class="valley" x1="451.304606846821" y1="662.2796602857319" x2="400.0" y2="737.7905025139843"/><line class="valley" x1="495.00914987565346" y1="21.048863624828684" x2="446.168683846621" y2="292.4932042713299"/><line class="valley" x1="495.0651106123288" y1="21.008525803745403" x2="547.7670926384421" y2="28.631268861404873"/><line class="valley" x1="600.0" y1="19.58884096125425" x2="547.7670926384421" y2="28.631268861404823"/><line class="valley" x1="400.0" y1="71.33094333371295" x2="446.1686838466209" y2="292.49320427133"/><line class="valley" x1="504.9908501243466" y1="736.699702583363" x2="553.831316153379" y2="465.2553619368617"/><line class="valley" x1="504.93488938767143" y1="736.7400404044462" x2="452.23290736155786" y2="729.1172973467868"/><line class="valley" x1="600.0" y1="686.4176228744784" x2="553.8313161533791" y2="465.2553619368616"/><line class="valley" x1="400.0" y1="738.1597252469373" x2="452.23290736155786" y2="729.1172973467868"/><line class="valley" x1="495.00914987565346" y1="21.048863624828684" x2="442.52452600825626" y2="30.113839909073686"/><line class="valley" x1="495.0651106123288" y1="21.008525803745403" x2="506.3436466075101" y2="1.1102230246251565e-14"/><line class="valley" x1="600.0" y1="19.134250622287087" x2="589.0324826045878" y2="-2.7755575615628914e-15"/><line class="valley" x1="400.0" y1="23.980038343866802" x2="442.52452600825626" y2="30.113839909073683"/><line class="valley" x1="504.9908501243466" y1="736.699702583363" x2="557.4754739917438" y2="727.634726299118"/><line class="valley" x1="504.93488938767143" y1="736.7400404044462" x2="493.65635339249013" y2="757.7485662081916"/><line class="valley" x1="600.0" y1="733.7685278643248" x2="557.4754739917438" y2="727.634726299118"/><line class="valley" x1="400.00000000000006" y1="738.6143155859047" x2="410.96751739541224" y2="757.7485662081917"/><path class="valley" d="M 548.6953931531791 95.46890592245973 C 548.695393153179 95.46890592245974 548.695393153179 95.46890592245974 548.695393153179 95.46890592245975"/><path class="valley" d="M 548.695393153179 95.46890592245975 C 476.02801603816675 168.6809115363143 427.38242907171497 304.09338679388924 500.0 378.8742831040958"/><path class="valley" d="M 548.695393153179 95.46890592245963 C 548.695393153179 95.46890592245964 548.695393153179 95.46890592245964 548.695393153179 95.46890592245965"/><path class="valley" d="M 548.695393153179 95.46890592245965 C 567.8227856526956 113.69797903856904 585.4879919657387 136.05039964311067 600.0 160.50794822063074"/><path class="valley" d="M 400.0 182.572544799178 C 432.5725016151985 247.2705551917223 441.8854077255558 322.2766543286343 399.9999999999999 374.2460383323904"/><path class="valley" d="M 451.30460684682106 662.279660285732 C 523.9719839618333 589.0676546718774 572.617570928285 453.65517941430244 500.0 378.8742831040958"/><path class="valley" d="M 600.0 575.1760214090135 C 567.4274983848015 510.47801101646934 558.1145922744442 435.47191187955747 600.0 383.5025278758013"/><path class="valley" d="M 451.30460684682095 662.279660285732 C 432.1772143473043 644.0505871696228 414.51200803426127 621.6981665650811 400.0 597.2406179875611"/><path class="valley" d="M 451.304606846821 662.2796602857319 C 451.304606846821 662.2796602857319 451.304606846821 662.2796602857319 451.304606846821 662.2796602857319"/><path class="valley" d="M 549.4262463227471 148.09033413136194 C 549.4262463227471 148.09033413136194 549.4262463227471 148.09033413136194 549.4262463227471 148.09033413136194"/><path class="valley" d="M 549.4262463227471 148.09033413136194 C 472.40298431710903 210.83652235700146 470.80972440745063 323.49022991422623 499.7076587321728 357.8257118205349"/><path class="valley" d="M 549.426246322747 148.0903341313618 C 572.0856446179312 165.5254125409825 588.6149492192123 187.2658636658051 600.0 210.2268072472217"/><path class="valley" d="M 400.0 238.71237610526083 C 414.3928481292495 282.2463949803568 412.28792897741215 326.09396156714865 400.0 350.4950000786432"/><path class="valley" d="M 450.5737536772529 609.6582320768299 C 527.597015682891 546.9120438511902 529.1902755925494 434.25833629396544 500.2923412678272 399.9228543876567"/><path class="valley" d="M 600.0 519.0361901029308 C 585.6071518707505 475.50217122783494 587.7120710225879 431.65460464104297 600.0 407.25356612954835"/><path class="valley" d="M 450.57375367725285 609.6582320768298 C 427.91435538206883 592.2231536672091 411.3850507807876 570.4827025423865 400.0 547.5217589609699"/><path class="valley" d="M 499.7076587321728 357.8257118205349 C 552.6872049941633 420.77409531543424 538.384408465716 414.13064000406024 553.3522813784703 430.76485814342993"/><path class="valley" d="M 553.3522813784703 430.76485814342993 C 553.3522813784703 430.76485814342993 553.3522813784703 430.76485814342993 553.3522813784703 430.76485814342993"/><path class="valley" d="M 600.0 362.6245649117287 C 554.6568560643891 420.3131608537507 567.3645717270141 414.29476686681477 553.3522813784703 430.7648581434298"/><path class="valley" d="M 500.2923412678272 399.9228543876567 C 447.3127950058367 336.9744708927575 461.6155915342841 343.6179262041314 446.64771862152975 326.98370806476174"/><path class="valley" d="M 446.64771862152975 326.98370806476174 C 446.64771862152975 326.98370806476174 446.6477186215297 326.98370806476174 446.6477186215297 326.98370806476174"/><path class="valley" d="M 400.0 395.12400129646295 C 445.3431439356109 337.4354053544411 432.6354282729859 343.45379934137685 446.6477186215297 326.9837080647618"/><path class="valley" d="M 446.6477186215297 326.9837080647618 C 446.6477186215297 326.9837080647618 446.6477186215297 326.9837080647618 446.6477186215297 326.9837080647618"/><path class="valley" d="M 549.4262463227471 148.090334131362 C 511.34284119169666 210.29569101152114 511.32822412830535 322.9274729736588 526.0183728366238 357.46028523575086"/><path class="valley" d="M 549.426246322747 148.0903341313618 C 589.222554940872 209.21402832056023 592.3652235700147 321.8019590925239 578.639801045526 356.7294320661827"/><path class="valley" d="M 450.5737536772529 609.6582320768299 C 488.65715880830334 547.4528751966706 488.67177587169465 434.8210932345329 473.9816271633762 400.2882809724408"/><path class="valley" d="M 450.57375367725285 609.6582320768298 C 410.777445059128 548.5345378876314 407.63477642998527 435.9466071156678 421.3601989544739 401.01913414200885"/><path class="valley" d="M 526.0183728366238 357.46028523575086 C 552.9503121352078 420.77044104958634 545.7514084149623 414.02832056032076 553.3522813784703 430.76485814342993"/><path class="valley" d="M 578.639801045526 356.7294320661827 C 553.4765264172969 420.7631325178906 560.4854083134549 413.82368167284164 553.3522813784703 430.7648581434298"/><path class="valley" d="M 473.9816271633762 400.2882809724408 C 447.0496878647922 336.97812515860545 454.2485915850378 343.7202456478708 446.64771862152975 326.98370806476186"/><path class="valley" d="M 446.64771862152975 326.98370806476186 C 446.64771862152975 326.9837080647618 446.64771862152975 326.9837080647618 446.6477186215297 326.98370806476174"/><path class="valley" d="M 421.3601989544739 401.01913414200885 C 446.5234735827031 336.985433690301 439.5145916865452 343.92488453535 446.6477186215297 326.9837080647618"/><line class="valley" x1="642.1062782317414" y1="0.0" x2="652.6305638735219" y2="757.7485662081916"/><line class="valley" x1="747.3694361264781" y1="0.0" x2="757.8937217682587" y2="757.7485662081917"/><line class="valley" x1="679.8791502852724" y1="0.0" x2="748.695393153179" y2="95.46890592245965"/><line class="valley" x1="800.0" y1="19.958063694207233" x2="748.695393153179" y2="95.4689059224596"/><line class="valley" x1="605.0607320817501" y1="0.0" x2="600.0" y2="7.4484566839275885"/><line class="valley" x1="720.1208497147277" y1="757.7485662081916" x2="651.304606846821" y2="662.2796602857319"/><line class="valley" x1="800.0" y1="750.3001095242644" x2="794.93926791825" y2="757.7485662081917"/><line class="valley" x1="651.304606846821" y1="662.2796602857319" x2="600.0" y2="737.7905025139843"/><line class="valley" x1="695.0091498756535" y1="21.048863624828684" x2="646.168683846621" y2="292.4932042713299"/><line class="valley" x1="695.0651106123288" y1="21.008525803745403" x2="747.7670926384421" y2="28.631268861404873"/><line class="valley" x1="800.0" y1="19.58884096125425" x2="747.7670926384421" y2="28.631268861404823"/><line class="valley" x1="600.0" y1="71.33094333371295" x2="646.168683846621" y2="292.49320427133"/><line class="valley" x1="704.9908501243466" y1="736.699702583363" x2="753.831316153379" y2="465.2553619368617"/><line class="valley" x1="704.9348893876714" y1="736.7400404044462" x2="652.2329073615579" y2="729.1172973467868"/><line class="valley" x1="800.0" y1="686.4176228744784" x2="753.8313161533791" y2="465.2553619368616"/><line class="valley" x1="600.0" y1="738.1597252469373" x2="652.2329073615579" y2="729.1172973467868"/><line class="valley" x1="695.0091498756535" y1="21.048863624828684" x2="642.5245260082563" y2="30.113839909073686"/><line class="valley" x1="695.0651106123288" y1="21.008525803745403" x2="706.3436466075101" y2="1.1102230246251565e-14"/><line class="valley" x1="800.0" y1="19.134250622287087" x2="789.0324826045878" y2="-2.7755575615628914e-15"/><line class="valley" x1="600.0" y1="23.980038343866802" x2="642.5245260082563" y2="30.113839909073683"/><line class="valley" x1="704.9908501243466" y1="736.699702583363" x2="757.4754739917438" y2="727.634726299118"/><line class="valley" x1="704.9348893876714" y1="736.7400404044462" x2="693.6563533924901" y2="757.7485662081916"/><line class="valley" x1="800.0" y1="733.7685278643248" x2="757.4754739917438" y2="727.634726299118"/><line class="valley" x1="600.0000000000001" y1="738.6143155859047" x2="610.9675173954123" y2="757.7485662081917"/><path class="valley" d="M 748.6953931531791 95.46890592245973 C 748.695393153179 95.46890592245974 748.695393153179 95.46890592245974 748.695393153179 95.46890592245975"/><path class="valley" d="M 748.695393153179 95.46890592245975 C 676.0280160381667 168.6809115363143 627.382429071715 304.09338679388924 700.0 378.8742831040958"/><path class="valley" d="M 748.695393153179 95.46890592245963 C 748.695393153179 95.46890592245964 748.695393153179 95.46890592245964 748.695393153179 95.46890592245965"/><path class="valley" d="M 748.695393153179 95.46890592245965 C 767.8227856526956 113.69797903856904 785.4879919657387 136.05039964311067 800.0 160.50794822063074"/><path class="valley" d="M 600.0 182.572544799178 C 632.5725016151985 247.2705551917223 641.8854077255559 322.2766543286343 599.9999999999999 374.2460383323904"/><path class="valley" d="M 651.3046068468211 662.279660285732 C 723.9719839618333 589.0676546718774 772.617570928285 453.65517941430244 700.0 378.8742831040958"/><path class="valley" d="M 800.0 575.1760214090135 C 767.4274983848015 510.47801101646934 758.1145922744442 435.47191187955747 800.0 383.5025278758013"/><path class="valley" d="M 651.3046068468209 662.279660285732 C 632.1772143473044 644.0505871696228 614.5120080342613 621.6981665650811 600.0 597.2406179875611"/><path class="valley" d="M 651.304606846821 662.2796602857319 C 651.304606846821 662.2796602857319 651.304606846821 662.2796602857319 651.304606846821 662.2796602857319"/><path class="valley" d="M 749.4262463227471 148.09033413136194 C 749.4262463227471 148.09033413136194 749.4262463227471 148.09033413136194 749.4262463227471 148.09033413136194"/><path class="valley" d="M 749.4262463227471 148.09033413136194 C 672.402984317109 210.83652235700146 670.8097244074506 323.49022991422623 699.7076587321727 357.8257118205349"/><path class="valley" d="M 749.426246322747 148.0903341313618 C 772.0856446179312 165.5254125409825 788.6149492192123 187.2658636658051 800.0 210.2268072472217"/><path class="valley" d="M 600.0 238.71237610526083 C 614.3928481292495 282.2463949803568 612.2879289774122 326.09396156714865 600.0 350.4950000786432"/><path class="valley" d="M 650.5737536772529 609.6582320768299 C 727.597015682891 546.9120438511902 729.1902755925494 434.25833629396544 700.2923412678273 399.9228543876567"/><path class="valley" d="M 800.0 519.0361901029308 C 785.6071518707505 475.50217122783494 787.7120710225879 431.65460464104297 800.0 407.25356612954835"/><path class="valley" d="M 650.5737536772529 609.6582320768298 C 627.9143553820688 592.2231536672091 611.3850507807877 570.4827025423865 600.0 547.5217589609699"/><path class="valley" d="M 699.7076587321727 357.8257118205349 C 752.6872049941633 420.77409531543424 738.384408465716 414.13064000406024 753.3522813784703 430.76485814342993"/><path class="valley" d="M 753.3522813784703 430.76485814342993 C 753.3522813784703 430.76485814342993 753.3522813784703 430.76485814342993 753.3522813784703 430.76485814342993"/><path class="valley" d="M 800.0 362.6245649117287 C 754.6568560643891 420.3131608537507 767.3645717270141 414.29476686681477 753.3522813784703 430.7648581434298"/><path class="valley" d="M 700.2923412678273 399.9228543876567 C 647.3127950058367 336.9744708927575 661.6155915342841 343.6179262041314 646.6477186215297 326.98370806476174"/><path class="valley" d="M 646.6477186215297 326.98370806476174 C 646.6477186215297 326.98370806476174 646.6477186215297 326.98370806476174 646.6477186215297 326.98370806476174"/><path class="valley" d="M 600.0 395.12400129646295 C 645.3431439356109 337.4354053544411 632.6354282729859 343.45379934137685 646.6477186215297 326.9837080647618"/><path class="valley" d="M 646.6477186215297 326.9837080647618 C 646.6477186215297 326.9837080647618 646.6477186215297 326.9837080647618 646.6477186215297 326.9837080647618"/><path class="valley" d="M 749.4262463227471 148.090334131362 C 711.3428411916967 210.29569101152114 711.3282241283054 322.9274729736588 726.0183728366238 357.46028523575086"/><path class="valley" d="M 749.426246322747 148.0903341313618 C 789.222554940872 209.21402832056023 792.3652235700147 321.8019590925239 778.639801045526 356.7294320661827"/><path class="valley" d="M 650.5737536772529 609.6582320768299 C 688.6571588083034 547.4528751966706 688.6717758716946 434.8210932345329 673.9816271633762 400.2882809724408"/><path class="valley" d="M 650.5737536772529 609.6582320768298 C 610.777445059128 548.5345378876314 607.6347764299853 435.9466071156678 621.360198954474 401.01913414200885"/><path class="valley" d="M 726.0183728366238 357.46028523575086 C 752.9503121352078 420.77044104958634 745.7514084149623 414.02832056032076 753.3522813784703 430.76485814342993"/><path class="valley" d="M 778.639801045526 356.7294320661827 C 753.4765264172969 420.7631325178906 760.4854083134549 413.82368167284164 753.3522813784703 430.7648581434298"/><path class="valley" d="M 673.9816271633762 400.2882809724408 C 647.0496878647922 336.97812515860545 654.2485915850377 343.7202456478708 646.6477186215297 326.98370806476186"/><path class="valley" d="M 646.6477186215297 326.98370806476186 C 646.6477186215297 326.9837080647618 646.6477186215297 326.9837080647618 646.6477186215297 326.98370806476174"/><path class="valley" d="M 621.360198954474 401.01913414200885 C 646.5234735827031 336.985433690301 639.5145916865453 343.92488453535 646.6477186215297 326.9837080647618"/><line class="valley" x1="842.1062782317414" y1="0.0" x2="852.6305638735219" y2="757.7485662081916"/><line class="valley" x1="947.3694361264781" y1="0.0" x2="957.8937217682587" y2="757.7485662081917"/><line class="valley" x1="879.8791502852724" y1="0.0" x2="948.695393153179" y2="95.46890592245965"/><line class="valley" x1="1000.0" y1="19.958063694207233" x2="948.695393153179" y2="95.4689059224596"/><line class="valley" x1="805.0607320817501" y1="0.0" x2="800.0" y2="7.4484566839275885"/><line class="valley" x1="920.1208497147277" y1="757.7485662081916" x2="851.304606846821" y2="662.2796602857319"/><line class="valley" x1="1000.0" y1="750.3001095242644" x2="994.93926791825" y2="757.7485662081917"/><line class="valley" x1="851.304606846821" y1="662.2796602857319" x2="800.0" y2="737.7905025139843"/><line class="valley" x1="895.0091498756535" y1="21.048863624828684" x2="846.168683846621" y2="292.4932042713299"/><line class="valley" x1="895.0651106123288" y1="21.008525803745403" x2="947.7670926384421" y2="28.631268861404873"/><line class="valley" x1="1000.0" y1="19.58884096125425" x2="947.7670926384421" y2="28.631268861404823"/><line class="valley" x1="800.0" y1="71.33094333371295" x2="846.168683846621" y2="292.49320427133"/><line class="valley" x1="904.9908501243466" y1="736.699702583363" x2="953.831316153379" y2="465.2553619368617"/><line class="valley" x1="904.9348893876714" y1="736.7400404044462" x2="852.2329073615579" y2="729.1172973467868"/><line class="valley" x1="1000.0" y1="686.4176228744784" x2="953.8313161533791" y2="465.2553619368616"/><line class="valley" x1="800.0" y1="738.1597252469373" x2="852.2329073615579" y2="729.1172973467868"/><line class="valley" x1="895.0091498756535" y1="21.048863624828684" x2="842.5245260082563" y2="30.113839909073686"/><line class="valley" x1="895.0651106123288" y1="21.008525803745403" x2="906.3436466075101" y2="1.1102230246251565e-14"/><line class="valley" x1="1000.0" y1="19.134250622287087" x2="989.0324826045878" y2="-2.7755575615628914e-15"/><line class="valley" x1="800.0" y1="23.980038343866802" x2="842.5245260082563" y2="30.113839909073683"/><line class="valley" x1="904.9908501243466" y1="736.699702583363" x2="957.4754739917438" y2="727.634726299118"/><line class="valley" x1="904.9348893876714" y1="736.7400404044462" x2="893.6563533924901" y2="757.7485662081916"/><line class="valley" x1="1000.0" y1="733.7685278643248" x2="957.4754739917438" y2="727.634726299118"/><line class="valley" x1="800.0000000000001" y1="738.6143155859047" x2="810.9675173954123" y2="757.7485662081917"/><path class="valley" d="M 948.6953931531791 95.46890592245973 C 948.695393153179 95.46890592245974 948.695393153179 95.46890592245974 948.695393153179 95.46890592245975"/><path class="valley" d="M 948.695393153179 95.46890592245975 C 876.0280160381667 168.6809115363143 827.382429071715 304.09338679388924 900.0 378.8742831040958"/><path class="valley" d="M 948.695393153179 95.46890592245963 C 948.695393153179 95.46890592245964 948.695393153179 95.46890592245964 948.695393153179 95.46890592245965"/><path class="valley" d="M 948.695393153179 95.46890592245965 C 967.8227856526956 113.69797903856904 985.4879919657387 136.05039964311067 1000.0 160.50794822063074"/><path class="valley" d="M 800.0 182.572544799178 C 832.5725016151985 247.2705551917223 841.8854077255559 322.2766543286343 799.9999999999999 374.2460383323904"/><path class="valley" d="M 851.3046068468211 662.279660285732 C 923.9719839618333 589.0676546718774 972.617570928285 453.65517941430244 900.0 378.8742831040958"/><path class="valley" d="M 1000.0 575.1760214090135 C 967.4274983848015 510.47801101646934 958.1145922744442 435.47191187955747 1000.0 383.5025278758013"/><path class="valley" d="M 851.3046068468209 662.279660285732 C 832.1772143473044 644.0505871696228 814.5120080342613 621.6981665650811 800.0 597.2406179875611"/><path class="valley" d="M 851.304606846821 662.2796602857319 C 851.304606846821 662.2796602857319 851.304606846821 662.2796602857319 851.304606846821 662.2796602857319"/><path class="valley" d="M 949.4262463227471 148.09033413136194 C 949.4262463227471 148.09033413136194 949.4262463227471 148.09033413136194 949.4262463227471 148.09033413136194"/><path class="valley" d="M 949.4262463227471 148.09033413136194 C 872.402984317109 210.83652235700146 870.8097244074506 323.49022991422623 899.7076587321727 357.8257118205349"/><path class="valley" d="M 949.426246322747 148.0903341313618 C 972.0856446179312 165.5254125409825 988.6149492192123 187.2658636658051 1000.0 210.2268072472217"/><path class="valley" d="M 800.0 238.71237610526083 C 814.3928481292495 282.2463949803568 812.2879289774122 326.09396156714865 800.0 350.4950000786432"/><path class="valley" d="M 850.5737536772529 609.6582320768299 C 927.597015682891 546.9120438511902 929.1902755925494 434.25833629396544 900.2923412678273 399.9228543876567"/><path class="valley" d="M 1000.0 519.0361901029308 C 985.6071518707505 475.50217122783494 987.7120710225879 431.65460464104297 1000.0 407.25356612954835"/><path class="valley" d="M 850.5737536772529 609.6582320768298 C 827.9143553820688 592.2231536672091 811.3850507807877 570.4827025423865 800.0 547.5217589609699"/><path class="valley" d="M 899.7076587321727 357.8257118205349 C 952.6872049941633 420.77409531543424 938.384408465716 414.13064000406024 953.3522813784703 430.76485814342993"/><path class="valley" d="M 953.3522813784703 430.76485814342993 C 953.3522813784703 430.76485814342993 953.3522813784703 430.76485814342993 953.3522813784703 430.76485814342993"/><path class="valley" d="M 1000.0 362.6245649117287 C 954.6568560643891 420.3131608537507 967.3645717270141 414.29476686681477 953.3522813784703 430.7648581434298"/><path class="valley" d="M 900.2923412678273 399.9228543876567 C 847.3127950058367 336.9744708927575 861.6155915342841 343.6179262041314 846.6477186215297 326.98370806476174"/><path class="valley" d="M 846.6477186215297 326.98370806476174 C 846.6477186215297 326.98370806476174 846.6477186215297 326.98370806476174 846.6477186215297 326.98370806476174"/><path class="valley" d="M 800.0 395.12400129646295 C 845.3431439356109 337.4354053544411 832.6354282729859 343.45379934137685 846.6477186215297 326.9837080647618"/><path class="valley" d="M 846.6477186215297 326.9837080647618 C 846.6477186215297 326.9837080647618 846.6477186215297 326.9837080647618 846.6477186215297 326.9837080647618"/><path class="valley" d="M 949.4262463227471 148.090334131362 C 911.3428411916967 210.29569101152114 911.3282241283054 322.9274729736588 926.0183728366238 357.46028523575086"/><path class="valley" d="M 949.426246322747 148.0903341313618 C 989.222554940872 209.21402832056023 992.3652235700147 321.8019590925239 978.639801045526 356.7294320661827"/><path class="valley" d="M 850.5737536772529 609.6582320768299 C 888.6571588083034 547.4528751966706 888.6717758716946 434.8210932345329 873.9816271633762 400.2882809724408"/><path class="valley" d="M 850.5737536772529 609.6582320768298 C 810.777445059128 548.5345378876314 807.6347764299853 435.9466071156678 821.360198954474 401.01913414200885"/><path class="valley" d="M 926.0183728366238 357.46028523575086 C 952.9503121352078 420.77044104958634 945.7514084149623 414.02832056032076 953.3522813784703 430.76485814342993"/><path class="valley" d="M 978.639801045526 356.7294320661827 C 953.4765264172969 420.7631325178906 960.4854083134549 413.82368167284164 953.3522813784703 430.7648581434298"/><path class="valley" d="M 873.9816271633762 400.2882809724408 C 847.0496878647922 336.97812515860545 854.2485915850377 343.7202456478708 846.6477186215297 326.98370806476186"/><path class="valley" d="M 846.6477186215297 326.98370806476186 C 846.6477186215297 326.9837080647618 846.6477186215297 326.9837080647618 846.6477186215297 326.98370806476174"/><path class="valley" d="M 821.360198954474 401.01913414200885 C 846.5234735827031 336.985433690301 839.5145916865453 343.92488453535 846.6477186215297 326.9837080647618"/><line class="valley" x1="1042.1062782317413" y1="0.0" x2="1052.6305638735219" y2="757.7485662081916"/><line class="valley" x1="1147.3694361264781" y1="0.0" x2="1157.8937217682587" y2="757.7485662081917"/><line class="valley" x1="1079.8791502852725" y1="0.0" x2="1148.6953931531789" y2="95.46890592245965"/><line class="valley" x1="1200.0" y1="19.958063694207233" x2="1148.6953931531789" y2="95.4689059224596"/><line class="valley" x1="1005.0607320817501" y1="0.0" x2="1000.0" y2="7.4484566839275885"/><line class="valley" x1="1120.1208497147277" y1="757.7485662081916" x2="1051.304606846821" y2="662.2796602857319"/><line class="valley" x1="1200.0" y1="750.3001095242644" x2="1194.9392679182502" y2="757.7485662081917"/><line class="valley" x1="1051.304606846821" y1="662.2796602857319" x2="1000.0" y2="737.7905025139843"/><line class="valley" x1="1095.0091498756535" y1="21.048863624828684" x2="1046.168683846621" y2="292.4932042713299"/><line class="valley" x1="1095.065110612329" y1="21.008525803745403" x2="1147.7670926384421" y2="28.631268861404873"/><line class="valley" x1="1200.0" y1="19.58884096125425" x2="1147.7670926384421" y2="28.631268861404823"/><line class="valley" x1="1000.0" y1="71.33094333371295" x2="1046.168683846621" y2="292.49320427133"/><line class="valley" x1="1104.9908501243467" y1="736.699702583363" x2="1153.831316153379" y2="465.2553619368617"/><line class="valley" x1="1104.9348893876713" y1="736.7400404044462" x2="1052.2329073615579" y2="729.1172973467868"/><line class="valley" x1="1200.0" y1="686.4176228744784" x2="1153.831316153379" y2="465.2553619368616"/><line class="valley" x1="1000.0" y1="738.1597252469373" x2="1052.2329073615579" y2="729.1172973467868"/><line class="valley" x1="1095.0091498756535" y1="21.048863624828684" x2="1042.5245260082563" y2="30.113839909073686"/><line class="valley" x1="1095.065110612329" y1="21.008525803745403" x2="1106.34364660751" y2="1.1102230246251565e-14"/><line class="valley" x1="1200.0" y1="19.134250622287087" x2="1189.0324826045878" y2="-2.7755575615628914e-15"/><line class="valley" x1="1000.0" y1="23.980038343866802" x2="1042.5245260082563" y2="30.113839909073683"/><line class="valley" x1="1104.9908501243467" y1="736.699702583363" x2="1157.475473991744" y2="727.634726299118"/><line class="valley" x1="1104.9348893876713" y1="736.7400404044462" x2="1093.65635339249" y2="757.7485662081916"/><line class="valley" x1="1200.0" y1="733.7685278643248" x2="1157.475473991744" y2="727.634726299118"/><line class="valley" x1="1000.0000000000001" y1="738.6143155859047" x2="1010.9675173954123" y2="757.7485662081917"/><path class="valley" d="M 1148.695393153179 95.46890592245973 C 1148.695393153179 95.46890592245974 1148.6953931531789 95.46890592245974 1148.6953931531789 95.46890592245975"/><path class="valley" d="M 1148.6953931531789 95.46890592245975 C 1076.0280160381667 168.6809115363143 1027.382429071715 304.09338679388924 1100.0 378.8742831040958"/><path class="valley" d="M 1148.6953931531789 95.46890592245963 C 1148.6953931531789 95.46890592245964 1148.6953931531789 95.46890592245964 1148.695393153179 95.46890592245965"/><path class="valley" d="M 1148.695393153179 95.46890592245965 C 1167.8227856526958 113.69797903856904 1185.4879919657387 136.05039964311067 1200.0 160.50794822063074"/><path class="valley" d="M 1000.0 182.572544799178 C 1032.5725016151985 247.2705551917223 1041.8854077255558 322.2766543286343 999.9999999999999 374.2460383323904"/><path class="valley" d="M 1051.3046068468211 662.279660285732 C 1123.9719839618333 589.0676546718774 1172.617570928285 453.65517941430244 1100.0 378.8742831040958"/><path class="valley" d="M 1200.0 575.1760214090135 C 1167.4274983848015 510.47801101646934 1158.1145922744442 435.47191187955747 1200.0 383.5025278758013"/><path class="valley" d="M 1051.304606846821 662.279660285732 C 1032.1772143473042 644.0505871696228 1014.5120080342613 621.6981665650811 1000.0 597.2406179875611"/><path class="valley" d="M 1051.3046068468211 662.2796602857319 C 1051.3046068468211 662.2796602857319 1051.3046068468211 662.2796602857319 1051.3046068468211 662.2796602857319"/><path class="valley" d="M 1149.4262463227471 148.09033413136194 C 1149.4262463227471 148.09033413136194 1149.4262463227471 148.09033413136194 1149.4262463227471 148.09033413136194"/><path class="valley" d="M 1149.4262463227471 148.09033413136194 C 1072.402984317109 210.83652235700146 1070.8097244074506 323.49022991422623 1099.7076587321728 357.8257118205349"/><path class="valley" d="M 1149.4262463227471 148.0903341313618 C 1172.0856446179312 165.5254125409825 1188.6149492192123 187.2658636658051 1200.0 210.2268072472217"/><path class="valley" d="M 1000.0 238.71237610526083 C 1014.3928481292495 282.2463949803568 1012.2879289774122 326.09396156714865 1000.0 350.4950000786432"/><path class="valley" d="M 1050.5737536772529 609.6582320768299 C 1127.597015682891 546.9120438511902 1129.1902755925494 434.25833629396544 1100.2923412678272 399.9228543876567"/><path class="valley" d="M 1200.0 519.0361901029308 C 1185.6071518707504 475.50217122783494 1187.712071022588 431.65460464104297 1200.0 407.25356612954835"/><path class="valley" d="M 1050.5737536772529 609.6582320768298 C 1027.9143553820688 592.2231536672091 1011.3850507807877 570.4827025423865 1000.0 547.5217589609699"/><path class="valley" d="M 1099.7076587321728 357.8257118205349 C 1152.6872049941633 420.77409531543424 1138.384408465716 414.13064000406024 1153.3522813784703 430.76485814342993"/><path class="valley" d="M 1153.3522813784703 430.76485814342993 C 1153.3522813784703 430.76485814342993 1153.3522813784703 430.76485814342993 1153.3522813784703 430.76485814342993"/><path class="valley" d="M 1200.0 362.6245649117287 C 1154.656856064389 420.3131608537507 1167.3645717270142 414.29476686681477 1153.3522813784703 430.7648581434298"/><path class="valley" d="M 1100.2923412678272 399.9228543876567 C 1047.3127950058367 336.9744708927575 1061.615591534284 343.6179262041314 1046.6477186215297 326.98370806476174"/><path class="valley" d="M 1046.6477186215297 326.98370806476174 C 1046.6477186215297 326.98370806476174 1046.6477186215297 326.98370806476174 1046.6477186215297 326.98370806476174"/><path class="valley" d="M 1000.0 395.12400129646295 C 1045.343143935611 337.4354053544411 1032.6354282729858 343.45379934137685 1046.6477186215297 326.9837080647618"/><path class="valley" d="M 1046.6477186215297 326.9837080647618 C 1046.6477186215297 326.9837080647618 1046.6477186215297 326.9837080647618 1046.6477186215297 326.9837080647618"/><path class="valley" d="M 1149.4262463227471 148.090334131362 C 1111.3428411916966 210.29569101152114 1111.3282241283052 322.9274729736588 1126.018372836624 357.46028523575086"/><path class="valley" d="M 1149.4262463227471 148.0903341313618 C 1189.222554940872 209.21402832056023 1192.3652235700147 321.8019590925239 1178.6398010455262 356.7294320661827"/><path class="valley" d="M 1050.5737536772529 609.6582320768299 C 1088.6571588083034 547.4528751966706 1088.6717758716948 434.8210932345329 1073.981627163376 400.2882809724408"/><path class="valley" d="M 1050.5737536772529 609.6582320768298 C 1010.777445059128 548.5345378876314 1007.6347764299853 435.9466071156678 1021.360198954474 401.01913414200885"/><path class="valley" d="M 1126.018372836624 357.46028523575086 C 1152.950312135208 420.77044104958634 1145.7514084149623 414.02832056032076 1153.3522813784703 430.76485814342993"/><path class="valley" d="M 1178.6398010455262 356.7294320661827 C 1153.476526417297 420.7631325178906 1160.4854083134549 413.82368167284164 1153.3522813784703 430.7648581434298"/><path class="valley" d="M 1073.981627163376 400.2882809724408 C 1047.0496878647923 336.97812515860545 1054.2485915850377 343.7202456478708 1046.6477186215297 326.98370806476186"/><path class="valley" d="M 1046.6477186215297 326.98370806476186 C 1046.6477186215297 326.9837080647618 1046.6477186215297 326.9837080647618 1046.6477186215297 326.98370806476174"/><path class="valley" d="M 1021.360198954474 401.01913414200885 C 1046.5234735827032 336.985433690301 1039.5145916865451 343.92488453535 1046.6477186215297 326.9837080647618"/><line class="valley" x1="1242.1062782317413" y1="0.0" x2="1252.6305638735219" y2="757.7485662081916"/><line class="valley" x1="1347.3694361264781" y1="0.0" x2="1357.8937217682587" y2="757.7485662081917"/><line class="valley" x1="1279.8791502852725" y1="0.0" x2="1348.6953931531789" y2="95.46890592245965"/><line class="valley" x1="1400.0" y1="19.958063694207233" x2="1348.6953931531789" y2="95.4689059224596"/><line class="valley" x1="1205.06073208175" y1="0.0" x2="1200.0" y2="7.4484566839275885"/><line class="valley" x1="1320.1208497147277" y1="757.7485662081916" x2="1251.304606846821" y2="662.2796602857319"/><line class="valley" x1="1400.0" y1="750.3001095242644" x2="1394.9392679182502" y2="757.7485662081917"/><line class="valley" x1="1251.304606846821" y1="662.2796602857319" x2="1200.0" y2="737.7905025139843"/><line class="valley" x1="1295.0091498756535" y1="21.048863624828684" x2="1246.168683846621" y2="292.4932042713299"/><line class="valley" x1="1295.065110612329" y1="21.008525803745403" x2="1347.7670926384421" y2="28.631268861404873"/><line class="valley" x1="1400.0" y1="19.58884096125425" x2="1347.7670926384421" y2="28.631268861404823"/><line class="valley" x1="1200.0" y1="71.33094333371295" x2="1246.168683846621" y2="292.49320427133"/><line class="valley" x1="1304.9908501243467" y1="736.699702583363" x2="1353.831316153379" y2="465.2553619368617"/><line class="valley" x1="1304.9348893876713" y1="736.7400404044462" x2="1252.2329073615579" y2="729.1172973467868"/><line class="valley" x1="1400.0" y1="686.4176228744784" x2="1353.831316153379" y2="465.2553619368616"/><line class="valley" x1="1200.0" y1="738.1597252469373" x2="1252.2329073615579" y2="729.1172973467868"/><line class="valley" x1="1295.0091498756535" y1="21.048863624828684" x2="1242.5245260082563" y2="30.113839909073686"/><line class="valley" x1="1295.065110612329" y1="21.008525803745403" x2="1306.34364660751" y2="1.1102230246251565e-14"/><line class="valley" x1="1400.0" y1="19.134250622287087" x2="1389.0324826045878" y2="-2.7755575615628914e-15"/><line class="valley" x1="1200.0" y1="23.980038343866802" x2="1242.5245260082563" y2="30.113839909073683"/><line class="valley" x1="1304.9908501243467" y1="736.699702583363" x2="1357.475473991744" y2="727.634726299118"/><line class="valley" x1="1304.9348893876713" y1="736.7400404044462" x2="1293.65635339249" y2="757.7485662081916"/><line class="valley" x1="1400.0" y1="733.7685278643248" x2="1357.475473991744" y2="727.634726299118"/><line class="valley" x1="1200.0" y1="738.6143155859047" x2="1210.9675173954122" y2="757.7485662081917"/><path class="valley" d="M 1348.695393153179 95.46890592245973 C 1348.695393153179 95.46890592245974 1348.6953931531789 95.46890592245974 1348.6953931531789 95.46890592245975"/><path class="valley" d="M 1348.6953931531789 95.46890592245975 C 1276.0280160381667 168.6809115363143 1227.382429071715 304.09338679388924 1300.0 378.8742831040958"/><path class="valley" d="M 1348.6953931531789 95.46890592245963 C 1348.6953931531789 95.46890592245964 1348.6953931531789 95.46890592245964 1348.695393153179 95.46890592245965"/><path class="valley" d="M 1348.695393153179 95.46890592245965 C 1367.8227856526958 113.69797903856904 1385.4879919657387 136.05039964311067 1400.0 160.50794822063074"/><path class="valley" d="M 1200.0 182.572544799178 C 1232.5725016151985 247.2705551917223 1241.8854077255558 322.2766543286343 1199.9999999999998 374.2460383323904"/><path class="valley" d="M 1251.3046068468211 662.279660285732 C 1323.9719839618333 589.0676546718774 1372.617570928285 453.65517941430244 1300.0 378.8742831040958"/><path class="valley" d="M 1400.0 575.1760214090135 C 1367.4274983848015 510.47801101646934 1358.1145922744442 435.47191187955747 1400.0 383.5025278758013"/><path class="valley" d="M 1251.304606846821 662.279660285732 C 1232.1772143473042 644.0505871696228 1214.5120080342613 621.6981665650811 1200.0 597.2406179875611"/><path class="valley" d="M 1251.3046068468211 662.2796602857319 C 1251.3046068468211 662.2796602857319 1251.3046068468211 662.2796602857319 1251.3046068468211 662.2796602857319"/><path class="valley" d="M 1349.4262463227471 148.09033413136194 C 1349.4262463227471 148.09033413136194 1349.4262463227471 148.09033413136194 1349.4262463227471 148.09033413136194"/><path class="valley" d="M 1349.4262463227471 148.09033413136194 C 1272.402984317109 210.83652235700146 1270.8097244074506 323.49022991422623 1299.7076587321728 357.8257118205349"/><path class="valley" d="M 1349.4262463227471 148.0903341313618 C 1372.0856446179312 165.5254125409825 1388.6149492192123 187.2658636658051 1400.0 210.2268072472217"/><path class="valley" d="M 1200.0 238.71237610526083 C 1214.3928481292496 282.2463949803568 1212.287928977412 326.09396156714865 1200.0 350.4950000786432"/><path class="valley" d="M 1250.5737536772529 609.6582320768299 C 1327.597015682891 546.9120438511902 1329.1902755925494 434.25833629396544 1300.2923412678272 399.9228543876567"/><path class="valley" d="M 1400.0 519.0361901029308 C 1385.6071518707504 475.50217122783494 1387.712071022588 431.65460464104297 1400.0 407.25356612954835"/><path class="valley" d="M 1250.5737536772529 609.6582320768298 C 1227.9143553820688 592.2231536672091 1211.3850507807877 570.4827025423865 1200.0 547.5217589609699"/><path class="valley" d="M 1299.7076587321728 357.8257118205349 C 1352.6872049941633 420.77409531543424 1338.384408465716 414.13064000406024 1353.3522813784703 430.76485814342993"/><path class="valley" d="M 1353.3522813784703 430.76485814342993 C 1353.3522813784703 430.76485814342993 1353.3522813784703 430.76485814342993 1353.3522813784703 430.76485814342993"/><path class="valley" d="M 1400.0 362.6245649117287 C 1354.656856064389 420.3131608537507 1367.3645717270142 414.29476686681477 1353.3522813784703 430.7648581434298"/><path class="valley" d="M 1300.2923412678272 399.9228543876567 C 1247.3127950058367 336.9744708927575 1261.615591534284 343.6179262041314 1246.6477186215297 326.98370806476174"/><path class="valley" d="M 1246.6477186215297 326.98370806476174 C 1246.6477186215297 326.98370806476174 1246.6477186215297 326.98370806476174 1246.6477186215297 326.98370806476174"/><path class="valley" d="M 1200.0 395.12400129646295 C 1245.343143935611 337.4354053544411 1232.6354282729858 343.45379934137685 1246.6477186215297 326.9837080647618"/><path class="valley" d="M 1246.6477186215297 326.9837080647618 C 1246.6477186215297 326.9837080647618 1246.6477186215297 326.9837080647618 1246.6477186215297 326.9837080647618"/><path class="valley" d="M 1349.4262463227471 148.090334131362 C 1311.3428411916966 210.29569101152114 1311.3282241283052 322.9274729736588 1326.018372836624 357.46028523575086"/><path class="valley" d="M 1349.4262463227471 148.0903341313618 C 1389.222554940872 209.21402832056023 1392.3652235700147 321.8019590925239 1378.6398010455262 356.7294320661827"/><path class="valley" d="M 1250.5737536772529 609.6582320768299 C 1288.6571588083034 547.4528751966706 1288.6717758716948 434.8210932345329 1273.981627163376 400.2882809724408"/><path class="valley" d="M 1250.5737536772529 609.6582320768298 C 1210.777445059128 548.5345378876314 1207.6347764299853 435.9466071156678 1221.3601989544738 401.01913414200885"/><path class="valley" d="M 1326.018372836624 357.46028523575086 C 1352.950312135208 420.77044104958634 1345.7514084149623 414.02832056032076 1353.3522813784703 430.76485814342993"/><path class="valley" d="M 1378.6398010455262 356.7294320661827 C 1353.476526417297 420.7631325178906 1360.4854083134549 413.82368167284164 1353.3522813784703 430.7648581434298"/><path class="valley" d="M 1273.981627163376 400.2882809724408 C 1247.0496878647923 336.97812515860545 1254.2485915850377 343.7202456478708 1246.6477186215297 326.98370806476186"/><path class="valley" d="M 1246.6477186215297 326.98370806476186 C 1246.6477186215297 326.9837080647618 1246.6477186215297 326.9837080647618 1246.6477186215297 326.98370806476174"/><path class="valley" d="M 1221.3601989544738 401.01913414200885 C 1246.5234735827032 336.985433690301 1239.5145916865451 343.92488453535 1246.6477186215297 326.9837080647618"/><line class="valley" x1="1442.1062782317413" y1="0.0" x2="1452.6305638735219" y2="757.7485662081916"/><line class="valley" x1="1547.3694361264781" y1="0.0" x2="1557.8937217682587" y2="757.7485662081917"/><line class="valley" x1="1479.8791502852725" y1="0.0" x2="1548.6953931531789" y2="95.46890592245965"/><line class="valley" x1="1600.0" y1="19.958063694207233" x2="1548.6953931531789" y2="95.4689059224596"/><line class="valley" x1="1405.06073208175" y1="0.0" x2="1400.0" y2="7.4484566839275885"/><line class="valley" x1="1520.1208497147277" y1="757.7485662081916" x2="1451.304606846821" y2="662.2796602857319"/><line class="valley" x1="1600.0" y1="750.3001095242644" x2="1594.9392679182502" y2="757.7485662081917"/><line class="valley" x1="1451.304606846821" y1="662.2796602857319" x2="1400.0" y2="737.7905025139843"/><line class="valley" x1="1495.0091498756535" y1="21.048863624828684" x2="1446.168683846621" y2="292.4932042713299"/><line class="valley" x1="1495.065110612329" y1="21.008525803745403" x2="1547.7670926384421" y2="28.631268861404873"/><line class="valley" x1="1600.0" y1="19.58884096125425" x2="1547.7670926384421" y2="28.631268861404823"/><line class="valley" x1="1400.0" y1="71.33094333371295" x2="1446.168683846621" y2="292.49320427133"/><line class="valley" x1="1504.9908501243467" y1="736.699702583363" x2="1553.831316153379" y2="465.2553619368617"/><line class="valley" x1="1504.9348893876713" y1="736.7400404044462" x2="1452.2329073615579" y2="729.1172973467868"/><line class="valley" x1="1600.0" y1="686.4176228744784" x2="1553.831316153379" y2="465.2553619368616"/><line class="valley" x1="1400.0" y1="738.1597252469373" x2="1452.2329073615579" y2="729.1172973467868"/><line class="valley" x1="1495.0091498756535" y1="21.048863624828684" x2="1442.5245260082563" y2="30.113839909073686"/><line class="valley" x1="1495.065110612329" y1="21.008525803745403" x2="1506.34364660751" y2="1.1102230246251565e-14"/><line class="valley" x1="1600.0" y1="19.134250622287087" x2="1589.0324826045878" y2="-2.7755575615628914e-15"/><line class="valley" x1="1400.0" y1="23.980038343866802" x2="1442.5245260082563" y2="30.113839909073683"/><line class="valley" x1="1504.9908501243467" y1="736.699702583363" x2="1557.475473991744" y2="727.634726299118"/><line class="valley" x1="1504.9348893876713" y1="736.7400404044462" x2="1493.65635339249" y2="757.7485662081916"/><line class="valley" x1="1600.0" y1="733.7685278643248" x2="1557.475473991744" y2="727.634726299118"/><line class="valley" x1="1400.0" y1="738.6143155859047" x2="1410.9675173954122" y2="757.7485662081917"/><path class="valley" d="M 1548.695393153179 95.46890592245973 C 1548.695393153179 95.46890592245974 1548.6953931531789 95.46890592245974 1548.6953931531789 95.46890592245975"/><path class="valley" d="M 1548.6953931531789 95.46890592245975 C 1476.0280160381667 168.6809115363143 1427.382429071715 304.09338679388924 1500.0 378.8742831040958"/><path class="valley" d="M 1548.6953931531789 95.46890592245963 C 1548.6953931531789 95.46890592245964 1548.6953931531789 95.46890592245964 1548.695393153179 95.46890592245965"/><path class="valley" d="M 1548.695393153179 95.46890592245965 C 1567.8227856526958 113.69797903856904 1585.4879919657387 136.05039964311067 1600.0 160.50794822063074"/><path class="valley" d="M 1400.0 182.572544799178 C 1432.5725016151985 247.2705551917223 1441.8854077255558 322.2766543286343 1399.9999999999998 374.2460383323904"/><path class="valley" d="M 1451.3046068468211 662.279660285732 C 1523.9719839618333 589.0676546718774 1572.617570928285 453.65517941430244 1500.0 378.8742831040958"/><path class="valley" d="M 1600.0 575.1760214090135 C 1567.4274983848015 510.47801101646934 1558.1145922744442 435.47191187955747 1600.0 383.5025278758013"/><path class="valley" d="M 1451.304606846821 662.279660285732 C 1432.1772143473042 644.0505871696228 1414.5120080342613 621.6981665650811 1400.0 597.2406179875611"/><path class="valley" d="M 1451.3046068468211 662.2796602857319 C 1451.3046068468211 662.2796602857319 1451.3046068468211 662.2796602857319 1451.3046068468211 662.2796602857319"/><path class="valley" d="M 1549.4262463227471 148.09033413136194 C 1549.4262463227471 148.09033413136194 1549.4262463227471 148.09033413136194 1549.4262463227471 148.09033413136194"/><path class="valley" d="M 1549.4262463227471 148.09033413136194 C 1472.402984317109 210.83652235700146 1470.8097244074506 323.49022991422623 1499.7076587321728 357.8257118205349"/><path class="valley" d="M 1549.4262463227471 148.0903341313618 C 1572.0856446179312 165.5254125409825 1588.6149492192123 187.2658636658051 1600.0 210.2268072472217"/><path class="valley" d="M 1400.0 238.71237610526083 C 1414.3928481292496 282.2463949803568 1412.287928977412 326.09396156714865 1400.0 350.4950000786432"/><path class="valley" d="M 1450.5737536772529 609.6582320768299 C 1527.597015682891 546.9120438511902 1529.1902755925494 434.25833629396544 1500.2923412678272 399.9228543876567"/><path class="valley" d="M 1600.0 519.0361901029308 C 1585.6071518707504 475.50217122783494 1587.712071022588 431.65460464104297 1600.0 407.25356612954835"/><path class="valley" d="M 1450.5737536772529 609.6582320768298 C 1427.9143553820688 592.2231536672091 1411.3850507807877 570.4827025423865 1400.0 547.5217589609699"/><path class="valley" d="M 1499.7076587321728 357.8257118205349 C 1552.6872049941633 420.77409531543424 1538.384408465716 414.13064000406024 1553.3522813784703 430.76485814342993"/><path class="valley" d="M 1553.3522813784703 430.76485814342993 C 1553.3522813784703 430.76485814342993 1553.3522813784703 430.76485814342993 1553.3522813784703 430.76485814342993"/><path class="valley" d="M 1600.0 362.6245649117287 C 1554.656856064389 420.3131608537507 1567.3645717270142 414.29476686681477 1553.3522813784703 430.7648581434298"/><path class="valley" d="M 1500.2923412678272 399.9228543876567 C 1447.3127950058367 336.9744708927575 1461.615591534284 343.6179262041314 1446.6477186215297 326.98370806476174"/><path class="valley" d="M 1446.6477186215297 326.98370806476174 C 1446.6477186215297 326.98370806476174 1446.6477186215297 326.98370806476174 1446.6477186215297 326.98370806476174"/><path class="valley" d="M 1400.0 395.12400129646295 C 1445.343143935611 337.4354053544411 1432.6354282729858 343.45379934137685 1446.6477186215297 326.9837080647618"/><path class="valley" d="M 1446.6477186215297 326.9837080647618 C 1446.6477186215297 326.9837080647618 1446.6477186215297 326.9837080647618 1446.6477186215297 326.9837080647618"/><path class="valley" d="M 1549.4262463227471 148.090334131362 C 1511.3428411916966 210.29569101152114 1511.3282241283052 322.9274729736588 1526.018372836624 357.46028523575086"/><path class="valley" d="M 1549.4262463227471 148.0903341313618 C 1589.222554940872 209.21402832056023 1592.3652235700147 321.8019590925239 1578.6398010455262 356.7294320661827"/><path class="valley" d="M 1450.5737536772529 609.6582320768299 C 1488.6571588083034 547.4528751966706 1488.6717758716948 434.8210932345329 1473.981627163376 400.2882809724408"/><path class="valley" d="M 1450.5737536772529 609.6582320768298 C 1410.777445059128 548.5345378876314 1407.6347764299853 435.9466071156678 1421.3601989544738 401.01913414200885"/><path class="valley" d="M 1526.018372836624 357.46028523575086 C 1552.950312135208 420.77044104958634 1545.7514084149623 414.02832056032076 1553.3522813784703 430.76485814342993"/><path class="valley" d="M 1578.6398010455262 356.7294320661827 C 1553.476526417297 420.7631325178906 1560.4854083134549 413.82368167284164 1553.3522813784703 430.7648581434298"/><path class="valley" d="M 1473.981627163376 400.2882809724408 C 1447.0496878647923 336.97812515860545 1454.2485915850377 343.7202456478708 1446.6477186215297 326.98370806476186"/><path class="valley" d="M 1446.6477186215297 326.98370806476186 C 1446.6477186215297 326.9837080647618 1446.6477186215297 326.9837080647618 1446.6477186215297 326.98370806476174"/><path class="valley" d="M 1421.3601989544738 401.01913414200885 C 1446.5234735827032 336.985433690301 1439.5145916865451 343.92488453535 1446.6477186215297 326.9837080647618"/></svg>