<svg xmlns="http://www.w3.org/2000/svg" width="1200" height="757.7485662081916"><style >
.valley {stroke: #00f; stroke-width: 2px; fill:none}
.mountain {stroke: #f00; stroke-width: 2px; fill:none }
.cut {stroke: #000; stroke-width: 3px; fill:none } 
.hint {stroke: #000; stroke-width: 1px; fill:none } 
</style><rect class="cut" x="0" y="0" width="1200" height="757.7485662081916"/><line class="cut" x1="200" y1="0" x2="200" y2="757.7485662081916"/><line class="cut" x1="400" y1="0" x2="400" y2="757.7485662081916"/><line class="cut" x1="600" y1="0" x2="600" y2="757.7485662081916"/><line class="cut" x1="800" y1="0" x2="800" y2="757.7485662081916"/><line class="cut" x1="1000" y1="0" x2="1000" y2="757.7485662081916"/><line class="valley" x1="42.10627823174135" y1="0.0" x2="52.63056387352181" y2="757.7485662081916"/><line class="valley" x1="147.36943612647815" y1="0.0" x2="157.89372176825873" y2="757.7485662081917"/><line class="valley" x1="75.5710204021917" y1="0.0" x2="148.4633213324641" y2="78.75973483098541"/><line class="valley" x1="200.0" y1="19.875093964385147" x2="148.46332133246406" y2="78.75973483098537"/><line class="valley" x1="9.467865782695679" y1="0.0" x2="0.0" y2="10.817768835739823"/><line class="valley" x1="124.42897959780836" y1="757.7485662081916" x2="51.53667866753591" y2="678.9888313772063"/><line class="valley" x1="200.0" y1="746.930797372452" x2="190.53213421730436" y2="757.748566208192"/><line class="valley" x1="51.536678667535895" y1="678.9888313772062" x2="0.0" y2="737.8734722438063"/><line class="valley" x1="95.00914987565346" y1="21.048863624828684" x2="73.04251687679478" y2="143.19865612805697"/><line class="valley" x1="95.05508257012704" y1="21.006352819081407" x2="147.58755018979772" y2="15.704212559008667"/><line class="valley" x1="200.0" y1="19.52733635326858" x2="147.58755018979772" y2="15.704212559008553"/><line class="valley" x1="4.163336342344337e-15" y1="71.35330280310234" x2="15.158945847002347" y2="144.00259461458185"/><line class="valley" x1="104.9908501243466" y1="736.699702583363" x2="126.95748312320528" y2="614.5499100801347"/><line class="valley" x1="104.94491742987302" y1="736.7422133891102" x2="52.41244981020229" y2="742.0443536491831"/><line class="valley" x1="200.0" y1="686.3952634050892" x2="184.84105415299769" y2="613.7459715936099"/><line class="valley" x1="-2.905661822261152e-15" y1="738.221229854923" x2="52.412449810202276" y2="742.044353649183"/><path class="valley" d="M 73.04251687679478 143.19865612805697 C 69.6861589319482 161.84452410752738 65.85092168824481 193.82485518403828 44.97775516538029 206.74633922200206"/><path class="valley" d="M 44.97775516538029 206.74633922200206 C 44.97775516538029 206.74633922200206 44.97775516538028 206.74633922200206 44.97775516538027 206.74633922200206"/><path class="valley" d="M 15.158945847002347 144.00259461458185 C 19.0318500354659 162.5480561755341 23.753779121123042 194.40953771969274 44.97775516538026 206.7463392220021"/><path class="valley" d="M 126.95748312320528 614.5499100801347 C 130.31384106805183 595.9040421006642 134.14907831175523 563.9237110241534 155.02224483461978 551.0022269861896"/><path class="valley" d="M 184.84105415299769 613.7459715936099 C 180.96814996453415 595.2005100326576 176.24622087887698 563.3390284884988 155.02224483461978 551.0022269861896"/><line class="valley" x1="95.00914987565346" y1="21.048863624828684" x2="42.34482887099562" y2="17.175646026306737"/><line class="valley" x1="95.05508257012704" y1="21.006352819081407" x2="95.137605047889" y2="0.0"/><line class="valley" x1="200.00000000000006" y1="11.757006847918909" x2="199.6271259153686" y2="-2.7755575615628914e-15"/><line class="valley" x1="0.0" y1="21.475170134405428" x2="42.3448288709956" y2="17.175646026306737"/><line class="valley" x1="104.9908501243466" y1="736.699702583363" x2="157.65517112900446" y2="740.5729201818849"/><line class="valley" x1="104.94491742987302" y1="736.7422133891102" x2="104.86239495211112" y2="757.7485662081916"/><line class="valley" x1="199.99999999999997" y1="736.2733960737862" x2="157.65517112900446" y2="740.5729201818849"/><line class="valley" x1="8.673617379884035e-17" y1="745.9915593602738" x2="0.37287408463140226" y2="757.7485662081917"/><path class="valley" d="M 148.46332133246415 78.75973483098555 C 76.02801603816674 168.6809115363143 27.38242907171498 304.09338679388924 99.99999999999999 378.8742831040958"/><path class="valley" d="M 148.46332133246412 78.75973483098545 C 167.6921791203292 101.31815827653294 185.4371455374846 126.91686640489843 200.0 153.8070262148257"/><path class="valley" d="M 9.71445146547012e-15 177.51159538816933 C 32.58349099329689 247.1823292589963 41.85430011160444 322.30748685086536 2.175343238874916e-13 374.24574131637684"/><path class="valley" d="M 51.53667866753594 678.9888313772063 C 123.97198396183326 589.0676546718774 172.61757092828506 453.65517941430244 99.99999999999999 378.8742831040958"/><path class="valley" d="M 200.0 580.2369708200223 C 167.41650900670317 510.56623694919523 158.14569988839557 435.4410793573264 199.99999999999974 383.50282489181484"/><path class="valley" d="M 51.53667866753584 678.9888313772062 C 32.30782087967077 656.4304079316587 14.562854462515384 630.8316998032932 -1.6653345369377348e-14 603.9415399933658"/><path class="valley" d="M 149.1941745020322 131.3811630398877 C 149.19417450203218 131.3811630398877 149.19417450203215 131.3811630398877 149.19417450203213 131.3811630398877"/><path class="valley" d="M 149.19417450203213 131.3811630398877 C 72.40298431710906 210.83652235700146 70.80972440745063 323.49022991422623 99.70765873217276 357.8257118205349"/><path class="valley" d="M 149.1941745020322 131.38116303988764 C 171.97604179560687 153.67945561761263 188.57842492016894 178.9135592663811 199.99999999999997 204.3770676386419"/><path class="valley" d="M 2.4980018054066022e-14 235.14689176750306 C 14.381581141988192 281.90709064448976 12.272470525706838 326.0699686642351 9.523631883112671e-14 350.4884942091643"/><path class="valley" d="M 50.805825497967824 626.367403168304 C 127.59701568289097 546.9120438511902 129.19027559254937 434.25833629396544 100.29234126782724 399.9228543876567"/><path class="valley" d="M 200.0 522.6016744406886 C 185.61841885801184 475.841475563702 187.7275294742932 431.6785975439567 199.99999999999994 407.26007199902733"/><path class="valley" d="M 50.805825497967774 626.3674031683039 C 28.023958204393086 604.0691105905789 11.421575079831047 578.8350069418107 2.7755575615628914e-14 553.3714985695499"/><path class="valley" d="M 99.70765873217276 357.8257118205349 C 152.68720499416332 420.77409531543424 138.3844084657159 414.13064000406024 153.3522813784703 430.76485814342993"/><path class="valley" d="M 199.99999999999997 362.62456491172856 C 154.6568560643892 420.3131608537505 167.3645717270141 414.29476686681494 153.35228137847042 430.7648581434296"/><path class="valley" d="M 153.35228137847042 430.7648581434296 C 153.3522813784704 430.76485814342965 153.35228137847034 430.76485814342976 153.3522813784703 430.7648581434298"/><path class="valley" d="M 100.29234126782724 399.9228543876567 C 47.31279500583666 336.9744708927575 61.6155915342841 343.6179262041314 46.64771862152971 326.98370806476174"/><path class="valley" d="M -2.2551405187698492e-15 395.1240012964629 C 45.34314393561091 337.435405354441 32.63542827298588 343.45379934137685 46.647718621529705 326.9837080647618"/><path class="valley" d="M 149.1941745020322 131.38116303988775 C 111.34284119169668 210.29569101152114 111.32822412830534 322.9274729736588 126.01837283662387 357.46028523575086"/><path class="valley" d="M 149.1941745020322 131.38116303988764 C 189.22255494087196 209.21402832056032 192.36522357001473 321.8019590925239 178.63980104552607 356.7294320661827"/><path class="valley" d="M 50.805825497967824 626.367403168304 C 88.65715880830334 547.4528751966706 88.67177587169466 434.8210932345329 73.98162716337615 400.2882809724408"/><path class="valley" d="M 50.805825497967774 626.3674031683039 C 10.77744505912801 548.5345378876314 7.634776429985268 435.9466071156678 21.36019895447392 401.01913414200885"/><path class="valley" d="M 126.01837283662387 357.46028523575086 C 152.9503121352078 420.7704410495863 145.75140841496227 414.02832056032076 153.35228137847022 430.76485814342965"/><path class="valley" d="M 153.35228137847022 430.76485814342965 C 153.35228137847025 430.76485814342976 153.35228137847028 430.7648581434298 153.3522813784703 430.76485814342993"/><path class="valley" d="M 178.63980104552607 356.7294320661827 C 153.47652641729695 420.7631325178904 160.48540831345477 413.8236816728418 153.35228137847037 430.7648581434296"/><path class="valley" d="M 153.35228137847037 430.7648581434296 C 153.35228137847034 430.76485814342965 153.3522813784703 430.76485814342976 153.3522813784703 430.7648581434298"/><path class="valley" d="M 73.98162716337615 400.2882809724408 C 47.04968786479216 336.9781251586053 54.248591585037786 343.7202456478709 46.64771862152971 326.98370806476174"/><path class="valley" d="M 21.36019895447392 401.01913414200885 C 46.52347358270313 336.985433690301 39.51459168654521 343.92488453535 46.647718621529705 326.9837080647618"/><line class="valley" x1="242.10627823174136" y1="0.0" x2="252.6305638735218" y2="757.7485662081916"/><line class="valley" x1="347.36943612647815" y1="0.0" x2="357.89372176825873" y2="757.7485662081917"/><line class="valley" x1="275.5710204021917" y1="0.0" x2="348.4633213324641" y2="78.75973483098541"/><line class="valley" x1="400.0" y1="19.875093964385147" x2="348.46332133246403" y2="78.75973483098537"/><line class="valley" x1="209.46786578269567" y1="0.0" x2="200.0" y2="10.817768835739823"/><line class="valley" x1="324.4289795978084" y1="757.7485662081916" x2="251.5366786675359" y2="678.9888313772063"/><line class="valley" x1="400.0" y1="746.930797372452" x2="390.53213421730436" y2="757.748566208192"/><line class="valley" x1="251.5366786675359" y1="678.9888313772062" x2="200.0" y2="737.8734722438063"/><line class="valley" x1="295.00914987565346" y1="21.048863624828684" x2="273.04251687679476" y2="143.19865612805697"/><line class="valley" x1="295.05508257012707" y1="21.006352819081407" x2="347.58755018979775" y2="15.704212559008667"/><line class="valley" x1="400.0" y1="19.52733635326858" x2="347.58755018979775" y2="15.704212559008553"/><line class="valley" x1="200.0" y1="71.35330280310234" x2="215.15894584700234" y2="144.00259461458185"/><line class="valley" x1="304.9908501243466" y1="736.699702583363" x2="326.9574831232053" y2="614.5499100801347"/><line class="valley" x1="304.94491742987304" y1="736.7422133891102" x2="252.4124498102023" y2="742.0443536491831"/><line class="valley" x1="400.0" y1="686.3952634050892" x2="384.8410541529977" y2="613.7459715936099"/><line class="valley" x1="200.0" y1="738.221229854923" x2="252.41244981020228" y2="742.044353649183"/><path class="valley" d="M 273.04251687679476 143.19865612805697 C 269.68615893194817 161.84452410752738 265.8509216882448 193.82485518403828 244.9777551653803 206.74633922200206"/><path class="valley" d="M 244.9777551653803 206.74633922200206 C 244.9777551653803 206.74633922200206 244.97775516538027 206.74633922200206 244.97775516538027 206.74633922200206"/><path class="valley" d="M 215.15894584700234 144.00259461458185 C 219.0318500354659 162.5480561755341 223.75377912112305 194.40953771969274 244.97775516538024 206.7463392220021"/><path class="valley" d="M 326.9574831232053 614.5499100801347 C 330.31384106805183 595.9040421006642 334.14907831175526 563.9237110241534 355.02224483461976 551.0022269861896"/><path class="valley" d="M 384.8410541529977 613.7459715936099 C 380.9681499645342 595.2005100326576 376.246220878877 563.3390284884988 355.02224483461976 551.0022269861896"/><line class="valley" x1="295.00914987565346" y1="21.048863624828684" x2="242.34482887099563" y2="17.175646026306737"/><line class="valley" x1="295.05508257012707" y1="21.006352819081407" x2="295.137605047889" y2="0.0"/><line class="valley" x1="400.00000000000006" y1="11.757006847918909" x2="399.6271259153686" y2="-2.7755575615628914e-15"/><line class="valley" x1="200.0" y1="21.475170134405428" x2="242.3448288709956" y2="17.175646026306737"/><line class="valley" x1="304.9908501243466" y1="736.699702583363" x2="357.65517112900443" y2="740.5729201818849"/><line class="valley" x1="304.94491742987304" y1="736.7422133891102" x2="304.8623949521111" y2="757.7485662081916"/><line class="valley" x1="400.0" y1="736.2733960737862" x2="357.65517112900443" y2="740.5729201818849"/><line class="valley" x1="200.0" y1="745.9915593602738" x2="200.3728740846314" y2="757.7485662081917"/><path class="valley" d="M 348.46332133246415 78.75973483098555 C 276.02801603816675 168.6809115363143 227.38242907171497 304.09338679388924 300.0 378.8742831040958"/><path class="valley" d="M 348.46332133246415 78.75973483098545 C 367.69217912032923 101.31815827653294 385.43714553748464 126.91686640489843 400.0 153.8070262148257"/><path class="valley" d="M 200.0 177.51159538816933 C 232.5834909932969 247.1823292589963 241.85430011160443 322.30748685086536 200.00000000000023 374.24574131637684"/><path class="valley" d="M 251.53667866753594 678.9888313772063 C 323.97198396183325 589.0676546718774 372.6175709282851 453.65517941430244 300.0 378.8742831040958"/><path class="valley" d="M 400.0 580.2369708200223 C 367.41650900670317 510.56623694919523 358.1456998883956 435.4410793573264 399.9999999999998 383.50282489181484"/><path class="valley" d="M 251.53667866753585 678.9888313772062 C 232.30782087967077 656.4304079316587 214.5628544625154 630.8316998032932 199.99999999999997 603.9415399933658"/><path class="valley" d="M 349.1941745020322 131.3811630398877 C 349.1941745020322 131.3811630398877 349.1941745020322 131.3811630398877 349.1941745020321 131.3811630398877"/><path class="valley" d="M 349.1941745020321 131.3811630398877 C 272.40298431710903 210.83652235700146 270.80972440745063 323.49022991422623 299.7076587321728 357.8257118205349"/><path class="valley" d="M 349.1941745020322 131.38116303988764 C 371.9760417956069 153.67945561761263 388.5784249201689 178.9135592663811 400.0 204.3770676386419"/><path class="valley" d="M 200.00000000000003 235.14689176750306 C 214.3815811419882 281.90709064448976 212.27247052570684 326.0699686642351 200.00000000000009 350.4884942091643"/><path class="valley" d="M 250.80582549796782 626.367403168304 C 327.59701568289097 546.9120438511902 329.19027559254937 434.25833629396544 300.2923412678272 399.9228543876567"/><path class="valley" d="M 400.0 522.6016744406886 C 385.61841885801186 475.841475563702 387.7275294742932 431.6785975439567 399.99999999999994 407.26007199902733"/><path class="valley" d="M 250.80582549796776 626.3674031683039 C 228.0239582043931 604.0691105905789 211.42157507983106 578.8350069418107 200.00000000000003 553.3714985695499"/><path class="valley" d="M 299.7076587321728 357.8257118205349 C 352.6872049941633 420.77409531543424 338.38440846571586 414.13064000406024 353.3522813784703 430.76485814342993"/><path class="valley" d="M 400.0 362.62456491172856 C 354.6568560643892 420.3131608537505 367.3645717270141 414.29476686681494 353.3522813784704 430.7648581434296"/><path class="valley" d="M 353.3522813784704 430.7648581434296 C 353.35228137847037 430.76485814342965 353.35228137847037 430.76485814342976 353.3522813784703 430.7648581434298"/><path class="valley" d="M 300.2923412678272 399.9228543876567 C 247.31279500583668 336.9744708927575 261.6155915342841 343.6179262041314 246.64771862152972 326.98370806476174"/><path class="valley" d="M 200.0 395.1240012964629 C 245.3431439356109 337.435405354441 232.63542827298588 343.45379934137685 246.6477186215297 326.9837080647618"/><path class="valley" d="M 349.1941745020322 131.38116303988775 C 311.34284119169666 210.29569101152114 311.32822412830535 322.9274729736588 326.0183728366239 357.46028523575086"/><path class="valley" d="M 349.1941745020322 131.38116303988764 C 389.222554940872 209.21402832056032 392.36522357001473 321.8019590925239 378.63980104552604 356.7294320661827"/><path class="valley" d="M 250.80582549796782 626.367403168304 C 288.65715880830334 547.4528751966706 288.67177587169465 434.8210932345329 273.9816271633762 400.2882809724408"/><path class="valley" d="M 250.80582549796776 626.3674031683039 C 210.777445059128 548.5345378876314 207.63477642998527 435.9466071156678 221.36019895447393 401.01913414200885"/><path class="valley" d="M 326.0183728366239 357.46028523575086 C 352.9503121352078 420.7704410495863 345.75140841496227 414.02832056032076 353.35228137847025 430.76485814342965"/><path class="valley" d="M 353.35228137847025 430.76485814342965 C 353.35228137847025 430.76485814342976 353.35228137847025 430.7648581434298 353.3522813784703 430.76485814342993"/><path class="valley" d="M 378.63980104552604 356.7294320661827 C 353.47652641729695 420.7631325178904 360.48540831345474 413.8236816728418 353.35228137847037 430.7648581434296"/><path class="valley" d="M 353.35228137847037 430.7648581434296 C 353.35228137847037 430.76485814342965 353.3522813784703 430.76485814342976 353.3522813784703 430.7648581434298"/><path class="valley" d="M 273.9816271633762 400.2882809724408 C 247.04968786479216 336.9781251586053 254.2485915850378 343.7202456478709 246.64771862152972 326.98370806476174"/><path class="valley" d="M 221.36019895447393 401.01913414200885 C 246.52347358270313 336.985433690301 239.5145916865452 343.92488453535 246.6477186215297 326.9837080647618"/><line class="valley" x1="442.1062782317413" y1="0.0" x2="452.6305638735218" y2="757.7485662081916"/><line class="valley" x1="547.3694361264781" y1="0.0" x2="557.8937217682587" y2="757.7485662081917"/><line class="valley" x1="475.5710204021917" y1="0.0" x2="548.4633213324641" y2="78.75973483098541"/><line class="valley" x1="600.0" y1="19.875093964385147" x2="548.463321332464" y2="78.75973483098537"/><line class="valley" x1="409.4678657826957" y1="0.0" x2="400.0" y2="10.817768835739823"/><line class="valley" x1="524.4289795978084" y1="757.7485662081916" x2="451.5366786675359" y2="678.9888313772063"/><line class="valley" x1="600.0" y1="746.930797372452" x2="590.5321342173044" y2="757.748566208192"/><line class="valley" x1="451.5366786675359" y1="678.9888313772062" x2="400.0" y2="737.8734722438063"/><line class="valley" x1="495.00914987565346" y1="21.048863624828684" x2="473.04251687679476" y2="143.19865612805697"/><line class="valley" x1="495.05508257012707" y1="21.006352819081407" x2="547.5875501897978" y2="15.704212559008667"/><line class="valley" x1="600.0" y1="19.52733635326858" x2="547.5875501897978" y2="15.704212559008553"/><line class="valley" x1="400.0" y1="71.35330280310234" x2="415.15894584700237" y2="144.00259461458185"/><line class="valley" x1="504.9908501243466" y1="736.699702583363" x2="526.9574831232053" y2="614.5499100801347"/><line class="valley" x1="504.94491742987304" y1="736.7422133891102" x2="452.4124498102023" y2="742.0443536491831"/><line class="valley" x1="600.0" y1="686.3952634050892" x2="584.8410541529977" y2="613.7459715936099"/><line class="valley" x1="400.0" y1="738.221229854923" x2="452.41244981020225" y2="742.044353649183"/><path class="valley" d="M 473.04251687679476 143.19865612805697 C 469.68615893194817 161.84452410752738 465.8509216882448 193.82485518403828 444.9777551653803 206.74633922200206"/><path class="valley" d="M 444.9777551653803 206.74633922200206 C 444.9777551653803 206.74633922200206 444.9777551653803 206.74633922200206 444.97775516538024 206.74633922200206"/><path class="valley" d="M 415.15894584700237 144.00259461458185 C 419.0318500354659 162.5480561755341 423.75377912112305 194.40953771969274 444.97775516538024 206.7463392220021"/><path class="valley" d="M 526.9574831232053 614.5499100801347 C 530.3138410680518 595.9040421006642 534.1490783117553 563.9237110241534 555.0222448346198 551.0022269861896"/><path class="valley" d="M 584.8410541529977 613.7459715936099 C 580.9681499645342 595.2005100326576 576.246220878877 563.3390284884988 555.0222448346198 551.0022269861896"/><line class="valley" x1="495.00914987565346" y1="21.048863624828684" x2="442.3448288709956" y2="17.175646026306737"/><line class="valley" x1="495.05508257012707" y1="21.006352819081407" x2="495.137605047889" y2="0.0"/><line class="valley" x1="600.0" y1="11.757006847918909" x2="599.6271259153687" y2="-2.7755575615628914e-15"/><line class="valley" x1="400.0" y1="21.475170134405428" x2="442.34482887099557" y2="17.175646026306737"/><line class="valley" x1="504.9908501243466" y1="736.699702583363" x2="557.6551711290044" y2="740.5729201818849"/><line class="valley" x1="504.94491742987304" y1="736.7422133891102" x2="504.8623949521111" y2="757.7485662081916"/><line class="valley" x1="600.0" y1="736.2733960737862" x2="557.6551711290044" y2="740.5729201818849"/><line class="valley" x1="400.0" y1="745.9915593602738" x2="400.3728740846314" y2="757.7485662081917"/><path class="valley" d="M 548.4633213324641 78.75973483098555 C 476.02801603816675 168.6809115363143 427.38242907171497 304.09338679388924 500.0 378.8742831040958"/><path class="valley" d="M 548.4633213324641 78.75973483098545 C 567.6921791203292 101.31815827653294 585.4371455374846 126.91686640489843 600.0 153.8070262148257"/><path class="valley" d="M 400.0 177.51159538816933 C 432.5834909932969 247.1823292589963 441.85430011160446 322.30748685086536 400.0000000000002 374.24574131637684"/><path class="valley" d="M 451.53667866753597 678.9888313772063 C 523.9719839618333 589.0676546718774 572.6175709282851 453.65517941430244 500.0 378.8742831040958"/><path class="valley" d="M 600.0 580.2369708200223 C 567.4165090067031 510.56623694919523 558.1456998883956 435.4410793573264 599.9999999999998 383.50282489181484"/><path class="valley" d="M 451.53667866753585 678.9888313772062 C 432.30782087967077 656.4304079316587 414.56285446251536 630.8316998032932 400.0 603.9415399933658"/><path class="valley" d="M 549.1941745020322 131.3811630398877 C 549.1941745020322 131.3811630398877 549.1941745020322 131.3811630398877 549.1941745020322 131.3811630398877"/><path class="valley" d="M 549.1941745020322 131.3811630398877 C 472.40298431710903 210.83652235700146 470.80972440745063 323.49022991422623 499.7076587321728 357.8257118205349"/><path class="valley" d="M 549.1941745020322 131.38116303988764 C 571.9760417956069 153.67945561761263 588.5784249201689 178.9135592663811 600.0 204.3770676386419"/><path class="valley" d="M 400.0 235.14689176750306 C 414.3815811419882 281.90709064448976 412.27247052570686 326.0699686642351 400.0000000000001 350.4884942091643"/><path class="valley" d="M 450.8058254979678 626.367403168304 C 527.597015682891 546.9120438511902 529.1902755925494 434.25833629396544 500.2923412678272 399.9228543876567"/><path class="valley" d="M 600.0 522.6016744406886 C 585.6184188580119 475.841475563702 587.7275294742932 431.6785975439567 600.0 407.26007199902733"/><path class="valley" d="M 450.80582549796776 626.3674031683039 C 428.02395820439307 604.0691105905789 411.42157507983103 578.8350069418107 400.0 553.3714985695499"/><path class="valley" d="M 499.7076587321728 357.8257118205349 C 552.6872049941633 420.77409531543424 538.3844084657159 414.13064000406024 553.3522813784703 430.76485814342993"/><path class="valley" d="M 600.0 362.62456491172856 C 554.6568560643892 420.3131608537505 567.3645717270141 414.29476686681494 553.3522813784705 430.7648581434296"/><path class="valley" d="M 553.3522813784705 430.7648581434296 C 553.3522813784704 430.76485814342965 553.3522813784704 430.76485814342976 553.3522813784703 430.7648581434298"/><path class="valley" d="M 500.2923412678272 399.9228543876567 C 447.3127950058367 336.9744708927575 461.6155915342841 343.6179262041314 446.6477186215297 326.98370806476174"/><path class="valley" d="M 400.0 395.1240012964629 C 445.3431439356109 337.435405354441 432.6354282729859 343.45379934137685 446.6477186215297 326.9837080647618"/><path class="valley" d="M 549.1941745020322 131.38116303988775 C 511.34284119169666 210.29569101152114 511.32822412830535 322.9274729736588 526.0183728366238 357.46028523575086"/><path class="valley" d="M 549.1941745020322 131.38116303988764 C 589.222554940872 209.21402832056032 592.3652235700147 321.8019590925239 578.639801045526 356.7294320661827"/><path class="valley" d="M 450.8058254979678 626.367403168304 C 488.65715880830334 547.4528751966706 488.67177587169465 434.8210932345329 473.9816271633762 400.2882809724408"/><path class="valley" d="M 450.80582549796776 626.3674031683039 C 410.777445059128 548.5345378876314 407.63477642998527 435.9466071156678 421.3601989544739 401.01913414200885"/><path class="valley" d="M 526.0183728366238 357.46028523575086 C 552.9503121352078 420.7704410495863 545.7514084149623 414.02832056032076 553.3522813784703 430.76485814342965"/><path class="valley" d="M 553.3522813784703 430.76485814342965 C 553.3522813784703 430.76485814342976 553.3522813784703 430.7648581434298 553.3522813784703 430.76485814342993"/><path class="valley" d="M 578.639801045526 356.7294320661827 C 553.476526417297 420.7631325178904 560.4854083134547 413.8236816728418 553.3522813784704 430.7648581434296"/><path class="valley" d="M 553.3522813784704 430.7648581434296 C 553.3522813784704 430.76485814342965 553.3522813784703 430.76485814342976 553.3522813784703 430.7648581434298"/><path class="valley" d="M 473.9816271633762 400.2882809724408 C 447.0496878647922 336.9781251586053 454.2485915850378 343.7202456478709 446.6477186215297 326.98370806476174"/><path class="valley" d="M 421.3601989544739 401.01913414200885 C 446.5234735827031 336.985433690301 439.5145916865452 343.92488453535 446.6477186215297 326.9837080647618"/><line class="valley" x1="642.1062782317414" y1="0.0" x2="652.6305638735219" y2="757.7485662081916"/><line class="valley" x1="747.3694361264781" y1="0.0" x2="757.8937217682587" y2="757.7485662081917"/><line class="valley" x1="675.5710204021917" y1="0.0" x2="748.4633213324641" y2="78.75973483098541"/><line class="valley" x1="800.0" y1="19.875093964385147" x2="748.463321332464" y2="78.75973483098537"/><line class="valley" x1="609.4678657826956" y1="0.0" x2="600.0" y2="10.817768835739823"/><line class="valley" x1="724.4289795978084" y1="757.7485662081916" x2="651.5366786675359" y2="678.9888313772063"/><line class="valley" x1="800.0" y1="746.930797372452" x2="790.5321342173044" y2="757.748566208192"/><line class="valley" x1="651.5366786675359" y1="678.9888313772062" x2="600.0" y2="737.8734722438063"/><line class="valley" x1="695.0091498756535" y1="21.048863624828684" x2="673.0425168767948" y2="143.19865612805697"/><line class="valley" x1="695.0550825701271" y1="21.006352819081407" x2="747.5875501897978" y2="15.704212559008667"/><line class="valley" x1="800.0" y1="19.52733635326858" x2="747.5875501897978" y2="15.704212559008553"/><line class="valley" x1="600.0" y1="71.35330280310234" x2="615.1589458470023" y2="144.00259461458185"/><line class="valley" x1="704.9908501243466" y1="736.699702583363" x2="726.9574831232053" y2="614.5499100801347"/><line class="valley" x1="704.944917429873" y1="736.7422133891102" x2="652.4124498102022" y2="742.0443536491831"/><line class="valley" x1="800.0" y1="686.3952634050892" x2="784.8410541529977" y2="613.7459715936099"/><line class="valley" x1="600.0" y1="738.221229854923" x2="652.4124498102022" y2="742.044353649183"/><path class="valley" d="M 673.0425168767948 143.19865612805697 C 669.6861589319482 161.84452410752738 665.8509216882449 193.82485518403828 644.9777551653802 206.74633922200206"/><path class="valley" d="M 644.9777551653802 206.74633922200206 C 644.9777551653802 206.74633922200206 644.9777551653802 206.74633922200206 644.9777551653802 206.74633922200206"/><path class="valley" d="M 615.1589458470023 144.00259461458185 C 619.0318500354659 162.5480561755341 623.753779121123 194.40953771969274 644.9777551653802 206.7463392220021"/><path class="valley" d="M 726.9574831232053 614.5499100801347 C 730.3138410680518 595.9040421006642 734.1490783117553 563.9237110241534 755.0222448346198 551.0022269861896"/><path class="valley" d="M 784.8410541529977 613.7459715936099 C 780.9681499645342 595.2005100326576 776.246220878877 563.3390284884988 755.0222448346198 551.0022269861896"/><line class="valley" x1="695.0091498756535" y1="21.048863624828684" x2="642.3448288709956" y2="17.175646026306737"/><line class="valley" x1="695.0550825701271" y1="21.006352819081407" x2="695.137605047889" y2="0.0"/><line class="valley" x1="800.0" y1="11.757006847918909" x2="799.6271259153687" y2="-2.7755575615628914e-15"/><line class="valley" x1="600.0" y1="21.475170134405428" x2="642.3448288709956" y2="17.175646026306737"/><line class="valley" x1="704.9908501243466" y1="736.699702583363" x2="757.6551711290044" y2="740.5729201818849"/><line class="valley" x1="704.944917429873" y1="736.7422133891102" x2="704.8623949521111" y2="757.7485662081916"/><line class="valley" x1="800.0" y1="736.2733960737862" x2="757.6551711290044" y2="740.5729201818849"/><line class="valley" x1="600.0" y1="745.9915593602738" x2="600.3728740846313" y2="757.7485662081917"/><path class="valley" d="M 748.4633213324641 78.75973483098555 C 676.0280160381667 168.6809115363143 627.382429071715 304.09338679388924 700.0 378.8742831040958"/><path class="valley" d="M 748.4633213324641 78.75973483098545 C 767.6921791203292 101.31815827653294 785.4371455374846 126.91686640489843 800.0 153.8070262148257"/><path class="valley" d="M 600.0 177.51159538816933 C 632.5834909932969 247.1823292589963 641.8543001116044 322.30748685086536 600.0000000000002 374.24574131637684"/><path class="valley" d="M 651.536678667536 678.9888313772063 C 723.9719839618333 589.0676546718774 772.6175709282851 453.65517941430244 700.0 378.8742831040958"/><path class="valley" d="M 800.0 580.2369708200223 C 767.4165090067031 510.56623694919523 758.1456998883956 435.4410793573264 799.9999999999998 383.50282489181484"/><path class="valley" d="M 651.5366786675359 678.9888313772062 C 632.3078208796708 656.4304079316587 614.5628544625154 630.8316998032932 600.0 603.9415399933658"/><path class="valley" d="M 749.1941745020322 131.3811630398877 C 749.1941745020322 131.3811630398877 749.1941745020322 131.3811630398877 749.1941745020322 131.3811630398877"/><path class="valley" d="M 749.1941745020322 131.3811630398877 C 672.402984317109 210.83652235700146 670.8097244074506 323.49022991422623 699.7076587321727 357.8257118205349"/><path class="valley" d="M 749.1941745020322 131.38116303988764 C 771.9760417956069 153.67945561761263 788.5784249201689 178.9135592663811 800.0 204.3770676386419"/><path class="valley" d="M 600.0 235.14689176750306 C 614.3815811419881 281.90709064448976 612.2724705257068 326.0699686642351 600.0000000000001 350.4884942091643"/><path class="valley" d="M 650.8058254979678 626.367403168304 C 727.597015682891 546.9120438511902 729.1902755925494 434.25833629396544 700.2923412678273 399.9228543876567"/><path class="valley" d="M 800.0 522.6016744406886 C 785.6184188580119 475.841475563702 787.7275294742932 431.6785975439567 800.0 407.26007199902733"/><path class="valley" d="M 650.8058254979678 626.3674031683039 C 628.0239582043931 604.0691105905789 611.4215750798311 578.8350069418107 600.0 553.3714985695499"/><path class="valley" d="M 699.7076587321727 357.8257118205349 C 752.6872049941633 420.77409531543424 738.3844084657159 414.13064000406024 753.3522813784703 430.76485814342993"/><path class="valley" d="M 800.0 362.62456491172856 C 754.6568560643892 420.3131608537505 767.3645717270141 414.29476686681494 753.3522813784705 430.7648581434296"/><path class="valley" d="M 753.3522813784705 430.7648581434296 C 753.3522813784704 430.76485814342965 753.3522813784704 430.76485814342976 753.3522813784703 430.7648581434298"/><path class="valley" d="M 700.2923412678273 399.9228543876567 C 647.3127950058366 336.9744708927575 661.6155915342841 343.6179262041314 646.6477186215297 326.98370806476174"/><path class="valley" d="M 600.0 395.1240012964629 C 645.3431439356109 337.435405354441 632.6354282729859 343.45379934137685 646.6477186215297 326.9837080647618"/><path class="valley" d="M 749.1941745020322 131.38116303988775 C 711.3428411916967 210.29569101152114 711.3282241283054 322.9274729736588 726.0183728366238 357.46028523575086"/><path class="valley" d="M 749.1941745020322 131.38116303988764 C 789.222554940872 209.21402832056032 792.3652235700147 321.8019590925239 778.639801045526 356.7294320661827"/><path class="valley" d="M 650.8058254979678 626.367403168304 C 688.6571588083034 547.4528751966706 688.6717758716946 434.8210932345329 673.9816271633762 400.2882809724408"/><path class="valley" d="M 650.8058254979678 626.3674031683039 C 610.777445059128 548.5345378876314 607.6347764299853 435.9466071156678 621.360198954474 401.01913414200885"/><path class="valley" d="M 726.0183728366238 357.46028523575086 C 752.9503121352078 420.7704410495863 745.7514084149623 414.02832056032076 753.3522813784703 430.76485814342965"/><path class="valley" d="M 753.3522813784703 430.76485814342965 C 753.3522813784703 430.76485814342976 753.3522813784703 430.7648581434298 753.3522813784703 430.76485814342993"/><path class="valley" d="M 778.639801045526 356.7294320661827 C 753.476526417297 420.7631325178904 760.4854083134547 413.8236816728418 753.3522813784704 430.7648581434296"/><path class="valley" d="M 753.3522813784704 430.7648581434296 C 753.3522813784704 430.76485814342965 753.3522813784703 430.76485814342976 753.3522813784703 430.7648581434298"/><path class="valley" d="M 673.9816271633762 400.2882809724408 C 647.0496878647922 336.9781251586053 654.2485915850377 343.7202456478709 646.6477186215297 326.98370806476174"/><path class="valley" d="M 621.360198954474 401.01913414200885 C 646.5234735827031 336.985433690301 639.5145916865453 343.92488453535 646.6477186215297 326.9837080647618"/><line class="valley" x1="842.1062782317414" y1="0.0" x2="852.6305638735219" y2="757.7485662081916"/><line class="valley" x1="947.3694361264781" y1="0.0" x2="957.8937217682587" y2="757.7485662081917"/><line class="valley" x1="875.5710204021917" y1="0.0" x2="948.4633213324641" y2="78.75973483098541"/><line class="valley" x1="1000.0" y1="19.875093964385147" x2="948.463321332464" y2="78.75973483098537"/><line class="valley" x1="809.4678657826956" y1="0.0" x2="800.0" y2="10.817768835739823"/><line class="valley" x1="924.4289795978084" y1="757.7485662081916" x2="851.5366786675359" y2="678.9888313772063"/><line class="valley" x1="1000.0" y1="746.930797372452" x2="990.5321342173044" y2="757.748566208192"/><line class="valley" x1="851.5366786675359" y1="678.9888313772062" x2="800.0" y2="737.8734722438063"/><line class="valley" x1="895.0091498756535" y1="21.048863624828684" x2="873.0425168767948" y2="143.19865612805697"/><line class="valley" x1="895.0550825701271" y1="21.006352819081407" x2="947.5875501897978" y2="15.704212559008667"/><line class="valley" x1="1000.0" y1="19.52733635326858" x2="947.5875501897978" y2="15.704212559008553"/><line class="valley" x1="800.0" y1="71.35330280310234" x2="815.1589458470023" y2="144.00259461458185"/><line class="valley" x1="904.9908501243466" y1="736.699702583363" x2="926.9574831232053" y2="614.5499100801347"/><line class="valley" x1="904.944917429873" y1="736.7422133891102" x2="852.4124498102022" y2="742.0443536491831"/><line class="valley" x1="1000.0" y1="686.3952634050892" x2="984.8410541529977" y2="613.7459715936099"/><line class="valley" x1="800.0" y1="738.221229854923" x2="852.4124498102022" y2="742.044353649183"/><path class="valley" d="M 873.0425168767948 143.19865612805697 C 869.6861589319482 161.84452410752738 865.8509216882449 193.82485518403828 844.9777551653802 206.74633922200206"/><path class="valley" d="M 844.9777551653802 206.74633922200206 C 844.9777551653802 206.74633922200206 844.9777551653802 206.74633922200206 844.9777551653802 206.74633922200206"/><path class="valley" d="M 815.1589458470023 144.00259461458185 C 819.0318500354659 162.5480561755341 823.753779121123 194.40953771969274 844.9777551653802 206.7463392220021"/><path class="valley" d="M 926.9574831232053 614.5499100801347 C 930.3138410680518 595.9040421006642 934.1490783117553 563.9237110241534 955.0222448346198 551.0022269861896"/><path class="valley" d="M 984.8410541529977 613.7459715936099 C 980.9681499645342 595.2005100326576 976.246220878877 563.3390284884988 955.0222448346198 551.0022269861896"/><line class="valley" x1="895.0091498756535" y1="21.048863624828684" x2="842.3448288709956" y2="17.175646026306737"/><line class="valley" x1="895.0550825701271" y1="21.006352819081407" x2="895.137605047889" y2="0.0"/><line class="valley" x1="1000.0" y1="11.757006847918909" x2="999.6271259153687" y2="-2.7755575615628914e-15"/><line class="valley" x1="800.0" y1="21.475170134405428" x2="842.3448288709956" y2="17.175646026306737"/><line class="valley" x1="904.9908501243466" y1="736.699702583363" x2="957.6551711290044" y2="740.5729201818849"/><line class="valley" x1="904.944917429873" y1="736.7422133891102" x2="904.8623949521111" y2="757.7485662081916"/><line class="valley" x1="1000.0" y1="736.2733960737862" x2="957.6551711290044" y2="740.5729201818849"/><line class="valley" x1="800.0" y1="745.9915593602738" x2="800.3728740846313" y2="757.7485662081917"/><path class="valley" d="M 948.4633213324641 78.75973483098555 C 876.0280160381667 168.6809115363143 827.382429071715 304.09338679388924 900.0 378.8742831040958"/><path class="valley" d="M 948.4633213324641 78.75973483098545 C 967.6921791203292 101.31815827653294 985.4371455374846 126.91686640489843 1000.0 153.8070262148257"/><path class="valley" d="M 800.0 177.51159538816933 C 832.5834909932969 247.1823292589963 841.8543001116044 322.30748685086536 800.0000000000002 374.24574131637684"/><path class="valley" d="M 851.536678667536 678.9888313772063 C 923.9719839618333 589.0676546718774 972.6175709282851 453.65517941430244 900.0 378.8742831040958"/><path class="valley" d="M 1000.0 580.2369708200223 C 967.4165090067031 510.56623694919523 958.1456998883956 435.4410793573264 999.9999999999998 383.50282489181484"/><path class="valley" d="M 851.5366786675359 678.9888313772062 C 832.3078208796708 656.4304079316587 814.5628544625154 630.8316998032932 800.0 603.9415399933658"/><path class="valley" d="M 949.1941745020322 131.3811630398877 C 949.1941745020322 131.3811630398877 949.1941745020322 131.3811630398877 949.1941745020322 131.3811630398877"/><path class="valley" d="M 949.1941745020322 131.3811630398877 C 872.402984317109 210.83652235700146 870.8097244074506 323.49022991422623 899.7076587321727 357.8257118205349"/><path class="valley" d="M 949.1941745020322 131.38116303988764 C 971.9760417956069 153.67945561761263 988.5784249201689 178.9135592663811 1000.0 204.3770676386419"/><path class="valley" d="M 800.0 235.14689176750306 C 814.3815811419881 281.90709064448976 812.2724705257068 326.0699686642351 800.0000000000001 350.4884942091643"/><path class="valley" d="M 850.8058254979678 626.367403168304 C 927.597015682891 546.9120438511902 929.1902755925494 434.25833629396544 900.2923412678273 399.9228543876567"/><path class="valley" d="M 1000.0 522.6016744406886 C 985.6184188580119 475.841475563702 987.7275294742932 431.6785975439567 1000.0 407.26007199902733"/><path class="valley" d="M 850.8058254979678 626.3674031683039 C 828.0239582043931 604.0691105905789 811.4215750798311 578.8350069418107 800.0 553.3714985695499"/><path class="valley" d="M 899.7076587321727 357.8257118205349 C 952.6872049941633 420.77409531543424 938.3844084657159 414.13064000406024 953.3522813784703 430.76485814342993"/><path class="valley" d="M 1000.0 362.62456491172856 C 954.6568560643892 420.3131608537505 967.3645717270141 414.29476686681494 953.3522813784705 430.7648581434296"/><path class="valley" d="M 953.3522813784705 430.7648581434296 C 953.3522813784704 430.76485814342965 953.3522813784704 430.76485814342976 953.3522813784703 430.7648581434298"/><path class="valley" d="M 900.2923412678273 399.9228543876567 C 847.3127950058366 336.9744708927575 861.6155915342841 343.6179262041314 846.6477186215297 326.98370806476174"/><path class="valley" d="M 800.0 395.1240012964629 C 845.3431439356109 337.435405354441 832.6354282729859 343.45379934137685 846.6477186215297 326.9837080647618"/><path class="valley" d="M 949.1941745020322 131.38116303988775 C 911.3428411916967 210.29569101152114 911.3282241283054 322.9274729736588 926.0183728366238 357.46028523575086"/><path class="valley" d="M 949.1941745020322 131.38116303988764 C 989.222554940872 209.21402832056032 992.3652235700147 321.8019590925239 978.639801045526 356.7294320661827"/><path class="valley" d="M 850.8058254979678 626.367403168304 C 888.6571588083034 547.4528751966706 888.6717758716946 434.8210932345329 873.9816271633762 400.2882809724408"/><path class="valley" d="M 850.8058254979678 626.3674031683039 C 810.777445059128 548.5345378876314 807.6347764299853 435.9466071156678 821.360198954474 401.01913414200885"/><path class="valley" d="M 926.0183728366238 357.46028523575086 C 952.9503121352078 420.7704410495863 945.7514084149623 414.02832056032076 953.3522813784703 430.76485814342965"/><path class="valley" d="M 953.3522813784703 430.76485814342965 C 953.3522813784703 430.76485814342976 953.3522813784703 430.7648581434298 953.3522813784703 430.76485814342993"/><path class="valley" d="M 978.639801045526 356.7294320661827 C 953.476526417297 420.7631325178904 960.4854083134547 413.8236816728418 953.3522813784704 430.7648581434296"/><path class="valley" d="M 953.3522813784704 430.7648581434296 C 953.3522813784704 430.76485814342965 953.3522813784703 430.76485814342976 953.3522813784703 430.7648581434298"/><path class="valley" d="M 873.9816271633762 400.2882809724408 C 847.0496878647922 336.9781251586053 854.2485915850377 343.7202456478709 846.6477186215297 326.98370806476174"/><path class="valley" d="M 821.360198954474 401.01913414200885 C 846.5234735827031 336.985433690301 839.5145916865453 343.92488453535 846.6477186215297 326.9837080647618"/><line class="valley" x1="1042.1062782317413" y1="0.0" x2="1052.6305638735219" y2="757.7485662081916"/><line class="valley" x1="1147.3694361264781" y1="0.0" x2="1157.8937217682587" y2="757.7485662081917"/><line class="valley" x1="1075.5710204021916" y1="0.0" x2="1148.4633213324641" y2="78.75973483098541"/><line class="valley" x1="1200.0" y1="19.875093964385147" x2="1148.4633213324641" y2="78.75973483098537"/><line class="valley" x1="1009.4678657826956" y1="0.0" x2="1000.0" y2="10.817768835739823"/><line class="valley" x1="1124.4289795978084" y1="757.7485662081916" x2="1051.5366786675359" y2="678.9888313772063"/><line class="valley" x1="1200.0" y1="746.930797372452" x2="1190.5321342173042" y2="757.748566208192"/><line class="valley" x1="1051.5366786675359" y1="678.9888313772062" x2="1000.0" y2="737.8734722438063"/><line class="valley" x1="1095.0091498756535" y1="21.048863624828684" x2="1073.0425168767947" y2="143.19865612805697"/><line class="valley" x1="1095.055082570127" y1="21.006352819081407" x2="1147.5875501897976" y2="15.704212559008667"/><line class="valley" x1="1200.0" y1="19.52733635326858" x2="1147.5875501897976" y2="15.704212559008553"/><line class="valley" x1="1000.0" y1="71.35330280310234" x2="1015.1589458470023" y2="144.00259461458185"/><line class="valley" x1="1104.9908501243467" y1="736.699702583363" x2="1126.9574831232053" y2="614.5499100801347"/><line class="valley" x1="1104.944917429873" y1="736.7422133891102" x2="1052.4124498102024" y2="742.0443536491831"/><line class="valley" x1="1200.0" y1="686.3952634050892" x2="1184.8410541529977" y2="613.7459715936099"/><line class="valley" x1="1000.0" y1="738.221229854923" x2="1052.4124498102024" y2="742.044353649183"/><path class="valley" d="M 1073.0425168767947 143.19865612805697 C 1069.6861589319483 161.84452410752738 1065.8509216882449 193.82485518403828 1044.9777551653804 206.74633922200206"/><path class="valley" d="M 1044.9777551653804 206.74633922200206 C 1044.9777551653804 206.74633922200206 1044.9777551653804 206.74633922200206 1044.9777551653804 206.74633922200206"/><path class="valley" d="M 1015.1589458470023 144.00259461458185 C 1019.0318500354659 162.5480561755341 1023.753779121123 194.40953771969274 1044.9777551653804 206.7463392220021"/><path class="valley" d="M 1126.9574831232053 614.5499100801347 C 1130.3138410680517 595.9040421006642 1134.1490783117551 563.9237110241534 1155.0222448346199 551.0022269861896"/><path class="valley" d="M 1184.8410541529977 613.7459715936099 C 1180.9681499645342 595.2005100326576 1176.246220878877 563.3390284884988 1155.0222448346199 551.0022269861896"/><line class="valley" x1="1095.0091498756535" y1="21.048863624828684" x2="1042.3448288709956" y2="17.175646026306737"/><line class="valley" x1="1095.055082570127" y1="21.006352819081407" x2="1095.1376050478889" y2="0.0"/><line class="valley" x1="1200.0" y1="11.757006847918909" x2="1199.6271259153687" y2="-2.7755575615628914e-15"/><line class="valley" x1="1000.0" y1="21.475170134405428" x2="1042.3448288709956" y2="17.175646026306737"/><line class="valley" x1="1104.9908501243467" y1="736.699702583363" x2="1157.6551711290044" y2="740.5729201818849"/><line class="valley" x1="1104.944917429873" y1="736.7422133891102" x2="1104.8623949521111" y2="757.7485662081916"/><line class="valley" x1="1200.0" y1="736.2733960737862" x2="1157.6551711290044" y2="740.5729201818849"/><line class="valley" x1="1000.0" y1="745.9915593602738" x2="1000.3728740846313" y2="757.7485662081917"/><path class="valley" d="M 1148.4633213324641 78.75973483098555 C 1076.0280160381667 168.6809115363143 1027.382429071715 304.09338679388924 1100.0 378.8742831040958"/><path class="valley" d="M 1148.4633213324641 78.75973483098545 C 1167.6921791203292 101.31815827653294 1185.4371455374846 126.91686640489843 1200.0 153.8070262148257"/><path class="valley" d="M 1000.0 177.51159538816933 C 1032.583490993297 247.1823292589963 1041.8543001116045 322.30748685086536 1000.0000000000002 374.24574131637684"/><path class="valley" d="M 1051.5366786675359 678.9888313772063 C 1123.9719839618333 589.0676546718774 1172.617570928285 453.65517941430244 1100.0 378.8742831040958"/><path class="valley" d="M 1200.0 580.2369708200223 C 1167.416509006703 510.56623694919523 1158.1456998883955 435.4410793573264 1199.9999999999998 383.50282489181484"/><path class="valley" d="M 1051.5366786675359 678.9888313772062 C 1032.3078208796708 656.4304079316587 1014.5628544625154 630.8316998032932 1000.0 603.9415399933658"/><path class="valley" d="M 1149.1941745020322 131.3811630398877 C 1149.1941745020322 131.3811630398877 1149.1941745020322 131.3811630398877 1149.1941745020322 131.3811630398877"/><path class="valley" d="M 1149.1941745020322 131.3811630398877 C 1072.402984317109 210.83652235700146 1070.8097244074506 323.49022991422623 1099.7076587321728 357.8257118205349"/><path class="valley" d="M 1149.1941745020322 131.38116303988764 C 1171.9760417956068 153.67945561761263 1188.578424920169 178.9135592663811 1200.0 204.3770676386419"/><path class="valley" d="M 1000.0 235.14689176750306 C 1014.3815811419881 281.90709064448976 1012.2724705257068 326.0699686642351 1000.0000000000001 350.4884942091643"/><path class="valley" d="M 1050.8058254979678 626.367403168304 C 1127.597015682891 546.9120438511902 1129.1902755925494 434.25833629396544 1100.2923412678272 399.9228543876567"/><path class="valley" d="M 1200.0 522.6016744406886 C 1185.6184188580119 475.841475563702 1187.727529474293 431.6785975439567 1200.0 407.26007199902733"/><path class="valley" d="M 1050.8058254979678 626.3674031683039 C 1028.023958204393 604.0691105905789 1011.4215750798311 578.8350069418107 1000.0 553.3714985695499"/><path class="valley" d="M 1099.7076587321728 357.8257118205349 C 1152.6872049941633 420.77409531543424 1138.384408465716 414.13064000406024 1153.3522813784703 430.76485814342993"/><path class="valley" d="M 1200.0 362.62456491172856 C 1154.656856064389 420.3131608537505 1167.3645717270142 414.29476686681494 1153.3522813784705 430.7648581434296"/><path class="valley" d="M 1153.3522813784705 430.7648581434296 C 1153.3522813784705 430.76485814342965 1153.3522813784703 430.76485814342976 1153.3522813784703 430.7648581434298"/><path class="valley" d="M 1100.2923412678272 399.9228543876567 C 1047.3127950058367 336.9744708927575 1061.615591534284 343.6179262041314 1046.6477186215297 326.98370806476174"/><path class="valley" d="M 1000.0 395.1240012964629 C 1045.343143935611 337.435405354441 1032.6354282729858 343.45379934137685 1046.6477186215297 326.9837080647618"/><path class="valley" d="M 1149.1941745020322 131.38116303988775 C 1111.3428411916966 210.29569101152114 1111.3282241283052 322.9274729736588 1126.018372836624 357.46028523575086"/><path class="valley" d="M 1149.1941745020322 131.38116303988764 C 1189.222554940872 209.21402832056032 1192.3652235700147 321.8019590925239 1178.6398010455262 356.7294320661827"/><path class="valley" d="M 1050.8058254979678 626.367403168304 C 1088.6571588083034 547.4528751966706 1088.6717758716948 434.8210932345329 1073.981627163376 400.2882809724408"/><path class="valley" d="M 1050.8058254979678 626.3674031683039 C 1010.777445059128 548.5345378876314 1007.6347764299853 435.9466071156678 1021.360198954474 401.01913414200885"/><path class="valley" d="M 1126.018372836624 357.46028523575086 C 1152.9503121352077 420.7704410495863 1145.7514084149623 414.02832056032076 1153.3522813784703 430.76485814342965"/><path class="valley" d="M 1153.3522813784703 430.76485814342965 C 1153.3522813784703 430.76485814342976 1153.3522813784703 430.7648581434298 1153.3522813784703 430.76485814342993"/><path class="valley" d="M 1178.6398010455262 356.7294320661827 C 1153.476526417297 420.7631325178904 1160.4854083134549 413.8236816728418 1153.3522813784703 430.7648581434296"/><path class="valley" d="M 1153.3522813784703 430.7648581434296 C 1153.3522813784703 430.76485814342965 1153.3522813784703 430.76485814342976 1153.3522813784703 430.7648581434298"/><path class="valley" d="M 1073.981627163376 400.2882809724408 C 1047.049687864792 336.9781251586053 1054.2485915850377 343.7202456478709 1046.6477186215297 326.98370806476174"/><path class="valley" d="M 1021.360198954474 401.01913414200885 C 1046.5234735827032 336.985433690301 1039.5145916865451 343.92488453535 1046.6477186215297 326.9837080647618"/></svg>