<svg xmlns="http://www.w3.org/2000/svg" width="1200" height="715.6347083926031"><style >
.valley {stroke: #00f; stroke-width: 2px; fill:none}
.mountain {stroke: #f00; stroke-width: 2px; fill:none }
.cut {stroke: #000; stroke-width: 3px; fill:none } 
.hint {stroke: #000; stroke-width: 1px; fill:none } 
</style><rect class="cut" x="0" y="0" width="1200" height="715.6347083926031"/><line class="cut" x1="200" y1="0" x2="200" y2="715.6347083926031"/><line class="cut" x1="400" y1="0" x2="400" y2="715.6347083926031"/><line class="cut" x1="600" y1="0" x2="600" y2="715.6347083926031"/><line class="cut" x1="800" y1="0" x2="800" y2="715.6347083926031"/><line class="cut" x1="1000" y1="0" x2="1000" y2="715.6347083926031"/><line class="valley" x1="42.106401137980086" y1="0.0" x2="52.630440967283086" y2="715.6347083926031"/><line class="valley" x1="147.3695590327169" y1="0.0" x2="157.89359886201999" y2="715.634708392603"/><line class="valley" x1="94.7591915916208" y1="0.0" x2="148.87689916784467" y2="102.49912918868638"/><line class="valley" x1="199.19767968027097" y1="0.0" x2="148.87689916784467" y2="102.4991291886862"/><line class="valley" x1="105.24080840837927" y1="715.634708392603" x2="51.12310083215533" y2="613.1355792039167"/><line class="valley" x1="51.123100832155345" y1="613.1355792039169" x2="0.802320319728921" y2="715.6347083926031"/><line class="valley" x1="94.7169874379617" y1="0.0" x2="46.09877295119182" y2="271.4812832983978"/><line class="valley" x1="94.86061313577409" y1="0.0" x2="147.71858085057997" y2="23.733483614688918"/><line class="valley" x1="196.6710605867996" y1="0.0" x2="147.71858085058" y2="23.73348361468873"/><line class="valley" x1="46.09877295119183" y1="271.4812832983978" x2="0.0" y2="51.55212210055215"/><line class="valley" x1="153.9012270488082" y1="444.1534250942051" x2="105.28301256203834" y2="715.6347083926031"/><line class="valley" x1="105.13938686422554" y1="715.6347083926031" x2="52.28141914942" y2="691.9012247779141"/><line class="valley" x1="200.0" y1="664.0825862920507" x2="153.90122704880827" y2="444.15342509420555"/><line class="valley" x1="52.28141914942002" y1="691.9012247779141" x2="3.3289394131998336" y2="715.634708392603"/><line class="valley" x1="94.71757083995885" y1="0.0" x2="42.47862214229918" y2="25.31102829369802"/><line class="valley" x1="42.47862214229918" y1="25.311028293698033" x2="0.0" y2="6.250440316798428"/><line class="valley" x1="157.52137785770094" y1="690.3236800989052" x2="105.28242916004132" y2="715.6347083926032"/><line class="valley" x1="200.0" y1="709.3842680758045" x2="157.5213778577009" y2="690.3236800989051"/><path class="valley" d="M 148.87689916784467 102.49912918868638 C 53.6323186344239 211.1308108108108 27.32221906116643 283.0966714082504 100.0 357.81735419630155"/><path class="valley" d="M 148.87689916784464 102.49912918868628 C 148.87689916784464 102.49912918868628 148.87689916784464 102.49912918868628 148.87689916784464 102.49912918868628"/><path class="valley" d="M 148.8768991678446 102.49912918868623 C 148.87689916784464 102.49912918868624 148.87689916784467 102.49912918868627 148.87689916784467 102.49912918868628"/><path class="valley" d="M 148.87689916784467 102.49912918868628 C 168.8956431780949 124.02058441975068 186.0177447547841 144.10897105860258 200.0 163.10354188707223"/><path class="valley" d="M -8.326672684688674e-15 181.12175588314662 C 43.31790007593517 246.07556258557878 46.8627105932818 298.5726808428468 1.186550857568136e-13 353.447414373694"/><path class="valley" d="M 51.123100832155366 613.1355792039167 C 146.36768136557615 504.50389758179233 172.6777809388336 432.53803698435274 100.0 357.81735419630155"/><path class="valley" d="M 199.99999999999994 534.5129525094561 C 156.68209992406486 469.55914580702427 153.13728940671825 417.0620275497563 199.99999999999986 362.18729401890903"/><path class="valley" d="M 51.12310083215532 613.1355792039169 C 31.10435682190512 591.6141239728524 13.982255245215914 571.5257373340005 -4.163336342344337e-15 552.5311665055309"/><path class="valley" d="M 148.87689916784467 102.49912918868638 C 60.72056899004268 263.6581507823613 90.04859174964439 325.3321194879089 99.6904694167852 336.76927453769554"/><path class="valley" d="M 148.87689916784464 102.49912918868628 C 148.87689916784464 102.49912918868628 148.87689916784464 102.49912918868628 148.87689916784464 102.49912918868628"/><path class="valley" d="M 148.87689916784467 102.49912918868628 C 173.547761026086 144.60960567170892 189.7225881846054 179.94441705233766 199.99999999999994 209.35114538261"/><path class="valley" d="M -2.4980018054066022e-14 248.41086857042956 C 9.316831686110044 289.35852152189693 5.1594469904082745 314.51709029524307 -3.365363543395006e-14 327.9545712007538"/><path class="valley" d="M 51.123100832155366 613.1355792039167 C 139.27943100995734 451.9765576102418 109.95140825035563 390.3025889046942 100.3095305832148 378.8654338549075"/><path class="valley" d="M 200.0 467.22383982217315 C 190.68316831389006 426.2761868707062 194.84055300959176 401.1176180973603 200.0 387.68013719184944"/><path class="valley" d="M 51.12310083215532 613.1355792039169 C 26.45223897391401 571.0251027208944 10.277411815394592 535.6902913402656 5.551115123125783e-15 506.28356300999326"/><path class="valley" d="M 99.6904694167852 336.76927453769554 C 123.79516358463727 365.3621621621621 138.19607396870555 378.3082788051209 153.08449502133712 388.61564722617356"/><path class="valley" d="M 199.99999999999997 341.3647076395608 C 179.6359019120831 366.4410173939333 166.60305416825724 378.6561142665529 153.08449502133718 388.61564722617345"/><path class="valley" d="M 153.08449502133718 388.61564722617345 C 153.08449502133718 388.61564722617345 153.08449502133718 388.61564722617345 153.08449502133718 388.61564722617345"/><path class="valley" d="M 100.3095305832148 378.8654338549075 C 76.20483641536273 350.272546230441 61.803926031294445 337.32642958748215 46.91550497866288 327.01906116642954"/><path class="valley" d="M -6.938893903907228e-16 374.2700007530423 C 20.36409808791692 349.1936909986698 33.396945831742805 336.97859412605015 46.91550497866287 327.0190611664296"/><path class="valley" d="M 148.87689916784467 102.49912918868638 C 101.44860312944526 263.0592091038407 114.88532574679944 324.9668733997155 118.10753911806542 336.4984352773826"/><path class="valley" d="M 148.8768991678446 102.49912918868623 C 148.87689916784464 102.49912918868624 148.87689916784467 102.49912918868627 148.87689916784467 102.49912918868627"/><path class="valley" d="M 148.87689916784467 102.49912918868627 C 148.87689916784467 102.49912918868631 148.87689916784473 102.49912918868638 148.87689916784475 102.49912918868642"/><path class="valley" d="M 148.87689916784475 102.49912918868642 C 201.00601991465146 261.59512944523465 189.3955277382646 323.87113513513503 186.5137980085349 335.4924608819344"/><path class="valley" d="M 51.123100832155366 613.1355792039167 C 98.55139687055477 452.57549928876244 85.11467425320056 390.66783499288766 81.8924608819346 379.13627311522043"/><path class="valley" d="M 51.12310083215532 613.1355792039169 C -1.0060199146515014 454.03957894736845 10.60447226173542 391.76357325746807 13.48620199146512 380.14224751066865"/><path class="valley" d="M 118.10753911806542 336.4984352773826 C 132.47749644381224 365.234480796586 142.6161706970128 378.24327738264583 153.08449502133712 388.61564722617356"/><path class="valley" d="M 186.5137980085349 335.4924608819344 C 172.99504978662875 364.63863442389743 163.2432887624467 377.9399374110952 153.08449502133718 388.61564722617345"/><path class="valley" d="M 81.8924608819346 379.13627311522043 C 67.52250355618776 350.40022759601703 57.38382930298721 337.39143100995733 46.91550497866288 327.01906116642954"/><path class="valley" d="M 13.48620199146512 380.14224751066865 C 27.00495021337128 350.9960739687057 36.75671123755333 337.6947709815079 46.91550497866287 327.0190611664296"/><line class="valley" x1="242.10640113798007" y1="0.0" x2="252.63044096728308" y2="715.6347083926031"/><line class="valley" x1="347.3695590327169" y1="0.0" x2="357.89359886202" y2="715.634708392603"/><line class="valley" x1="294.75919159162083" y1="0.0" x2="348.87689916784467" y2="102.49912918868638"/><line class="valley" x1="399.197679680271" y1="0.0" x2="348.87689916784467" y2="102.4991291886862"/><line class="valley" x1="305.2408084083793" y1="715.634708392603" x2="251.12310083215533" y2="613.1355792039167"/><line class="valley" x1="251.12310083215533" y1="613.1355792039169" x2="200.80232031972892" y2="715.6347083926031"/><line class="valley" x1="294.71698743796173" y1="0.0" x2="246.09877295119182" y2="271.4812832983978"/><line class="valley" x1="294.8606131357741" y1="0.0" x2="347.71858085058" y2="23.733483614688918"/><line class="valley" x1="396.6710605867996" y1="0.0" x2="347.71858085058" y2="23.73348361468873"/><line class="valley" x1="246.09877295119185" y1="271.4812832983978" x2="200.0" y2="51.55212210055215"/><line class="valley" x1="353.9012270488082" y1="444.1534250942051" x2="305.2830125620383" y2="715.6347083926031"/><line class="valley" x1="305.13938686422557" y1="715.6347083926031" x2="252.28141914942" y2="691.9012247779141"/><line class="valley" x1="400.0" y1="664.0825862920507" x2="353.90122704880827" y2="444.15342509420555"/><line class="valley" x1="252.28141914942" y1="691.9012247779141" x2="203.32893941319983" y2="715.634708392603"/><line class="valley" x1="294.71757083995885" y1="0.0" x2="242.47862214229917" y2="25.31102829369802"/><line class="valley" x1="242.47862214229917" y1="25.311028293698033" x2="200.0" y2="6.250440316798428"/><line class="valley" x1="357.52137785770094" y1="690.3236800989052" x2="305.2824291600413" y2="715.6347083926032"/><line class="valley" x1="400.0" y1="709.3842680758045" x2="357.52137785770094" y2="690.3236800989051"/><path class="valley" d="M 348.87689916784467 102.49912918868638 C 253.6323186344239 211.1308108108108 227.32221906116644 283.0966714082504 300.0 357.81735419630155"/><path class="valley" d="M 348.8768991678446 102.49912918868628 C 348.8768991678446 102.49912918868628 348.8768991678446 102.49912918868628 348.8768991678446 102.49912918868628"/><path class="valley" d="M 348.8768991678446 102.49912918868623 C 348.8768991678446 102.49912918868624 348.87689916784467 102.49912918868627 348.87689916784467 102.49912918868628"/><path class="valley" d="M 348.87689916784467 102.49912918868628 C 368.89564317809493 124.02058441975068 386.0177447547841 144.10897105860258 400.0 163.10354188707223"/><path class="valley" d="M 200.0 181.12175588314662 C 243.31790007593517 246.07556258557878 246.8627105932818 298.5726808428468 200.0000000000001 353.447414373694"/><path class="valley" d="M 251.12310083215536 613.1355792039167 C 346.3676813655761 504.50389758179233 372.6777809388336 432.53803698435274 300.0 357.81735419630155"/><path class="valley" d="M 399.99999999999994 534.5129525094561 C 356.68209992406486 469.55914580702427 353.13728940671825 417.0620275497563 399.9999999999999 362.18729401890903"/><path class="valley" d="M 251.12310083215533 613.1355792039169 C 231.10435682190513 591.6141239728524 213.98225524521592 571.5257373340005 200.0 552.5311665055309"/><path class="valley" d="M 348.87689916784467 102.49912918868638 C 260.7205689900427 263.6581507823613 290.0485917496444 325.3321194879089 299.6904694167852 336.76927453769554"/><path class="valley" d="M 348.8768991678446 102.49912918868628 C 348.8768991678446 102.49912918868628 348.8768991678446 102.49912918868628 348.8768991678446 102.49912918868628"/><path class="valley" d="M 348.87689916784467 102.49912918868628 C 373.547761026086 144.60960567170892 389.7225881846054 179.94441705233766 399.99999999999994 209.35114538261"/><path class="valley" d="M 199.99999999999997 248.41086857042956 C 209.31683168611005 289.35852152189693 205.15944699040827 314.51709029524307 199.99999999999997 327.9545712007538"/><path class="valley" d="M 251.12310083215536 613.1355792039167 C 339.2794310099573 451.9765576102418 309.9514082503556 390.3025889046942 300.3095305832148 378.8654338549075"/><path class="valley" d="M 400.0 467.22383982217315 C 390.68316831389006 426.2761868707062 394.84055300959176 401.1176180973603 400.0 387.68013719184944"/><path class="valley" d="M 251.12310083215533 613.1355792039169 C 226.452238973914 571.0251027208944 210.2774118153946 535.6902913402656 200.0 506.28356300999326"/><path class="valley" d="M 299.6904694167852 336.76927453769554 C 323.7951635846373 365.3621621621621 338.19607396870555 378.3082788051209 353.08449502133715 388.61564722617356"/><path class="valley" d="M 400.0 341.3647076395608 C 379.6359019120831 366.4410173939333 366.60305416825724 378.6561142665529 353.08449502133715 388.61564722617345"/><path class="valley" d="M 353.08449502133715 388.61564722617345 C 353.08449502133715 388.61564722617345 353.08449502133715 388.61564722617345 353.08449502133715 388.61564722617345"/><path class="valley" d="M 300.3095305832148 378.8654338549075 C 276.2048364153627 350.272546230441 261.80392603129445 337.32642958748215 246.91550497866288 327.01906116642954"/><path class="valley" d="M 200.0 374.2700007530423 C 220.36409808791691 349.1936909986698 233.3969458317428 336.97859412605015 246.91550497866285 327.0190611664296"/><path class="valley" d="M 348.87689916784467 102.49912918868638 C 301.44860312944525 263.0592091038407 314.8853257467994 324.9668733997155 318.1075391180654 336.4984352773826"/><path class="valley" d="M 348.8768991678446 102.49912918868623 C 348.8768991678446 102.49912918868624 348.87689916784467 102.49912918868627 348.87689916784467 102.49912918868627"/><path class="valley" d="M 348.87689916784467 102.49912918868627 C 348.87689916784467 102.49912918868631 348.8768991678447 102.49912918868638 348.8768991678447 102.49912918868642"/><path class="valley" d="M 348.8768991678447 102.49912918868642 C 401.00601991465146 261.59512944523465 389.3955277382646 323.87113513513503 386.5137980085349 335.4924608819344"/><path class="valley" d="M 251.12310083215536 613.1355792039167 C 298.55139687055475 452.57549928876244 285.1146742532006 390.66783499288766 281.8924608819346 379.13627311522043"/><path class="valley" d="M 251.12310083215533 613.1355792039169 C 198.9939800853485 454.03957894736845 210.60447226173542 391.76357325746807 213.48620199146512 380.14224751066865"/><path class="valley" d="M 318.1075391180654 336.4984352773826 C 332.47749644381224 365.234480796586 342.61617069701276 378.24327738264583 353.08449502133715 388.61564722617356"/><path class="valley" d="M 386.5137980085349 335.4924608819344 C 372.9950497866288 364.63863442389743 363.2432887624467 377.9399374110952 353.08449502133715 388.61564722617345"/><path class="valley" d="M 281.8924608819346 379.13627311522043 C 267.52250355618776 350.40022759601703 257.38382930298724 337.39143100995733 246.91550497866288 327.01906116642954"/><path class="valley" d="M 213.48620199146512 380.14224751066865 C 227.00495021337127 350.9960739687057 236.75671123755333 337.6947709815079 246.91550497866285 327.0190611664296"/><line class="valley" x1="442.1064011379801" y1="0.0" x2="452.6304409672831" y2="715.6347083926031"/><line class="valley" x1="547.3695590327169" y1="0.0" x2="557.89359886202" y2="715.634708392603"/><line class="valley" x1="494.75919159162083" y1="0.0" x2="548.8768991678446" y2="102.49912918868638"/><line class="valley" x1="599.197679680271" y1="0.0" x2="548.8768991678446" y2="102.4991291886862"/><line class="valley" x1="505.2408084083793" y1="715.634708392603" x2="451.12310083215533" y2="613.1355792039167"/><line class="valley" x1="451.12310083215533" y1="613.1355792039169" x2="400.80232031972895" y2="715.6347083926031"/><line class="valley" x1="494.71698743796173" y1="0.0" x2="446.0987729511918" y2="271.4812832983978"/><line class="valley" x1="494.8606131357741" y1="0.0" x2="547.71858085058" y2="23.733483614688918"/><line class="valley" x1="596.6710605867996" y1="0.0" x2="547.71858085058" y2="23.73348361468873"/><line class="valley" x1="446.09877295119185" y1="271.4812832983978" x2="400.0" y2="51.55212210055215"/><line class="valley" x1="553.9012270488082" y1="444.1534250942051" x2="505.2830125620383" y2="715.6347083926031"/><line class="valley" x1="505.13938686422557" y1="715.6347083926031" x2="452.28141914942" y2="691.9012247779141"/><line class="valley" x1="600.0" y1="664.0825862920507" x2="553.9012270488083" y2="444.15342509420555"/><line class="valley" x1="452.28141914942" y1="691.9012247779141" x2="403.3289394131998" y2="715.634708392603"/><line class="valley" x1="494.71757083995885" y1="0.0" x2="442.4786221422992" y2="25.31102829369802"/><line class="valley" x1="442.4786221422992" y1="25.311028293698033" x2="400.0" y2="6.250440316798428"/><line class="valley" x1="557.5213778577009" y1="690.3236800989052" x2="505.2824291600413" y2="715.6347083926032"/><line class="valley" x1="600.0" y1="709.3842680758045" x2="557.5213778577009" y2="690.3236800989051"/><path class="valley" d="M 548.8768991678446 102.49912918868638 C 453.6323186344239 211.1308108108108 427.32221906116644 283.0966714082504 500.0 357.81735419630155"/><path class="valley" d="M 548.8768991678446 102.49912918868628 C 548.8768991678446 102.49912918868628 548.8768991678446 102.49912918868628 548.8768991678446 102.49912918868628"/><path class="valley" d="M 548.8768991678446 102.49912918868623 C 548.8768991678446 102.49912918868624 548.8768991678446 102.49912918868627 548.8768991678446 102.49912918868628"/><path class="valley" d="M 548.8768991678446 102.49912918868628 C 568.8956431780949 124.02058441975068 586.0177447547841 144.10897105860258 600.0 163.10354188707223"/><path class="valley" d="M 400.0 181.12175588314662 C 443.3179000759352 246.07556258557878 446.8627105932818 298.5726808428468 400.0000000000001 353.447414373694"/><path class="valley" d="M 451.1231008321554 613.1355792039167 C 546.3676813655761 504.50389758179233 572.6777809388336 432.53803698435274 500.0 357.81735419630155"/><path class="valley" d="M 600.0 534.5129525094561 C 556.6820999240649 469.55914580702427 553.1372894067183 417.0620275497563 599.9999999999999 362.18729401890903"/><path class="valley" d="M 451.12310083215533 613.1355792039169 C 431.1043568219051 591.6141239728524 413.9822552452159 571.5257373340005 400.0 552.5311665055309"/><path class="valley" d="M 548.8768991678446 102.49912918868638 C 460.7205689900427 263.6581507823613 490.0485917496444 325.3321194879089 499.6904694167852 336.76927453769554"/><path class="valley" d="M 548.8768991678446 102.49912918868628 C 548.8768991678446 102.49912918868628 548.8768991678446 102.49912918868628 548.8768991678446 102.49912918868628"/><path class="valley" d="M 548.8768991678446 102.49912918868628 C 573.5477610260859 144.60960567170892 589.7225881846055 179.94441705233766 600.0 209.35114538261"/><path class="valley" d="M 400.0 248.41086857042956 C 409.31683168611005 289.35852152189693 405.1594469904083 314.51709029524307 399.99999999999994 327.9545712007538"/><path class="valley" d="M 451.1231008321554 613.1355792039167 C 539.2794310099573 451.9765576102418 509.9514082503556 390.3025889046942 500.3095305832148 378.8654338549075"/><path class="valley" d="M 600.0 467.22383982217315 C 590.6831683138901 426.2761868707062 594.8405530095918 401.1176180973603 600.0 387.68013719184944"/><path class="valley" d="M 451.12310083215533 613.1355792039169 C 426.452238973914 571.0251027208944 410.2774118153946 535.6902913402656 400.0 506.28356300999326"/><path class="valley" d="M 499.6904694167852 336.76927453769554 C 523.7951635846373 365.3621621621621 538.1960739687056 378.3082788051209 553.0844950213371 388.61564722617356"/><path class="valley" d="M 600.0 341.3647076395608 C 579.6359019120831 366.4410173939333 566.6030541682572 378.6561142665529 553.0844950213371 388.61564722617345"/><path class="valley" d="M 553.0844950213371 388.61564722617345 C 553.0844950213371 388.61564722617345 553.0844950213371 388.61564722617345 553.0844950213371 388.61564722617345"/><path class="valley" d="M 500.3095305832148 378.8654338549075 C 476.2048364153627 350.272546230441 461.80392603129445 337.32642958748215 446.91550497866285 327.01906116642954"/><path class="valley" d="M 400.0 374.2700007530423 C 420.36409808791694 349.1936909986698 433.3969458317428 336.97859412605015 446.91550497866285 327.0190611664296"/><path class="valley" d="M 548.8768991678446 102.49912918868638 C 501.44860312944525 263.0592091038407 514.8853257467995 324.9668733997155 518.1075391180655 336.4984352773826"/><path class="valley" d="M 548.8768991678446 102.49912918868623 C 548.8768991678446 102.49912918868624 548.8768991678446 102.49912918868627 548.8768991678446 102.49912918868627"/><path class="valley" d="M 548.8768991678446 102.49912918868627 C 548.8768991678446 102.49912918868631 548.8768991678447 102.49912918868638 548.8768991678447 102.49912918868642"/><path class="valley" d="M 548.8768991678447 102.49912918868642 C 601.0060199146515 261.59512944523465 589.3955277382646 323.87113513513503 586.5137980085349 335.4924608819344"/><path class="valley" d="M 451.1231008321554 613.1355792039167 C 498.55139687055475 452.57549928876244 485.1146742532006 390.66783499288766 481.8924608819346 379.13627311522043"/><path class="valley" d="M 451.12310083215533 613.1355792039169 C 398.9939800853485 454.03957894736845 410.6044722617354 391.76357325746807 413.4862019914651 380.14224751066865"/><path class="valley" d="M 518.1075391180655 336.4984352773826 C 532.4774964438122 365.234480796586 542.6161706970128 378.24327738264583 553.0844950213371 388.61564722617356"/><path class="valley" d="M 586.5137980085349 335.4924608819344 C 572.9950497866288 364.63863442389743 563.2432887624467 377.9399374110952 553.0844950213371 388.61564722617345"/><path class="valley" d="M 481.8924608819346 379.13627311522043 C 467.52250355618776 350.40022759601703 457.38382930298724 337.39143100995733 446.91550497866285 327.01906116642954"/><path class="valley" d="M 413.4862019914651 380.14224751066865 C 427.0049502133713 350.9960739687057 436.7567112375533 337.6947709815079 446.91550497866285 327.0190611664296"/><line class="valley" x1="642.1064011379801" y1="0.0" x2="652.6304409672831" y2="715.6347083926031"/><line class="valley" x1="747.3695590327169" y1="0.0" x2="757.89359886202" y2="715.634708392603"/><line class="valley" x1="694.7591915916208" y1="0.0" x2="748.8768991678446" y2="102.49912918868638"/><line class="valley" x1="799.197679680271" y1="0.0" x2="748.8768991678446" y2="102.4991291886862"/><line class="valley" x1="705.2408084083793" y1="715.634708392603" x2="651.1231008321554" y2="613.1355792039167"/><line class="valley" x1="651.1231008321554" y1="613.1355792039169" x2="600.8023203197289" y2="715.6347083926031"/><line class="valley" x1="694.7169874379617" y1="0.0" x2="646.0987729511918" y2="271.4812832983978"/><line class="valley" x1="694.8606131357741" y1="0.0" x2="747.71858085058" y2="23.733483614688918"/><line class="valley" x1="796.6710605867996" y1="0.0" x2="747.71858085058" y2="23.73348361468873"/><line class="valley" x1="646.0987729511918" y1="271.4812832983978" x2="600.0" y2="51.55212210055215"/><line class="valley" x1="753.9012270488082" y1="444.1534250942051" x2="705.2830125620384" y2="715.6347083926031"/><line class="valley" x1="705.1393868642256" y1="715.6347083926031" x2="652.28141914942" y2="691.9012247779141"/><line class="valley" x1="800.0" y1="664.0825862920507" x2="753.9012270488083" y2="444.15342509420555"/><line class="valley" x1="652.28141914942" y1="691.9012247779141" x2="603.3289394131998" y2="715.634708392603"/><line class="valley" x1="694.7175708399589" y1="0.0" x2="642.4786221422992" y2="25.31102829369802"/><line class="valley" x1="642.4786221422992" y1="25.311028293698033" x2="600.0" y2="6.250440316798428"/><line class="valley" x1="757.5213778577009" y1="690.3236800989052" x2="705.2824291600414" y2="715.6347083926032"/><line class="valley" x1="800.0" y1="709.3842680758045" x2="757.5213778577009" y2="690.3236800989051"/><path class="valley" d="M 748.8768991678446 102.49912918868638 C 653.6323186344239 211.1308108108108 627.3222190611664 283.0966714082504 700.0 357.81735419630155"/><path class="valley" d="M 748.8768991678446 102.49912918868628 C 748.8768991678446 102.49912918868628 748.8768991678446 102.49912918868628 748.8768991678446 102.49912918868628"/><path class="valley" d="M 748.8768991678446 102.49912918868623 C 748.8768991678446 102.49912918868624 748.8768991678446 102.49912918868627 748.8768991678446 102.49912918868628"/><path class="valley" d="M 748.8768991678446 102.49912918868628 C 768.8956431780949 124.02058441975068 786.0177447547841 144.10897105860258 800.0 163.10354188707223"/><path class="valley" d="M 600.0 181.12175588314662 C 643.3179000759352 246.07556258557878 646.8627105932818 298.5726808428468 600.0000000000001 353.447414373694"/><path class="valley" d="M 651.1231008321554 613.1355792039167 C 746.3676813655761 504.50389758179233 772.6777809388336 432.53803698435274 700.0 357.81735419630155"/><path class="valley" d="M 800.0 534.5129525094561 C 756.6820999240649 469.55914580702427 753.1372894067183 417.0620275497563 799.9999999999999 362.18729401890903"/><path class="valley" d="M 651.1231008321553 613.1355792039169 C 631.1043568219051 591.6141239728524 613.9822552452159 571.5257373340005 600.0 552.5311665055309"/><path class="valley" d="M 748.8768991678446 102.49912918868638 C 660.7205689900427 263.6581507823613 690.0485917496444 325.3321194879089 699.6904694167852 336.76927453769554"/><path class="valley" d="M 748.8768991678446 102.49912918868628 C 748.8768991678446 102.49912918868628 748.8768991678446 102.49912918868628 748.8768991678446 102.49912918868628"/><path class="valley" d="M 748.8768991678446 102.49912918868628 C 773.5477610260859 144.60960567170892 789.7225881846055 179.94441705233766 800.0 209.35114538261"/><path class="valley" d="M 600.0 248.41086857042956 C 609.31683168611 289.35852152189693 605.1594469904082 314.51709029524307 600.0 327.9545712007538"/><path class="valley" d="M 651.1231008321554 613.1355792039167 C 739.2794310099573 451.9765576102418 709.9514082503556 390.3025889046942 700.3095305832148 378.8654338549075"/><path class="valley" d="M 800.0 467.22383982217315 C 790.6831683138901 426.2761868707062 794.8405530095918 401.1176180973603 800.0 387.68013719184944"/><path class="valley" d="M 651.1231008321553 613.1355792039169 C 626.4522389739141 571.0251027208944 610.2774118153945 535.6902913402656 600.0 506.28356300999326"/><path class="valley" d="M 699.6904694167852 336.76927453769554 C 723.7951635846373 365.3621621621621 738.1960739687056 378.3082788051209 753.0844950213371 388.61564722617356"/><path class="valley" d="M 800.0 341.3647076395608 C 779.6359019120831 366.4410173939333 766.6030541682572 378.6561142665529 753.0844950213371 388.61564722617345"/><path class="valley" d="M 753.0844950213371 388.61564722617345 C 753.0844950213371 388.61564722617345 753.0844950213371 388.61564722617345 753.0844950213371 388.61564722617345"/><path class="valley" d="M 700.3095305832148 378.8654338549075 C 676.2048364153627 350.272546230441 661.8039260312944 337.32642958748215 646.9155049786629 327.01906116642954"/><path class="valley" d="M 600.0 374.2700007530423 C 620.3640980879169 349.1936909986698 633.3969458317428 336.97859412605015 646.9155049786629 327.0190611664296"/><path class="valley" d="M 748.8768991678446 102.49912918868638 C 701.4486031294452 263.0592091038407 714.8853257467995 324.9668733997155 718.1075391180655 336.4984352773826"/><path class="valley" d="M 748.8768991678446 102.49912918868623 C 748.8768991678446 102.49912918868624 748.8768991678446 102.49912918868627 748.8768991678446 102.49912918868627"/><path class="valley" d="M 748.8768991678446 102.49912918868627 C 748.8768991678446 102.49912918868631 748.8768991678447 102.49912918868638 748.8768991678447 102.49912918868642"/><path class="valley" d="M 748.8768991678447 102.49912918868642 C 801.0060199146515 261.59512944523465 789.3955277382646 323.87113513513503 786.5137980085349 335.4924608819344"/><path class="valley" d="M 651.1231008321554 613.1355792039167 C 698.5513968705548 452.57549928876244 685.1146742532005 390.66783499288766 681.8924608819345 379.13627311522043"/><path class="valley" d="M 651.1231008321553 613.1355792039169 C 598.9939800853485 454.03957894736845 610.6044722617354 391.76357325746807 613.4862019914651 380.14224751066865"/><path class="valley" d="M 718.1075391180655 336.4984352773826 C 732.4774964438122 365.234480796586 742.6161706970128 378.24327738264583 753.0844950213371 388.61564722617356"/><path class="valley" d="M 786.5137980085349 335.4924608819344 C 772.9950497866288 364.63863442389743 763.2432887624467 377.9399374110952 753.0844950213371 388.61564722617345"/><path class="valley" d="M 681.8924608819345 379.13627311522043 C 667.5225035561878 350.40022759601703 657.3838293029872 337.39143100995733 646.9155049786629 327.01906116642954"/><path class="valley" d="M 613.4862019914651 380.14224751066865 C 627.0049502133713 350.9960739687057 636.7567112375533 337.6947709815079 646.9155049786629 327.0190611664296"/><line class="valley" x1="842.1064011379801" y1="0.0" x2="852.6304409672831" y2="715.6347083926031"/><line class="valley" x1="947.3695590327169" y1="0.0" x2="957.89359886202" y2="715.634708392603"/><line class="valley" x1="894.7591915916208" y1="0.0" x2="948.8768991678446" y2="102.49912918868638"/><line class="valley" x1="999.197679680271" y1="0.0" x2="948.8768991678446" y2="102.4991291886862"/><line class="valley" x1="905.2408084083793" y1="715.634708392603" x2="851.1231008321554" y2="613.1355792039167"/><line class="valley" x1="851.1231008321554" y1="613.1355792039169" x2="800.8023203197289" y2="715.6347083926031"/><line class="valley" x1="894.7169874379617" y1="0.0" x2="846.0987729511918" y2="271.4812832983978"/><line class="valley" x1="894.8606131357741" y1="0.0" x2="947.71858085058" y2="23.733483614688918"/><line class="valley" x1="996.6710605867996" y1="0.0" x2="947.71858085058" y2="23.73348361468873"/><line class="valley" x1="846.0987729511918" y1="271.4812832983978" x2="800.0" y2="51.55212210055215"/><line class="valley" x1="953.9012270488082" y1="444.1534250942051" x2="905.2830125620384" y2="715.6347083926031"/><line class="valley" x1="905.1393868642256" y1="715.6347083926031" x2="852.28141914942" y2="691.9012247779141"/><line class="valley" x1="1000.0" y1="664.0825862920507" x2="953.9012270488083" y2="444.15342509420555"/><line class="valley" x1="852.28141914942" y1="691.9012247779141" x2="803.3289394131998" y2="715.634708392603"/><line class="valley" x1="894.7175708399589" y1="0.0" x2="842.4786221422992" y2="25.31102829369802"/><line class="valley" x1="842.4786221422992" y1="25.311028293698033" x2="800.0" y2="6.250440316798428"/><line class="valley" x1="957.5213778577009" y1="690.3236800989052" x2="905.2824291600414" y2="715.6347083926032"/><line class="valley" x1="1000.0" y1="709.3842680758045" x2="957.5213778577009" y2="690.3236800989051"/><path class="valley" d="M 948.8768991678446 102.49912918868638 C 853.6323186344239 211.1308108108108 827.3222190611664 283.0966714082504 900.0 357.81735419630155"/><path class="valley" d="M 948.8768991678446 102.49912918868628 C 948.8768991678446 102.49912918868628 948.8768991678446 102.49912918868628 948.8768991678446 102.49912918868628"/><path class="valley" d="M 948.8768991678446 102.49912918868623 C 948.8768991678446 102.49912918868624 948.8768991678446 102.49912918868627 948.8768991678446 102.49912918868628"/><path class="valley" d="M 948.8768991678446 102.49912918868628 C 968.8956431780949 124.02058441975068 986.0177447547841 144.10897105860258 1000.0 163.10354188707223"/><path class="valley" d="M 800.0 181.12175588314662 C 843.3179000759352 246.07556258557878 846.8627105932818 298.5726808428468 800.0000000000001 353.447414373694"/><path class="valley" d="M 851.1231008321554 613.1355792039167 C 946.3676813655761 504.50389758179233 972.6777809388336 432.53803698435274 900.0 357.81735419630155"/><path class="valley" d="M 1000.0 534.5129525094561 C 956.6820999240649 469.55914580702427 953.1372894067183 417.0620275497563 999.9999999999999 362.18729401890903"/><path class="valley" d="M 851.1231008321553 613.1355792039169 C 831.1043568219051 591.6141239728524 813.9822552452159 571.5257373340005 800.0 552.5311665055309"/><path class="valley" d="M 948.8768991678446 102.49912918868638 C 860.7205689900427 263.6581507823613 890.0485917496444 325.3321194879089 899.6904694167852 336.76927453769554"/><path class="valley" d="M 948.8768991678446 102.49912918868628 C 948.8768991678446 102.49912918868628 948.8768991678446 102.49912918868628 948.8768991678446 102.49912918868628"/><path class="valley" d="M 948.8768991678446 102.49912918868628 C 973.5477610260859 144.60960567170892 989.7225881846055 179.94441705233766 1000.0 209.35114538261"/><path class="valley" d="M 800.0 248.41086857042956 C 809.31683168611 289.35852152189693 805.1594469904082 314.51709029524307 800.0 327.9545712007538"/><path class="valley" d="M 851.1231008321554 613.1355792039167 C 939.2794310099573 451.9765576102418 909.9514082503556 390.3025889046942 900.3095305832148 378.8654338549075"/><path class="valley" d="M 1000.0 467.22383982217315 C 990.6831683138901 426.2761868707062 994.8405530095918 401.1176180973603 1000.0 387.68013719184944"/><path class="valley" d="M 851.1231008321553 613.1355792039169 C 826.4522389739141 571.0251027208944 810.2774118153945 535.6902913402656 800.0 506.28356300999326"/><path class="valley" d="M 899.6904694167852 336.76927453769554 C 923.7951635846373 365.3621621621621 938.1960739687056 378.3082788051209 953.0844950213371 388.61564722617356"/><path class="valley" d="M 1000.0 341.3647076395608 C 979.6359019120831 366.4410173939333 966.6030541682572 378.6561142665529 953.0844950213371 388.61564722617345"/><path class="valley" d="M 953.0844950213371 388.61564722617345 C 953.0844950213371 388.61564722617345 953.0844950213371 388.61564722617345 953.0844950213371 388.61564722617345"/><path class="valley" d="M 900.3095305832148 378.8654338549075 C 876.2048364153627 350.272546230441 861.8039260312944 337.32642958748215 846.9155049786629 327.01906116642954"/><path class="valley" d="M 800.0 374.2700007530423 C 820.3640980879169 349.1936909986698 833.3969458317428 336.97859412605015 846.9155049786629 327.0190611664296"/><path class="valley" d="M 948.8768991678446 102.49912918868638 C 901.4486031294452 263.0592091038407 914.8853257467995 324.9668733997155 918.1075391180655 336.4984352773826"/><path class="valley" d="M 948.8768991678446 102.49912918868623 C 948.8768991678446 102.49912918868624 948.8768991678446 102.49912918868627 948.8768991678446 102.49912918868627"/><path class="valley" d="M 948.8768991678446 102.49912918868627 C 948.8768991678446 102.49912918868631 948.8768991678447 102.49912918868638 948.8768991678447 102.49912918868642"/><path class="valley" d="M 948.8768991678447 102.49912918868642 C 1001.0060199146515 261.59512944523465 989.3955277382646 323.87113513513503 986.5137980085349 335.4924608819344"/><path class="valley" d="M 851.1231008321554 613.1355792039167 C 898.5513968705548 452.57549928876244 885.1146742532005 390.66783499288766 881.8924608819345 379.13627311522043"/><path class="valley" d="M 851.1231008321553 613.1355792039169 C 798.9939800853485 454.03957894736845 810.6044722617354 391.76357325746807 813.4862019914651 380.14224751066865"/><path class="valley" d="M 918.1075391180655 336.4984352773826 C 932.4774964438122 365.234480796586 942.6161706970128 378.24327738264583 953.0844950213371 388.61564722617356"/><path class="valley" d="M 986.5137980085349 335.4924608819344 C 972.9950497866288 364.63863442389743 963.2432887624467 377.9399374110952 953.0844950213371 388.61564722617345"/><path class="valley" d="M 881.8924608819345 379.13627311522043 C 867.5225035561878 350.40022759601703 857.3838293029872 337.39143100995733 846.9155049786629 327.01906116642954"/><path class="valley" d="M 813.4862019914651 380.14224751066865 C 827.0049502133713 350.9960739687057 836.7567112375533 337.6947709815079 846.9155049786629 327.0190611664296"/><line class="valley" x1="1042.1064011379801" y1="0.0" x2="1052.630440967283" y2="715.6347083926031"/><line class="valley" x1="1147.369559032717" y1="0.0" x2="1157.89359886202" y2="715.634708392603"/><line class="valley" x1="1094.7591915916207" y1="0.0" x2="1148.8768991678446" y2="102.49912918868638"/><line class="valley" x1="1199.197679680271" y1="0.0" x2="1148.8768991678446" y2="102.4991291886862"/><line class="valley" x1="1105.2408084083793" y1="715.634708392603" x2="1051.1231008321554" y2="613.1355792039167"/><line class="valley" x1="1051.1231008321554" y1="613.1355792039169" x2="1000.8023203197289" y2="715.6347083926031"/><line class="valley" x1="1094.7169874379617" y1="0.0" x2="1046.098772951192" y2="271.4812832983978"/><line class="valley" x1="1094.8606131357742" y1="0.0" x2="1147.7185808505799" y2="23.733483614688918"/><line class="valley" x1="1196.6710605867995" y1="0.0" x2="1147.71858085058" y2="23.73348361468873"/><line class="valley" x1="1046.098772951192" y1="271.4812832983978" x2="1000.0" y2="51.55212210055215"/><line class="valley" x1="1153.9012270488083" y1="444.1534250942051" x2="1105.2830125620383" y2="715.6347083926031"/><line class="valley" x1="1105.1393868642256" y1="715.6347083926031" x2="1052.28141914942" y2="691.9012247779141"/><line class="valley" x1="1200.0" y1="664.0825862920507" x2="1153.9012270488083" y2="444.15342509420555"/><line class="valley" x1="1052.2814191494201" y1="691.9012247779141" x2="1003.3289394131998" y2="715.634708392603"/><line class="valley" x1="1094.7175708399589" y1="0.0" x2="1042.4786221422992" y2="25.31102829369802"/><line class="valley" x1="1042.4786221422992" y1="25.311028293698033" x2="1000.0" y2="6.250440316798428"/><line class="valley" x1="1157.5213778577008" y1="690.3236800989052" x2="1105.2824291600414" y2="715.6347083926032"/><line class="valley" x1="1200.0" y1="709.3842680758045" x2="1157.5213778577008" y2="690.3236800989051"/><path class="valley" d="M 1148.8768991678446 102.49912918868638 C 1053.6323186344239 211.1308108108108 1027.3222190611664 283.0966714082504 1100.0 357.81735419630155"/><path class="valley" d="M 1148.8768991678446 102.49912918868628 C 1148.8768991678446 102.49912918868628 1148.8768991678446 102.49912918868628 1148.8768991678446 102.49912918868628"/><path class="valley" d="M 1148.8768991678446 102.49912918868623 C 1148.8768991678446 102.49912918868624 1148.8768991678446 102.49912918868627 1148.8768991678446 102.49912918868628"/><path class="valley" d="M 1148.8768991678446 102.49912918868628 C 1168.8956431780948 124.02058441975068 1186.0177447547842 144.10897105860258 1200.0 163.10354188707223"/><path class="valley" d="M 1000.0 181.12175588314662 C 1043.317900075935 246.07556258557878 1046.8627105932817 298.5726808428468 1000.0000000000001 353.447414373694"/><path class="valley" d="M 1051.1231008321554 613.1355792039167 C 1146.3676813655761 504.50389758179233 1172.6777809388336 432.53803698435274 1100.0 357.81735419630155"/><path class="valley" d="M 1200.0 534.5129525094561 C 1156.682099924065 469.55914580702427 1153.1372894067183 417.0620275497563 1199.9999999999998 362.18729401890903"/><path class="valley" d="M 1051.1231008321554 613.1355792039169 C 1031.1043568219052 591.6141239728524 1013.9822552452159 571.5257373340005 1000.0 552.5311665055309"/><path class="valley" d="M 1148.8768991678446 102.49912918868638 C 1060.7205689900427 263.6581507823613 1090.0485917496444 325.3321194879089 1099.6904694167852 336.76927453769554"/><path class="valley" d="M 1148.8768991678446 102.49912918868628 C 1148.8768991678446 102.49912918868628 1148.8768991678446 102.49912918868628 1148.8768991678446 102.49912918868628"/><path class="valley" d="M 1148.8768991678446 102.49912918868628 C 1173.547761026086 144.60960567170892 1189.7225881846055 179.94441705233766 1200.0 209.35114538261"/><path class="valley" d="M 1000.0 248.41086857042956 C 1009.31683168611 289.35852152189693 1005.1594469904082 314.51709029524307 1000.0 327.9545712007538"/><path class="valley" d="M 1051.1231008321554 613.1355792039167 C 1139.2794310099573 451.9765576102418 1109.9514082503556 390.3025889046942 1100.3095305832148 378.8654338549075"/><path class="valley" d="M 1200.0 467.22383982217315 C 1190.68316831389 426.2761868707062 1194.8405530095918 401.1176180973603 1200.0 387.68013719184944"/><path class="valley" d="M 1051.1231008321554 613.1355792039169 C 1026.452238973914 571.0251027208944 1010.2774118153945 535.6902913402656 1000.0 506.28356300999326"/><path class="valley" d="M 1099.6904694167852 336.76927453769554 C 1123.7951635846373 365.3621621621621 1138.1960739687056 378.3082788051209 1153.084495021337 388.61564722617356"/><path class="valley" d="M 1200.0 341.3647076395608 C 1179.6359019120832 366.4410173939333 1166.6030541682571 378.6561142665529 1153.0844950213373 388.61564722617345"/><path class="valley" d="M 1153.0844950213373 388.61564722617345 C 1153.0844950213373 388.61564722617345 1153.0844950213373 388.61564722617345 1153.0844950213373 388.61564722617345"/><path class="valley" d="M 1100.3095305832148 378.8654338549075 C 1076.2048364153627 350.272546230441 1061.8039260312944 337.32642958748215 1046.915504978663 327.01906116642954"/><path class="valley" d="M 1000.0 374.2700007530423 C 1020.3640980879169 349.1936909986698 1033.3969458317429 336.97859412605015 1046.915504978663 327.0190611664296"/><path class="valley" d="M 1148.8768991678446 102.49912918868638 C 1101.4486031294452 263.0592091038407 1114.8853257467995 324.9668733997155 1118.1075391180655 336.4984352773826"/><path class="valley" d="M 1148.8768991678446 102.49912918868623 C 1148.8768991678446 102.49912918868624 1148.8768991678446 102.49912918868627 1148.8768991678446 102.49912918868627"/><path class="valley" d="M 1148.8768991678446 102.49912918868627 C 1148.8768991678446 102.49912918868631 1148.8768991678448 102.49912918868638 1148.8768991678448 102.49912918868642"/><path class="valley" d="M 1148.8768991678448 102.49912918868642 C 1201.0060199146515 261.59512944523465 1189.3955277382647 323.87113513513503 1186.5137980085349 335.4924608819344"/><path class="valley" d="M 1051.1231008321554 613.1355792039167 C 1098.5513968705548 452.57549928876244 1085.1146742532005 390.66783499288766 1081.8924608819345 379.13627311522043"/><path class="valley" d="M 1051.1231008321554 613.1355792039169 C 998.9939800853485 454.03957894736845 1010.6044722617354 391.76357325746807 1013.4862019914651 380.14224751066865"/><path class="valley" d="M 1118.1075391180655 336.4984352773826 C 1132.4774964438122 365.234480796586 1142.6161706970129 378.24327738264583 1153.084495021337 388.61564722617356"/><path class="valley" d="M 1186.5137980085349 335.4924608819344 C 1172.9950497866287 364.63863442389743 1163.2432887624468 377.9399374110952 1153.0844950213373 388.61564722617345"/><path class="valley" d="M 1081.8924608819345 379.13627311522043 C 1067.5225035561878 350.40022759601703 1057.3838293029871 337.39143100995733 1046.915504978663 327.01906116642954"/><path class="valley" d="M 1013.4862019914651 380.14224751066865 C 1027.0049502133713 350.9960739687057 1036.7567112375534 337.6947709815079 1046.915504978663 327.0190611664296"/></svg>