<svg xmlns="http://www.w3.org/2000/svg" width="1200" height="800"><style >
.valley {stroke: #00f; stroke-width: 2px; fill:none}
.mountain {stroke: #f00; stroke-width: 2px; fill:none }
.cut {stroke: #000; stroke-width: 3px; fill:none } 
.hint {stroke: #000; stroke-width: 1px; fill:none } 
</style><rect class="cut" x="0" y="0" width="1200" height="800"/><line class="cut" x1="200" y1="0" x2="200" y2="800"/><line class="cut" x1="400" y1="0" x2="400" y2="800"/><line class="cut" x1="600" y1="0" x2="600" y2="800"/><line class="cut" x1="800" y1="0" x2="800" y2="800"/><line class="cut" x1="1000" y1="0" x2="1000" y2="800"/><line class="valley" x1="50.0" y1="0.0" x2="50.0" y2="800.0"/><line class="valley" x1="149.99999999999991" y1="0.0" x2="150.0" y2="800.0"/><line class="valley" x1="100.02" y1="0.0" x2="149.99999999999991" y2="98.13052527525737"/><line class="valley" x1="199.97999999999982" y1="0.0" x2="149.99999999999991" y2="98.13052527525738"/><line class="valley" x1="99.97999999999998" y1="800.0" x2="50.0" y2="701.8694747247425"/><line class="valley" x1="50.0" y1="701.8694747247425" x2="0.019999999999985484" y2="800.0"/><line class="valley" x1="99.98000000000002" y1="0.0" x2="50.0" y2="257.2277007985154"/><line class="valley" x1="100.11283112870298" y1="0.0" x2="149.99999999999994" y2="23.286979591704025"/><line class="valley" x1="199.88716887129684" y1="0.0" x2="149.99999999999994" y2="23.28697959170404"/><line class="valley" x1="0.019999999999997797" y1="0.0" x2="50.0" y2="257.22770079851534"/><line class="valley" x1="149.99999999999997" y1="542.7722992014847" x2="100.02" y2="800.0"/><line class="valley" x1="99.8871688712969" y1="800.0" x2="50.0" y2="776.713020408296"/><line class="valley" x1="199.98000000000002" y1="800.0" x2="149.99999999999994" y2="542.7722992014844"/><line class="valley" x1="50.0" y1="776.713020408296" x2="0.11283112870286917" y2="800.0"/><line class="valley" x1="99.98" y1="0.0" x2="50.0" y2="23.315382907749928"/><line class="valley" x1="0.019999999999997797" y1="0.0" x2="50.0" y2="23.315382907749928"/><line class="valley" x1="150.0" y1="776.6846170922503" x2="100.02000000000015" y2="800.0"/><line class="valley" x1="199.97999999999988" y1="800.0" x2="150.0" y2="776.6846170922502"/><path class="valley" d="M 149.99999999999994 98.13052527525765 C 45.99999999999998 200.00000000000009 24.00000000000003 328.0 100.0 400.0"/><path class="valley" d="M 149.99999999999991 98.13052527525758 C 169.62126021582088 117.34982788701882 186.32374307388758 137.4992425173124 200.0 158.02721867619357"/><path class="valley" d="M 4.163336342344337e-15 158.02721867619334 C 58.8130075080265 246.30517531882649 61.66138676536163 341.58394938018375 0.0 400.0"/><path class="valley" d="M 49.99999999999999 701.8694747247425 C 153.99999999999997 599.9999999999998 175.99999999999994 472.0 99.99999999999996 400.0"/><path class="valley" d="M 200.0 641.9727813238067 C 141.18699249197343 553.6948246811736 138.33861323463833 458.4160506198163 199.99999999999994 400.0"/><path class="valley" d="M 199.99999999999994 400.0 C 199.99999999999994 400.0 199.99999999999994 400.0 199.99999999999994 400.0"/><path class="valley" d="M 49.999999999999986 701.8694747247425 C 49.999999999999986 701.8694747247425 49.999999999999986 701.8694747247425 49.999999999999986 701.8694747247425"/><path class="valley" d="M 49.999999999999986 701.8694747247425 C 30.378739784179064 682.6501721129812 13.67625692611244 662.5007574826877 6.938893903907228e-15 641.9727813238067"/><path class="valley" d="M 149.99999999999991 170.00000000000006 C 30.00000000000002 270.0000000000001 73.00000000000001 347.0 100.0 380.0"/><path class="valley" d="M 149.99999999999994 170.00000000000009 C 171.5998045286569 187.9998371072142 187.9185046423681 205.25448770188999 200.0 221.6414831089649"/><path class="valley" d="M 199.99999999999991 380.0 C 199.99999999999991 380.0 199.99999999999991 380.0 199.99999999999991 380.0"/><path class="valley" d="M 5.551115123125783e-15 221.64148310896474 C 55.03853070521383 296.2941749472102 22.14004398105222 352.93994624538055 2.949646391277331e-14 380.0"/><path class="valley" d="M 2.949646391277331e-14 380.0 C 1.9664309275182208e-14 380.0 9.832154637591102e-15 380.0 0.0 380.0"/><path class="valley" d="M 49.99999999999999 629.9999999999998 C 169.99999999999994 529.9999999999998 126.99999999999993 452.99999999999994 99.99999999999996 420.0"/><path class="valley" d="M 199.99999999999994 578.3585168910353 C 144.96146929478618 503.7058250527899 177.85995601894768 447.0600537546195 199.99999999999983 420.0"/><path class="valley" d="M 199.99999999999983 420.0 C 199.99999999999986 420.0 199.99999999999991 420.0 199.99999999999994 420.0"/><path class="valley" d="M 49.999999999999986 629.9999999999998 C 28.40019547134306 612.0001628927857 12.081495357631882 594.7455122981099 0.0 578.3585168910352"/><path class="valley" d="M 100.0 380.0 C 122.49999999999999 407.5 129.99999999999997 400.0 149.99999999999991 430.0"/><path class="valley" d="M 199.99999999999991 380.0 C 177.49999999999991 407.5 169.99999999999991 400.0 149.99999999999997 430.0"/><path class="valley" d="M 149.99999999999997 430.0 C 149.99999999999994 430.0 149.99999999999994 430.0 149.99999999999991 430.0"/><path class="valley" d="M 99.99999999999996 420.0 C 77.49999999999996 392.5 69.99999999999996 400.0 49.999999999999986 370.0"/><path class="valley" d="M 4.440892098500626e-14 420.0 C 22.500000000000046 392.5 30.00000000000005 400.0 50.00000000000004 370.0"/><path class="valley" d="M 149.99999999999994 170.00000000000014 C 90.0 270.0 111.5 347.0 125.0 380.0"/><path class="valley" d="M 149.99999999999994 170.00000000000003 C 209.99999999999977 270.0 188.49999999999986 347.0 174.99999999999991 380.0"/><path class="valley" d="M 50.000000000000014 630.0000000000001 C 109.99999999999997 530.0 88.49999999999996 453.0 74.99999999999996 420.0"/><path class="valley" d="M 49.99999999999999 630.0000000000001 C -9.99999999999996 530.0 11.500000000000046 453.0 25.000000000000043 420.0"/><path class="valley" d="M 125.0 380.0 C 136.24999999999997 407.5 140.0 400.0 149.99999999999994 429.9999999999997"/><path class="valley" d="M 174.99999999999991 380.0 C 163.74999999999991 407.5 159.99999999999991 400.0 149.99999999999997 430.0"/><path class="valley" d="M 149.99999999999997 430.0 C 149.99999999999994 430.0 149.99999999999994 430.0 149.99999999999991 430.0"/><path class="valley" d="M 74.99999999999996 420.0 C 63.749999999999964 392.5 59.999999999999986 400.0 50.0 370.00000000000017"/><path class="valley" d="M 25.000000000000043 420.0 C 36.25000000000003 392.5 40.00000000000002 400.0 49.99999999999998 370.00000000000017"/><line class="valley" x1="250.0" y1="0.0" x2="250.0" y2="800.0"/><line class="valley" x1="349.9999999999999" y1="0.0" x2="350.0" y2="800.0"/><line class="valley" x1="300.02" y1="0.0" x2="349.9999999999999" y2="98.13052527525737"/><line class="valley" x1="399.9799999999998" y1="0.0" x2="349.9999999999999" y2="98.13052527525738"/><line class="valley" x1="299.97999999999996" y1="800.0" x2="250.0" y2="701.8694747247425"/><line class="valley" x1="250.0" y1="701.8694747247425" x2="200.01999999999998" y2="800.0"/><line class="valley" x1="299.98" y1="0.0" x2="250.0" y2="257.2277007985154"/><line class="valley" x1="300.11283112870296" y1="0.0" x2="349.99999999999994" y2="23.286979591704025"/><line class="valley" x1="399.8871688712968" y1="0.0" x2="349.99999999999994" y2="23.28697959170404"/><line class="valley" x1="200.02" y1="0.0" x2="250.0" y2="257.22770079851534"/><line class="valley" x1="350.0" y1="542.7722992014847" x2="300.02" y2="800.0"/><line class="valley" x1="299.8871688712969" y1="800.0" x2="250.0" y2="776.713020408296"/><line class="valley" x1="399.98" y1="800.0" x2="349.99999999999994" y2="542.7722992014844"/><line class="valley" x1="250.0" y1="776.713020408296" x2="200.11283112870288" y2="800.0"/><line class="valley" x1="299.98" y1="0.0" x2="250.0" y2="23.315382907749928"/><line class="valley" x1="200.02" y1="0.0" x2="250.0" y2="23.315382907749928"/><line class="valley" x1="350.0" y1="776.6846170922503" x2="300.02000000000015" y2="800.0"/><line class="valley" x1="399.9799999999999" y1="800.0" x2="350.0" y2="776.6846170922502"/><path class="valley" d="M 349.99999999999994 98.13052527525765 C 245.99999999999997 200.00000000000009 224.00000000000003 328.0 300.0 400.0"/><path class="valley" d="M 349.9999999999999 98.13052527525758 C 369.6212602158209 117.34982788701882 386.3237430738876 137.4992425173124 400.0 158.02721867619357"/><path class="valley" d="M 200.0 158.02721867619334 C 258.8130075080265 246.30517531882649 261.6613867653616 341.58394938018375 200.0 400.0"/><path class="valley" d="M 250.0 701.8694747247425 C 354.0 599.9999999999998 375.99999999999994 472.0 299.99999999999994 400.0"/><path class="valley" d="M 400.0 641.9727813238067 C 341.18699249197346 553.6948246811736 338.33861323463833 458.4160506198163 399.99999999999994 400.0"/><path class="valley" d="M 399.99999999999994 400.0 C 399.99999999999994 400.0 399.99999999999994 400.0 399.99999999999994 400.0"/><path class="valley" d="M 250.0 701.8694747247425 C 250.0 701.8694747247425 250.0 701.8694747247425 250.0 701.8694747247425"/><path class="valley" d="M 250.0 701.8694747247425 C 230.37873978417906 682.6501721129812 213.67625692611244 662.5007574826877 200.0 641.9727813238067"/><path class="valley" d="M 349.9999999999999 170.00000000000006 C 230.00000000000003 270.0000000000001 273.0 347.0 300.0 380.0"/><path class="valley" d="M 349.99999999999994 170.00000000000009 C 371.59980452865693 187.9998371072142 387.91850464236813 205.25448770188999 400.0 221.6414831089649"/><path class="valley" d="M 399.9999999999999 380.0 C 399.9999999999999 380.0 399.9999999999999 380.0 399.9999999999999 380.0"/><path class="valley" d="M 200.0 221.64148310896474 C 255.03853070521382 296.2941749472102 222.14004398105223 352.93994624538055 200.00000000000003 380.0"/><path class="valley" d="M 200.00000000000003 380.0 C 200.00000000000003 380.0 200.0 380.0 200.0 380.0"/><path class="valley" d="M 250.0 629.9999999999998 C 369.99999999999994 529.9999999999998 326.99999999999994 452.99999999999994 299.99999999999994 420.0"/><path class="valley" d="M 399.99999999999994 578.3585168910353 C 344.9614692947862 503.7058250527899 377.8599560189477 447.0600537546195 399.99999999999983 420.0"/><path class="valley" d="M 399.99999999999983 420.0 C 399.9999999999999 420.0 399.9999999999999 420.0 399.99999999999994 420.0"/><path class="valley" d="M 250.0 629.9999999999998 C 228.40019547134307 612.0001628927857 212.0814953576319 594.7455122981099 200.0 578.3585168910352"/><path class="valley" d="M 300.0 380.0 C 322.5 407.5 330.0 400.0 349.9999999999999 430.0"/><path class="valley" d="M 399.9999999999999 380.0 C 377.4999999999999 407.5 369.9999999999999 400.0 350.0 430.0"/><path class="valley" d="M 350.0 430.0 C 349.99999999999994 430.0 349.99999999999994 430.0 349.9999999999999 430.0"/><path class="valley" d="M 299.99999999999994 420.0 C 277.49999999999994 392.5 269.99999999999994 400.0 250.0 370.0"/><path class="valley" d="M 200.00000000000006 420.0 C 222.50000000000006 392.5 230.00000000000006 400.0 250.00000000000006 370.0"/><path class="valley" d="M 349.99999999999994 170.00000000000014 C 290.0 270.0 311.5 347.0 325.0 380.0"/><path class="valley" d="M 349.99999999999994 170.00000000000003 C 409.9999999999998 270.0 388.4999999999999 347.0 374.9999999999999 380.0"/><path class="valley" d="M 250.0 630.0000000000001 C 310.0 530.0 288.49999999999994 453.0 274.99999999999994 420.0"/><path class="valley" d="M 250.0 630.0000000000001 C 190.00000000000003 530.0 211.50000000000006 453.0 225.00000000000006 420.0"/><path class="valley" d="M 325.0 380.0 C 336.25 407.5 340.0 400.0 349.99999999999994 429.9999999999997"/><path class="valley" d="M 374.9999999999999 380.0 C 363.7499999999999 407.5 359.9999999999999 400.0 350.0 430.0"/><path class="valley" d="M 350.0 430.0 C 349.99999999999994 430.0 349.99999999999994 430.0 349.9999999999999 430.0"/><path class="valley" d="M 274.99999999999994 420.0 C 263.74999999999994 392.5 260.0 400.0 250.0 370.00000000000017"/><path class="valley" d="M 225.00000000000006 420.0 C 236.25000000000003 392.5 240.00000000000003 400.0 249.99999999999997 370.00000000000017"/><line class="valley" x1="450.0" y1="0.0" x2="450.0" y2="800.0"/><line class="valley" x1="549.9999999999999" y1="0.0" x2="550.0" y2="800.0"/><line class="valley" x1="500.02" y1="0.0" x2="549.9999999999999" y2="98.13052527525737"/><line class="valley" x1="599.9799999999998" y1="0.0" x2="549.9999999999999" y2="98.13052527525738"/><line class="valley" x1="499.97999999999996" y1="800.0" x2="450.0" y2="701.8694747247425"/><line class="valley" x1="450.0" y1="701.8694747247425" x2="400.02" y2="800.0"/><line class="valley" x1="499.98" y1="0.0" x2="450.0" y2="257.2277007985154"/><line class="valley" x1="500.11283112870296" y1="0.0" x2="550.0" y2="23.286979591704025"/><line class="valley" x1="599.8871688712968" y1="0.0" x2="550.0" y2="23.28697959170404"/><line class="valley" x1="400.02" y1="0.0" x2="450.0" y2="257.22770079851534"/><line class="valley" x1="550.0" y1="542.7722992014847" x2="500.02" y2="800.0"/><line class="valley" x1="499.8871688712969" y1="800.0" x2="450.0" y2="776.713020408296"/><line class="valley" x1="599.98" y1="800.0" x2="550.0" y2="542.7722992014844"/><line class="valley" x1="450.0" y1="776.713020408296" x2="400.11283112870285" y2="800.0"/><line class="valley" x1="499.98" y1="0.0" x2="450.0" y2="23.315382907749928"/><line class="valley" x1="400.02" y1="0.0" x2="450.0" y2="23.315382907749928"/><line class="valley" x1="550.0" y1="776.6846170922503" x2="500.02000000000015" y2="800.0"/><line class="valley" x1="599.9799999999999" y1="800.0" x2="550.0" y2="776.6846170922502"/><path class="valley" d="M 550.0 98.13052527525765 C 446.0 200.00000000000009 424.0 328.0 500.0 400.0"/><path class="valley" d="M 549.9999999999999 98.13052527525758 C 569.6212602158209 117.34982788701882 586.3237430738876 137.4992425173124 600.0 158.02721867619357"/><path class="valley" d="M 400.0 158.02721867619334 C 458.8130075080265 246.30517531882649 461.6613867653616 341.58394938018375 400.0 400.0"/><path class="valley" d="M 450.0 701.8694747247425 C 554.0 599.9999999999998 576.0 472.0 499.99999999999994 400.0"/><path class="valley" d="M 600.0 641.9727813238067 C 541.1869924919735 553.6948246811736 538.3386132346384 458.4160506198163 600.0 400.0"/><path class="valley" d="M 600.0 400.0 C 600.0 400.0 600.0 400.0 600.0 400.0"/><path class="valley" d="M 450.0 701.8694747247425 C 450.0 701.8694747247425 450.0 701.8694747247425 450.0 701.8694747247425"/><path class="valley" d="M 450.0 701.8694747247425 C 430.37873978417906 682.6501721129812 413.67625692611244 662.5007574826877 400.0 641.9727813238067"/><path class="valley" d="M 549.9999999999999 170.00000000000006 C 430.0 270.0000000000001 473.0 347.0 500.0 380.0"/><path class="valley" d="M 550.0 170.00000000000009 C 571.5998045286569 187.9998371072142 587.9185046423681 205.25448770188999 600.0 221.6414831089649"/><path class="valley" d="M 599.9999999999999 380.0 C 599.9999999999999 380.0 599.9999999999999 380.0 599.9999999999999 380.0"/><path class="valley" d="M 400.0 221.64148310896474 C 455.0385307052138 296.2941749472102 422.1400439810522 352.93994624538055 400.00000000000006 380.0"/><path class="valley" d="M 400.00000000000006 380.0 C 400.0 380.0 400.0 380.0 400.0 380.0"/><path class="valley" d="M 450.0 629.9999999999998 C 570.0 529.9999999999998 526.9999999999999 452.99999999999994 499.99999999999994 420.0"/><path class="valley" d="M 600.0 578.3585168910353 C 544.9614692947862 503.7058250527899 577.8599560189477 447.0600537546195 599.9999999999998 420.0"/><path class="valley" d="M 599.9999999999998 420.0 C 599.9999999999999 420.0 599.9999999999999 420.0 600.0 420.0"/><path class="valley" d="M 450.0 629.9999999999998 C 428.40019547134307 612.0001628927857 412.08149535763187 594.7455122981099 400.0 578.3585168910352"/><path class="valley" d="M 500.0 380.0 C 522.5 407.5 530.0 400.0 549.9999999999999 430.0"/><path class="valley" d="M 599.9999999999999 380.0 C 577.4999999999999 407.5 569.9999999999999 400.0 550.0 430.0"/><path class="valley" d="M 550.0 430.0 C 550.0 430.0 550.0 430.0 549.9999999999999 430.0"/><path class="valley" d="M 499.99999999999994 420.0 C 477.49999999999994 392.5 469.99999999999994 400.0 450.0 370.0"/><path class="valley" d="M 400.00000000000006 420.0 C 422.50000000000006 392.5 430.00000000000006 400.0 450.00000000000006 370.0"/><path class="valley" d="M 550.0 170.00000000000014 C 490.0 270.0 511.5 347.0 525.0 380.0"/><path class="valley" d="M 550.0 170.00000000000003 C 609.9999999999998 270.0 588.4999999999999 347.0 574.9999999999999 380.0"/><path class="valley" d="M 450.0 630.0000000000001 C 510.0 530.0 488.49999999999994 453.0 474.99999999999994 420.0"/><path class="valley" d="M 450.0 630.0000000000001 C 390.00000000000006 530.0 411.50000000000006 453.0 425.00000000000006 420.0"/><path class="valley" d="M 525.0 380.0 C 536.25 407.5 540.0 400.0 550.0 429.9999999999997"/><path class="valley" d="M 574.9999999999999 380.0 C 563.7499999999999 407.5 559.9999999999999 400.0 550.0 430.0"/><path class="valley" d="M 550.0 430.0 C 550.0 430.0 550.0 430.0 549.9999999999999 430.0"/><path class="valley" d="M 474.99999999999994 420.0 C 463.74999999999994 392.5 460.0 400.0 450.0 370.00000000000017"/><path class="valley" d="M 425.00000000000006 420.0 C 436.25 392.5 440.0 400.0 450.0 370.00000000000017"/><line class="valley" x1="650.0" y1="0.0" x2="650.0" y2="800.0"/><line class="valley" x1="749.9999999999999" y1="0.0" x2="750.0" y2="800.0"/><line class="valley" x1="700.02" y1="0.0" x2="749.9999999999999" y2="98.13052527525737"/><line class="valley" x1="799.9799999999998" y1="0.0" x2="749.9999999999999" y2="98.13052527525738"/><line class="valley" x1="699.98" y1="800.0" x2="650.0" y2="701.8694747247425"/><line class="valley" x1="650.0" y1="701.8694747247425" x2="600.02" y2="800.0"/><line class="valley" x1="699.98" y1="0.0" x2="650.0" y2="257.2277007985154"/><line class="valley" x1="700.112831128703" y1="0.0" x2="750.0" y2="23.286979591704025"/><line class="valley" x1="799.8871688712968" y1="0.0" x2="750.0" y2="23.28697959170404"/><line class="valley" x1="600.02" y1="0.0" x2="650.0" y2="257.22770079851534"/><line class="valley" x1="750.0" y1="542.7722992014847" x2="700.02" y2="800.0"/><line class="valley" x1="699.8871688712969" y1="800.0" x2="650.0" y2="776.713020408296"/><line class="valley" x1="799.98" y1="800.0" x2="750.0" y2="542.7722992014844"/><line class="valley" x1="650.0" y1="776.713020408296" x2="600.1128311287029" y2="800.0"/><line class="valley" x1="699.98" y1="0.0" x2="650.0" y2="23.315382907749928"/><line class="valley" x1="600.02" y1="0.0" x2="650.0" y2="23.315382907749928"/><line class="valley" x1="750.0" y1="776.6846170922503" x2="700.0200000000002" y2="800.0"/><line class="valley" x1="799.9799999999999" y1="800.0" x2="750.0" y2="776.6846170922502"/><path class="valley" d="M 750.0 98.13052527525765 C 646.0 200.00000000000009 624.0 328.0 700.0 400.0"/><path class="valley" d="M 749.9999999999999 98.13052527525758 C 769.6212602158209 117.34982788701882 786.3237430738876 137.4992425173124 800.0 158.02721867619357"/><path class="valley" d="M 600.0 158.02721867619334 C 658.8130075080265 246.30517531882649 661.6613867653616 341.58394938018375 600.0 400.0"/><path class="valley" d="M 650.0 701.8694747247425 C 754.0 599.9999999999998 776.0 472.0 700.0 400.0"/><path class="valley" d="M 800.0 641.9727813238067 C 741.1869924919735 553.6948246811736 738.3386132346384 458.4160506198163 800.0 400.0"/><path class="valley" d="M 800.0 400.0 C 800.0 400.0 800.0 400.0 800.0 400.0"/><path class="valley" d="M 650.0 701.8694747247425 C 650.0 701.8694747247425 650.0 701.8694747247425 650.0 701.8694747247425"/><path class="valley" d="M 650.0 701.8694747247425 C 630.3787397841791 682.6501721129812 613.6762569261124 662.5007574826877 600.0 641.9727813238067"/><path class="valley" d="M 749.9999999999999 170.00000000000006 C 630.0 270.0000000000001 673.0 347.0 700.0 380.0"/><path class="valley" d="M 750.0 170.00000000000009 C 771.5998045286569 187.9998371072142 787.9185046423681 205.25448770188999 800.0 221.6414831089649"/><path class="valley" d="M 799.9999999999999 380.0 C 799.9999999999999 380.0 799.9999999999999 380.0 799.9999999999999 380.0"/><path class="valley" d="M 600.0 221.64148310896474 C 655.0385307052138 296.2941749472102 622.1400439810523 352.93994624538055 600.0 380.0"/><path class="valley" d="M 600.0 380.0 C 600.0 380.0 600.0 380.0 600.0 380.0"/><path class="valley" d="M 650.0 629.9999999999998 C 770.0 529.9999999999998 726.9999999999999 452.99999999999994 700.0 420.0"/><path class="valley" d="M 800.0 578.3585168910353 C 744.9614692947862 503.7058250527899 777.8599560189477 447.0600537546195 799.9999999999998 420.0"/><path class="valley" d="M 799.9999999999998 420.0 C 799.9999999999999 420.0 799.9999999999999 420.0 800.0 420.0"/><path class="valley" d="M 650.0 629.9999999999998 C 628.4001954713431 612.0001628927857 612.0814953576319 594.7455122981099 600.0 578.3585168910352"/><path class="valley" d="M 700.0 380.0 C 722.5 407.5 730.0 400.0 749.9999999999999 430.0"/><path class="valley" d="M 799.9999999999999 380.0 C 777.4999999999999 407.5 769.9999999999999 400.0 750.0 430.0"/><path class="valley" d="M 750.0 430.0 C 750.0 430.0 750.0 430.0 749.9999999999999 430.0"/><path class="valley" d="M 700.0 420.0 C 677.5 392.5 670.0 400.0 650.0 370.0"/><path class="valley" d="M 600.0 420.0 C 622.5 392.5 630.0 400.0 650.0 370.0"/><path class="valley" d="M 750.0 170.00000000000014 C 690.0 270.0 711.5 347.0 725.0 380.0"/><path class="valley" d="M 750.0 170.00000000000003 C 809.9999999999998 270.0 788.4999999999999 347.0 774.9999999999999 380.0"/><path class="valley" d="M 650.0 630.0000000000001 C 710.0 530.0 688.5 453.0 675.0 420.0"/><path class="valley" d="M 650.0 630.0000000000001 C 590.0 530.0 611.5 453.0 625.0 420.0"/><path class="valley" d="M 725.0 380.0 C 736.25 407.5 740.0 400.0 750.0 429.9999999999997"/><path class="valley" d="M 774.9999999999999 380.0 C 763.7499999999999 407.5 759.9999999999999 400.0 750.0 430.0"/><path class="valley" d="M 750.0 430.0 C 750.0 430.0 750.0 430.0 749.9999999999999 430.0"/><path class="valley" d="M 675.0 420.0 C 663.75 392.5 660.0 400.0 650.0 370.00000000000017"/><path class="valley" d="M 625.0 420.0 C 636.25 392.5 640.0 400.0 650.0 370.00000000000017"/><line class="valley" x1="850.0" y1="0.0" x2="850.0" y2="800.0"/><line class="valley" x1="949.9999999999999" y1="0.0" x2="950.0" y2="800.0"/><line class="valley" x1="900.02" y1="0.0" x2="949.9999999999999" y2="98.13052527525737"/><line class="valley" x1="999.9799999999998" y1="0.0" x2="949.9999999999999" y2="98.13052527525738"/><line class="valley" x1="899.98" y1="800.0" x2="850.0" y2="701.8694747247425"/><line class="valley" x1="850.0" y1="701.8694747247425" x2="800.02" y2="800.0"/><line class="valley" x1="899.98" y1="0.0" x2="850.0" y2="257.2277007985154"/><line class="valley" x1="900.112831128703" y1="0.0" x2="950.0" y2="23.286979591704025"/><line class="valley" x1="999.8871688712968" y1="0.0" x2="950.0" y2="23.28697959170404"/><line class="valley" x1="800.02" y1="0.0" x2="850.0" y2="257.22770079851534"/><line class="valley" x1="950.0" y1="542.7722992014847" x2="900.02" y2="800.0"/><line class="valley" x1="899.8871688712969" y1="800.0" x2="850.0" y2="776.713020408296"/><line class="valley" x1="999.98" y1="800.0" x2="950.0" y2="542.7722992014844"/><line class="valley" x1="850.0" y1="776.713020408296" x2="800.1128311287029" y2="800.0"/><line class="valley" x1="899.98" y1="0.0" x2="850.0" y2="23.315382907749928"/><line class="valley" x1="800.02" y1="0.0" x2="850.0" y2="23.315382907749928"/><line class="valley" x1="950.0" y1="776.6846170922503" x2="900.0200000000002" y2="800.0"/><line class="valley" x1="999.9799999999999" y1="800.0" x2="950.0" y2="776.6846170922502"/><path class="valley" d="M 950.0 98.13052527525765 C 846.0 200.00000000000009 824.0 328.0 900.0 400.0"/><path class="valley" d="M 949.9999999999999 98.13052527525758 C 969.6212602158209 117.34982788701882 986.3237430738876 137.4992425173124 1000.0 158.02721867619357"/><path class="valley" d="M 800.0 158.02721867619334 C 858.8130075080265 246.30517531882649 861.6613867653616 341.58394938018375 800.0 400.0"/><path class="valley" d="M 850.0 701.8694747247425 C 954.0 599.9999999999998 976.0 472.0 900.0 400.0"/><path class="valley" d="M 1000.0 641.9727813238067 C 941.1869924919735 553.6948246811736 938.3386132346384 458.4160506198163 1000.0 400.0"/><path class="valley" d="M 1000.0 400.0 C 1000.0 400.0 1000.0 400.0 1000.0 400.0"/><path class="valley" d="M 850.0 701.8694747247425 C 850.0 701.8694747247425 850.0 701.8694747247425 850.0 701.8694747247425"/><path class="valley" d="M 850.0 701.8694747247425 C 830.3787397841791 682.6501721129812 813.6762569261124 662.5007574826877 800.0 641.9727813238067"/><path class="valley" d="M 949.9999999999999 170.00000000000006 C 830.0 270.0000000000001 873.0 347.0 900.0 380.0"/><path class="valley" d="M 950.0 170.00000000000009 C 971.5998045286569 187.9998371072142 987.9185046423681 205.25448770188999 1000.0 221.6414831089649"/><path class="valley" d="M 999.9999999999999 380.0 C 999.9999999999999 380.0 999.9999999999999 380.0 999.9999999999999 380.0"/><path class="valley" d="M 800.0 221.64148310896474 C 855.0385307052138 296.2941749472102 822.1400439810523 352.93994624538055 800.0 380.0"/><path class="valley" d="M 800.0 380.0 C 800.0 380.0 800.0 380.0 800.0 380.0"/><path class="valley" d="M 850.0 629.9999999999998 C 970.0 529.9999999999998 926.9999999999999 452.99999999999994 900.0 420.0"/><path class="valley" d="M 1000.0 578.3585168910353 C 944.9614692947862 503.7058250527899 977.8599560189477 447.0600537546195 999.9999999999998 420.0"/><path class="valley" d="M 999.9999999999998 420.0 C 999.9999999999999 420.0 999.9999999999999 420.0 1000.0 420.0"/><path class="valley" d="M 850.0 629.9999999999998 C 828.4001954713431 612.0001628927857 812.0814953576319 594.7455122981099 800.0 578.3585168910352"/><path class="valley" d="M 900.0 380.0 C 922.5 407.5 930.0 400.0 949.9999999999999 430.0"/><path class="valley" d="M 999.9999999999999 380.0 C 977.4999999999999 407.5 969.9999999999999 400.0 950.0 430.0"/><path class="valley" d="M 950.0 430.0 C 950.0 430.0 950.0 430.0 949.9999999999999 430.0"/><path class="valley" d="M 900.0 420.0 C 877.5 392.5 870.0 400.0 850.0 370.0"/><path class="valley" d="M 800.0 420.0 C 822.5 392.5 830.0 400.0 850.0 370.0"/><path class="valley" d="M 950.0 170.00000000000014 C 890.0 270.0 911.5 347.0 925.0 380.0"/><path class="valley" d="M 950.0 170.00000000000003 C 1009.9999999999998 270.0 988.4999999999999 347.0 974.9999999999999 380.0"/><path class="valley" d="M 850.0 630.0000000000001 C 910.0 530.0 888.5 453.0 875.0 420.0"/><path class="valley" d="M 850.0 630.0000000000001 C 790.0 530.0 811.5 453.0 825.0 420.0"/><path class="valley" d="M 925.0 380.0 C 936.25 407.5 940.0 400.0 950.0 429.9999999999997"/><path class="valley" d="M 974.9999999999999 380.0 C 963.7499999999999 407.5 959.9999999999999 400.0 950.0 430.0"/><path class="valley" d="M 950.0 430.0 C 950.0 430.0 950.0 430.0 949.9999999999999 430.0"/><path class="valley" d="M 875.0 420.0 C 863.75 392.5 860.0 400.0 850.0 370.00000000000017"/><path class="valley" d="M 825.0 420.0 C 836.25 392.5 840.0 400.0 850.0 370.00000000000017"/><line class="valley" x1="1050.0" y1="0.0" x2="1050.0" y2="800.0"/><line class="valley" x1="1150.0" y1="0.0" x2="1150.0" y2="800.0"/><line class="valley" x1="1100.02" y1="0.0" x2="1150.0" y2="98.13052527525737"/><line class="valley" x1="1199.9799999999998" y1="0.0" x2="1150.0" y2="98.13052527525738"/><line class="valley" x1="1099.98" y1="800.0" x2="1050.0" y2="701.8694747247425"/><line class="valley" x1="1050.0" y1="701.8694747247425" x2="1000.02" y2="800.0"/><line class="valley" x1="1099.98" y1="0.0" x2="1050.0" y2="257.2277007985154"/><line class="valley" x1="1100.112831128703" y1="0.0" x2="1150.0" y2="23.286979591704025"/><line class="valley" x1="1199.8871688712968" y1="0.0" x2="1150.0" y2="23.28697959170404"/><line class="valley" x1="1000.02" y1="0.0" x2="1050.0" y2="257.22770079851534"/><line class="valley" x1="1150.0" y1="542.7722992014847" x2="1100.02" y2="800.0"/><line class="valley" x1="1099.8871688712968" y1="800.0" x2="1050.0" y2="776.713020408296"/><line class="valley" x1="1199.98" y1="800.0" x2="1150.0" y2="542.7722992014844"/><line class="valley" x1="1050.0" y1="776.713020408296" x2="1000.1128311287029" y2="800.0"/><line class="valley" x1="1099.98" y1="0.0" x2="1050.0" y2="23.315382907749928"/><line class="valley" x1="1000.02" y1="0.0" x2="1050.0" y2="23.315382907749928"/><line class="valley" x1="1150.0" y1="776.6846170922503" x2="1100.0200000000002" y2="800.0"/><line class="valley" x1="1199.9799999999998" y1="800.0" x2="1150.0" y2="776.6846170922502"/><path class="valley" d="M 1150.0 98.13052527525765 C 1046.0 200.00000000000009 1024.0 328.0 1100.0 400.0"/><path class="valley" d="M 1150.0 98.13052527525758 C 1169.621260215821 117.34982788701882 1186.3237430738875 137.4992425173124 1200.0 158.02721867619357"/><path class="valley" d="M 1000.0 158.02721867619334 C 1058.8130075080264 246.30517531882649 1061.6613867653616 341.58394938018375 1000.0 400.0"/><path class="valley" d="M 1050.0 701.8694747247425 C 1154.0 599.9999999999998 1176.0 472.0 1100.0 400.0"/><path class="valley" d="M 1200.0 641.9727813238067 C 1141.1869924919733 553.6948246811736 1138.3386132346384 458.4160506198163 1200.0 400.0"/><path class="valley" d="M 1200.0 400.0 C 1200.0 400.0 1200.0 400.0 1200.0 400.0"/><path class="valley" d="M 1050.0 701.8694747247425 C 1050.0 701.8694747247425 1050.0 701.8694747247425 1050.0 701.8694747247425"/><path class="valley" d="M 1050.0 701.8694747247425 C 1030.378739784179 682.6501721129812 1013.6762569261124 662.5007574826877 1000.0 641.9727813238067"/><path class="valley" d="M 1150.0 170.00000000000006 C 1030.0 270.0000000000001 1073.0 347.0 1100.0 380.0"/><path class="valley" d="M 1150.0 170.00000000000009 C 1171.599804528657 187.9998371072142 1187.9185046423681 205.25448770188999 1200.0 221.6414831089649"/><path class="valley" d="M 1200.0 380.0 C 1200.0 380.0 1200.0 380.0 1200.0 380.0"/><path class="valley" d="M 1000.0 221.64148310896474 C 1055.0385307052138 296.2941749472102 1022.1400439810523 352.93994624538055 1000.0 380.0"/><path class="valley" d="M 1000.0 380.0 C 1000.0 380.0 1000.0 380.0 1000.0 380.0"/><path class="valley" d="M 1050.0 629.9999999999998 C 1170.0 529.9999999999998 1127.0 452.99999999999994 1100.0 420.0"/><path class="valley" d="M 1200.0 578.3585168910353 C 1144.9614692947862 503.7058250527899 1177.8599560189477 447.0600537546195 1199.9999999999998 420.0"/><path class="valley" d="M 1199.9999999999998 420.0 C 1199.9999999999998 420.0 1200.0 420.0 1200.0 420.0"/><path class="valley" d="M 1050.0 629.9999999999998 C 1028.400195471343 612.0001628927857 1012.0814953576319 594.7455122981099 1000.0 578.3585168910352"/><path class="valley" d="M 1100.0 380.0 C 1122.5 407.5 1130.0 400.0 1150.0 430.0"/><path class="valley" d="M 1200.0 380.0 C 1177.5 407.5 1170.0 400.0 1150.0 430.0"/><path class="valley" d="M 1150.0 430.0 C 1150.0 430.0 1150.0 430.0 1150.0 430.0"/><path class="valley" d="M 1100.0 420.0 C 1077.5 392.5 1070.0 400.0 1050.0 370.0"/><path class="valley" d="M 1000.0 420.0 C 1022.5 392.5 1030.0 400.0 1050.0 370.0"/><path class="valley" d="M 1150.0 170.00000000000014 C 1090.0 270.0 1111.5 347.0 1125.0 380.0"/><path class="valley" d="M 1150.0 170.00000000000003 C 1209.9999999999998 270.0 1188.4999999999998 347.0 1175.0 380.0"/><path class="valley" d="M 1050.0 630.0000000000001 C 1110.0 530.0 1088.5 453.0 1075.0 420.0"/><path class="valley" d="M 1050.0 630.0000000000001 C 990.0 530.0 1011.5 453.0 1025.0 420.0"/><path class="valley" d="M 1125.0 380.0 C 1136.25 407.5 1140.0 400.0 1150.0 429.9999999999997"/><path class="valley" d="M 1175.0 380.0 C 1163.75 407.5 1160.0 400.0 1150.0 430.0"/><path class="valley" d="M 1150.0 430.0 C 1150.0 430.0 1150.0 430.0 1150.0 430.0"/><path class="valley" d="M 1075.0 420.0 C 1063.75 392.5 1060.0 400.0 1050.0 370.00000000000017"/><path class="valley" d="M 1025.0 420.0 C 1036.25 392.5 1040.0 400.0 1050.0 370.00000000000017"/></svg>