<svg xmlns="http://www.w3.org/2000/svg" width="1200" height="715.6347083926031"><style >
.valley {stroke: #00f; stroke-width: 2px; fill:none}
.mountain {stroke: #f00; stroke-width: 2px; fill:none }
.cut {stroke: #000; stroke-width: 3px; fill:none } 
.hint {stroke: #000; stroke-width: 1px; fill:none } 
</style><rect class="cut" x="0" y="0" width="1200" height="715.6347083926031"/><line class="cut" x1="200" y1="0" x2="200" y2="715.6347083926031"/><line class="cut" x1="400" y1="0" x2="400" y2="715.6347083926031"/><line class="cut" x1="600" y1="0" x2="600" y2="715.6347083926031"/><line class="cut" x1="800" y1="0" x2="800" y2="715.6347083926031"/><line class="cut" x1="1000" y1="0" x2="1000" y2="715.6347083926031"/><line class="valley" x1="42.106401137980086" y1="0.0" x2="52.630440967283086" y2="715.6347083926031"/><line class="valley" x1="147.3695590327169" y1="0.0" x2="157.89359886201999" y2="715.634708392603"/><line class="valley" x1="94.7591915916208" y1="0.0" x2="148.87689916784467" y2="102.49912918868638"/><line class="valley" x1="199.19767968027097" y1="0.0" x2="148.87689916784467" y2="102.4991291886862"/><line class="valley" x1="105.24080840837927" y1="715.634708392603" x2="51.12310083215533" y2="613.1355792039167"/><line class="valley" x1="51.123100832155345" y1="613.1355792039169" x2="0.802320319728921" y2="715.6347083926031"/><line class="valley" x1="94.7169320056899" y1="0.0003095305832118145" x2="46.098772951191826" y2="271.4812832983977"/><line class="valley" x1="94.86061313577409" y1="3.382710778154774e-15" x2="147.71858085057997" y2="23.733483614688915"/><line class="valley" x1="196.6710605867996" y1="-1.0408340855860843e-14" x2="147.71858085057997" y2="23.733483614688705"/><line class="valley" x1="4.163336342344337e-15" y1="51.552122100552154" x2="46.09877295119181" y2="271.4812832983978"/><line class="valley" x1="105.28306799431016" y1="715.6343988620199" x2="153.90122704880818" y2="444.1534250942054"/><line class="valley" x1="105.13938686422564" y1="715.6347083926029" x2="52.281419149419975" y2="691.9012247779142"/><line class="valley" x1="200.00000000000006" y1="664.0825862920507" x2="153.90122704880832" y2="444.15342509420555"/><line class="valley" x1="3.3289394131998753" y1="715.6347083926031" x2="52.28141914942005" y2="691.9012247779142"/><line class="valley" x1="94.7169320056899" y1="0.0003095305832118145" x2="42.47862214229917" y2="25.311028293698012"/><line class="valley" x1="0.0" y1="6.250440316798427" x2="42.47862214229916" y2="25.31102829369802"/><line class="valley" x1="105.28306799431016" y1="715.6343988620199" x2="157.52137785770083" y2="690.3236800989051"/><line class="valley" x1="199.99999999999994" y1="709.3842680758046" x2="157.52137785770094" y2="690.3236800989051"/><path class="valley" d="M 148.87689916784467 102.49912918868638 C 63.5372972972973 168.87988620199147 27.32221906116643 283.0966714082504 100.0 357.81735419630155"/><path class="valley" d="M 148.87689916784467 102.49912918868623 C 168.59280743431194 116.92489272971136 185.87346198653174 133.8657238229362 199.99999999999994 152.33480262610829"/><path class="valley" d="M 3.3306690738754696e-14 170.30530498005257 C 37.850469557226454 228.84564890670936 44.63715388981107 299.17370027247665 1.2906342661267445e-13 353.3401708367816"/><path class="valley" d="M 51.123100832155366 613.1355792039167 C 136.46270270270273 546.7548221906115 172.6777809388336 432.53803698435274 100.0 357.81735419630155"/><path class="valley" d="M 200.00000000000006 545.3294034125504 C 162.14953044277362 486.78905948589363 155.362846110189 416.46100812012656 199.9999999999998 362.2945375558216"/><path class="valley" d="M 51.12310083215532 613.1355792039169 C 31.407192565688014 598.7098156628917 14.126538013468231 581.7689845696668 2.7755575615628914e-15 563.2999057664947"/><path class="valley" d="M 149.65072562588165 155.1193283352013 C 66.26116642958748 210.9450924608819 80.40671408250356 313.89496443812226 99.6904694167852 336.76927453769554"/><path class="valley" d="M 149.65072562588162 155.11932833520117 C 173.163184669629 169.87757575083626 189.32094998682638 188.4599602258599 200.0 208.1173618468866"/><path class="valley" d="M 2.0816681711721685e-15 235.67971227929155 C 11.87355937443032 272.28718654535385 8.082800750971073 308.73111819955324 -3.243932900076629e-14 328.34620359001127"/><path class="valley" d="M 50.34927437411838 560.5153800574018 C 133.73883357041254 504.6896159317212 119.59328591749644 401.73974395448084 100.3095305832148 378.8654338549075"/><path class="valley" d="M 200.0 479.95499611331144 C 188.1264406255698 443.34752184724937 191.91719924902898 406.90359019305015 200.0 387.288504802592"/><path class="valley" d="M 50.34927437411834 560.5153800574019 C 26.83681533037102 545.7571326417668 10.679050013173622 527.174748166743 -1.3877787807814457e-14 507.5173465457164"/><path class="valley" d="M 99.6904694167852 336.76927453769554 C 123.79516358463727 365.3621621621621 138.19607396870555 378.3082788051209 153.08449502133712 388.61564722617356"/><path class="valley" d="M 199.99999999999997 341.3647076395608 C 179.6359019120831 366.4410173939333 166.60305416825724 378.6561142665529 153.08449502133718 388.61564722617345"/><path class="valley" d="M 153.08449502133718 388.61564722617345 C 153.08449502133718 388.61564722617345 153.08449502133718 388.61564722617345 153.08449502133718 388.61564722617345"/><path class="valley" d="M 100.3095305832148 378.8654338549075 C 76.20483641536273 350.272546230441 61.803926031294445 337.32642958748215 46.91550497866288 327.01906116642954"/><path class="valley" d="M -6.938893903907228e-16 374.2700007530423 C 20.36409808791692 349.1936909986698 33.396945831742805 336.97859412605015 46.91550497866287 327.0190611664296"/><path class="valley" d="M 149.65072562588165 155.1193283352013 C 108.35732574679943 210.32603129445232 116.18844950213372 313.3687624466571 126.00056899004268 336.38236130867705"/><path class="valley" d="M 149.65072562588162 155.11932833520117 C 149.65072562588165 155.11932833520117 149.65072562588168 155.11932833520117 149.65072562588168 155.11932833520117"/><path class="valley" d="M 149.65072562588168 155.11932833520117 C 192.54964438122332 209.08790896159312 187.75192034139405 312.3163584637267 178.62076813655761 335.60853485063996"/><path class="valley" d="M 50.34927437411838 560.5153800574018 C 91.64267425320058 505.3086770981507 83.8115504978663 402.265945945946 73.99943100995733 379.252347083926"/><path class="valley" d="M 50.34927437411834 560.5153800574019 C 7.45035561877666 506.5467994310101 12.24807965860597 403.31834992887633 21.37923186344238 380.0261735419631"/><path class="valley" d="M 126.00056899004268 336.38236130867705 C 138.26571834992887 365.1493598862019 145.56290184921764 378.1999431009957 153.08449502133712 388.61564722617356"/><path class="valley" d="M 178.62076813655761 335.60853485063996 C 167.20682788051212 364.72375533428146 160.29655761024188 377.9832716927453 153.08449502133718 388.6156472261733"/><path class="valley" d="M 153.08449502133718 388.6156472261733 C 153.08449502133718 388.61564722617334 153.08449502133718 388.6156472261734 153.08449502133718 388.61564722617345"/><path class="valley" d="M 73.99943100995733 379.252347083926 C 61.73428165007113 350.4853485064011 54.43709815078235 337.43476529160745 46.91550497866288 327.01906116642954"/><path class="valley" d="M 46.91550497866288 327.01906116642954 C 46.91550497866288 327.01906116642954 46.91550497866288 327.01906116642954 46.91550497866288 327.01906116642954"/><path class="valley" d="M 21.37923186344238 380.0261735419631 C 32.79317211948791 350.9109530583216 39.703442389758195 337.65143669985775 46.91550497866287 327.0190611664296"/><path class="valley" d="M 46.91550497866287 327.0190611664296 C 46.91550497866287 327.0190611664296 46.91550497866287 327.0190611664296 46.91550497866287 327.0190611664296"/><line class="valley" x1="242.10640113798007" y1="0.0" x2="252.63044096728308" y2="715.6347083926031"/><line class="valley" x1="347.3695590327169" y1="0.0" x2="357.89359886202" y2="715.634708392603"/><line class="valley" x1="294.75919159162083" y1="0.0" x2="348.87689916784467" y2="102.49912918868638"/><line class="valley" x1="399.197679680271" y1="0.0" x2="348.87689916784467" y2="102.4991291886862"/><line class="valley" x1="305.2408084083793" y1="715.634708392603" x2="251.12310083215533" y2="613.1355792039167"/><line class="valley" x1="251.12310083215533" y1="613.1355792039169" x2="200.80232031972892" y2="715.6347083926031"/><line class="valley" x1="294.7169320056899" y1="0.0003095305832118145" x2="246.09877295119182" y2="271.4812832983977"/><line class="valley" x1="294.8606131357741" y1="3.382710778154774e-15" x2="347.71858085058" y2="23.733483614688915"/><line class="valley" x1="396.6710605867996" y1="-1.0408340855860843e-14" x2="347.71858085058" y2="23.733483614688705"/><line class="valley" x1="200.0" y1="51.552122100552154" x2="246.09877295119182" y2="271.4812832983978"/><line class="valley" x1="305.28306799431016" y1="715.6343988620199" x2="353.9012270488082" y2="444.1534250942054"/><line class="valley" x1="305.1393868642256" y1="715.6347083926029" x2="252.28141914941997" y2="691.9012247779142"/><line class="valley" x1="400.00000000000006" y1="664.0825862920507" x2="353.9012270488083" y2="444.15342509420555"/><line class="valley" x1="203.32893941319986" y1="715.6347083926031" x2="252.28141914942006" y2="691.9012247779142"/><line class="valley" x1="294.7169320056899" y1="0.0003095305832118145" x2="242.47862214229917" y2="25.311028293698012"/><line class="valley" x1="200.0" y1="6.250440316798427" x2="242.47862214229917" y2="25.31102829369802"/><line class="valley" x1="305.28306799431016" y1="715.6343988620199" x2="357.5213778577008" y2="690.3236800989051"/><line class="valley" x1="399.99999999999994" y1="709.3842680758046" x2="357.52137785770094" y2="690.3236800989051"/><path class="valley" d="M 348.87689916784467 102.49912918868638 C 263.5372972972973 168.87988620199147 227.32221906116644 283.0966714082504 300.0 357.81735419630155"/><path class="valley" d="M 348.87689916784467 102.49912918868623 C 368.5928074343119 116.92489272971136 385.87346198653177 133.8657238229362 399.99999999999994 152.33480262610829"/><path class="valley" d="M 200.00000000000003 170.30530498005257 C 237.85046955722646 228.84564890670936 244.63715388981106 299.17370027247665 200.00000000000014 353.3401708367816"/><path class="valley" d="M 251.12310083215536 613.1355792039167 C 336.4627027027027 546.7548221906115 372.6777809388336 432.53803698435274 300.0 357.81735419630155"/><path class="valley" d="M 400.00000000000006 545.3294034125504 C 362.14953044277365 486.78905948589363 355.362846110189 416.46100812012656 399.9999999999998 362.2945375558216"/><path class="valley" d="M 251.12310083215533 613.1355792039169 C 231.407192565688 598.7098156628917 214.12653801346823 581.7689845696668 200.0 563.2999057664947"/><path class="valley" d="M 349.65072562588165 155.1193283352013 C 266.2611664295875 210.9450924608819 280.4067140825035 313.89496443812226 299.6904694167852 336.76927453769554"/><path class="valley" d="M 349.6507256258816 155.11932833520117 C 373.163184669629 169.87757575083626 389.32094998682635 188.4599602258599 400.0 208.1173618468866"/><path class="valley" d="M 200.0 235.67971227929155 C 211.87355937443033 272.28718654535385 208.08280075097107 308.73111819955324 199.99999999999997 328.34620359001127"/><path class="valley" d="M 250.34927437411838 560.5153800574018 C 333.73883357041257 504.6896159317212 319.5932859174965 401.73974395448084 300.3095305832148 378.8654338549075"/><path class="valley" d="M 400.0 479.95499611331144 C 388.1264406255698 443.34752184724937 391.91719924902895 406.90359019305015 400.0 387.288504802592"/><path class="valley" d="M 250.34927437411835 560.5153800574019 C 226.83681533037102 545.7571326417668 210.67905001317362 527.174748166743 200.0 507.5173465457164"/><path class="valley" d="M 299.6904694167852 336.76927453769554 C 323.7951635846373 365.3621621621621 338.19607396870555 378.3082788051209 353.08449502133715 388.61564722617356"/><path class="valley" d="M 400.0 341.3647076395608 C 379.6359019120831 366.4410173939333 366.60305416825724 378.6561142665529 353.08449502133715 388.61564722617345"/><path class="valley" d="M 353.08449502133715 388.61564722617345 C 353.08449502133715 388.61564722617345 353.08449502133715 388.61564722617345 353.08449502133715 388.61564722617345"/><path class="valley" d="M 300.3095305832148 378.8654338549075 C 276.2048364153627 350.272546230441 261.80392603129445 337.32642958748215 246.91550497866288 327.01906116642954"/><path class="valley" d="M 200.0 374.2700007530423 C 220.36409808791691 349.1936909986698 233.3969458317428 336.97859412605015 246.91550497866285 327.0190611664296"/><path class="valley" d="M 349.65072562588165 155.1193283352013 C 308.35732574679946 210.32603129445232 316.1884495021337 313.3687624466571 326.00056899004267 336.38236130867705"/><path class="valley" d="M 349.6507256258816 155.11932833520117 C 349.65072562588165 155.11932833520117 349.6507256258817 155.11932833520117 349.6507256258817 155.11932833520117"/><path class="valley" d="M 349.6507256258817 155.11932833520117 C 392.5496443812233 209.08790896159312 387.75192034139405 312.3163584637267 378.6207681365576 335.60853485063996"/><path class="valley" d="M 250.34927437411838 560.5153800574018 C 291.6426742532006 505.3086770981507 283.8115504978663 402.265945945946 273.99943100995733 379.252347083926"/><path class="valley" d="M 250.34927437411835 560.5153800574019 C 207.45035561877665 506.5467994310101 212.24807965860597 403.31834992887633 221.37923186344239 380.0261735419631"/><path class="valley" d="M 326.00056899004267 336.38236130867705 C 338.2657183499289 365.1493598862019 345.5629018492176 378.1999431009957 353.08449502133715 388.61564722617356"/><path class="valley" d="M 378.6207681365576 335.60853485063996 C 367.20682788051215 364.72375533428146 360.29655761024185 377.9832716927453 353.08449502133715 388.6156472261733"/><path class="valley" d="M 353.08449502133715 388.6156472261733 C 353.08449502133715 388.61564722617334 353.08449502133715 388.6156472261734 353.08449502133715 388.61564722617345"/><path class="valley" d="M 273.99943100995733 379.252347083926 C 261.7342816500711 350.4853485064011 254.43709815078233 337.43476529160745 246.91550497866288 327.01906116642954"/><path class="valley" d="M 246.91550497866288 327.01906116642954 C 246.91550497866288 327.01906116642954 246.91550497866288 327.01906116642954 246.91550497866288 327.01906116642954"/><path class="valley" d="M 221.37923186344239 380.0261735419631 C 232.7931721194879 350.9109530583216 239.7034423897582 337.65143669985775 246.91550497866285 327.0190611664296"/><path class="valley" d="M 246.91550497866285 327.0190611664296 C 246.91550497866285 327.0190611664296 246.91550497866285 327.0190611664296 246.91550497866285 327.0190611664296"/><line class="valley" x1="442.1064011379801" y1="0.0" x2="452.6304409672831" y2="715.6347083926031"/><line class="valley" x1="547.3695590327169" y1="0.0" x2="557.89359886202" y2="715.634708392603"/><line class="valley" x1="494.75919159162083" y1="0.0" x2="548.8768991678446" y2="102.49912918868638"/><line class="valley" x1="599.197679680271" y1="0.0" x2="548.8768991678446" y2="102.4991291886862"/><line class="valley" x1="505.2408084083793" y1="715.634708392603" x2="451.12310083215533" y2="613.1355792039167"/><line class="valley" x1="451.12310083215533" y1="613.1355792039169" x2="400.80232031972895" y2="715.6347083926031"/><line class="valley" x1="494.7169320056899" y1="0.0003095305832118145" x2="446.09877295119185" y2="271.4812832983977"/><line class="valley" x1="494.8606131357741" y1="3.382710778154774e-15" x2="547.71858085058" y2="23.733483614688915"/><line class="valley" x1="596.6710605867996" y1="-1.0408340855860843e-14" x2="547.71858085058" y2="23.733483614688705"/><line class="valley" x1="400.0" y1="51.552122100552154" x2="446.0987729511918" y2="271.4812832983978"/><line class="valley" x1="505.28306799431016" y1="715.6343988620199" x2="553.9012270488082" y2="444.1534250942054"/><line class="valley" x1="505.1393868642256" y1="715.6347083926029" x2="452.28141914942" y2="691.9012247779142"/><line class="valley" x1="600.0" y1="664.0825862920507" x2="553.9012270488083" y2="444.15342509420555"/><line class="valley" x1="403.32893941319986" y1="715.6347083926031" x2="452.28141914942006" y2="691.9012247779142"/><line class="valley" x1="494.7169320056899" y1="0.0003095305832118145" x2="442.4786221422992" y2="25.311028293698012"/><line class="valley" x1="400.0" y1="6.250440316798427" x2="442.4786221422992" y2="25.31102829369802"/><line class="valley" x1="505.28306799431016" y1="715.6343988620199" x2="557.5213778577008" y2="690.3236800989051"/><line class="valley" x1="600.0" y1="709.3842680758046" x2="557.5213778577009" y2="690.3236800989051"/><path class="valley" d="M 548.8768991678446 102.49912918868638 C 463.5372972972973 168.87988620199147 427.32221906116644 283.0966714082504 500.0 357.81735419630155"/><path class="valley" d="M 548.8768991678446 102.49912918868623 C 568.5928074343119 116.92489272971136 585.8734619865318 133.8657238229362 600.0 152.33480262610829"/><path class="valley" d="M 400.00000000000006 170.30530498005257 C 437.85046955722646 228.84564890670936 444.6371538898111 299.17370027247665 400.0000000000001 353.3401708367816"/><path class="valley" d="M 451.1231008321554 613.1355792039167 C 536.4627027027027 546.7548221906115 572.6777809388336 432.53803698435274 500.0 357.81735419630155"/><path class="valley" d="M 600.0 545.3294034125504 C 562.1495304427737 486.78905948589363 555.362846110189 416.46100812012656 599.9999999999998 362.2945375558216"/><path class="valley" d="M 451.12310083215533 613.1355792039169 C 431.40719256568804 598.7098156628917 414.12653801346823 581.7689845696668 400.0 563.2999057664947"/><path class="valley" d="M 549.6507256258817 155.1193283352013 C 466.2611664295875 210.9450924608819 480.4067140825035 313.89496443812226 499.6904694167852 336.76927453769554"/><path class="valley" d="M 549.6507256258816 155.11932833520117 C 573.163184669629 169.87757575083626 589.3209499868263 188.4599602258599 600.0 208.1173618468866"/><path class="valley" d="M 400.0 235.67971227929155 C 411.87355937443033 272.28718654535385 408.08280075097105 308.73111819955324 399.99999999999994 328.34620359001127"/><path class="valley" d="M 450.3492743741184 560.5153800574018 C 533.7388335704126 504.6896159317212 519.5932859174965 401.73974395448084 500.3095305832148 378.8654338549075"/><path class="valley" d="M 600.0 479.95499611331144 C 588.1264406255698 443.34752184724937 591.917199249029 406.90359019305015 600.0 387.288504802592"/><path class="valley" d="M 450.34927437411835 560.5153800574019 C 426.836815330371 545.7571326417668 410.67905001317365 527.174748166743 400.0 507.5173465457164"/><path class="valley" d="M 499.6904694167852 336.76927453769554 C 523.7951635846373 365.3621621621621 538.1960739687056 378.3082788051209 553.0844950213371 388.61564722617356"/><path class="valley" d="M 600.0 341.3647076395608 C 579.6359019120831 366.4410173939333 566.6030541682572 378.6561142665529 553.0844950213371 388.61564722617345"/><path class="valley" d="M 553.0844950213371 388.61564722617345 C 553.0844950213371 388.61564722617345 553.0844950213371 388.61564722617345 553.0844950213371 388.61564722617345"/><path class="valley" d="M 500.3095305832148 378.8654338549075 C 476.2048364153627 350.272546230441 461.80392603129445 337.32642958748215 446.91550497866285 327.01906116642954"/><path class="valley" d="M 400.0 374.2700007530423 C 420.36409808791694 349.1936909986698 433.3969458317428 336.97859412605015 446.91550497866285 327.0190611664296"/><path class="valley" d="M 549.6507256258817 155.1193283352013 C 508.35732574679946 210.32603129445232 516.1884495021337 313.3687624466571 526.0005689900427 336.38236130867705"/><path class="valley" d="M 549.6507256258816 155.11932833520117 C 549.6507256258817 155.11932833520117 549.6507256258817 155.11932833520117 549.6507256258817 155.11932833520117"/><path class="valley" d="M 549.6507256258817 155.11932833520117 C 592.5496443812233 209.08790896159312 587.751920341394 312.3163584637267 578.6207681365577 335.60853485063996"/><path class="valley" d="M 450.3492743741184 560.5153800574018 C 491.6426742532006 505.3086770981507 483.8115504978663 402.265945945946 473.99943100995733 379.252347083926"/><path class="valley" d="M 450.34927437411835 560.5153800574019 C 407.45035561877665 506.5467994310101 412.24807965860595 403.31834992887633 421.3792318634424 380.0261735419631"/><path class="valley" d="M 526.0005689900427 336.38236130867705 C 538.2657183499289 365.1493598862019 545.5629018492176 378.1999431009957 553.0844950213371 388.61564722617356"/><path class="valley" d="M 578.6207681365577 335.60853485063996 C 567.2068278805122 364.72375533428146 560.2965576102418 377.9832716927453 553.0844950213371 388.6156472261733"/><path class="valley" d="M 553.0844950213371 388.6156472261733 C 553.0844950213371 388.61564722617334 553.0844950213371 388.6156472261734 553.0844950213371 388.61564722617345"/><path class="valley" d="M 473.99943100995733 379.252347083926 C 461.7342816500711 350.4853485064011 454.43709815078233 337.43476529160745 446.91550497866285 327.01906116642954"/><path class="valley" d="M 446.91550497866285 327.01906116642954 C 446.91550497866285 327.01906116642954 446.91550497866285 327.01906116642954 446.91550497866285 327.01906116642954"/><path class="valley" d="M 421.3792318634424 380.0261735419631 C 432.7931721194879 350.9109530583216 439.7034423897582 337.65143669985775 446.91550497866285 327.0190611664296"/><path class="valley" d="M 446.91550497866285 327.0190611664296 C 446.91550497866285 327.0190611664296 446.91550497866285 327.0190611664296 446.91550497866285 327.0190611664296"/><line class="valley" x1="642.1064011379801" y1="0.0" x2="652.6304409672831" y2="715.6347083926031"/><line class="valley" x1="747.3695590327169" y1="0.0" x2="757.89359886202" y2="715.634708392603"/><line class="valley" x1="694.7591915916208" y1="0.0" x2="748.8768991678446" y2="102.49912918868638"/><line class="valley" x1="799.197679680271" y1="0.0" x2="748.8768991678446" y2="102.4991291886862"/><line class="valley" x1="705.2408084083793" y1="715.634708392603" x2="651.1231008321554" y2="613.1355792039167"/><line class="valley" x1="651.1231008321554" y1="613.1355792039169" x2="600.8023203197289" y2="715.6347083926031"/><line class="valley" x1="694.7169320056898" y1="0.0003095305832118145" x2="646.0987729511918" y2="271.4812832983977"/><line class="valley" x1="694.8606131357741" y1="3.382710778154774e-15" x2="747.71858085058" y2="23.733483614688915"/><line class="valley" x1="796.6710605867996" y1="-1.0408340855860843e-14" x2="747.71858085058" y2="23.733483614688705"/><line class="valley" x1="600.0" y1="51.552122100552154" x2="646.0987729511918" y2="271.4812832983978"/><line class="valley" x1="705.2830679943102" y1="715.6343988620199" x2="753.9012270488082" y2="444.1534250942054"/><line class="valley" x1="705.1393868642257" y1="715.6347083926029" x2="652.28141914942" y2="691.9012247779142"/><line class="valley" x1="800.0" y1="664.0825862920507" x2="753.9012270488083" y2="444.15342509420555"/><line class="valley" x1="603.3289394131999" y1="715.6347083926031" x2="652.28141914942" y2="691.9012247779142"/><line class="valley" x1="694.7169320056898" y1="0.0003095305832118145" x2="642.4786221422992" y2="25.311028293698012"/><line class="valley" x1="600.0" y1="6.250440316798427" x2="642.4786221422992" y2="25.31102829369802"/><line class="valley" x1="705.2830679943102" y1="715.6343988620199" x2="757.5213778577008" y2="690.3236800989051"/><line class="valley" x1="800.0" y1="709.3842680758046" x2="757.5213778577009" y2="690.3236800989051"/><path class="valley" d="M 748.8768991678446 102.49912918868638 C 663.5372972972973 168.87988620199147 627.3222190611664 283.0966714082504 700.0 357.81735419630155"/><path class="valley" d="M 748.8768991678446 102.49912918868623 C 768.5928074343119 116.92489272971136 785.8734619865318 133.8657238229362 800.0 152.33480262610829"/><path class="valley" d="M 600.0 170.30530498005257 C 637.8504695572265 228.84564890670936 644.6371538898111 299.17370027247665 600.0000000000001 353.3401708367816"/><path class="valley" d="M 651.1231008321554 613.1355792039167 C 736.4627027027027 546.7548221906115 772.6777809388336 432.53803698435274 700.0 357.81735419630155"/><path class="valley" d="M 800.0 545.3294034125504 C 762.1495304427737 486.78905948589363 755.362846110189 416.46100812012656 799.9999999999998 362.2945375558216"/><path class="valley" d="M 651.1231008321553 613.1355792039169 C 631.407192565688 598.7098156628917 614.1265380134682 581.7689845696668 600.0 563.2999057664947"/><path class="valley" d="M 749.6507256258817 155.1193283352013 C 666.2611664295874 210.9450924608819 680.4067140825035 313.89496443812226 699.6904694167852 336.76927453769554"/><path class="valley" d="M 749.6507256258816 155.11932833520117 C 773.163184669629 169.87757575083626 789.3209499868263 188.4599602258599 800.0 208.1173618468866"/><path class="valley" d="M 600.0 235.67971227929155 C 611.8735593744303 272.28718654535385 608.082800750971 308.73111819955324 600.0 328.34620359001127"/><path class="valley" d="M 650.3492743741184 560.5153800574018 C 733.7388335704126 504.6896159317212 719.5932859174965 401.73974395448084 700.3095305832148 378.8654338549075"/><path class="valley" d="M 800.0 479.95499611331144 C 788.1264406255698 443.34752184724937 791.917199249029 406.90359019305015 800.0 387.288504802592"/><path class="valley" d="M 650.3492743741183 560.5153800574019 C 626.836815330371 545.7571326417668 610.6790500131737 527.174748166743 600.0 507.5173465457164"/><path class="valley" d="M 699.6904694167852 336.76927453769554 C 723.7951635846373 365.3621621621621 738.1960739687056 378.3082788051209 753.0844950213371 388.61564722617356"/><path class="valley" d="M 800.0 341.3647076395608 C 779.6359019120831 366.4410173939333 766.6030541682572 378.6561142665529 753.0844950213371 388.61564722617345"/><path class="valley" d="M 753.0844950213371 388.61564722617345 C 753.0844950213371 388.61564722617345 753.0844950213371 388.61564722617345 753.0844950213371 388.61564722617345"/><path class="valley" d="M 700.3095305832148 378.8654338549075 C 676.2048364153627 350.272546230441 661.8039260312944 337.32642958748215 646.9155049786629 327.01906116642954"/><path class="valley" d="M 600.0 374.2700007530423 C 620.3640980879169 349.1936909986698 633.3969458317428 336.97859412605015 646.9155049786629 327.0190611664296"/><path class="valley" d="M 749.6507256258817 155.1193283352013 C 708.3573257467995 210.32603129445232 716.1884495021337 313.3687624466571 726.0005689900427 336.38236130867705"/><path class="valley" d="M 749.6507256258816 155.11932833520117 C 749.6507256258817 155.11932833520117 749.6507256258817 155.11932833520117 749.6507256258817 155.11932833520117"/><path class="valley" d="M 749.6507256258817 155.11932833520117 C 792.5496443812233 209.08790896159312 787.751920341394 312.3163584637267 778.6207681365577 335.60853485063996"/><path class="valley" d="M 650.3492743741184 560.5153800574018 C 691.6426742532005 505.3086770981507 683.8115504978663 402.265945945946 673.9994310099573 379.252347083926"/><path class="valley" d="M 650.3492743741183 560.5153800574019 C 607.4503556187767 506.5467994310101 612.248079658606 403.31834992887633 621.3792318634423 380.0261735419631"/><path class="valley" d="M 726.0005689900427 336.38236130867705 C 738.2657183499289 365.1493598862019 745.5629018492176 378.1999431009957 753.0844950213371 388.61564722617356"/><path class="valley" d="M 778.6207681365577 335.60853485063996 C 767.2068278805122 364.72375533428146 760.2965576102418 377.9832716927453 753.0844950213371 388.6156472261733"/><path class="valley" d="M 753.0844950213371 388.6156472261733 C 753.0844950213371 388.61564722617334 753.0844950213371 388.6156472261734 753.0844950213371 388.61564722617345"/><path class="valley" d="M 673.9994310099573 379.252347083926 C 661.7342816500711 350.4853485064011 654.4370981507824 337.43476529160745 646.9155049786629 327.01906116642954"/><path class="valley" d="M 646.9155049786629 327.01906116642954 C 646.9155049786629 327.01906116642954 646.9155049786629 327.01906116642954 646.9155049786629 327.01906116642954"/><path class="valley" d="M 621.3792318634423 380.0261735419631 C 632.793172119488 350.9109530583216 639.7034423897582 337.65143669985775 646.9155049786629 327.0190611664296"/><path class="valley" d="M 646.9155049786629 327.0190611664296 C 646.9155049786629 327.0190611664296 646.9155049786629 327.0190611664296 646.9155049786629 327.0190611664296"/><line class="valley" x1="842.1064011379801" y1="0.0" x2="852.6304409672831" y2="715.6347083926031"/><line class="valley" x1="947.3695590327169" y1="0.0" x2="957.89359886202" y2="715.634708392603"/><line class="valley" x1="894.7591915916208" y1="0.0" x2="948.8768991678446" y2="102.49912918868638"/><line class="valley" x1="999.197679680271" y1="0.0" x2="948.8768991678446" y2="102.4991291886862"/><line class="valley" x1="905.2408084083793" y1="715.634708392603" x2="851.1231008321554" y2="613.1355792039167"/><line class="valley" x1="851.1231008321554" y1="613.1355792039169" x2="800.8023203197289" y2="715.6347083926031"/><line class="valley" x1="894.7169320056898" y1="0.0003095305832118145" x2="846.0987729511918" y2="271.4812832983977"/><line class="valley" x1="894.8606131357741" y1="3.382710778154774e-15" x2="947.71858085058" y2="23.733483614688915"/><line class="valley" x1="996.6710605867996" y1="-1.0408340855860843e-14" x2="947.71858085058" y2="23.733483614688705"/><line class="valley" x1="800.0" y1="51.552122100552154" x2="846.0987729511918" y2="271.4812832983978"/><line class="valley" x1="905.2830679943102" y1="715.6343988620199" x2="953.9012270488082" y2="444.1534250942054"/><line class="valley" x1="905.1393868642257" y1="715.6347083926029" x2="852.28141914942" y2="691.9012247779142"/><line class="valley" x1="1000.0" y1="664.0825862920507" x2="953.9012270488083" y2="444.15342509420555"/><line class="valley" x1="803.3289394131999" y1="715.6347083926031" x2="852.28141914942" y2="691.9012247779142"/><line class="valley" x1="894.7169320056898" y1="0.0003095305832118145" x2="842.4786221422992" y2="25.311028293698012"/><line class="valley" x1="800.0" y1="6.250440316798427" x2="842.4786221422992" y2="25.31102829369802"/><line class="valley" x1="905.2830679943102" y1="715.6343988620199" x2="957.5213778577008" y2="690.3236800989051"/><line class="valley" x1="1000.0" y1="709.3842680758046" x2="957.5213778577009" y2="690.3236800989051"/><path class="valley" d="M 948.8768991678446 102.49912918868638 C 863.5372972972973 168.87988620199147 827.3222190611664 283.0966714082504 900.0 357.81735419630155"/><path class="valley" d="M 948.8768991678446 102.49912918868623 C 968.5928074343119 116.92489272971136 985.8734619865318 133.8657238229362 1000.0 152.33480262610829"/><path class="valley" d="M 800.0 170.30530498005257 C 837.8504695572265 228.84564890670936 844.6371538898111 299.17370027247665 800.0000000000001 353.3401708367816"/><path class="valley" d="M 851.1231008321554 613.1355792039167 C 936.4627027027027 546.7548221906115 972.6777809388336 432.53803698435274 900.0 357.81735419630155"/><path class="valley" d="M 1000.0 545.3294034125504 C 962.1495304427737 486.78905948589363 955.362846110189 416.46100812012656 999.9999999999998 362.2945375558216"/><path class="valley" d="M 851.1231008321553 613.1355792039169 C 831.407192565688 598.7098156628917 814.1265380134682 581.7689845696668 800.0 563.2999057664947"/><path class="valley" d="M 949.6507256258817 155.1193283352013 C 866.2611664295874 210.9450924608819 880.4067140825035 313.89496443812226 899.6904694167852 336.76927453769554"/><path class="valley" d="M 949.6507256258816 155.11932833520117 C 973.163184669629 169.87757575083626 989.3209499868263 188.4599602258599 1000.0 208.1173618468866"/><path class="valley" d="M 800.0 235.67971227929155 C 811.8735593744303 272.28718654535385 808.082800750971 308.73111819955324 800.0 328.34620359001127"/><path class="valley" d="M 850.3492743741184 560.5153800574018 C 933.7388335704126 504.6896159317212 919.5932859174965 401.73974395448084 900.3095305832148 378.8654338549075"/><path class="valley" d="M 1000.0 479.95499611331144 C 988.1264406255698 443.34752184724937 991.917199249029 406.90359019305015 1000.0 387.288504802592"/><path class="valley" d="M 850.3492743741183 560.5153800574019 C 826.836815330371 545.7571326417668 810.6790500131737 527.174748166743 800.0 507.5173465457164"/><path class="valley" d="M 899.6904694167852 336.76927453769554 C 923.7951635846373 365.3621621621621 938.1960739687056 378.3082788051209 953.0844950213371 388.61564722617356"/><path class="valley" d="M 1000.0 341.3647076395608 C 979.6359019120831 366.4410173939333 966.6030541682572 378.6561142665529 953.0844950213371 388.61564722617345"/><path class="valley" d="M 953.0844950213371 388.61564722617345 C 953.0844950213371 388.61564722617345 953.0844950213371 388.61564722617345 953.0844950213371 388.61564722617345"/><path class="valley" d="M 900.3095305832148 378.8654338549075 C 876.2048364153627 350.272546230441 861.8039260312944 337.32642958748215 846.9155049786629 327.01906116642954"/><path class="valley" d="M 800.0 374.2700007530423 C 820.3640980879169 349.1936909986698 833.3969458317428 336.97859412605015 846.9155049786629 327.0190611664296"/><path class="valley" d="M 949.6507256258817 155.1193283352013 C 908.3573257467995 210.32603129445232 916.1884495021337 313.3687624466571 926.0005689900427 336.38236130867705"/><path class="valley" d="M 949.6507256258816 155.11932833520117 C 949.6507256258817 155.11932833520117 949.6507256258817 155.11932833520117 949.6507256258817 155.11932833520117"/><path class="valley" d="M 949.6507256258817 155.11932833520117 C 992.5496443812233 209.08790896159312 987.751920341394 312.3163584637267 978.6207681365577 335.60853485063996"/><path class="valley" d="M 850.3492743741184 560.5153800574018 C 891.6426742532005 505.3086770981507 883.8115504978663 402.265945945946 873.9994310099573 379.252347083926"/><path class="valley" d="M 850.3492743741183 560.5153800574019 C 807.4503556187767 506.5467994310101 812.248079658606 403.31834992887633 821.3792318634423 380.0261735419631"/><path class="valley" d="M 926.0005689900427 336.38236130867705 C 938.2657183499289 365.1493598862019 945.5629018492176 378.1999431009957 953.0844950213371 388.61564722617356"/><path class="valley" d="M 978.6207681365577 335.60853485063996 C 967.2068278805122 364.72375533428146 960.2965576102418 377.9832716927453 953.0844950213371 388.6156472261733"/><path class="valley" d="M 953.0844950213371 388.6156472261733 C 953.0844950213371 388.61564722617334 953.0844950213371 388.6156472261734 953.0844950213371 388.61564722617345"/><path class="valley" d="M 873.9994310099573 379.252347083926 C 861.7342816500711 350.4853485064011 854.4370981507824 337.43476529160745 846.9155049786629 327.01906116642954"/><path class="valley" d="M 846.9155049786629 327.01906116642954 C 846.9155049786629 327.01906116642954 846.9155049786629 327.01906116642954 846.9155049786629 327.01906116642954"/><path class="valley" d="M 821.3792318634423 380.0261735419631 C 832.793172119488 350.9109530583216 839.7034423897582 337.65143669985775 846.9155049786629 327.0190611664296"/><path class="valley" d="M 846.9155049786629 327.0190611664296 C 846.9155049786629 327.0190611664296 846.9155049786629 327.0190611664296 846.9155049786629 327.0190611664296"/><line class="valley" x1="1042.1064011379801" y1="0.0" x2="1052.630440967283" y2="715.6347083926031"/><line class="valley" x1="1147.369559032717" y1="0.0" x2="1157.89359886202" y2="715.634708392603"/><line class="valley" x1="1094.7591915916207" y1="0.0" x2="1148.8768991678446" y2="102.49912918868638"/><line class="valley" x1="1199.197679680271" y1="0.0" x2="1148.8768991678446" y2="102.4991291886862"/><line class="valley" x1="1105.2408084083793" y1="715.634708392603" x2="1051.1231008321554" y2="613.1355792039167"/><line class="valley" x1="1051.1231008321554" y1="613.1355792039169" x2="1000.8023203197289" y2="715.6347083926031"/><line class="valley" x1="1094.7169320056898" y1="0.0003095305832118145" x2="1046.098772951192" y2="271.4812832983977"/><line class="valley" x1="1094.8606131357742" y1="3.382710778154774e-15" x2="1147.7185808505799" y2="23.733483614688915"/><line class="valley" x1="1196.6710605867995" y1="-1.0408340855860843e-14" x2="1147.7185808505799" y2="23.733483614688705"/><line class="valley" x1="1000.0" y1="51.552122100552154" x2="1046.098772951192" y2="271.4812832983978"/><line class="valley" x1="1105.2830679943102" y1="715.6343988620199" x2="1153.901227048808" y2="444.1534250942054"/><line class="valley" x1="1105.1393868642256" y1="715.6347083926029" x2="1052.28141914942" y2="691.9012247779142"/><line class="valley" x1="1200.0" y1="664.0825862920507" x2="1153.9012270488083" y2="444.15342509420555"/><line class="valley" x1="1003.3289394131999" y1="715.6347083926031" x2="1052.2814191494201" y2="691.9012247779142"/><line class="valley" x1="1094.7169320056898" y1="0.0003095305832118145" x2="1042.4786221422992" y2="25.311028293698012"/><line class="valley" x1="1000.0" y1="6.250440316798427" x2="1042.4786221422992" y2="25.31102829369802"/><line class="valley" x1="1105.2830679943102" y1="715.6343988620199" x2="1157.5213778577008" y2="690.3236800989051"/><line class="valley" x1="1200.0" y1="709.3842680758046" x2="1157.5213778577008" y2="690.3236800989051"/><path class="valley" d="M 1148.8768991678446 102.49912918868638 C 1063.5372972972973 168.87988620199147 1027.3222190611664 283.0966714082504 1100.0 357.81735419630155"/><path class="valley" d="M 1148.8768991678446 102.49912918868623 C 1168.592807434312 116.92489272971136 1185.8734619865318 133.8657238229362 1200.0 152.33480262610829"/><path class="valley" d="M 1000.0 170.30530498005257 C 1037.8504695572265 228.84564890670936 1044.637153889811 299.17370027247665 1000.0000000000001 353.3401708367816"/><path class="valley" d="M 1051.1231008321554 613.1355792039167 C 1136.4627027027027 546.7548221906115 1172.6777809388336 432.53803698435274 1100.0 357.81735419630155"/><path class="valley" d="M 1200.0 545.3294034125504 C 1162.1495304427735 486.78905948589363 1155.362846110189 416.46100812012656 1199.9999999999998 362.2945375558216"/><path class="valley" d="M 1051.1231008321554 613.1355792039169 C 1031.407192565688 598.7098156628917 1014.1265380134682 581.7689845696668 1000.0 563.2999057664947"/><path class="valley" d="M 1149.6507256258817 155.1193283352013 C 1066.2611664295875 210.9450924608819 1080.4067140825036 313.89496443812226 1099.6904694167852 336.76927453769554"/><path class="valley" d="M 1149.6507256258817 155.11932833520117 C 1173.1631846696291 169.87757575083626 1189.3209499868265 188.4599602258599 1200.0 208.1173618468866"/><path class="valley" d="M 1000.0 235.67971227929155 C 1011.8735593744303 272.28718654535385 1008.082800750971 308.73111819955324 1000.0 328.34620359001127"/><path class="valley" d="M 1050.3492743741183 560.5153800574018 C 1133.7388335704125 504.6896159317212 1119.5932859174964 401.73974395448084 1100.3095305832148 378.8654338549075"/><path class="valley" d="M 1200.0 479.95499611331144 C 1188.1264406255698 443.34752184724937 1191.917199249029 406.90359019305015 1200.0 387.288504802592"/><path class="valley" d="M 1050.3492743741183 560.5153800574019 C 1026.836815330371 545.7571326417668 1010.6790500131737 527.174748166743 1000.0 507.5173465457164"/><path class="valley" d="M 1099.6904694167852 336.76927453769554 C 1123.7951635846373 365.3621621621621 1138.1960739687056 378.3082788051209 1153.084495021337 388.61564722617356"/><path class="valley" d="M 1200.0 341.3647076395608 C 1179.6359019120832 366.4410173939333 1166.6030541682571 378.6561142665529 1153.0844950213373 388.61564722617345"/><path class="valley" d="M 1153.0844950213373 388.61564722617345 C 1153.0844950213373 388.61564722617345 1153.0844950213373 388.61564722617345 1153.0844950213373 388.61564722617345"/><path class="valley" d="M 1100.3095305832148 378.8654338549075 C 1076.2048364153627 350.272546230441 1061.8039260312944 337.32642958748215 1046.915504978663 327.01906116642954"/><path class="valley" d="M 1000.0 374.2700007530423 C 1020.3640980879169 349.1936909986698 1033.3969458317429 336.97859412605015 1046.915504978663 327.0190611664296"/><path class="valley" d="M 1149.6507256258817 155.1193283352013 C 1108.3573257467995 210.32603129445232 1116.1884495021336 313.3687624466571 1126.0005689900427 336.38236130867705"/><path class="valley" d="M 1149.6507256258817 155.11932833520117 C 1149.6507256258817 155.11932833520117 1149.6507256258817 155.11932833520117 1149.6507256258817 155.11932833520117"/><path class="valley" d="M 1149.6507256258817 155.11932833520117 C 1192.5496443812233 209.08790896159312 1187.751920341394 312.3163584637267 1178.6207681365577 335.60853485063996"/><path class="valley" d="M 1050.3492743741183 560.5153800574018 C 1091.6426742532005 505.3086770981507 1083.8115504978664 402.265945945946 1073.9994310099573 379.252347083926"/><path class="valley" d="M 1050.3492743741183 560.5153800574019 C 1007.4503556187767 506.5467994310101 1012.248079658606 403.31834992887633 1021.3792318634423 380.0261735419631"/><path class="valley" d="M 1126.0005689900427 336.38236130867705 C 1138.2657183499289 365.1493598862019 1145.5629018492177 378.1999431009957 1153.084495021337 388.61564722617356"/><path class="valley" d="M 1178.6207681365577 335.60853485063996 C 1167.206827880512 364.72375533428146 1160.296557610242 377.9832716927453 1153.0844950213373 388.6156472261733"/><path class="valley" d="M 1153.0844950213373 388.6156472261733 C 1153.0844950213373 388.61564722617334 1153.0844950213373 388.6156472261734 1153.0844950213373 388.61564722617345"/><path class="valley" d="M 1073.9994310099573 379.252347083926 C 1061.7342816500711 350.4853485064011 1054.4370981507823 337.43476529160745 1046.915504978663 327.01906116642954"/><path class="valley" d="M 1046.915504978663 327.01906116642954 C 1046.915504978663 327.01906116642954 1046.915504978663 327.01906116642954 1046.915504978663 327.01906116642954"/><path class="valley" d="M 1021.3792318634423 380.0261735419631 C 1032.793172119488 350.9109530583216 1039.7034423897583 337.65143669985775 1046.915504978663 327.0190611664296"/><path class="valley" d="M 1046.915504978663 327.0190611664296 C 1046.915504978663 327.0190611664296 1046.915504978663 327.0190611664296 1046.915504978663 327.0190611664296"/></svg>