<svg xmlns="http://www.w3.org/2000/svg" width="1200" height="800"><style >
.valley {stroke: #00f; stroke-width: 2px; fill:none}
.mountain {stroke: #f00; stroke-width: 2px; fill:none }
.cut {stroke: #000; stroke-width: 5px; fill:none } 
</style><rect class="cut" x="0" y="0" width="1200" height="100%"/><line class="cut" x1="200" y1="0" x2="200" y2="100%"/><line class="cut" x1="400" y1="0" x2="400" y2="100%"/><line class="cut" x1="600" y1="0" x2="600" y2="100%"/><line class="cut" x1="800" y1="0" x2="800" y2="100%"/><line class="cut" x1="1000" y1="0" x2="1000" y2="100%"/><line class="valley" x1="0" y1="0" x2="100.0" y2="26.79491924311227"/><line class="valley" x1="150.0" y1="0.0" x2="150.0" y2="86.38259887282277"/><line class="valley" x1="100.0" y1="26.79491924311227" x2="150.0" y2="86.38259887282277"/><line class="valley" x1="200.0" y1="26.79491924311227" x2="150.0" y2="86.38259887282277"/><line class="valley" x1="50.0" y1="13.397459621556134" x2="50.0" y2="400.0"/><line class="valley" x1="150.0" y1="86.38259887282277" x2="150.0" y2="400.0"/><path class="valley" d="M 100.0 26.79491924311227 C 72.8 121.67695154586737 66.0 169.11796769724492 66.0 264.0 C 66.0 318.4 72.8 345.6 100.0 400.0"/><path class="valley" d="M 0.0 26.79491924311227 C 27.200000000000003 121.67695154586737 34.0 169.11796769724492 34.0 264.0 C 34.0 318.4 27.200000000000003 345.6 0.0 400.0"/><path class="valley" d="M 150.0 86.38259887282277 C 94.0 157.42955932369367 80.0 192.95303954912913 80.0 264.0 C 80.0 312.0 94.0 336.0 150.0 384.0"/><path class="valley" d="M 150.0 86.38259887282277 C 206.0 157.42955932369367 220.0 192.95303954912913 220.0 264.0 C 220.0 312.0 206.0 336.0 150.0 384.0"/><path class="valley" d="M 150.0 158.38259887282277 C 105.19999999999999 200.62955932369368 94.0 221.7530395491291 94.0 264.0 C 94.0 292.8 105.19999999999999 307.2 150.0 336.0"/><path class="valley" d="M 150.0 158.38259887282277 C 194.8 200.62955932369368 206.0 221.7530395491291 206.0 264.0 C 206.0 292.8 194.8 307.2 150.0 336.0"/><path class="valley" d="M 150.0 214.38259887282277 C 116.4 234.22955932369365 108.0 244.15303954912912 108.0 264.0 C 108.0 273.6 116.4 278.4 150.0 288.0"/><path class="valley" d="M 150.0 214.38259887282277 C 183.6 234.22955932369365 192.0 244.15303954912912 192.0 264.0 C 192.0 273.6 183.6 278.4 150.0 288.0"/><line class="valley" x1="200.0" y1="800.0" x2="100.0" y2="773.2050807568877"/><line class="valley" x1="50.0" y1="800.0" x2="50.0" y2="713.6174011271772"/><line class="valley" x1="100.0" y1="773.2050807568877" x2="50.0" y2="713.6174011271772"/><line class="valley" x1="0.0" y1="773.2050807568877" x2="50.0" y2="713.6174011271772"/><line class="valley" x1="150.0" y1="786.6025403784439" x2="149.99999999999994" y2="400.0"/><line class="valley" x1="50.0" y1="713.6174011271772" x2="49.99999999999994" y2="400.0"/><path class="valley" d="M 100.0 773.2050807568877 C 127.19999999999999 678.3230484541326 134.0 630.8820323027551 133.99999999999997 536.0 C 133.99999999999994 481.6 127.19999999999996 454.4 99.99999999999996 400.0"/><path class="valley" d="M 200.0 773.2050807568877 C 172.79999999999998 678.3230484541326 166.0 630.8820323027551 165.99999999999997 536.0 C 165.99999999999994 481.6 172.79999999999995 454.4 199.99999999999994 400.0"/><path class="valley" d="M 50.0 713.6174011271772 C 105.99999999999999 642.5704406763064 119.99999999999997 607.0469604508709 119.99999999999997 536.0 C 119.99999999999996 488.0 105.99999999999996 464.0 49.99999999999994 416.0"/><path class="valley" d="M 50.0 713.6174011271772 C -6.000000000000014 642.5704406763064 -20.00000000000003 607.0469604508709 -20.00000000000003 536.0 C -20.000000000000043 488.0 -6.000000000000043 464.0 49.99999999999994 416.0"/><path class="valley" d="M 49.99999999999997 641.6174011271772 C 94.79999999999998 599.3704406763063 105.99999999999997 578.2469604508709 105.99999999999997 536.0 C 105.99999999999996 507.2 94.79999999999997 492.8 49.99999999999997 464.0"/><path class="valley" d="M 49.99999999999997 641.6174011271772 C 5.19999999999996 599.3704406763063 -6.000000000000028 578.2469604508709 -6.000000000000028 536.0 C -6.000000000000043 507.2 5.199999999999946 492.8 49.99999999999997 464.0"/><path class="valley" d="M 49.99999999999997 585.6174011271772 C 83.59999999999997 565.7704406763064 91.99999999999997 555.8469604508709 91.99999999999997 536.0 C 91.99999999999997 526.4 83.59999999999997 521.6 49.99999999999997 512.0"/><path class="valley" d="M 49.99999999999997 585.6174011271772 C 16.399999999999977 565.7704406763063 7.999999999999972 555.8469604508709 7.999999999999972 536.0 C 7.999999999999972 526.4 16.399999999999977 521.6 49.99999999999997 512.0"/><line class="valley" x1="200" y1="0" x2="300.0" y2="26.79491924311227"/><line class="valley" x1="350.0" y1="0.0" x2="350.0" y2="86.38259887282277"/><line class="valley" x1="300.0" y1="26.79491924311227" x2="350.0" y2="86.38259887282277"/><line class="valley" x1="400.0" y1="26.79491924311227" x2="350.0" y2="86.38259887282277"/><line class="valley" x1="250.0" y1="13.397459621556134" x2="250.0" y2="400.0"/><line class="valley" x1="350.0" y1="86.38259887282277" x2="350.0" y2="400.0"/><path class="valley" d="M 300.0 26.79491924311227 C 272.8 121.67695154586737 266.0 169.11796769724492 266.0 264.0 C 266.0 318.4 272.8 345.6 300.0 400.0"/><path class="valley" d="M 200.0 26.79491924311227 C 227.2 121.67695154586737 234.0 169.11796769724492 234.0 264.0 C 234.0 318.4 227.2 345.6 200.0 400.0"/><path class="valley" d="M 350.0 86.38259887282277 C 294.0 157.42955932369367 280.0 192.95303954912913 280.0 264.0 C 280.0 312.0 294.0 336.0 350.0 384.0"/><path class="valley" d="M 350.0 86.38259887282277 C 406.0 157.42955932369367 420.0 192.95303954912913 420.0 264.0 C 420.0 312.0 406.0 336.0 350.0 384.0"/><path class="valley" d="M 350.0 158.38259887282277 C 305.2 200.62955932369368 294.0 221.7530395491291 294.0 264.0 C 294.0 292.8 305.2 307.2 350.0 336.0"/><path class="valley" d="M 350.0 158.38259887282277 C 394.8 200.62955932369368 406.0 221.7530395491291 406.0 264.0 C 406.0 292.8 394.8 307.2 350.0 336.0"/><path class="valley" d="M 350.0 214.38259887282277 C 316.4 234.22955932369365 308.0 244.15303954912912 308.0 264.0 C 308.0 273.6 316.4 278.4 350.0 288.0"/><path class="valley" d="M 350.0 214.38259887282277 C 383.6 234.22955932369365 392.0 244.15303954912912 392.0 264.0 C 392.0 273.6 383.6 278.4 350.0 288.0"/><line class="valley" x1="400.0" y1="800.0" x2="300.0" y2="773.2050807568877"/><line class="valley" x1="250.0" y1="800.0" x2="250.0" y2="713.6174011271772"/><line class="valley" x1="300.0" y1="773.2050807568877" x2="250.0" y2="713.6174011271772"/><line class="valley" x1="200.0" y1="773.2050807568877" x2="250.0" y2="713.6174011271772"/><line class="valley" x1="350.0" y1="786.6025403784439" x2="349.99999999999994" y2="400.0"/><line class="valley" x1="250.0" y1="713.6174011271772" x2="249.99999999999994" y2="400.0"/><path class="valley" d="M 300.0 773.2050807568877 C 327.2 678.3230484541326 334.0 630.8820323027551 334.0 536.0 C 333.99999999999994 481.6 327.19999999999993 454.4 299.99999999999994 400.0"/><path class="valley" d="M 400.0 773.2050807568877 C 372.79999999999995 678.3230484541326 366.0 630.8820323027551 366.0 536.0 C 365.99999999999994 481.6 372.79999999999995 454.4 399.99999999999994 400.0"/><path class="valley" d="M 250.0 713.6174011271772 C 306.0 642.5704406763064 320.0 607.0469604508709 320.0 536.0 C 319.99999999999994 488.0 305.99999999999994 464.0 249.99999999999994 416.0"/><path class="valley" d="M 250.0 713.6174011271772 C 194.0 642.5704406763064 179.99999999999997 607.0469604508709 179.99999999999997 536.0 C 179.99999999999994 488.0 193.99999999999994 464.0 249.99999999999994 416.0"/><path class="valley" d="M 249.99999999999997 641.6174011271772 C 294.79999999999995 599.3704406763063 306.0 578.2469604508709 306.0 536.0 C 305.99999999999994 507.2 294.79999999999995 492.8 249.99999999999997 464.0"/><path class="valley" d="M 249.99999999999997 641.6174011271772 C 205.19999999999996 599.3704406763063 193.99999999999997 578.2469604508709 193.99999999999997 536.0 C 193.99999999999994 507.2 205.19999999999993 492.8 249.99999999999997 464.0"/><path class="valley" d="M 249.99999999999997 585.6174011271772 C 283.59999999999997 565.7704406763064 292.0 555.8469604508709 292.0 536.0 C 292.0 526.4 283.59999999999997 521.6 249.99999999999997 512.0"/><path class="valley" d="M 249.99999999999997 585.6174011271772 C 216.39999999999998 565.7704406763063 207.99999999999997 555.8469604508709 207.99999999999997 536.0 C 207.99999999999997 526.4 216.39999999999998 521.6 249.99999999999997 512.0"/><line class="valley" x1="400" y1="0" x2="500.0" y2="26.79491924311227"/><line class="valley" x1="550.0" y1="0.0" x2="550.0" y2="86.38259887282277"/><line class="valley" x1="500.0" y1="26.79491924311227" x2="550.0" y2="86.38259887282277"/><line class="valley" x1="600.0" y1="26.79491924311227" x2="550.0" y2="86.38259887282277"/><line class="valley" x1="450.0" y1="13.397459621556134" x2="450.0" y2="400.0"/><line class="valley" x1="550.0" y1="86.38259887282277" x2="550.0" y2="400.0"/><path class="valley" d="M 500.0 26.79491924311227 C 472.8 121.67695154586737 466.0 169.11796769724492 466.0 264.0 C 466.0 318.4 472.8 345.6 500.0 400.0"/><path class="valley" d="M 400.0 26.79491924311227 C 427.2 121.67695154586737 434.0 169.11796769724492 434.0 264.0 C 434.0 318.4 427.2 345.6 400.0 400.0"/><path class="valley" d="M 550.0 86.38259887282277 C 494.0 157.42955932369367 480.0 192.95303954912913 480.0 264.0 C 480.0 312.0 494.0 336.0 550.0 384.0"/><path class="valley" d="M 550.0 86.38259887282277 C 606.0 157.42955932369367 620.0 192.95303954912913 620.0 264.0 C 620.0 312.0 606.0 336.0 550.0 384.0"/><path class="valley" d="M 550.0 158.38259887282277 C 505.2 200.62955932369368 494.0 221.7530395491291 494.0 264.0 C 494.0 292.8 505.2 307.2 550.0 336.0"/><path class="valley" d="M 550.0 158.38259887282277 C 594.8 200.62955932369368 606.0 221.7530395491291 606.0 264.0 C 606.0 292.8 594.8 307.2 550.0 336.0"/><path class="valley" d="M 550.0 214.38259887282277 C 516.4 234.22955932369365 508.0 244.15303954912912 508.0 264.0 C 508.0 273.6 516.4 278.4 550.0 288.0"/><path class="valley" d="M 550.0 214.38259887282277 C 583.6 234.22955932369365 592.0 244.15303954912912 592.0 264.0 C 592.0 273.6 583.6 278.4 550.0 288.0"/><line class="valley" x1="600.0" y1="800.0" x2="500.0" y2="773.2050807568877"/><line class="valley" x1="450.0" y1="800.0" x2="450.0" y2="713.6174011271772"/><line class="valley" x1="500.0" y1="773.2050807568877" x2="450.0" y2="713.6174011271772"/><line class="valley" x1="400.0" y1="773.2050807568877" x2="450.0" y2="713.6174011271772"/><line class="valley" x1="550.0" y1="786.6025403784439" x2="550.0" y2="400.0"/><line class="valley" x1="450.0" y1="713.6174011271772" x2="449.99999999999994" y2="400.0"/><path class="valley" d="M 500.0 773.2050807568877 C 527.2 678.3230484541326 534.0 630.8820323027551 534.0 536.0 C 534.0 481.6 527.1999999999999 454.4 499.99999999999994 400.0"/><path class="valley" d="M 600.0 773.2050807568877 C 572.8 678.3230484541326 566.0 630.8820323027551 566.0 536.0 C 566.0 481.6 572.8 454.4 600.0 400.0"/><path class="valley" d="M 450.0 713.6174011271772 C 506.0 642.5704406763064 520.0 607.0469604508709 520.0 536.0 C 520.0 488.0 505.99999999999994 464.0 449.99999999999994 416.0"/><path class="valley" d="M 450.0 713.6174011271772 C 394.0 642.5704406763064 380.0 607.0469604508709 380.0 536.0 C 379.99999999999994 488.0 393.99999999999994 464.0 449.99999999999994 416.0"/><path class="valley" d="M 450.0 641.6174011271772 C 494.79999999999995 599.3704406763063 506.0 578.2469604508709 506.0 536.0 C 505.99999999999994 507.2 494.79999999999995 492.8 450.0 464.0"/><path class="valley" d="M 450.0 641.6174011271772 C 405.19999999999993 599.3704406763063 394.0 578.2469604508709 394.0 536.0 C 393.99999999999994 507.2 405.19999999999993 492.8 450.0 464.0"/><path class="valley" d="M 450.0 585.6174011271772 C 483.59999999999997 565.7704406763064 492.0 555.8469604508709 492.0 536.0 C 492.0 526.4 483.59999999999997 521.6 450.0 512.0"/><path class="valley" d="M 450.0 585.6174011271772 C 416.4 565.7704406763063 408.0 555.8469604508709 408.0 536.0 C 408.0 526.4 416.4 521.6 450.0 512.0"/><line class="valley" x1="600" y1="0" x2="700.0" y2="26.79491924311227"/><line class="valley" x1="750.0" y1="0.0" x2="750.0" y2="86.38259887282277"/><line class="valley" x1="700.0" y1="26.79491924311227" x2="750.0" y2="86.38259887282277"/><line class="valley" x1="800.0" y1="26.79491924311227" x2="750.0" y2="86.38259887282277"/><line class="valley" x1="650.0" y1="13.397459621556134" x2="650.0" y2="400.0"/><line class="valley" x1="750.0" y1="86.38259887282277" x2="750.0" y2="400.0"/><path class="valley" d="M 700.0 26.79491924311227 C 672.8 121.67695154586737 666.0 169.11796769724492 666.0 264.0 C 666.0 318.4 672.8 345.6 700.0 400.0"/><path class="valley" d="M 600.0 26.79491924311227 C 627.2 121.67695154586737 634.0 169.11796769724492 634.0 264.0 C 634.0 318.4 627.2 345.6 600.0 400.0"/><path class="valley" d="M 750.0 86.38259887282277 C 694.0 157.42955932369367 680.0 192.95303954912913 680.0 264.0 C 680.0 312.0 694.0 336.0 750.0 384.0"/><path class="valley" d="M 750.0 86.38259887282277 C 806.0 157.42955932369367 820.0 192.95303954912913 820.0 264.0 C 820.0 312.0 806.0 336.0 750.0 384.0"/><path class="valley" d="M 750.0 158.38259887282277 C 705.2 200.62955932369368 694.0 221.7530395491291 694.0 264.0 C 694.0 292.8 705.2 307.2 750.0 336.0"/><path class="valley" d="M 750.0 158.38259887282277 C 794.8 200.62955932369368 806.0 221.7530395491291 806.0 264.0 C 806.0 292.8 794.8 307.2 750.0 336.0"/><path class="valley" d="M 750.0 214.38259887282277 C 716.4 234.22955932369365 708.0 244.15303954912912 708.0 264.0 C 708.0 273.6 716.4 278.4 750.0 288.0"/><path class="valley" d="M 750.0 214.38259887282277 C 783.6 234.22955932369365 792.0 244.15303954912912 792.0 264.0 C 792.0 273.6 783.6 278.4 750.0 288.0"/><line class="valley" x1="800.0" y1="800.0" x2="700.0" y2="773.2050807568877"/><line class="valley" x1="650.0" y1="800.0" x2="650.0" y2="713.6174011271772"/><line class="valley" x1="700.0" y1="773.2050807568877" x2="650.0" y2="713.6174011271772"/><line class="valley" x1="600.0" y1="773.2050807568877" x2="650.0" y2="713.6174011271772"/><line class="valley" x1="750.0" y1="786.6025403784439" x2="750.0" y2="400.0"/><line class="valley" x1="650.0" y1="713.6174011271772" x2="650.0" y2="400.0"/><path class="valley" d="M 700.0 773.2050807568877 C 727.2 678.3230484541326 734.0 630.8820323027551 734.0 536.0 C 734.0 481.6 727.1999999999999 454.4 700.0 400.0"/><path class="valley" d="M 800.0 773.2050807568877 C 772.8 678.3230484541326 766.0 630.8820323027551 766.0 536.0 C 766.0 481.6 772.8 454.4 800.0 400.0"/><path class="valley" d="M 650.0 713.6174011271772 C 706.0 642.5704406763064 720.0 607.0469604508709 720.0 536.0 C 720.0 488.0 706.0 464.0 650.0 416.0"/><path class="valley" d="M 650.0 713.6174011271772 C 594.0 642.5704406763064 580.0 607.0469604508709 580.0 536.0 C 580.0 488.0 594.0 464.0 650.0 416.0"/><path class="valley" d="M 650.0 641.6174011271772 C 694.8 599.3704406763063 706.0 578.2469604508709 706.0 536.0 C 706.0 507.2 694.8 492.8 650.0 464.0"/><path class="valley" d="M 650.0 641.6174011271772 C 605.1999999999999 599.3704406763063 594.0 578.2469604508709 594.0 536.0 C 594.0 507.2 605.1999999999999 492.8 650.0 464.0"/><path class="valley" d="M 650.0 585.6174011271772 C 683.5999999999999 565.7704406763064 692.0 555.8469604508709 692.0 536.0 C 692.0 526.4 683.5999999999999 521.6 650.0 512.0"/><path class="valley" d="M 650.0 585.6174011271772 C 616.4 565.7704406763063 608.0 555.8469604508709 608.0 536.0 C 608.0 526.4 616.4 521.6 650.0 512.0"/><line class="valley" x1="800" y1="0" x2="900.0" y2="26.79491924311227"/><line class="valley" x1="950.0" y1="0.0" x2="950.0" y2="86.38259887282277"/><line class="valley" x1="900.0" y1="26.79491924311227" x2="950.0" y2="86.38259887282277"/><line class="valley" x1="1000.0" y1="26.79491924311227" x2="950.0" y2="86.38259887282277"/><line class="valley" x1="850.0" y1="13.397459621556134" x2="850.0" y2="400.0"/><line class="valley" x1="950.0" y1="86.38259887282277" x2="950.0" y2="400.0"/><path class="valley" d="M 900.0 26.79491924311227 C 872.8 121.67695154586737 866.0 169.11796769724492 866.0 264.0 C 866.0 318.4 872.8 345.6 900.0 400.0"/><path class="valley" d="M 800.0 26.79491924311227 C 827.2 121.67695154586737 834.0 169.11796769724492 834.0 264.0 C 834.0 318.4 827.2 345.6 800.0 400.0"/><path class="valley" d="M 950.0 86.38259887282277 C 894.0 157.42955932369367 880.0 192.95303954912913 880.0 264.0 C 880.0 312.0 894.0 336.0 950.0 384.0"/><path class="valley" d="M 950.0 86.38259887282277 C 1006.0 157.42955932369367 1020.0 192.95303954912913 1020.0 264.0 C 1020.0 312.0 1006.0 336.0 950.0 384.0"/><path class="valley" d="M 950.0 158.38259887282277 C 905.2 200.62955932369368 894.0 221.7530395491291 894.0 264.0 C 894.0 292.8 905.2 307.2 950.0 336.0"/><path class="valley" d="M 950.0 158.38259887282277 C 994.8 200.62955932369368 1006.0 221.7530395491291 1006.0 264.0 C 1006.0 292.8 994.8 307.2 950.0 336.0"/><path class="valley" d="M 950.0 214.38259887282277 C 916.4 234.22955932369365 908.0 244.15303954912912 908.0 264.0 C 908.0 273.6 916.4 278.4 950.0 288.0"/><path class="valley" d="M 950.0 214.38259887282277 C 983.6 234.22955932369365 992.0 244.15303954912912 992.0 264.0 C 992.0 273.6 983.6 278.4 950.0 288.0"/><line class="valley" x1="1000.0" y1="800.0" x2="900.0" y2="773.2050807568877"/><line class="valley" x1="850.0" y1="800.0" x2="850.0" y2="713.6174011271772"/><line class="valley" x1="900.0" y1="773.2050807568877" x2="850.0" y2="713.6174011271772"/><line class="valley" x1="800.0" y1="773.2050807568877" x2="850.0" y2="713.6174011271772"/><line class="valley" x1="950.0" y1="786.6025403784439" x2="950.0" y2="400.0"/><line class="valley" x1="850.0" y1="713.6174011271772" x2="850.0" y2="400.0"/><path class="valley" d="M 900.0 773.2050807568877 C 927.2 678.3230484541326 934.0 630.8820323027551 934.0 536.0 C 934.0 481.6 927.1999999999999 454.4 900.0 400.0"/><path class="valley" d="M 1000.0 773.2050807568877 C 972.8 678.3230484541326 966.0 630.8820323027551 966.0 536.0 C 966.0 481.6 972.8 454.4 1000.0 400.0"/><path class="valley" d="M 850.0 713.6174011271772 C 906.0 642.5704406763064 920.0 607.0469604508709 920.0 536.0 C 920.0 488.0 906.0 464.0 850.0 416.0"/><path class="valley" d="M 850.0 713.6174011271772 C 794.0 642.5704406763064 780.0 607.0469604508709 780.0 536.0 C 780.0 488.0 794.0 464.0 850.0 416.0"/><path class="valley" d="M 850.0 641.6174011271772 C 894.8 599.3704406763063 906.0 578.2469604508709 906.0 536.0 C 906.0 507.2 894.8 492.8 850.0 464.0"/><path class="valley" d="M 850.0 641.6174011271772 C 805.1999999999999 599.3704406763063 794.0 578.2469604508709 794.0 536.0 C 794.0 507.2 805.1999999999999 492.8 850.0 464.0"/><path class="valley" d="M 850.0 585.6174011271772 C 883.5999999999999 565.7704406763064 892.0 555.8469604508709 892.0 536.0 C 892.0 526.4 883.5999999999999 521.6 850.0 512.0"/><path class="valley" d="M 850.0 585.6174011271772 C 816.4 565.7704406763063 808.0 555.8469604508709 808.0 536.0 C 808.0 526.4 816.4 521.6 850.0 512.0"/><line class="valley" x1="1000" y1="0" x2="1100.0" y2="26.79491924311227"/><line class="valley" x1="1150.0" y1="0.0" x2="1150.0" y2="86.38259887282277"/><line class="valley" x1="1100.0" y1="26.79491924311227" x2="1150.0" y2="86.38259887282277"/><line class="valley" x1="1200.0" y1="26.79491924311227" x2="1150.0" y2="86.38259887282277"/><line class="valley" x1="1050.0" y1="13.397459621556134" x2="1050.0" y2="400.0"/><line class="valley" x1="1150.0" y1="86.38259887282277" x2="1150.0" y2="400.0"/><path class="valley" d="M 1100.0 26.79491924311227 C 1072.8 121.67695154586737 1066.0 169.11796769724492 1066.0 264.0 C 1066.0 318.4 1072.8 345.6 1100.0 400.0"/><path class="valley" d="M 1000.0 26.79491924311227 C 1027.2 121.67695154586737 1034.0 169.11796769724492 1034.0 264.0 C 1034.0 318.4 1027.2 345.6 1000.0 400.0"/><path class="valley" d="M 1150.0 86.38259887282277 C 1094.0 157.42955932369367 1080.0 192.95303954912913 1080.0 264.0 C 1080.0 312.0 1094.0 336.0 1150.0 384.0"/><path class="valley" d="M 1150.0 86.38259887282277 C 1206.0 157.42955932369367 1220.0 192.95303954912913 1220.0 264.0 C 1220.0 312.0 1206.0 336.0 1150.0 384.0"/><path class="valley" d="M 1150.0 158.38259887282277 C 1105.2 200.62955932369368 1094.0 221.7530395491291 1094.0 264.0 C 1094.0 292.8 1105.2 307.2 1150.0 336.0"/><path class="valley" d="M 1150.0 158.38259887282277 C 1194.8 200.62955932369368 1206.0 221.7530395491291 1206.0 264.0 C 1206.0 292.8 1194.8 307.2 1150.0 336.0"/><path class="valley" d="M 1150.0 214.38259887282277 C 1116.4 234.22955932369365 1108.0 244.15303954912912 1108.0 264.0 C 1108.0 273.6 1116.4 278.4 1150.0 288.0"/><path class="valley" d="M 1150.0 214.38259887282277 C 1183.6 234.22955932369365 1192.0 244.15303954912912 1192.0 264.0 C 1192.0 273.6 1183.6 278.4 1150.0 288.0"/><line class="valley" x1="1200.0" y1="800.0" x2="1100.0" y2="773.2050807568877"/><line class="valley" x1="1050.0" y1="800.0" x2="1050.0" y2="713.6174011271772"/><line class="valley" x1="1100.0" y1="773.2050807568877" x2="1050.0" y2="713.6174011271772"/><line class="valley" x1="1000.0" y1="773.2050807568877" x2="1050.0" y2="713.6174011271772"/><line class="valley" x1="1150.0" y1="786.6025403784439" x2="1150.0" y2="400.0"/><line class="valley" x1="1050.0" y1="713.6174011271772" x2="1050.0" y2="400.0"/><path class="valley" d="M 1100.0 773.2050807568877 C 1127.2 678.3230484541326 1134.0 630.8820323027551 1134.0 536.0 C 1134.0 481.6 1127.2 454.4 1100.0 400.0"/><path class="valley" d="M 1200.0 773.2050807568877 C 1172.8 678.3230484541326 1166.0 630.8820323027551 1166.0 536.0 C 1166.0 481.6 1172.8 454.4 1200.0 400.0"/><path class="valley" d="M 1050.0 713.6174011271772 C 1106.0 642.5704406763064 1120.0 607.0469604508709 1120.0 536.0 C 1120.0 488.0 1106.0 464.0 1050.0 416.0"/><path class="valley" d="M 1050.0 713.6174011271772 C 994.0 642.5704406763064 980.0 607.0469604508709 980.0 536.0 C 980.0 488.0 994.0 464.0 1050.0 416.0"/><path class="valley" d="M 1050.0 641.6174011271772 C 1094.8 599.3704406763063 1106.0 578.2469604508709 1106.0 536.0 C 1106.0 507.2 1094.8 492.8 1050.0 464.0"/><path class="valley" d="M 1050.0 641.6174011271772 C 1005.1999999999999 599.3704406763063 994.0 578.2469604508709 994.0 536.0 C 994.0 507.2 1005.1999999999999 492.8 1050.0 464.0"/><path class="valley" d="M 1050.0 585.6174011271772 C 1083.6 565.7704406763064 1092.0 555.8469604508709 1092.0 536.0 C 1092.0 526.4 1083.6 521.6 1050.0 512.0"/><path class="valley" d="M 1050.0 585.6174011271772 C 1016.4 565.7704406763063 1008.0 555.8469604508709 1008.0 536.0 C 1008.0 526.4 1016.4 521.6 1050.0 512.0"/></svg>