<svg xmlns="http://www.w3.org/2000/svg" width="400" height="800"><style >
.valley {stroke: #00f; stroke-width: 2px; fill:none}
.mountain {stroke: #f00; stroke-width: 2px; fill:none }
.cut {stroke: #000; stroke-width: 5px; fill:none } 
</style><rect class="cut" x="0" y="0" width="400" height="100%"/><line class="cut" x1="200" y1="0" x2="200" y2="100%"/><line class="valley" x1="0" y1="0" x2="100.0" y2="26.79491924311227"/><line class="valley" x1="150.0" y1="0.0" x2="150.0" y2="113.3974596215561"/><line class="valley" x1="100.0" y1="26.79491924311227" x2="150.0" y2="113.3974596215561"/><line class="valley" x1="200.0" y1="26.79491924311227" x2="150.0" y2="113.3974596215561"/><line class="valley" x1="50.0" y1="13.397459621556134" x2="50.0" y2="400.0"/><line class="valley" x1="150.0" y1="113.3974596215561" x2="150.0" y2="400.0"/><path class="valley" d="M 100.0 26.79491924311227 C 64.80000000000001 128.07695154586736 56.00000000000001 178.71796769724492 56.00000000000001 280.0 S 56.00000000000001 380.0 100.0 400.0"/><path class="valley" d="M 0.0 26.79491924311227 C 35.19999999999999 128.07695154586736 43.99999999999999 178.71796769724492 43.99999999999999 280.0 S 43.99999999999999 380.0 0.0 400.0"/><path class="valley" d="M 150.0 113.3974596215561 C 92.4 180.03847577293365 78.0 213.35898384862244 78.0 280.0 S 78.0 380.0 150.0 400.0"/><path class="valley" d="M 150.0 113.3974596215561 C 207.6 180.03847577293365 222.0 213.35898384862244 222.0 280.0 S 222.0 380.0 150.0 400.0"/><path class="valley" d="M 150.0 193.3974596215561 C 110.0 228.03847577293365 100.0 245.35898384862244 100.0 280.0 S 100.0 340.0 150.0 360.0"/><path class="valley" d="M 150.0 193.3974596215561 C 190.0 228.03847577293365 200.0 245.35898384862244 200.0 280.0 S 200.0 340.0 150.0 360.0"/><line class="valley" x1="200.0" y1="800.0" x2="100.0" y2="773.2050807568877"/><line class="valley" x1="50.0" y1="800.0" x2="50.0" y2="686.6025403784439"/><line class="valley" x1="100.0" y1="773.2050807568877" x2="50.0" y2="686.6025403784439"/><line class="valley" x1="0.0" y1="773.2050807568877" x2="50.0" y2="686.6025403784439"/><line class="valley" x1="150.0" y1="786.6025403784439" x2="149.99999999999994" y2="400.0"/><line class="valley" x1="50.0" y1="686.6025403784439" x2="49.99999999999994" y2="400.0"/><path class="valley" d="M 100.0 773.2050807568877 C 135.2 671.9230484541326 143.99999999999997 621.282032302755 143.99999999999994 520.0 S 143.99999999999994 420.0 99.99999999999996 400.0"/><path class="valley" d="M 200.0 773.2050807568877 C 164.8 671.9230484541326 156.0 621.282032302755 155.99999999999997 520.0 S 155.99999999999994 420.0 199.99999999999994 400.0"/><path class="valley" d="M 50.0 686.6025403784439 C 107.59999999999997 619.9615242270663 121.99999999999997 586.6410161513776 121.99999999999997 520.0 S 121.99999999999996 420.0 49.99999999999994 400.0"/><path class="valley" d="M 50.0 686.6025403784439 C -7.600000000000023 619.9615242270663 -22.00000000000003 586.6410161513776 -22.00000000000003 520.0 S -22.000000000000043 420.0 49.99999999999994 400.0"/><path class="valley" d="M 49.99999999999997 606.6025403784439 C 89.99999999999997 571.9615242270663 99.99999999999997 554.6410161513776 99.99999999999997 520.0 S 99.99999999999996 460.0 49.99999999999994 440.0"/><path class="valley" d="M 49.99999999999997 606.6025403784439 C 9.999999999999972 571.9615242270663 -2.842170943040401e-14 554.6410161513776 -2.842170943040401e-14 520.0 S -4.263256414560601e-14 460.0 49.99999999999994 440.0"/><line class="valley" x1="200" y1="0" x2="300.0" y2="26.79491924311227"/><line class="valley" x1="350.0" y1="0.0" x2="350.0" y2="113.3974596215561"/><line class="valley" x1="300.0" y1="26.79491924311227" x2="350.0" y2="113.3974596215561"/><line class="valley" x1="400.0" y1="26.79491924311227" x2="350.0" y2="113.3974596215561"/><line class="valley" x1="250.0" y1="13.397459621556134" x2="250.0" y2="400.0"/><line class="valley" x1="350.0" y1="113.3974596215561" x2="350.0" y2="400.0"/><path class="valley" d="M 300.0 26.79491924311227 C 264.8 128.07695154586736 256.0 178.71796769724492 256.0 280.0 S 256.0 380.0 300.0 400.0"/><path class="valley" d="M 200.0 26.79491924311227 C 235.2 128.07695154586736 244.0 178.71796769724492 244.0 280.0 S 244.0 380.0 200.0 400.0"/><path class="valley" d="M 350.0 113.3974596215561 C 292.4 180.03847577293365 278.0 213.35898384862244 278.0 280.0 S 278.0 380.0 350.0 400.0"/><path class="valley" d="M 350.0 113.3974596215561 C 407.6 180.03847577293365 422.0 213.35898384862244 422.0 280.0 S 422.0 380.0 350.0 400.0"/><path class="valley" d="M 350.0 193.3974596215561 C 310.0 228.03847577293365 300.0 245.35898384862244 300.0 280.0 S 300.0 340.0 350.0 360.0"/><path class="valley" d="M 350.0 193.3974596215561 C 390.0 228.03847577293365 400.0 245.35898384862244 400.0 280.0 S 400.0 340.0 350.0 360.0"/><line class="valley" x1="400.0" y1="800.0" x2="300.0" y2="773.2050807568877"/><line class="valley" x1="250.0" y1="800.0" x2="250.0" y2="686.6025403784439"/><line class="valley" x1="300.0" y1="773.2050807568877" x2="250.0" y2="686.6025403784439"/><line class="valley" x1="200.0" y1="773.2050807568877" x2="250.0" y2="686.6025403784439"/><line class="valley" x1="350.0" y1="786.6025403784439" x2="349.99999999999994" y2="400.0"/><line class="valley" x1="250.0" y1="686.6025403784439" x2="249.99999999999994" y2="400.0"/><path class="valley" d="M 300.0 773.2050807568877 C 335.2 671.9230484541326 344.0 621.282032302755 343.99999999999994 520.0 S 343.99999999999994 420.0 299.99999999999994 400.0"/><path class="valley" d="M 400.0 773.2050807568877 C 364.8 671.9230484541326 356.0 621.282032302755 356.0 520.0 S 355.99999999999994 420.0 399.99999999999994 400.0"/><path class="valley" d="M 250.0 686.6025403784439 C 307.59999999999997 619.9615242270663 322.0 586.6410161513776 322.0 520.0 S 321.99999999999994 420.0 249.99999999999994 400.0"/><path class="valley" d="M 250.0 686.6025403784439 C 192.39999999999998 619.9615242270663 177.99999999999997 586.6410161513776 177.99999999999997 520.0 S 177.99999999999994 420.0 249.99999999999994 400.0"/><path class="valley" d="M 249.99999999999997 606.6025403784439 C 290.0 571.9615242270663 300.0 554.6410161513776 300.0 520.0 S 299.99999999999994 460.0 249.99999999999994 440.0"/><path class="valley" d="M 249.99999999999997 606.6025403784439 C 209.99999999999997 571.9615242270663 199.99999999999997 554.6410161513776 199.99999999999997 520.0 S 199.99999999999994 460.0 249.99999999999994 440.0"/></svg>