<svg xmlns="http://www.w3.org/2000/svg" width="1200" height="600"><style >
.valley {stroke: #00f; stroke-width: 2px; fill:none}
.mountain {stroke: #f00; stroke-width: 2px; fill:none }
.cut {stroke: #000; stroke-width: 5px; fill:none } 
</style><rect class="cut" x="0" y="0" width="1200" height="100%"/><line class="cut" x1="200" y1="0" x2="200" y2="100%"/><line class="cut" x1="400" y1="0" x2="400" y2="100%"/><line class="cut" x1="600" y1="0" x2="600" y2="100%"/><line class="cut" x1="800" y1="0" x2="800" y2="100%"/><line class="cut" x1="1000" y1="0" x2="1000" y2="100%"/><line class="valley" x1="0" y1="0" x2="100.0" y2="26.79491924311227"/><line class="valley" x1="150.0" y1="0.0" x2="150.0" y2="68.74990080197627"/><line class="valley" x1="100.0" y1="26.79491924311227" x2="150.0" y2="68.74990080197627"/><line class="valley" x1="200.0" y1="26.79491924311227" x2="150.0" y2="68.74990080197627"/><line class="valley" x1="50.0" y1="13.397459621556134" x2="50.0" y2="300.0"/><line class="valley" x1="150.0" y1="68.74990080197627" x2="150.0" y2="300.0"/><path class="valley" d="M 100.0 26.79491924311227 C 71.2 95.27695154586736 64.0 129.5179676972449 64.0 198.0 C 64.0 238.8 71.2 259.2 100.0 300.0"/><path class="valley" d="M 0.0 26.79491924311227 C 28.799999999999997 95.27695154586736 36.0 129.5179676972449 36.0 198.0 C 36.0 238.8 28.799999999999997 259.2 0.0 300.0"/><path class="valley" d="M 150.0 68.74990080197627 C 92.4 120.44994048118576 78.0 146.2999603207905 78.0 198.0 C 78.0 234.0 92.4 252.0 150.0 288.0"/><path class="valley" d="M 150.0 68.74990080197627 C 207.6 120.44994048118576 222.0 146.2999603207905 222.0 198.0 C 222.0 234.0 207.6 252.0 150.0 288.0"/><path class="valley" d="M 150.0 122.74990080197627 C 105.19999999999999 152.84994048118574 94.0 167.8999603207905 94.0 198.0 C 94.0 219.60000000000002 105.19999999999999 230.39999999999998 150.0 252.0"/><path class="valley" d="M 150.0 122.74990080197627 C 194.8 152.84994048118574 206.0 167.8999603207905 206.0 198.0 C 206.0 219.60000000000002 194.8 230.39999999999998 150.0 252.0"/><path class="valley" d="M 150.0 164.74990080197625 C 124.4 175.64994048118575 118.0 181.0999603207905 118.0 192.0 C 118.0 201.6 124.4 206.4 150.0 216.0"/><path class="valley" d="M 150.0 164.74990080197625 C 175.6 175.64994048118575 182.0 181.0999603207905 182.0 192.0 C 182.0 201.6 175.6 206.4 150.0 216.0"/><line class="valley" x1="200.0" y1="600.0" x2="100.0" y2="573.2050807568877"/><line class="valley" x1="50.0" y1="600.0" x2="50.0" y2="531.2500991980237"/><line class="valley" x1="100.0" y1="573.2050807568877" x2="50.0" y2="531.2500991980237"/><line class="valley" x1="0.0" y1="573.2050807568877" x2="50.0" y2="531.2500991980237"/><line class="valley" x1="150.0" y1="586.6025403784439" x2="149.99999999999997" y2="300.0"/><line class="valley" x1="50.0" y1="531.2500991980237" x2="49.99999999999997" y2="300.0"/><path class="valley" d="M 100.0 573.2050807568877 C 128.79999999999998 504.72304845413265 136.0 470.4820323027551 135.99999999999997 402.0 C 135.99999999999997 361.2 128.79999999999995 340.8 99.99999999999996 300.0"/><path class="valley" d="M 200.0 573.2050807568877 C 171.2 504.7230484541326 164.0 470.4820323027551 163.99999999999997 402.0 C 163.99999999999997 361.2 171.2 340.8 199.99999999999994 300.0"/><path class="valley" d="M 50.0 531.2500991980237 C 107.59999999999998 479.55005951881424 121.99999999999999 453.7000396792095 121.99999999999997 402.0 C 121.99999999999997 366.0 107.59999999999997 348.0 49.99999999999997 312.0"/><path class="valley" d="M 50.0 531.2500991980237 C -7.6000000000000085 479.55005951881424 -22.000000000000014 453.7000396792095 -22.00000000000003 402.0 C -22.00000000000003 366.0 -7.600000000000023 348.0 49.99999999999997 312.0"/><path class="valley" d="M 49.99999999999997 477.25009919802375 C 94.8 447.15005951881426 105.99999999999999 432.1000396792095 105.99999999999997 402.0 C 105.99999999999997 380.4 94.79999999999998 369.6 49.99999999999997 348.0"/><path class="valley" d="M 49.99999999999997 477.2500991980237 C 5.199999999999974 447.15005951881426 -6.000000000000014 432.1000396792095 -6.000000000000028 402.0 C -6.000000000000028 380.4 5.19999999999996 369.6 49.99999999999997 348.0"/><path class="valley" d="M 49.99999999999997 435.2500991980238 C 75.59999999999997 424.3500595188143 81.99999999999997 418.9000396792095 81.99999999999997 408.0 C 81.99999999999997 398.40000000000003 75.59999999999997 393.6 49.99999999999997 384.0"/><path class="valley" d="M 49.99999999999997 435.2500991980237 C 24.399999999999977 424.3500595188142 17.99999999999997 418.9000396792095 17.99999999999997 408.0 C 17.99999999999997 398.4 24.399999999999977 393.59999999999997 49.99999999999997 384.0"/><line class="valley" x1="200" y1="0" x2="300.0" y2="26.79491924311227"/><line class="valley" x1="350.0" y1="0.0" x2="350.0" y2="68.74990080197627"/><line class="valley" x1="300.0" y1="26.79491924311227" x2="350.0" y2="68.74990080197627"/><line class="valley" x1="400.0" y1="26.79491924311227" x2="350.0" y2="68.74990080197627"/><line class="valley" x1="250.0" y1="13.397459621556134" x2="250.0" y2="300.0"/><line class="valley" x1="350.0" y1="68.74990080197627" x2="350.0" y2="300.0"/><path class="valley" d="M 300.0 26.79491924311227 C 271.2 95.27695154586736 264.0 129.5179676972449 264.0 198.0 C 264.0 238.8 271.2 259.2 300.0 300.0"/><path class="valley" d="M 200.0 26.79491924311227 C 228.8 95.27695154586736 236.0 129.5179676972449 236.0 198.0 C 236.0 238.8 228.8 259.2 200.0 300.0"/><path class="valley" d="M 350.0 68.74990080197627 C 292.4 120.44994048118576 278.0 146.2999603207905 278.0 198.0 C 278.0 234.0 292.4 252.0 350.0 288.0"/><path class="valley" d="M 350.0 68.74990080197627 C 407.6 120.44994048118576 422.0 146.2999603207905 422.0 198.0 C 422.0 234.0 407.6 252.0 350.0 288.0"/><path class="valley" d="M 350.0 122.74990080197627 C 305.2 152.84994048118574 294.0 167.8999603207905 294.0 198.0 C 294.0 219.60000000000002 305.2 230.39999999999998 350.0 252.0"/><path class="valley" d="M 350.0 122.74990080197627 C 394.8 152.84994048118574 406.0 167.8999603207905 406.0 198.0 C 406.0 219.60000000000002 394.8 230.39999999999998 350.0 252.0"/><path class="valley" d="M 350.0 164.74990080197625 C 324.4 175.64994048118575 318.0 181.0999603207905 318.0 192.0 C 318.0 201.6 324.4 206.4 350.0 216.0"/><path class="valley" d="M 350.0 164.74990080197625 C 375.6 175.64994048118575 382.0 181.0999603207905 382.0 192.0 C 382.0 201.6 375.6 206.4 350.0 216.0"/><line class="valley" x1="400.0" y1="600.0" x2="300.0" y2="573.2050807568877"/><line class="valley" x1="250.0" y1="600.0" x2="250.0" y2="531.2500991980237"/><line class="valley" x1="300.0" y1="573.2050807568877" x2="250.0" y2="531.2500991980237"/><line class="valley" x1="200.0" y1="573.2050807568877" x2="250.0" y2="531.2500991980237"/><line class="valley" x1="350.0" y1="586.6025403784439" x2="349.99999999999994" y2="300.0"/><line class="valley" x1="250.0" y1="531.2500991980237" x2="249.99999999999997" y2="300.0"/><path class="valley" d="M 300.0 573.2050807568877 C 328.79999999999995 504.72304845413265 336.0 470.4820323027551 336.0 402.0 C 336.0 361.2 328.79999999999995 340.8 299.99999999999994 300.0"/><path class="valley" d="M 400.0 573.2050807568877 C 371.2 504.7230484541326 364.0 470.4820323027551 364.0 402.0 C 364.0 361.2 371.2 340.8 399.99999999999994 300.0"/><path class="valley" d="M 250.0 531.2500991980237 C 307.59999999999997 479.55005951881424 322.0 453.7000396792095 322.0 402.0 C 322.0 366.0 307.59999999999997 348.0 249.99999999999997 312.0"/><path class="valley" d="M 250.0 531.2500991980237 C 192.39999999999998 479.55005951881424 178.0 453.7000396792095 177.99999999999997 402.0 C 177.99999999999997 366.0 192.39999999999998 348.0 249.99999999999997 312.0"/><path class="valley" d="M 249.99999999999997 477.25009919802375 C 294.8 447.15005951881426 306.0 432.1000396792095 306.0 402.0 C 306.0 380.4 294.79999999999995 369.6 249.99999999999997 348.0"/><path class="valley" d="M 249.99999999999997 477.2500991980237 C 205.2 447.15005951881426 194.0 432.1000396792095 193.99999999999997 402.0 C 193.99999999999997 380.4 205.19999999999996 369.6 249.99999999999997 348.0"/><path class="valley" d="M 249.99999999999997 435.2500991980238 C 275.59999999999997 424.3500595188143 282.0 418.9000396792095 282.0 408.0 C 282.0 398.40000000000003 275.59999999999997 393.6 249.99999999999997 384.0"/><path class="valley" d="M 249.99999999999997 435.2500991980237 C 224.39999999999998 424.3500595188142 217.99999999999997 418.9000396792095 217.99999999999997 408.0 C 217.99999999999997 398.4 224.39999999999998 393.59999999999997 249.99999999999997 384.0"/><line class="valley" x1="400" y1="0" x2="500.0" y2="26.79491924311227"/><line class="valley" x1="550.0" y1="0.0" x2="550.0" y2="68.74990080197627"/><line class="valley" x1="500.0" y1="26.79491924311227" x2="550.0" y2="68.74990080197627"/><line class="valley" x1="600.0" y1="26.79491924311227" x2="550.0" y2="68.74990080197627"/><line class="valley" x1="450.0" y1="13.397459621556134" x2="450.0" y2="300.0"/><line class="valley" x1="550.0" y1="68.74990080197627" x2="550.0" y2="300.0"/><path class="valley" d="M 500.0 26.79491924311227 C 471.2 95.27695154586736 464.0 129.5179676972449 464.0 198.0 C 464.0 238.8 471.2 259.2 500.0 300.0"/><path class="valley" d="M 400.0 26.79491924311227 C 428.8 95.27695154586736 436.0 129.5179676972449 436.0 198.0 C 436.0 238.8 428.8 259.2 400.0 300.0"/><path class="valley" d="M 550.0 68.74990080197627 C 492.4 120.44994048118576 478.0 146.2999603207905 478.0 198.0 C 478.0 234.0 492.4 252.0 550.0 288.0"/><path class="valley" d="M 550.0 68.74990080197627 C 607.6 120.44994048118576 622.0 146.2999603207905 622.0 198.0 C 622.0 234.0 607.6 252.0 550.0 288.0"/><path class="valley" d="M 550.0 122.74990080197627 C 505.2 152.84994048118574 494.0 167.8999603207905 494.0 198.0 C 494.0 219.60000000000002 505.2 230.39999999999998 550.0 252.0"/><path class="valley" d="M 550.0 122.74990080197627 C 594.8 152.84994048118574 606.0 167.8999603207905 606.0 198.0 C 606.0 219.60000000000002 594.8 230.39999999999998 550.0 252.0"/><path class="valley" d="M 550.0 164.74990080197625 C 524.4 175.64994048118575 518.0 181.0999603207905 518.0 192.0 C 518.0 201.6 524.4 206.4 550.0 216.0"/><path class="valley" d="M 550.0 164.74990080197625 C 575.6 175.64994048118575 582.0 181.0999603207905 582.0 192.0 C 582.0 201.6 575.6 206.4 550.0 216.0"/><line class="valley" x1="600.0" y1="600.0" x2="500.0" y2="573.2050807568877"/><line class="valley" x1="450.0" y1="600.0" x2="450.0" y2="531.2500991980237"/><line class="valley" x1="500.0" y1="573.2050807568877" x2="450.0" y2="531.2500991980237"/><line class="valley" x1="400.0" y1="573.2050807568877" x2="450.0" y2="531.2500991980237"/><line class="valley" x1="550.0" y1="586.6025403784439" x2="550.0" y2="300.0"/><line class="valley" x1="450.0" y1="531.2500991980237" x2="450.0" y2="300.0"/><path class="valley" d="M 500.0 573.2050807568877 C 528.8 504.72304845413265 536.0 470.4820323027551 536.0 402.0 C 536.0 361.2 528.8 340.8 499.99999999999994 300.0"/><path class="valley" d="M 600.0 573.2050807568877 C 571.2 504.7230484541326 564.0 470.4820323027551 564.0 402.0 C 564.0 361.2 571.1999999999999 340.8 600.0 300.0"/><path class="valley" d="M 450.0 531.2500991980237 C 507.59999999999997 479.55005951881424 522.0 453.7000396792095 522.0 402.0 C 522.0 366.0 507.59999999999997 348.0 450.0 312.0"/><path class="valley" d="M 450.0 531.2500991980237 C 392.4 479.55005951881424 378.0 453.7000396792095 378.0 402.0 C 378.0 366.0 392.4 348.0 450.0 312.0"/><path class="valley" d="M 450.0 477.25009919802375 C 494.8 447.15005951881426 506.0 432.1000396792095 506.0 402.0 C 506.0 380.4 494.79999999999995 369.6 450.0 348.0"/><path class="valley" d="M 450.0 477.2500991980237 C 405.2 447.15005951881426 394.0 432.1000396792095 394.0 402.0 C 394.0 380.4 405.19999999999993 369.6 450.0 348.0"/><path class="valley" d="M 450.0 435.2500991980238 C 475.59999999999997 424.3500595188143 482.0 418.9000396792095 482.0 408.0 C 482.0 398.40000000000003 475.59999999999997 393.6 450.0 384.0"/><path class="valley" d="M 450.0 435.2500991980237 C 424.4 424.3500595188142 418.0 418.9000396792095 418.0 408.0 C 418.0 398.4 424.4 393.59999999999997 450.0 384.0"/><line class="valley" x1="600" y1="0" x2="700.0" y2="26.79491924311227"/><line class="valley" x1="750.0" y1="0.0" x2="750.0" y2="68.74990080197627"/><line class="valley" x1="700.0" y1="26.79491924311227" x2="750.0" y2="68.74990080197627"/><line class="valley" x1="800.0" y1="26.79491924311227" x2="750.0" y2="68.74990080197627"/><line class="valley" x1="650.0" y1="13.397459621556134" x2="650.0" y2="300.0"/><line class="valley" x1="750.0" y1="68.74990080197627" x2="750.0" y2="300.0"/><path class="valley" d="M 700.0 26.79491924311227 C 671.2 95.27695154586736 664.0 129.5179676972449 664.0 198.0 C 664.0 238.8 671.2 259.2 700.0 300.0"/><path class="valley" d="M 600.0 26.79491924311227 C 628.8 95.27695154586736 636.0 129.5179676972449 636.0 198.0 C 636.0 238.8 628.8 259.2 600.0 300.0"/><path class="valley" d="M 750.0 68.74990080197627 C 692.4 120.44994048118576 678.0 146.2999603207905 678.0 198.0 C 678.0 234.0 692.4 252.0 750.0 288.0"/><path class="valley" d="M 750.0 68.74990080197627 C 807.6 120.44994048118576 822.0 146.2999603207905 822.0 198.0 C 822.0 234.0 807.6 252.0 750.0 288.0"/><path class="valley" d="M 750.0 122.74990080197627 C 705.2 152.84994048118574 694.0 167.8999603207905 694.0 198.0 C 694.0 219.60000000000002 705.2 230.39999999999998 750.0 252.0"/><path class="valley" d="M 750.0 122.74990080197627 C 794.8 152.84994048118574 806.0 167.8999603207905 806.0 198.0 C 806.0 219.60000000000002 794.8 230.39999999999998 750.0 252.0"/><path class="valley" d="M 750.0 164.74990080197625 C 724.4 175.64994048118575 718.0 181.0999603207905 718.0 192.0 C 718.0 201.6 724.4 206.4 750.0 216.0"/><path class="valley" d="M 750.0 164.74990080197625 C 775.6 175.64994048118575 782.0 181.0999603207905 782.0 192.0 C 782.0 201.6 775.6 206.4 750.0 216.0"/><line class="valley" x1="800.0" y1="600.0" x2="700.0" y2="573.2050807568877"/><line class="valley" x1="650.0" y1="600.0" x2="650.0" y2="531.2500991980237"/><line class="valley" x1="700.0" y1="573.2050807568877" x2="650.0" y2="531.2500991980237"/><line class="valley" x1="600.0" y1="573.2050807568877" x2="650.0" y2="531.2500991980237"/><line class="valley" x1="750.0" y1="586.6025403784439" x2="750.0" y2="300.0"/><line class="valley" x1="650.0" y1="531.2500991980237" x2="650.0" y2="300.0"/><path class="valley" d="M 700.0 573.2050807568877 C 728.8 504.72304845413265 736.0 470.4820323027551 736.0 402.0 C 736.0 361.2 728.8 340.8 700.0 300.0"/><path class="valley" d="M 800.0 573.2050807568877 C 771.2 504.7230484541326 764.0 470.4820323027551 764.0 402.0 C 764.0 361.2 771.1999999999999 340.8 800.0 300.0"/><path class="valley" d="M 650.0 531.2500991980237 C 707.6 479.55005951881424 722.0 453.7000396792095 722.0 402.0 C 722.0 366.0 707.5999999999999 348.0 650.0 312.0"/><path class="valley" d="M 650.0 531.2500991980237 C 592.4 479.55005951881424 578.0 453.7000396792095 578.0 402.0 C 578.0 366.0 592.4 348.0 650.0 312.0"/><path class="valley" d="M 650.0 477.25009919802375 C 694.8 447.15005951881426 706.0 432.1000396792095 706.0 402.0 C 706.0 380.4 694.8 369.6 650.0 348.0"/><path class="valley" d="M 650.0 477.2500991980237 C 605.1999999999999 447.15005951881426 594.0 432.1000396792095 594.0 402.0 C 594.0 380.4 605.1999999999999 369.6 650.0 348.0"/><path class="valley" d="M 650.0 435.2500991980238 C 675.5999999999999 424.3500595188143 682.0 418.9000396792095 682.0 408.0 C 682.0 398.40000000000003 675.5999999999999 393.6 650.0 384.0"/><path class="valley" d="M 650.0 435.2500991980237 C 624.4 424.3500595188142 618.0 418.9000396792095 618.0 408.0 C 618.0 398.4 624.4 393.59999999999997 650.0 384.0"/><line class="valley" x1="800" y1="0" x2="900.0" y2="26.79491924311227"/><line class="valley" x1="950.0" y1="0.0" x2="950.0" y2="68.74990080197627"/><line class="valley" x1="900.0" y1="26.79491924311227" x2="950.0" y2="68.74990080197627"/><line class="valley" x1="1000.0" y1="26.79491924311227" x2="950.0" y2="68.74990080197627"/><line class="valley" x1="850.0" y1="13.397459621556134" x2="850.0" y2="300.0"/><line class="valley" x1="950.0" y1="68.74990080197627" x2="950.0" y2="300.0"/><path class="valley" d="M 900.0 26.79491924311227 C 871.2 95.27695154586736 864.0 129.5179676972449 864.0 198.0 C 864.0 238.8 871.2 259.2 900.0 300.0"/><path class="valley" d="M 800.0 26.79491924311227 C 828.8 95.27695154586736 836.0 129.5179676972449 836.0 198.0 C 836.0 238.8 828.8 259.2 800.0 300.0"/><path class="valley" d="M 950.0 68.74990080197627 C 892.4 120.44994048118576 878.0 146.2999603207905 878.0 198.0 C 878.0 234.0 892.4 252.0 950.0 288.0"/><path class="valley" d="M 950.0 68.74990080197627 C 1007.6 120.44994048118576 1022.0 146.2999603207905 1022.0 198.0 C 1022.0 234.0 1007.6 252.0 950.0 288.0"/><path class="valley" d="M 950.0 122.74990080197627 C 905.2 152.84994048118574 894.0 167.8999603207905 894.0 198.0 C 894.0 219.60000000000002 905.2 230.39999999999998 950.0 252.0"/><path class="valley" d="M 950.0 122.74990080197627 C 994.8 152.84994048118574 1006.0 167.8999603207905 1006.0 198.0 C 1006.0 219.60000000000002 994.8 230.39999999999998 950.0 252.0"/><path class="valley" d="M 950.0 164.74990080197625 C 924.4 175.64994048118575 918.0 181.0999603207905 918.0 192.0 C 918.0 201.6 924.4 206.4 950.0 216.0"/><path class="valley" d="M 950.0 164.74990080197625 C 975.6 175.64994048118575 982.0 181.0999603207905 982.0 192.0 C 982.0 201.6 975.6 206.4 950.0 216.0"/><line class="valley" x1="1000.0" y1="600.0" x2="900.0" y2="573.2050807568877"/><line class="valley" x1="850.0" y1="600.0" x2="850.0" y2="531.2500991980237"/><line class="valley" x1="900.0" y1="573.2050807568877" x2="850.0" y2="531.2500991980237"/><line class="valley" x1="800.0" y1="573.2050807568877" x2="850.0" y2="531.2500991980237"/><line class="valley" x1="950.0" y1="586.6025403784439" x2="950.0" y2="300.0"/><line class="valley" x1="850.0" y1="531.2500991980237" x2="850.0" y2="300.0"/><path class="valley" d="M 900.0 573.2050807568877 C 928.8 504.72304845413265 936.0 470.4820323027551 936.0 402.0 C 936.0 361.2 928.8 340.8 900.0 300.0"/><path class="valley" d="M 1000.0 573.2050807568877 C 971.2 504.7230484541326 964.0 470.4820323027551 964.0 402.0 C 964.0 361.2 971.1999999999999 340.8 1000.0 300.0"/><path class="valley" d="M 850.0 531.2500991980237 C 907.6 479.55005951881424 922.0 453.7000396792095 922.0 402.0 C 922.0 366.0 907.5999999999999 348.0 850.0 312.0"/><path class="valley" d="M 850.0 531.2500991980237 C 792.4 479.55005951881424 778.0 453.7000396792095 778.0 402.0 C 778.0 366.0 792.4 348.0 850.0 312.0"/><path class="valley" d="M 850.0 477.25009919802375 C 894.8 447.15005951881426 906.0 432.1000396792095 906.0 402.0 C 906.0 380.4 894.8 369.6 850.0 348.0"/><path class="valley" d="M 850.0 477.2500991980237 C 805.1999999999999 447.15005951881426 794.0 432.1000396792095 794.0 402.0 C 794.0 380.4 805.1999999999999 369.6 850.0 348.0"/><path class="valley" d="M 850.0 435.2500991980238 C 875.5999999999999 424.3500595188143 882.0 418.9000396792095 882.0 408.0 C 882.0 398.40000000000003 875.5999999999999 393.6 850.0 384.0"/><path class="valley" d="M 850.0 435.2500991980237 C 824.4 424.3500595188142 818.0 418.9000396792095 818.0 408.0 C 818.0 398.4 824.4 393.59999999999997 850.0 384.0"/><line class="valley" x1="1000" y1="0" x2="1100.0" y2="26.79491924311227"/><line class="valley" x1="1150.0" y1="0.0" x2="1150.0" y2="68.74990080197627"/><line class="valley" x1="1100.0" y1="26.79491924311227" x2="1150.0" y2="68.74990080197627"/><line class="valley" x1="1200.0" y1="26.79491924311227" x2="1150.0" y2="68.74990080197627"/><line class="valley" x1="1050.0" y1="13.397459621556134" x2="1050.0" y2="300.0"/><line class="valley" x1="1150.0" y1="68.74990080197627" x2="1150.0" y2="300.0"/><path class="valley" d="M 1100.0 26.79491924311227 C 1071.2 95.27695154586736 1064.0 129.5179676972449 1064.0 198.0 C 1064.0 238.8 1071.2 259.2 1100.0 300.0"/><path class="valley" d="M 1000.0 26.79491924311227 C 1028.8 95.27695154586736 1036.0 129.5179676972449 1036.0 198.0 C 1036.0 238.8 1028.8 259.2 1000.0 300.0"/><path class="valley" d="M 1150.0 68.74990080197627 C 1092.4 120.44994048118576 1078.0 146.2999603207905 1078.0 198.0 C 1078.0 234.0 1092.4 252.0 1150.0 288.0"/><path class="valley" d="M 1150.0 68.74990080197627 C 1207.6 120.44994048118576 1222.0 146.2999603207905 1222.0 198.0 C 1222.0 234.0 1207.6 252.0 1150.0 288.0"/><path class="valley" d="M 1150.0 122.74990080197627 C 1105.2 152.84994048118574 1094.0 167.8999603207905 1094.0 198.0 C 1094.0 219.60000000000002 1105.2 230.39999999999998 1150.0 252.0"/><path class="valley" d="M 1150.0 122.74990080197627 C 1194.8 152.84994048118574 1206.0 167.8999603207905 1206.0 198.0 C 1206.0 219.60000000000002 1194.8 230.39999999999998 1150.0 252.0"/><path class="valley" d="M 1150.0 164.74990080197625 C 1124.4 175.64994048118575 1118.0 181.0999603207905 1118.0 192.0 C 1118.0 201.6 1124.4 206.4 1150.0 216.0"/><path class="valley" d="M 1150.0 164.74990080197625 C 1175.6 175.64994048118575 1182.0 181.0999603207905 1182.0 192.0 C 1182.0 201.6 1175.6 206.4 1150.0 216.0"/><line class="valley" x1="1200.0" y1="600.0" x2="1100.0" y2="573.2050807568877"/><line class="valley" x1="1050.0" y1="600.0" x2="1050.0" y2="531.2500991980237"/><line class="valley" x1="1100.0" y1="573.2050807568877" x2="1050.0" y2="531.2500991980237"/><line class="valley" x1="1000.0" y1="573.2050807568877" x2="1050.0" y2="531.2500991980237"/><line class="valley" x1="1150.0" y1="586.6025403784439" x2="1150.0" y2="300.0"/><line class="valley" x1="1050.0" y1="531.2500991980237" x2="1050.0" y2="300.0"/><path class="valley" d="M 1100.0 573.2050807568877 C 1128.8 504.72304845413265 1136.0 470.4820323027551 1136.0 402.0 C 1136.0 361.2 1128.8 340.8 1100.0 300.0"/><path class="valley" d="M 1200.0 573.2050807568877 C 1171.2 504.7230484541326 1164.0 470.4820323027551 1164.0 402.0 C 1164.0 361.2 1171.2 340.8 1200.0 300.0"/><path class="valley" d="M 1050.0 531.2500991980237 C 1107.6 479.55005951881424 1122.0 453.7000396792095 1122.0 402.0 C 1122.0 366.0 1107.6 348.0 1050.0 312.0"/><path class="valley" d="M 1050.0 531.2500991980237 C 992.4 479.55005951881424 978.0 453.7000396792095 978.0 402.0 C 978.0 366.0 992.4 348.0 1050.0 312.0"/><path class="valley" d="M 1050.0 477.25009919802375 C 1094.8 447.15005951881426 1106.0 432.1000396792095 1106.0 402.0 C 1106.0 380.4 1094.8 369.6 1050.0 348.0"/><path class="valley" d="M 1050.0 477.2500991980237 C 1005.1999999999999 447.15005951881426 994.0 432.1000396792095 994.0 402.0 C 994.0 380.4 1005.1999999999999 369.6 1050.0 348.0"/><path class="valley" d="M 1050.0 435.2500991980238 C 1075.6 424.3500595188143 1082.0 418.9000396792095 1082.0 408.0 C 1082.0 398.40000000000003 1075.6 393.6 1050.0 384.0"/><path class="valley" d="M 1050.0 435.2500991980237 C 1024.4 424.3500595188142 1018.0 418.9000396792095 1018.0 408.0 C 1018.0 398.4 1024.4 393.59999999999997 1050.0 384.0"/></svg>