<svg xmlns="http://www.w3.org/2000/svg" width="1200" height="600"><style >
.valley {stroke: #00f; stroke-width: 2px; fill:none}
.mountain {stroke: #f00; stroke-width: 2px; fill:none }
.cut {stroke: #000; stroke-width: 3px; fill:none } 
.hint {stroke: #000; stroke-width: 1px; fill:none } 
</style><rect class="cut" x="0" y="0" width="1200" height="100%"/><line class="cut" x1="200" y1="0" x2="200" y2="100%"/><line class="cut" x1="400" y1="0" x2="400" y2="100%"/><line class="cut" x1="600" y1="0" x2="600" y2="100%"/><line class="cut" x1="800" y1="0" x2="800" y2="100%"/><line class="cut" x1="1000" y1="0" x2="1000" y2="100%"/><line class="valley" x1="150.0" y1="0.0" x2="150.0" y2="76.79491924311226"/><line class="valley" x1="73.20508075688772" y1="0.0" x2="150.0" y2="76.79491924311226"/><line class="valley" x1="200.0" y1="26.79491924311227" x2="150.0" y2="76.79491924311226"/><line class="valley" x1="50.0" y1="0.0" x2="50.0" y2="300.0"/><line class="valley" x1="150.0" y1="76.79491924311226" x2="150.0" y2="300.0"/><path class="valley" d="M 100.0 26.79491924311227 C 71.2 102.47695154586737 64.0 159.23847577293367 64.0 216.0 C 64.0 249.6 71.2 283.2 100.0 300.0"/><path class="valley" d="M 0.0 26.79491924311227 C 28.799999999999997 102.47695154586737 36.0 159.23847577293367 36.0 216.0 C 36.0 249.6 28.799999999999997 283.2 0.0 300.0"/><path class="valley" d="M 150.0 76.79491924311226 C 92.4 132.47695154586737 78.0 174.23847577293367 78.0 216.0 C 78.0 244.8 92.4 273.6 150.0 288.0"/><path class="valley" d="M 150.0 76.79491924311226 C 207.6 132.47695154586737 222.0 174.23847577293367 222.0 216.0 C 222.0 244.8 207.6 273.6 150.0 288.0"/><path class="valley" d="M 150.0 76.79491924311226 C 121.19999999999999 132.47695154586737 113.99999999999999 174.23847577293367 113.99999999999999 216.0 C 113.99999999999999 244.8 121.19999999999999 273.6 150.0 288.0"/><path class="valley" d="M 150.0 76.79491924311226 C 178.8 132.47695154586737 186.0 174.23847577293367 186.0 216.0 C 186.0 244.8 178.8 273.6 150.0 288.0"/><line class="valley" x1="50.0" y1="600.0" x2="50.0" y2="523.2050807568878"/><line class="valley" x1="126.79491924311228" y1="600.0" x2="50.0" y2="523.2050807568878"/><line class="valley" x1="0.0" y1="573.2050807568877" x2="50.0" y2="523.2050807568878"/><line class="valley" x1="150.0" y1="600.0" x2="149.99999999999997" y2="300.0"/><line class="valley" x1="50.0" y1="523.2050807568878" x2="49.99999999999997" y2="300.0"/><path class="valley" d="M 100.0 573.2050807568877 C 128.79999999999998 497.52304845413266 136.0 440.76152422706633 135.99999999999997 384.0 C 135.99999999999997 350.4 128.79999999999995 316.8 99.99999999999996 300.0"/><path class="valley" d="M 200.0 573.2050807568877 C 171.2 497.5230484541326 163.99999999999997 440.76152422706633 163.99999999999997 384.0 C 163.99999999999997 350.4 171.2 316.8 199.99999999999994 300.0"/><path class="valley" d="M 50.0 523.2050807568878 C 107.59999999999998 467.52304845413266 121.99999999999997 425.76152422706633 121.99999999999997 384.0 C 121.99999999999997 355.2 107.59999999999997 326.4 49.99999999999997 312.0"/><path class="valley" d="M 50.0 523.2050807568877 C -7.6000000000000085 467.52304845413266 -22.00000000000003 425.76152422706633 -22.00000000000003 384.0 C -22.00000000000003 355.2 -7.600000000000023 326.4 49.99999999999997 312.0"/><path class="valley" d="M 50.0 523.2050807568878 C 78.8 467.52304845413266 85.99999999999999 425.76152422706633 85.99999999999999 384.0 C 85.99999999999999 355.2 78.79999999999998 326.4 49.99999999999997 312.0"/><path class="valley" d="M 50.0 523.2050807568877 C 21.199999999999974 467.5230484541326 13.999999999999957 425.76152422706633 13.999999999999957 384.0 C 13.999999999999957 355.2 21.19999999999996 326.4 49.99999999999997 312.0"/><line class="valley" x1="350.0" y1="0.0" x2="350.0" y2="76.79491924311226"/><line class="valley" x1="273.2050807568877" y1="0.0" x2="350.0" y2="76.79491924311226"/><line class="valley" x1="400.0" y1="26.79491924311227" x2="350.0" y2="76.79491924311226"/><line class="valley" x1="250.0" y1="0.0" x2="250.0" y2="300.0"/><line class="valley" x1="350.0" y1="76.79491924311226" x2="350.0" y2="300.0"/><path class="valley" d="M 300.0 26.79491924311227 C 271.2 102.47695154586737 264.0 159.23847577293367 264.0 216.0 C 264.0 249.6 271.2 283.2 300.0 300.0"/><path class="valley" d="M 200.0 26.79491924311227 C 228.8 102.47695154586737 236.0 159.23847577293367 236.0 216.0 C 236.0 249.6 228.8 283.2 200.0 300.0"/><path class="valley" d="M 350.0 76.79491924311226 C 292.4 132.47695154586737 278.0 174.23847577293367 278.0 216.0 C 278.0 244.8 292.4 273.6 350.0 288.0"/><path class="valley" d="M 350.0 76.79491924311226 C 407.6 132.47695154586737 422.0 174.23847577293367 422.0 216.0 C 422.0 244.8 407.6 273.6 350.0 288.0"/><path class="valley" d="M 350.0 76.79491924311226 C 321.2 132.47695154586737 314.0 174.23847577293367 314.0 216.0 C 314.0 244.8 321.2 273.6 350.0 288.0"/><path class="valley" d="M 350.0 76.79491924311226 C 378.8 132.47695154586737 386.0 174.23847577293367 386.0 216.0 C 386.0 244.8 378.8 273.6 350.0 288.0"/><line class="valley" x1="250.0" y1="600.0" x2="250.0" y2="523.2050807568878"/><line class="valley" x1="326.7949192431123" y1="600.0" x2="250.0" y2="523.2050807568878"/><line class="valley" x1="200.0" y1="573.2050807568877" x2="250.0" y2="523.2050807568878"/><line class="valley" x1="350.0" y1="600.0" x2="349.99999999999994" y2="300.0"/><line class="valley" x1="250.0" y1="523.2050807568878" x2="249.99999999999997" y2="300.0"/><path class="valley" d="M 300.0 573.2050807568877 C 328.79999999999995 497.52304845413266 336.0 440.76152422706633 336.0 384.0 C 336.0 350.4 328.79999999999995 316.8 299.99999999999994 300.0"/><path class="valley" d="M 400.0 573.2050807568877 C 371.2 497.5230484541326 364.0 440.76152422706633 364.0 384.0 C 364.0 350.4 371.2 316.8 399.99999999999994 300.0"/><path class="valley" d="M 250.0 523.2050807568878 C 307.59999999999997 467.52304845413266 322.0 425.76152422706633 322.0 384.0 C 322.0 355.2 307.59999999999997 326.4 249.99999999999997 312.0"/><path class="valley" d="M 250.0 523.2050807568877 C 192.39999999999998 467.52304845413266 177.99999999999997 425.76152422706633 177.99999999999997 384.0 C 177.99999999999997 355.2 192.39999999999998 326.4 249.99999999999997 312.0"/><path class="valley" d="M 250.0 523.2050807568878 C 278.8 467.52304845413266 286.0 425.76152422706633 286.0 384.0 C 286.0 355.2 278.79999999999995 326.4 249.99999999999997 312.0"/><path class="valley" d="M 250.0 523.2050807568877 C 221.2 467.5230484541326 213.99999999999994 425.76152422706633 213.99999999999994 384.0 C 213.99999999999994 355.2 221.19999999999996 326.4 249.99999999999997 312.0"/><line class="valley" x1="550.0" y1="0.0" x2="550.0" y2="76.79491924311226"/><line class="valley" x1="473.2050807568877" y1="0.0" x2="550.0" y2="76.79491924311226"/><line class="valley" x1="600.0" y1="26.79491924311227" x2="550.0" y2="76.79491924311226"/><line class="valley" x1="450.0" y1="0.0" x2="450.0" y2="300.0"/><line class="valley" x1="550.0" y1="76.79491924311226" x2="550.0" y2="300.0"/><path class="valley" d="M 500.0 26.79491924311227 C 471.2 102.47695154586737 464.0 159.23847577293367 464.0 216.0 C 464.0 249.6 471.2 283.2 500.0 300.0"/><path class="valley" d="M 400.0 26.79491924311227 C 428.8 102.47695154586737 436.0 159.23847577293367 436.0 216.0 C 436.0 249.6 428.8 283.2 400.0 300.0"/><path class="valley" d="M 550.0 76.79491924311226 C 492.4 132.47695154586737 478.0 174.23847577293367 478.0 216.0 C 478.0 244.8 492.4 273.6 550.0 288.0"/><path class="valley" d="M 550.0 76.79491924311226 C 607.6 132.47695154586737 622.0 174.23847577293367 622.0 216.0 C 622.0 244.8 607.6 273.6 550.0 288.0"/><path class="valley" d="M 550.0 76.79491924311226 C 521.2 132.47695154586737 514.0 174.23847577293367 514.0 216.0 C 514.0 244.8 521.2 273.6 550.0 288.0"/><path class="valley" d="M 550.0 76.79491924311226 C 578.8 132.47695154586737 586.0 174.23847577293367 586.0 216.0 C 586.0 244.8 578.8 273.6 550.0 288.0"/><line class="valley" x1="450.0" y1="600.0" x2="450.0" y2="523.2050807568878"/><line class="valley" x1="526.7949192431123" y1="600.0" x2="450.0" y2="523.2050807568878"/><line class="valley" x1="400.0" y1="573.2050807568877" x2="450.0" y2="523.2050807568878"/><line class="valley" x1="550.0" y1="600.0" x2="550.0" y2="300.0"/><line class="valley" x1="450.0" y1="523.2050807568878" x2="450.0" y2="300.0"/><path class="valley" d="M 500.0 573.2050807568877 C 528.8 497.52304845413266 536.0 440.76152422706633 536.0 384.0 C 536.0 350.4 528.8 316.8 499.99999999999994 300.0"/><path class="valley" d="M 600.0 573.2050807568877 C 571.2 497.5230484541326 564.0 440.76152422706633 564.0 384.0 C 564.0 350.4 571.1999999999999 316.8 600.0 300.0"/><path class="valley" d="M 450.0 523.2050807568878 C 507.59999999999997 467.52304845413266 522.0 425.76152422706633 522.0 384.0 C 522.0 355.2 507.59999999999997 326.4 450.0 312.0"/><path class="valley" d="M 450.0 523.2050807568877 C 392.4 467.52304845413266 378.0 425.76152422706633 378.0 384.0 C 378.0 355.2 392.4 326.4 450.0 312.0"/><path class="valley" d="M 450.0 523.2050807568878 C 478.8 467.52304845413266 486.0 425.76152422706633 486.0 384.0 C 486.0 355.2 478.79999999999995 326.4 450.0 312.0"/><path class="valley" d="M 450.0 523.2050807568877 C 421.2 467.5230484541326 413.99999999999994 425.76152422706633 413.99999999999994 384.0 C 413.99999999999994 355.2 421.19999999999993 326.4 450.0 312.0"/><line class="valley" x1="750.0" y1="0.0" x2="750.0" y2="76.79491924311226"/><line class="valley" x1="673.2050807568877" y1="0.0" x2="750.0" y2="76.79491924311226"/><line class="valley" x1="800.0" y1="26.79491924311227" x2="750.0" y2="76.79491924311226"/><line class="valley" x1="650.0" y1="0.0" x2="650.0" y2="300.0"/><line class="valley" x1="750.0" y1="76.79491924311226" x2="750.0" y2="300.0"/><path class="valley" d="M 700.0 26.79491924311227 C 671.2 102.47695154586737 664.0 159.23847577293367 664.0 216.0 C 664.0 249.6 671.2 283.2 700.0 300.0"/><path class="valley" d="M 600.0 26.79491924311227 C 628.8 102.47695154586737 636.0 159.23847577293367 636.0 216.0 C 636.0 249.6 628.8 283.2 600.0 300.0"/><path class="valley" d="M 750.0 76.79491924311226 C 692.4 132.47695154586737 678.0 174.23847577293367 678.0 216.0 C 678.0 244.8 692.4 273.6 750.0 288.0"/><path class="valley" d="M 750.0 76.79491924311226 C 807.6 132.47695154586737 822.0 174.23847577293367 822.0 216.0 C 822.0 244.8 807.6 273.6 750.0 288.0"/><path class="valley" d="M 750.0 76.79491924311226 C 721.2 132.47695154586737 714.0 174.23847577293367 714.0 216.0 C 714.0 244.8 721.2 273.6 750.0 288.0"/><path class="valley" d="M 750.0 76.79491924311226 C 778.8 132.47695154586737 786.0 174.23847577293367 786.0 216.0 C 786.0 244.8 778.8 273.6 750.0 288.0"/><line class="valley" x1="650.0" y1="600.0" x2="650.0" y2="523.2050807568878"/><line class="valley" x1="726.7949192431123" y1="600.0" x2="650.0" y2="523.2050807568878"/><line class="valley" x1="600.0" y1="573.2050807568877" x2="650.0" y2="523.2050807568878"/><line class="valley" x1="750.0" y1="600.0" x2="750.0" y2="300.0"/><line class="valley" x1="650.0" y1="523.2050807568878" x2="650.0" y2="300.0"/><path class="valley" d="M 700.0 573.2050807568877 C 728.8 497.52304845413266 736.0 440.76152422706633 736.0 384.0 C 736.0 350.4 728.8 316.8 700.0 300.0"/><path class="valley" d="M 800.0 573.2050807568877 C 771.2 497.5230484541326 764.0 440.76152422706633 764.0 384.0 C 764.0 350.4 771.1999999999999 316.8 800.0 300.0"/><path class="valley" d="M 650.0 523.2050807568878 C 707.6 467.52304845413266 722.0 425.76152422706633 722.0 384.0 C 722.0 355.2 707.5999999999999 326.4 650.0 312.0"/><path class="valley" d="M 650.0 523.2050807568877 C 592.4 467.52304845413266 578.0 425.76152422706633 578.0 384.0 C 578.0 355.2 592.4 326.4 650.0 312.0"/><path class="valley" d="M 650.0 523.2050807568878 C 678.8 467.52304845413266 686.0 425.76152422706633 686.0 384.0 C 686.0 355.2 678.8 326.4 650.0 312.0"/><path class="valley" d="M 650.0 523.2050807568877 C 621.1999999999999 467.5230484541326 614.0 425.76152422706633 614.0 384.0 C 614.0 355.2 621.1999999999999 326.4 650.0 312.0"/><line class="valley" x1="950.0" y1="0.0" x2="950.0" y2="76.79491924311226"/><line class="valley" x1="873.2050807568877" y1="0.0" x2="950.0" y2="76.79491924311226"/><line class="valley" x1="1000.0" y1="26.79491924311227" x2="950.0" y2="76.79491924311226"/><line class="valley" x1="850.0" y1="0.0" x2="850.0" y2="300.0"/><line class="valley" x1="950.0" y1="76.79491924311226" x2="950.0" y2="300.0"/><path class="valley" d="M 900.0 26.79491924311227 C 871.2 102.47695154586737 864.0 159.23847577293367 864.0 216.0 C 864.0 249.6 871.2 283.2 900.0 300.0"/><path class="valley" d="M 800.0 26.79491924311227 C 828.8 102.47695154586737 836.0 159.23847577293367 836.0 216.0 C 836.0 249.6 828.8 283.2 800.0 300.0"/><path class="valley" d="M 950.0 76.79491924311226 C 892.4 132.47695154586737 878.0 174.23847577293367 878.0 216.0 C 878.0 244.8 892.4 273.6 950.0 288.0"/><path class="valley" d="M 950.0 76.79491924311226 C 1007.6 132.47695154586737 1022.0 174.23847577293367 1022.0 216.0 C 1022.0 244.8 1007.6 273.6 950.0 288.0"/><path class="valley" d="M 950.0 76.79491924311226 C 921.2 132.47695154586737 914.0 174.23847577293367 914.0 216.0 C 914.0 244.8 921.2 273.6 950.0 288.0"/><path class="valley" d="M 950.0 76.79491924311226 C 978.8 132.47695154586737 986.0 174.23847577293367 986.0 216.0 C 986.0 244.8 978.8 273.6 950.0 288.0"/><line class="valley" x1="850.0" y1="600.0" x2="850.0" y2="523.2050807568878"/><line class="valley" x1="926.7949192431123" y1="600.0" x2="850.0" y2="523.2050807568878"/><line class="valley" x1="800.0" y1="573.2050807568877" x2="850.0" y2="523.2050807568878"/><line class="valley" x1="950.0" y1="600.0" x2="950.0" y2="300.0"/><line class="valley" x1="850.0" y1="523.2050807568878" x2="850.0" y2="300.0"/><path class="valley" d="M 900.0 573.2050807568877 C 928.8 497.52304845413266 936.0 440.76152422706633 936.0 384.0 C 936.0 350.4 928.8 316.8 900.0 300.0"/><path class="valley" d="M 1000.0 573.2050807568877 C 971.2 497.5230484541326 964.0 440.76152422706633 964.0 384.0 C 964.0 350.4 971.1999999999999 316.8 1000.0 300.0"/><path class="valley" d="M 850.0 523.2050807568878 C 907.6 467.52304845413266 922.0 425.76152422706633 922.0 384.0 C 922.0 355.2 907.5999999999999 326.4 850.0 312.0"/><path class="valley" d="M 850.0 523.2050807568877 C 792.4 467.52304845413266 778.0 425.76152422706633 778.0 384.0 C 778.0 355.2 792.4 326.4 850.0 312.0"/><path class="valley" d="M 850.0 523.2050807568878 C 878.8 467.52304845413266 886.0 425.76152422706633 886.0 384.0 C 886.0 355.2 878.8 326.4 850.0 312.0"/><path class="valley" d="M 850.0 523.2050807568877 C 821.1999999999999 467.5230484541326 814.0 425.76152422706633 814.0 384.0 C 814.0 355.2 821.1999999999999 326.4 850.0 312.0"/><line class="valley" x1="1150.0" y1="0.0" x2="1150.0" y2="76.79491924311226"/><line class="valley" x1="1073.2050807568878" y1="0.0" x2="1150.0" y2="76.79491924311226"/><line class="valley" x1="1200.0" y1="26.79491924311227" x2="1150.0" y2="76.79491924311226"/><line class="valley" x1="1050.0" y1="0.0" x2="1050.0" y2="300.0"/><line class="valley" x1="1150.0" y1="76.79491924311226" x2="1150.0" y2="300.0"/><path class="valley" d="M 1100.0 26.79491924311227 C 1071.2 102.47695154586737 1064.0 159.23847577293367 1064.0 216.0 C 1064.0 249.6 1071.2 283.2 1100.0 300.0"/><path class="valley" d="M 1000.0 26.79491924311227 C 1028.8 102.47695154586737 1036.0 159.23847577293367 1036.0 216.0 C 1036.0 249.6 1028.8 283.2 1000.0 300.0"/><path class="valley" d="M 1150.0 76.79491924311226 C 1092.4 132.47695154586737 1078.0 174.23847577293367 1078.0 216.0 C 1078.0 244.8 1092.4 273.6 1150.0 288.0"/><path class="valley" d="M 1150.0 76.79491924311226 C 1207.6 132.47695154586737 1222.0 174.23847577293367 1222.0 216.0 C 1222.0 244.8 1207.6 273.6 1150.0 288.0"/><path class="valley" d="M 1150.0 76.79491924311226 C 1121.2 132.47695154586737 1114.0 174.23847577293367 1114.0 216.0 C 1114.0 244.8 1121.2 273.6 1150.0 288.0"/><path class="valley" d="M 1150.0 76.79491924311226 C 1178.8 132.47695154586737 1186.0 174.23847577293367 1186.0 216.0 C 1186.0 244.8 1178.8 273.6 1150.0 288.0"/><line class="valley" x1="1050.0" y1="600.0" x2="1050.0" y2="523.2050807568878"/><line class="valley" x1="1126.7949192431122" y1="600.0" x2="1050.0" y2="523.2050807568878"/><line class="valley" x1="1000.0" y1="573.2050807568877" x2="1050.0" y2="523.2050807568878"/><line class="valley" x1="1150.0" y1="600.0" x2="1150.0" y2="300.0"/><line class="valley" x1="1050.0" y1="523.2050807568878" x2="1050.0" y2="300.0"/><path class="valley" d="M 1100.0 573.2050807568877 C 1128.8 497.52304845413266 1136.0 440.76152422706633 1136.0 384.0 C 1136.0 350.4 1128.8 316.8 1100.0 300.0"/><path class="valley" d="M 1200.0 573.2050807568877 C 1171.2 497.5230484541326 1164.0 440.76152422706633 1164.0 384.0 C 1164.0 350.4 1171.2 316.8 1200.0 300.0"/><path class="valley" d="M 1050.0 523.2050807568878 C 1107.6 467.52304845413266 1122.0 425.76152422706633 1122.0 384.0 C 1122.0 355.2 1107.6 326.4 1050.0 312.0"/><path class="valley" d="M 1050.0 523.2050807568877 C 992.4 467.52304845413266 978.0 425.76152422706633 978.0 384.0 C 978.0 355.2 992.4 326.4 1050.0 312.0"/><path class="valley" d="M 1050.0 523.2050807568878 C 1078.8 467.52304845413266 1086.0 425.76152422706633 1086.0 384.0 C 1086.0 355.2 1078.8 326.4 1050.0 312.0"/><path class="valley" d="M 1050.0 523.2050807568877 C 1021.1999999999999 467.5230484541326 1014.0 425.76152422706633 1014.0 384.0 C 1014.0 355.2 1021.1999999999999 326.4 1050.0 312.0"/></svg>