<svg xmlns="http://www.w3.org/2000/svg" width="400" height="800"><style >
.valley {stroke: #00f; stroke-width: 2px; fill:none}
.mountain {stroke: #f00; stroke-width: 2px; fill:none }
.cut {stroke: #000; stroke-width: 5px; fill:none } 
</style><rect class="cut" x="0" y="0" width="400" height="100%"/><line class="cut" x1="200" y1="0" x2="200" y2="100%"/><line class="valley" x1="0" y1="0" x2="100.0" y2="26.79491924311227"/><line class="valley" x1="150.0" y1="0.0" x2="150.0" y2="86.38259887282277"/><line class="valley" x1="100.0" y1="26.79491924311227" x2="150.0" y2="86.38259887282277"/><line class="valley" x1="200.0" y1="26.79491924311227" x2="150.0" y2="86.38259887282277"/><line class="valley" x1="50.0" y1="13.397459621556134" x2="50.0" y2="400.0"/><line class="valley" x1="150.0" y1="86.38259887282277" x2="150.0" y2="400.0"/><path class="valley" d="M 100.0 26.79491924311227 C 64.80000000000001 121.67695154586737 56.00000000000001 169.11796769724492 56.00000000000001 264.0 C 56.00000000000001 318.4 64.80000000000001 345.6 100.0 400.0"/><path class="valley" d="M 0.0 26.79491924311227 C 35.19999999999999 121.67695154586737 43.99999999999999 169.11796769724492 43.99999999999999 264.0 C 43.99999999999999 318.4 35.19999999999999 345.6 0.0 400.0"/><path class="valley" d="M 150.0 86.38259887282277 C 92.4 157.42955932369367 78.0 192.95303954912913 78.0 264.0 C 78.0 312.0 92.4 336.0 150.0 384.0"/><path class="valley" d="M 150.0 86.38259887282277 C 207.6 157.42955932369367 222.0 192.95303954912913 222.0 264.0 C 222.0 312.0 207.6 336.0 150.0 384.0"/><path class="valley" d="M 150.0 158.38259887282277 C 110.0 200.62955932369368 100.0 221.7530395491291 100.0 264.0 C 100.0 299.20000000000005 110.0 316.8 150.0 352.0"/><path class="valley" d="M 150.0 158.38259887282277 C 190.0 200.62955932369368 200.0 221.7530395491291 200.0 264.0 C 200.0 299.20000000000005 190.0 316.8 150.0 352.0"/><path class="valley" d="M 150.0 214.38259887282277 C 132.4 234.22955932369365 128.0 244.15303954912912 128.0 264.0 C 128.0 286.4 132.4 297.6 150.0 320.0"/><path class="valley" d="M 150.0 214.38259887282277 C 167.6 234.22955932369365 172.0 244.15303954912912 172.0 264.0 C 172.0 286.4 167.6 297.6 150.0 320.0"/><line class="valley" x1="200.0" y1="800.0" x2="100.0" y2="773.2050807568877"/><line class="valley" x1="50.0" y1="800.0" x2="50.0" y2="713.6174011271772"/><line class="valley" x1="100.0" y1="773.2050807568877" x2="50.0" y2="713.6174011271772"/><line class="valley" x1="0.0" y1="773.2050807568877" x2="50.0" y2="713.6174011271772"/><line class="valley" x1="150.0" y1="786.6025403784439" x2="149.99999999999994" y2="400.0"/><line class="valley" x1="50.0" y1="713.6174011271772" x2="49.99999999999994" y2="400.0"/><path class="valley" d="M 100.0 773.2050807568877 C 135.2 678.3230484541326 143.99999999999997 630.8820323027551 143.99999999999994 536.0 C 143.99999999999994 481.6 135.19999999999993 454.4 99.99999999999996 400.0"/><path class="valley" d="M 200.0 773.2050807568877 C 164.8 678.3230484541326 156.0 630.8820323027551 155.99999999999997 536.0 C 155.99999999999997 481.6 164.79999999999995 454.4 199.99999999999994 400.0"/><path class="valley" d="M 50.0 713.6174011271772 C 107.59999999999998 642.5704406763064 121.99999999999997 607.0469604508709 121.99999999999997 536.0 C 121.99999999999996 488.0 107.59999999999995 464.0 49.99999999999994 416.0"/><path class="valley" d="M 50.0 713.6174011271772 C -7.6000000000000085 642.5704406763064 -22.00000000000003 607.0469604508709 -22.00000000000003 536.0 C -22.000000000000043 488.0 -7.600000000000037 464.0 49.99999999999994 416.0"/><path class="valley" d="M 49.99999999999997 641.6174011271772 C 89.99999999999997 599.3704406763063 99.99999999999997 578.2469604508709 99.99999999999997 536.0 C 99.99999999999996 500.79999999999995 89.99999999999996 483.2 49.99999999999994 448.0"/><path class="valley" d="M 49.99999999999997 641.6174011271772 C 9.999999999999972 599.3704406763063 -2.842170943040401e-14 578.2469604508709 -2.842170943040401e-14 536.0 C -4.263256414560601e-14 500.79999999999995 9.999999999999957 483.2 49.99999999999994 448.0"/><path class="valley" d="M 49.99999999999997 585.6174011271772 C 67.59999999999997 565.7704406763064 71.99999999999997 555.8469604508709 71.99999999999997 536.0 C 71.99999999999997 513.6 67.59999999999997 502.4 49.99999999999997 480.0"/><path class="valley" d="M 49.99999999999997 585.6174011271772 C 32.39999999999998 565.7704406763063 27.99999999999997 555.8469604508708 27.99999999999997 536.0 C 27.99999999999997 513.6 32.39999999999998 502.4 49.99999999999997 480.0"/><line class="valley" x1="200" y1="0" x2="300.0" y2="26.79491924311227"/><line class="valley" x1="350.0" y1="0.0" x2="350.0" y2="86.38259887282277"/><line class="valley" x1="300.0" y1="26.79491924311227" x2="350.0" y2="86.38259887282277"/><line class="valley" x1="400.0" y1="26.79491924311227" x2="350.0" y2="86.38259887282277"/><line class="valley" x1="250.0" y1="13.397459621556134" x2="250.0" y2="400.0"/><line class="valley" x1="350.0" y1="86.38259887282277" x2="350.0" y2="400.0"/><path class="valley" d="M 300.0 26.79491924311227 C 264.8 121.67695154586737 256.0 169.11796769724492 256.0 264.0 C 256.0 318.4 264.8 345.6 300.0 400.0"/><path class="valley" d="M 200.0 26.79491924311227 C 235.2 121.67695154586737 244.0 169.11796769724492 244.0 264.0 C 244.0 318.4 235.2 345.6 200.0 400.0"/><path class="valley" d="M 350.0 86.38259887282277 C 292.4 157.42955932369367 278.0 192.95303954912913 278.0 264.0 C 278.0 312.0 292.4 336.0 350.0 384.0"/><path class="valley" d="M 350.0 86.38259887282277 C 407.6 157.42955932369367 422.0 192.95303954912913 422.0 264.0 C 422.0 312.0 407.6 336.0 350.0 384.0"/><path class="valley" d="M 350.0 158.38259887282277 C 310.0 200.62955932369368 300.0 221.7530395491291 300.0 264.0 C 300.0 299.20000000000005 310.0 316.8 350.0 352.0"/><path class="valley" d="M 350.0 158.38259887282277 C 390.0 200.62955932369368 400.0 221.7530395491291 400.0 264.0 C 400.0 299.20000000000005 390.0 316.8 350.0 352.0"/><path class="valley" d="M 350.0 214.38259887282277 C 332.4 234.22955932369365 328.0 244.15303954912912 328.0 264.0 C 328.0 286.4 332.4 297.6 350.0 320.0"/><path class="valley" d="M 350.0 214.38259887282277 C 367.6 234.22955932369365 372.0 244.15303954912912 372.0 264.0 C 372.0 286.4 367.6 297.6 350.0 320.0"/><line class="valley" x1="400.0" y1="800.0" x2="300.0" y2="773.2050807568877"/><line class="valley" x1="250.0" y1="800.0" x2="250.0" y2="713.6174011271772"/><line class="valley" x1="300.0" y1="773.2050807568877" x2="250.0" y2="713.6174011271772"/><line class="valley" x1="200.0" y1="773.2050807568877" x2="250.0" y2="713.6174011271772"/><line class="valley" x1="350.0" y1="786.6025403784439" x2="349.99999999999994" y2="400.0"/><line class="valley" x1="250.0" y1="713.6174011271772" x2="249.99999999999994" y2="400.0"/><path class="valley" d="M 300.0 773.2050807568877 C 335.2 678.3230484541326 344.0 630.8820323027551 343.99999999999994 536.0 C 343.99999999999994 481.6 335.19999999999993 454.4 299.99999999999994 400.0"/><path class="valley" d="M 400.0 773.2050807568877 C 364.8 678.3230484541326 356.0 630.8820323027551 356.0 536.0 C 356.0 481.6 364.79999999999995 454.4 399.99999999999994 400.0"/><path class="valley" d="M 250.0 713.6174011271772 C 307.59999999999997 642.5704406763064 322.0 607.0469604508709 322.0 536.0 C 321.99999999999994 488.0 307.59999999999997 464.0 249.99999999999994 416.0"/><path class="valley" d="M 250.0 713.6174011271772 C 192.39999999999998 642.5704406763064 177.99999999999997 607.0469604508709 177.99999999999997 536.0 C 177.99999999999994 488.0 192.39999999999998 464.0 249.99999999999994 416.0"/><path class="valley" d="M 249.99999999999997 641.6174011271772 C 290.0 599.3704406763063 300.0 578.2469604508709 300.0 536.0 C 299.99999999999994 500.79999999999995 289.99999999999994 483.2 249.99999999999994 448.0"/><path class="valley" d="M 249.99999999999997 641.6174011271772 C 209.99999999999997 599.3704406763063 199.99999999999997 578.2469604508709 199.99999999999997 536.0 C 199.99999999999994 500.79999999999995 209.99999999999994 483.2 249.99999999999994 448.0"/><path class="valley" d="M 249.99999999999997 585.6174011271772 C 267.59999999999997 565.7704406763064 272.0 555.8469604508709 272.0 536.0 C 272.0 513.6 267.59999999999997 502.4 249.99999999999997 480.0"/><path class="valley" d="M 249.99999999999997 585.6174011271772 C 232.39999999999998 565.7704406763063 227.99999999999997 555.8469604508708 227.99999999999997 536.0 C 227.99999999999997 513.6 232.39999999999998 502.4 249.99999999999997 480.0"/></svg>