<svg xmlns="http://www.w3.org/2000/svg" width="1200" height="700.0"><style >
.valley {stroke: #00f; stroke-width: 2px; fill:none}
.mountain {stroke: #f00; stroke-width: 2px; fill:none }
.cut {stroke: #000; stroke-width: 3px; fill:none } 
.hint {stroke: #000; stroke-width: 1px; fill:none } 
</style><rect class="cut" x="0" y="0" width="1200" height="100%"/><line class="cut" x1="200" y1="0" x2="200" y2="100%"/><line class="cut" x1="400" y1="0" x2="400" y2="100%"/><line class="cut" x1="600" y1="0" x2="600" y2="100%"/><line class="cut" x1="800" y1="0" x2="800" y2="100%"/><line class="cut" x1="1000" y1="0" x2="1000" y2="100%"/><line class="valley" x1="150.0" y1="0.0" x2="150.0" y2="76.79491924311226"/><line class="valley" x1="73.20508075688772" y1="0.0" x2="150.0" y2="76.79491924311226"/><line class="valley" x1="200.0" y1="26.79491924311227" x2="150.0" y2="76.79491924311226"/><line class="valley" x1="50.0" y1="0.0" x2="50.0" y2="350.0"/><line class="valley" x1="150.0" y1="350.0" x2="150.0" y2="76.79491924311226"/><path class="valley" d="M 100.0 26.79491924311227 C 78.11884197445211 33.965633999347006 61.76212713973883 41.524440317767564 50.00000000000004 49.413642501175524"/><path class="valley" d="M 49.999999999999936 135.96395231280678 C 77.7554642329871 167.12783017287603 122.24453576701285 199.82393153183733 150.0 231.97568181616498"/><path class="valley" d="M 150.0 324.4227454144056 C 138.2378728602612 333.2075031627728 121.8811580255479 341.7524865903704 100.0 350.0"/><line class="valley" x1="50.00000000000006" y1="700.0" x2="50.00000000000006" y2="623.2050807568878"/><line class="valley" x1="126.79491924311233" y1="700.0" x2="50.00000000000006" y2="623.2050807568878"/><line class="valley" x1="5.684341886080802e-14" y1="673.2050807568877" x2="50.00000000000006" y2="623.2050807568878"/><line class="valley" x1="150.00000000000006" y1="700.0" x2="150.0" y2="350.0"/><line class="valley" x1="50.0" y1="350.0" x2="50.00000000000006" y2="623.2050807568878"/><path class="valley" d="M 100.00000000000006 673.2050807568877 C 121.881158025548 666.034366000653 138.23787286026132 658.4755596822324 150.0000000000001 650.5863574988244"/><path class="valley" d="M 150.00000000000006 564.0360476871931 C 122.24453576701286 532.8721698271238 77.75546423298708 500.1760684681626 49.99999999999994 468.0243181838349"/><path class="valley" d="M 49.999999999999915 375.5772545855945 C 61.76212713973871 366.79249683722725 78.11884197445202 358.2475134096296 100.00000000000001 350.0"/><line class="valley" x1="350.0" y1="0.0" x2="350.0" y2="76.79491924311226"/><line class="valley" x1="273.2050807568877" y1="0.0" x2="350.0" y2="76.79491924311226"/><line class="valley" x1="400.0" y1="26.79491924311227" x2="350.0" y2="76.79491924311226"/><line class="valley" x1="250.0" y1="0.0" x2="250.0" y2="350.0"/><line class="valley" x1="350.0" y1="350.0" x2="350.0" y2="76.79491924311226"/><line class="valley" x1="250.00000000000006" y1="700.0" x2="250.00000000000006" y2="623.2050807568878"/><line class="valley" x1="326.7949192431123" y1="700.0" x2="250.00000000000006" y2="623.2050807568878"/><line class="valley" x1="200.00000000000006" y1="673.2050807568877" x2="250.00000000000006" y2="623.2050807568878"/><line class="valley" x1="350.00000000000006" y1="700.0" x2="350.0" y2="350.0"/><line class="valley" x1="250.0" y1="350.0" x2="250.00000000000006" y2="623.2050807568878"/><line class="valley" x1="550.0" y1="0.0" x2="550.0" y2="76.79491924311226"/><line class="valley" x1="473.2050807568877" y1="0.0" x2="550.0" y2="76.79491924311226"/><line class="valley" x1="600.0" y1="26.79491924311227" x2="550.0" y2="76.79491924311226"/><line class="valley" x1="450.0" y1="0.0" x2="450.0" y2="350.0"/><line class="valley" x1="550.0" y1="350.0" x2="550.0" y2="76.79491924311226"/><line class="valley" x1="450.0" y1="700.0" x2="450.0" y2="623.2050807568878"/><line class="valley" x1="526.7949192431123" y1="700.0" x2="450.0" y2="623.2050807568878"/><line class="valley" x1="400.0" y1="673.2050807568877" x2="450.0" y2="623.2050807568878"/><line class="valley" x1="550.0" y1="700.0" x2="550.0" y2="350.0"/><line class="valley" x1="449.99999999999994" y1="350.0" x2="450.0" y2="623.2050807568878"/><line class="valley" x1="750.0" y1="0.0" x2="750.0" y2="76.79491924311226"/><line class="valley" x1="673.2050807568877" y1="0.0" x2="750.0" y2="76.79491924311226"/><line class="valley" x1="800.0" y1="26.79491924311227" x2="750.0" y2="76.79491924311226"/><line class="valley" x1="650.0" y1="0.0" x2="650.0" y2="350.0"/><line class="valley" x1="750.0" y1="350.0" x2="750.0" y2="76.79491924311226"/><line class="valley" x1="650.0" y1="700.0" x2="650.0" y2="623.2050807568878"/><line class="valley" x1="726.7949192431123" y1="700.0" x2="650.0" y2="623.2050807568878"/><line class="valley" x1="600.0" y1="673.2050807568877" x2="650.0" y2="623.2050807568878"/><line class="valley" x1="750.0" y1="700.0" x2="750.0" y2="350.0"/><line class="valley" x1="650.0" y1="350.0" x2="650.0" y2="623.2050807568878"/><line class="valley" x1="950.0" y1="0.0" x2="950.0" y2="76.79491924311226"/><line class="valley" x1="873.2050807568877" y1="0.0" x2="950.0" y2="76.79491924311226"/><line class="valley" x1="1000.0" y1="26.79491924311227" x2="950.0" y2="76.79491924311226"/><line class="valley" x1="850.0" y1="0.0" x2="850.0" y2="350.0"/><line class="valley" x1="950.0" y1="350.0" x2="950.0" y2="76.79491924311226"/><line class="valley" x1="850.0" y1="700.0" x2="850.0" y2="623.2050807568878"/><line class="valley" x1="926.7949192431123" y1="700.0" x2="850.0" y2="623.2050807568878"/><line class="valley" x1="800.0" y1="673.2050807568877" x2="850.0" y2="623.2050807568878"/><line class="valley" x1="950.0" y1="700.0" x2="950.0" y2="350.0"/><line class="valley" x1="850.0" y1="350.0" x2="850.0" y2="623.2050807568878"/><line class="valley" x1="1150.0" y1="0.0" x2="1150.0" y2="76.79491924311226"/><line class="valley" x1="1073.2050807568878" y1="0.0" x2="1150.0" y2="76.79491924311226"/><line class="valley" x1="1200.0" y1="26.79491924311227" x2="1150.0" y2="76.79491924311226"/><line class="valley" x1="1050.0" y1="0.0" x2="1050.0" y2="350.0"/><line class="valley" x1="1150.0" y1="350.0" x2="1150.0" y2="76.79491924311226"/><line class="valley" x1="1050.0" y1="700.0" x2="1050.0" y2="623.2050807568878"/><line class="valley" x1="1126.7949192431122" y1="700.0" x2="1050.0" y2="623.2050807568878"/><line class="valley" x1="1000.0" y1="673.2050807568877" x2="1050.0" y2="623.2050807568878"/><line class="valley" x1="1150.0" y1="700.0" x2="1150.0" y2="350.0"/><line class="valley" x1="1050.0" y1="350.0" x2="1050.0" y2="623.2050807568878"/></svg>