<svg xmlns="http://www.w3.org/2000/svg" width="1200" height="800"><style >
.valley {stroke: #00f; stroke-width: 2px; fill:none}
.mountain {stroke: #f00; stroke-width: 2px; fill:none }
.cut {stroke: #000; stroke-width: 3px; fill:none } 
.hint {stroke: #000; stroke-width: 1px; fill:none } 
</style><rect class="cut" x="0" y="0" width="1200" height="800"/><line class="cut" x1="200" y1="0" x2="200" y2="800"/><line class="cut" x1="400" y1="0" x2="400" y2="800"/><line class="cut" x1="600" y1="0" x2="600" y2="800"/><line class="cut" x1="800" y1="0" x2="800" y2="800"/><line class="cut" x1="1000" y1="0" x2="1000" y2="800"/><line class="valley" x1="50.0" y1="0.0" x2="50.0" y2="800.0"/><line class="valley" x1="149.99999999999991" y1="0.0" x2="150.0" y2="800.0"/><line class="valley" x1="100.02" y1="0.0" x2="149.99999999999991" y2="98.13052527525737"/><line class="valley" x1="199.97999999999982" y1="0.0" x2="149.99999999999991" y2="98.13052527525738"/><line class="valley" x1="99.97999999999998" y1="800.0" x2="50.0" y2="701.8694747247425"/><line class="valley" x1="50.0" y1="701.8694747247425" x2="0.019999999999985484" y2="800.0"/><line class="valley" x1="99.98000000000002" y1="0.0" x2="50.0" y2="257.2277007985154"/><line class="valley" x1="100.11283112870298" y1="0.0" x2="149.99999999999994" y2="23.286979591704025"/><line class="valley" x1="199.88716887129684" y1="0.0" x2="149.99999999999994" y2="23.28697959170404"/><line class="valley" x1="0.019999999999997797" y1="0.0" x2="50.0" y2="257.22770079851534"/><line class="valley" x1="149.99999999999997" y1="542.7722992014847" x2="100.02" y2="800.0"/><line class="valley" x1="99.8871688712969" y1="800.0" x2="50.0" y2="776.713020408296"/><line class="valley" x1="199.98000000000002" y1="800.0" x2="149.99999999999994" y2="542.7722992014844"/><line class="valley" x1="50.0" y1="776.713020408296" x2="0.11283112870286917" y2="800.0"/><line class="valley" x1="99.98" y1="0.0" x2="50.0" y2="23.315382907749928"/><line class="valley" x1="0.019999999999997797" y1="0.0" x2="50.0" y2="23.315382907749928"/><line class="valley" x1="150.0" y1="776.6846170922503" x2="100.02000000000015" y2="800.0"/><line class="valley" x1="199.97999999999988" y1="800.0" x2="150.0" y2="776.6846170922502"/><path class="valley" d="M 149.99999999999994 98.13052527525765 C 45.99999999999998 200.00000000000009 24.00000000000003 328.0 100.0 400.0"/><path class="valley" d="M 149.99999999999991 98.13052527525758 C 169.62126021582088 117.34982788701882 186.32374307388758 137.4992425173124 200.0 158.02721867619357"/><path class="valley" d="M 4.163336342344337e-15 158.02721867619334 C 58.8130075080265 246.30517531882649 61.66138676536163 341.58394938018375 0.0 400.0"/><path class="valley" d="M 49.99999999999999 701.8694747247425 C 153.99999999999997 599.9999999999998 175.99999999999994 472.0 99.99999999999996 400.0"/><path class="valley" d="M 200.0 641.9727813238067 C 141.18699249197343 553.6948246811736 138.33861323463833 458.4160506198163 199.99999999999994 400.0"/><path class="valley" d="M 199.99999999999994 400.0 C 199.99999999999994 400.0 199.99999999999994 400.0 199.99999999999994 400.0"/><path class="valley" d="M 49.999999999999986 701.8694747247425 C 49.999999999999986 701.8694747247425 49.999999999999986 701.8694747247425 49.999999999999986 701.8694747247425"/><path class="valley" d="M 49.999999999999986 701.8694747247425 C 30.378739784179064 682.6501721129812 13.67625692611244 662.5007574826877 6.938893903907228e-15 641.9727813238067"/><path class="valley" d="M 149.99999999999991 152.00000000000006 C 30.00000000000002 270.0000000000001 73.00000000000001 347.0 100.0 380.0"/><path class="valley" d="M 149.99999999999994 152.0000000000001 C 171.5998045286569 173.2398077865128 187.9185046423681 193.15123961589188 200.0 211.71679996312847"/><path class="valley" d="M 199.99999999999991 380.0 C 199.99999999999991 380.0 199.99999999999991 380.0 199.99999999999991 380.0"/><path class="valley" d="M 5.551115123125783e-15 211.71679996312824 C 55.03853070521383 296.2941749472102 22.14004398105222 352.93994624538055 2.949646391277331e-14 380.0"/><path class="valley" d="M 2.949646391277331e-14 380.0 C 1.9664309275182208e-14 380.0 9.832154637591102e-15 380.0 0.0 380.0"/><path class="valley" d="M 49.99999999999999 647.9999999999998 C 169.99999999999994 529.9999999999998 126.99999999999993 452.99999999999994 99.99999999999996 420.0"/><path class="valley" d="M 199.99999999999994 588.2832000368717 C 144.96146929478618 503.7058250527899 177.85995601894768 447.0600537546195 199.99999999999983 420.0"/><path class="valley" d="M 199.99999999999983 420.0 C 199.99999999999986 420.0 199.99999999999991 420.0 199.99999999999994 420.0"/><path class="valley" d="M 49.999999999999986 647.9999999999998 C 28.40019547134306 626.7601922134871 12.081495357631882 606.848760384108 0.0 588.2832000368716"/><path class="valley" d="M 100.0 380.0 C 120.82949745161542 405.4582746630855 140.80197176429382 409.4909708527462 149.99999999999994 481.35489501129973"/><path class="valley" d="M 199.99999999999991 380.0 C 179.1705025483845 405.4582746630855 159.1980282357061 409.4909708527462 149.99999999999994 481.35489501129973"/><path class="valley" d="M 99.99999999999996 420.0 C 79.17050254838455 394.5417253369145 59.19802823570615 390.5090291472538 50.0 318.6451049887004"/><path class="valley" d="M 4.440892098500626e-14 420.0 C 20.82949745161547 394.54172533691445 40.80197176429388 390.5090291472538 50.000000000000014 318.64510498870027"/><path class="valley" d="M 149.99999999999994 204.0 C 68.0 280.0 82.00000000000001 330.00000000000006 106.0 366.0"/><path class="valley" d="M 149.99999999999994 204.00000000000017 C 174.42898955183864 226.6415025114604 190.33768598495496 246.97542563659997 200.0 265.319059240626"/><path class="valley" d="M 199.99999999999991 356.2430617537764 C 198.11437114434676 359.6074057257696 196.09529549591645 362.8570567561252 193.99999999999991 366.00000000000006"/><path class="valley" d="M 4.163336342344337e-15 265.31905924062585 C 19.939317849152506 303.17329792191396 13.27831533638191 332.5518565485465 -1.5265566588595902e-14 356.24306175377643"/><path class="valley" d="M 49.99999999999999 596.0 C 131.99999999999997 520.0 117.99999999999993 469.99999999999994 93.99999999999994 434.0"/><path class="valley" d="M 200.0 534.6809407593743 C 180.06068215084747 496.82670207808604 186.72168466361802 467.44814345145346 199.99999999999991 443.7569382462237"/><path class="valley" d="M 49.999999999999986 596.0 C 25.571010448161356 573.3584974885398 9.662314015045034 553.0245743634002 -2.7755575615628914e-15 534.6809407593742"/><path class="valley" d="M 6.730727086790012e-14 443.7569382462236 C 1.8856288556532097 440.39259427423036 3.904704504083503 437.1429432438748 6.00000000000005 434.0"/><path class="valley" d="M 106.0 366.0 C 122.8653901941215 391.29808529118225 139.73078038824298 390.9964458063672 149.99999999999997 456.24216595640996"/><path class="valley" d="M 193.99999999999991 366.00000000000006 C 177.1346098058784 391.29808529118225 160.26921961175694 390.99644580636726 149.99999999999994 456.24216595640996"/><path class="valley" d="M 93.99999999999994 434.0 C 77.13460980587848 408.70191470881775 60.26921961175703 409.00355419363274 50.00000000000002 343.75783404359044"/><path class="valley" d="M 6.00000000000005 434.0 C 22.865390194121527 408.70191470881775 39.730780388243005 409.00355419363274 50.000000000000014 343.7578340435902"/><path class="valley" d="M 149.99999999999994 260.0 C 110.00000000000001 280.00000000000006 96.00000000000001 322.0 120.0 358.0"/><path class="valley" d="M 149.99999999999994 260.00000000000006 C 189.9999999999999 280.0000000000001 203.99999999999991 322.0 179.99999999999991 358.00000000000006"/><path class="valley" d="M 49.99999999999999 540.0 C 89.99999999999994 520.0 103.99999999999996 477.99999999999994 79.99999999999996 442.0"/><path class="valley" d="M 49.999999999999986 540.0 C 10.000000000000044 520.0 -3.9999999999999543 477.99999999999994 20.00000000000004 442.0"/><path class="valley" d="M 120.0 358.0 C 134.5585437956248 379.83781569343716 142.75855166777583 386.83904756543564 150.0 431.46060905616486"/><path class="valley" d="M 179.99999999999991 358.00000000000006 C 165.44145620437513 379.8378156934372 157.24144833222405 386.83904756543564 149.99999999999994 431.46060905616486"/><path class="valley" d="M 79.99999999999996 442.0 C 65.44145620437519 420.16218430656284 57.241448332224145 413.16095243456436 49.999999999999986 368.53939094383526"/><path class="valley" d="M 20.00000000000004 442.0 C 34.55854379562481 420.1621843065629 42.75855166777585 413.16095243456436 50.000000000000014 368.5393909438353"/><line class="valley" x1="250.0" y1="0.0" x2="250.0" y2="800.0"/><line class="valley" x1="349.9999999999999" y1="0.0" x2="350.0" y2="800.0"/><line class="valley" x1="300.02" y1="0.0" x2="349.9999999999999" y2="98.13052527525737"/><line class="valley" x1="399.9799999999998" y1="0.0" x2="349.9999999999999" y2="98.13052527525738"/><line class="valley" x1="299.97999999999996" y1="800.0" x2="250.0" y2="701.8694747247425"/><line class="valley" x1="250.0" y1="701.8694747247425" x2="200.01999999999998" y2="800.0"/><line class="valley" x1="299.98" y1="0.0" x2="250.0" y2="257.2277007985154"/><line class="valley" x1="300.11283112870296" y1="0.0" x2="349.99999999999994" y2="23.286979591704025"/><line class="valley" x1="399.8871688712968" y1="0.0" x2="349.99999999999994" y2="23.28697959170404"/><line class="valley" x1="200.02" y1="0.0" x2="250.0" y2="257.22770079851534"/><line class="valley" x1="350.0" y1="542.7722992014847" x2="300.02" y2="800.0"/><line class="valley" x1="299.8871688712969" y1="800.0" x2="250.0" y2="776.713020408296"/><line class="valley" x1="399.98" y1="800.0" x2="349.99999999999994" y2="542.7722992014844"/><line class="valley" x1="250.0" y1="776.713020408296" x2="200.11283112870288" y2="800.0"/><line class="valley" x1="299.98" y1="0.0" x2="250.0" y2="23.315382907749928"/><line class="valley" x1="200.02" y1="0.0" x2="250.0" y2="23.315382907749928"/><line class="valley" x1="350.0" y1="776.6846170922503" x2="300.02000000000015" y2="800.0"/><line class="valley" x1="399.9799999999999" y1="800.0" x2="350.0" y2="776.6846170922502"/><path class="valley" d="M 349.99999999999994 98.13052527525765 C 245.99999999999997 200.00000000000009 224.00000000000003 328.0 300.0 400.0"/><path class="valley" d="M 349.9999999999999 98.13052527525758 C 369.6212602158209 117.34982788701882 386.3237430738876 137.4992425173124 400.0 158.02721867619357"/><path class="valley" d="M 200.0 158.02721867619334 C 258.8130075080265 246.30517531882649 261.6613867653616 341.58394938018375 200.0 400.0"/><path class="valley" d="M 250.0 701.8694747247425 C 354.0 599.9999999999998 375.99999999999994 472.0 299.99999999999994 400.0"/><path class="valley" d="M 400.0 641.9727813238067 C 341.18699249197346 553.6948246811736 338.33861323463833 458.4160506198163 399.99999999999994 400.0"/><path class="valley" d="M 399.99999999999994 400.0 C 399.99999999999994 400.0 399.99999999999994 400.0 399.99999999999994 400.0"/><path class="valley" d="M 250.0 701.8694747247425 C 250.0 701.8694747247425 250.0 701.8694747247425 250.0 701.8694747247425"/><path class="valley" d="M 250.0 701.8694747247425 C 230.37873978417906 682.6501721129812 213.67625692611244 662.5007574826877 200.0 641.9727813238067"/><path class="valley" d="M 349.9999999999999 152.00000000000006 C 230.00000000000003 270.0000000000001 273.0 347.0 300.0 380.0"/><path class="valley" d="M 349.99999999999994 152.0000000000001 C 371.59980452865693 173.2398077865128 387.91850464236813 193.15123961589188 400.0 211.71679996312847"/><path class="valley" d="M 399.9999999999999 380.0 C 399.9999999999999 380.0 399.9999999999999 380.0 399.9999999999999 380.0"/><path class="valley" d="M 200.0 211.71679996312824 C 255.03853070521382 296.2941749472102 222.14004398105223 352.93994624538055 200.00000000000003 380.0"/><path class="valley" d="M 200.00000000000003 380.0 C 200.00000000000003 380.0 200.0 380.0 200.0 380.0"/><path class="valley" d="M 250.0 647.9999999999998 C 369.99999999999994 529.9999999999998 326.99999999999994 452.99999999999994 299.99999999999994 420.0"/><path class="valley" d="M 399.99999999999994 588.2832000368717 C 344.9614692947862 503.7058250527899 377.8599560189477 447.0600537546195 399.99999999999983 420.0"/><path class="valley" d="M 399.99999999999983 420.0 C 399.9999999999999 420.0 399.9999999999999 420.0 399.99999999999994 420.0"/><path class="valley" d="M 250.0 647.9999999999998 C 228.40019547134307 626.7601922134871 212.0814953576319 606.848760384108 200.0 588.2832000368716"/><path class="valley" d="M 300.0 380.0 C 320.82949745161545 405.4582746630855 340.80197176429385 409.4909708527462 349.99999999999994 481.35489501129973"/><path class="valley" d="M 399.9999999999999 380.0 C 379.1705025483845 405.4582746630855 359.1980282357061 409.4909708527462 349.99999999999994 481.35489501129973"/><path class="valley" d="M 299.99999999999994 420.0 C 279.17050254838455 394.5417253369145 259.19802823570615 390.5090291472538 250.0 318.6451049887004"/><path class="valley" d="M 200.00000000000006 420.0 C 220.82949745161548 394.54172533691445 240.80197176429388 390.5090291472538 250.0 318.64510498870027"/><path class="valley" d="M 349.99999999999994 204.0 C 268.0 280.0 282.0 330.00000000000006 306.0 366.0"/><path class="valley" d="M 349.99999999999994 204.00000000000017 C 374.42898955183864 226.6415025114604 390.337685984955 246.97542563659997 400.0 265.319059240626"/><path class="valley" d="M 399.9999999999999 356.2430617537764 C 398.11437114434676 359.6074057257696 396.09529549591645 362.8570567561252 393.9999999999999 366.00000000000006"/><path class="valley" d="M 200.0 265.31905924062585 C 219.9393178491525 303.17329792191396 213.27831533638192 332.5518565485465 199.99999999999997 356.24306175377643"/><path class="valley" d="M 250.0 596.0 C 332.0 520.0 317.99999999999994 469.99999999999994 293.99999999999994 434.0"/><path class="valley" d="M 400.0 534.6809407593743 C 380.06068215084747 496.82670207808604 386.721684663618 467.44814345145346 399.9999999999999 443.7569382462237"/><path class="valley" d="M 250.0 596.0 C 225.57101044816136 573.3584974885398 209.66231401504504 553.0245743634002 200.0 534.6809407593742"/><path class="valley" d="M 200.00000000000006 443.7569382462236 C 201.8856288556532 440.39259427423036 203.9047045040835 437.1429432438748 206.00000000000006 434.0"/><path class="valley" d="M 306.0 366.0 C 322.8653901941215 391.29808529118225 339.730780388243 390.9964458063672 350.0 456.24216595640996"/><path class="valley" d="M 393.9999999999999 366.00000000000006 C 377.1346098058784 391.29808529118225 360.26921961175697 390.99644580636726 349.99999999999994 456.24216595640996"/><path class="valley" d="M 293.99999999999994 434.0 C 277.1346098058785 408.70191470881775 260.269219611757 409.00355419363274 250.00000000000003 343.75783404359044"/><path class="valley" d="M 206.00000000000006 434.0 C 222.86539019412152 408.70191470881775 239.730780388243 409.00355419363274 250.0 343.7578340435902"/><path class="valley" d="M 349.99999999999994 260.0 C 310.0 280.00000000000006 296.0 322.0 320.0 358.0"/><path class="valley" d="M 349.99999999999994 260.00000000000006 C 389.9999999999999 280.0000000000001 403.9999999999999 322.0 379.9999999999999 358.00000000000006"/><path class="valley" d="M 250.0 540.0 C 289.99999999999994 520.0 303.99999999999994 477.99999999999994 279.99999999999994 442.0"/><path class="valley" d="M 250.0 540.0 C 210.00000000000006 520.0 196.00000000000006 477.99999999999994 220.00000000000003 442.0"/><path class="valley" d="M 320.0 358.0 C 334.5585437956248 379.83781569343716 342.7585516677758 386.83904756543564 350.0 431.46060905616486"/><path class="valley" d="M 379.9999999999999 358.00000000000006 C 365.44145620437513 379.8378156934372 357.2414483322241 386.83904756543564 349.99999999999994 431.46060905616486"/><path class="valley" d="M 279.99999999999994 442.0 C 265.4414562043752 420.16218430656284 257.24144833222414 413.16095243456436 250.0 368.53939094383526"/><path class="valley" d="M 220.00000000000003 442.0 C 234.55854379562481 420.1621843065629 242.75855166777586 413.16095243456436 250.0 368.5393909438353"/><line class="valley" x1="450.0" y1="0.0" x2="450.0" y2="800.0"/><line class="valley" x1="549.9999999999999" y1="0.0" x2="550.0" y2="800.0"/><line class="valley" x1="500.02" y1="0.0" x2="549.9999999999999" y2="98.13052527525737"/><line class="valley" x1="599.9799999999998" y1="0.0" x2="549.9999999999999" y2="98.13052527525738"/><line class="valley" x1="499.97999999999996" y1="800.0" x2="450.0" y2="701.8694747247425"/><line class="valley" x1="450.0" y1="701.8694747247425" x2="400.02" y2="800.0"/><line class="valley" x1="499.98" y1="0.0" x2="450.0" y2="257.2277007985154"/><line class="valley" x1="500.11283112870296" y1="0.0" x2="550.0" y2="23.286979591704025"/><line class="valley" x1="599.8871688712968" y1="0.0" x2="550.0" y2="23.28697959170404"/><line class="valley" x1="400.02" y1="0.0" x2="450.0" y2="257.22770079851534"/><line class="valley" x1="550.0" y1="542.7722992014847" x2="500.02" y2="800.0"/><line class="valley" x1="499.8871688712969" y1="800.0" x2="450.0" y2="776.713020408296"/><line class="valley" x1="599.98" y1="800.0" x2="550.0" y2="542.7722992014844"/><line class="valley" x1="450.0" y1="776.713020408296" x2="400.11283112870285" y2="800.0"/><line class="valley" x1="499.98" y1="0.0" x2="450.0" y2="23.315382907749928"/><line class="valley" x1="400.02" y1="0.0" x2="450.0" y2="23.315382907749928"/><line class="valley" x1="550.0" y1="776.6846170922503" x2="500.02000000000015" y2="800.0"/><line class="valley" x1="599.9799999999999" y1="800.0" x2="550.0" y2="776.6846170922502"/><path class="valley" d="M 550.0 98.13052527525765 C 446.0 200.00000000000009 424.0 328.0 500.0 400.0"/><path class="valley" d="M 549.9999999999999 98.13052527525758 C 569.6212602158209 117.34982788701882 586.3237430738876 137.4992425173124 600.0 158.02721867619357"/><path class="valley" d="M 400.0 158.02721867619334 C 458.8130075080265 246.30517531882649 461.6613867653616 341.58394938018375 400.0 400.0"/><path class="valley" d="M 450.0 701.8694747247425 C 554.0 599.9999999999998 576.0 472.0 499.99999999999994 400.0"/><path class="valley" d="M 600.0 641.9727813238067 C 541.1869924919735 553.6948246811736 538.3386132346384 458.4160506198163 600.0 400.0"/><path class="valley" d="M 600.0 400.0 C 600.0 400.0 600.0 400.0 600.0 400.0"/><path class="valley" d="M 450.0 701.8694747247425 C 450.0 701.8694747247425 450.0 701.8694747247425 450.0 701.8694747247425"/><path class="valley" d="M 450.0 701.8694747247425 C 430.37873978417906 682.6501721129812 413.67625692611244 662.5007574826877 400.0 641.9727813238067"/><path class="valley" d="M 549.9999999999999 152.00000000000006 C 430.0 270.0000000000001 473.0 347.0 500.0 380.0"/><path class="valley" d="M 550.0 152.0000000000001 C 571.5998045286569 173.2398077865128 587.9185046423681 193.15123961589188 600.0 211.71679996312847"/><path class="valley" d="M 599.9999999999999 380.0 C 599.9999999999999 380.0 599.9999999999999 380.0 599.9999999999999 380.0"/><path class="valley" d="M 400.0 211.71679996312824 C 455.0385307052138 296.2941749472102 422.1400439810522 352.93994624538055 400.00000000000006 380.0"/><path class="valley" d="M 400.00000000000006 380.0 C 400.0 380.0 400.0 380.0 400.0 380.0"/><path class="valley" d="M 450.0 647.9999999999998 C 570.0 529.9999999999998 526.9999999999999 452.99999999999994 499.99999999999994 420.0"/><path class="valley" d="M 600.0 588.2832000368717 C 544.9614692947862 503.7058250527899 577.8599560189477 447.0600537546195 599.9999999999998 420.0"/><path class="valley" d="M 599.9999999999998 420.0 C 599.9999999999999 420.0 599.9999999999999 420.0 600.0 420.0"/><path class="valley" d="M 450.0 647.9999999999998 C 428.40019547134307 626.7601922134871 412.08149535763187 606.848760384108 400.0 588.2832000368716"/><path class="valley" d="M 500.0 380.0 C 520.8294974516155 405.4582746630855 540.8019717642939 409.4909708527462 550.0 481.35489501129973"/><path class="valley" d="M 599.9999999999999 380.0 C 579.1705025483845 405.4582746630855 559.198028235706 409.4909708527462 550.0 481.35489501129973"/><path class="valley" d="M 499.99999999999994 420.0 C 479.17050254838455 394.5417253369145 459.19802823570615 390.5090291472538 450.0 318.6451049887004"/><path class="valley" d="M 400.00000000000006 420.0 C 420.82949745161545 394.54172533691445 440.80197176429385 390.5090291472538 450.0 318.64510498870027"/><path class="valley" d="M 550.0 204.0 C 468.0 280.0 482.0 330.00000000000006 506.0 366.0"/><path class="valley" d="M 550.0 204.00000000000017 C 574.4289895518386 226.6415025114604 590.337685984955 246.97542563659997 600.0 265.319059240626"/><path class="valley" d="M 599.9999999999999 356.2430617537764 C 598.1143711443467 359.6074057257696 596.0952954959164 362.8570567561252 593.9999999999999 366.00000000000006"/><path class="valley" d="M 400.0 265.31905924062585 C 419.93931784915253 303.17329792191396 413.2783153363819 332.5518565485465 400.0 356.24306175377643"/><path class="valley" d="M 450.0 596.0 C 532.0 520.0 517.9999999999999 469.99999999999994 493.99999999999994 434.0"/><path class="valley" d="M 600.0 534.6809407593743 C 580.0606821508475 496.82670207808604 586.721684663618 467.44814345145346 599.9999999999999 443.7569382462237"/><path class="valley" d="M 450.0 596.0 C 425.57101044816136 573.3584974885398 409.662314015045 553.0245743634002 400.0 534.6809407593742"/><path class="valley" d="M 400.00000000000006 443.7569382462236 C 401.88562885565324 440.39259427423036 403.9047045040835 437.1429432438748 406.00000000000006 434.0"/><path class="valley" d="M 506.0 366.0 C 522.8653901941215 391.29808529118225 539.7307803882429 390.9964458063672 550.0 456.24216595640996"/><path class="valley" d="M 593.9999999999999 366.00000000000006 C 577.1346098058784 391.29808529118225 560.269219611757 390.99644580636726 550.0 456.24216595640996"/><path class="valley" d="M 493.99999999999994 434.0 C 477.1346098058785 408.70191470881775 460.269219611757 409.00355419363274 450.0 343.75783404359044"/><path class="valley" d="M 406.00000000000006 434.0 C 422.8653901941215 408.70191470881775 439.73078038824303 409.00355419363274 450.0 343.7578340435902"/><path class="valley" d="M 550.0 260.0 C 510.0 280.00000000000006 496.0 322.0 520.0 358.0"/><path class="valley" d="M 550.0 260.00000000000006 C 589.9999999999999 280.0000000000001 603.9999999999999 322.0 579.9999999999999 358.00000000000006"/><path class="valley" d="M 450.0 540.0 C 489.99999999999994 520.0 503.99999999999994 477.99999999999994 479.99999999999994 442.0"/><path class="valley" d="M 450.0 540.0 C 410.00000000000006 520.0 396.00000000000006 477.99999999999994 420.00000000000006 442.0"/><path class="valley" d="M 520.0 358.0 C 534.5585437956248 379.83781569343716 542.7585516677758 386.83904756543564 550.0 431.46060905616486"/><path class="valley" d="M 579.9999999999999 358.00000000000006 C 565.4414562043751 379.8378156934372 557.2414483322241 386.83904756543564 550.0 431.46060905616486"/><path class="valley" d="M 479.99999999999994 442.0 C 465.4414562043752 420.16218430656284 457.24144833222414 413.16095243456436 450.0 368.53939094383526"/><path class="valley" d="M 420.00000000000006 442.0 C 434.5585437956248 420.1621843065629 442.75855166777586 413.16095243456436 450.0 368.5393909438353"/><line class="valley" x1="650.0" y1="0.0" x2="650.0" y2="800.0"/><line class="valley" x1="749.9999999999999" y1="0.0" x2="750.0" y2="800.0"/><line class="valley" x1="700.02" y1="0.0" x2="749.9999999999999" y2="98.13052527525737"/><line class="valley" x1="799.9799999999998" y1="0.0" x2="749.9999999999999" y2="98.13052527525738"/><line class="valley" x1="699.98" y1="800.0" x2="650.0" y2="701.8694747247425"/><line class="valley" x1="650.0" y1="701.8694747247425" x2="600.02" y2="800.0"/><line class="valley" x1="699.98" y1="0.0" x2="650.0" y2="257.2277007985154"/><line class="valley" x1="700.112831128703" y1="0.0" x2="750.0" y2="23.286979591704025"/><line class="valley" x1="799.8871688712968" y1="0.0" x2="750.0" y2="23.28697959170404"/><line class="valley" x1="600.02" y1="0.0" x2="650.0" y2="257.22770079851534"/><line class="valley" x1="750.0" y1="542.7722992014847" x2="700.02" y2="800.0"/><line class="valley" x1="699.8871688712969" y1="800.0" x2="650.0" y2="776.713020408296"/><line class="valley" x1="799.98" y1="800.0" x2="750.0" y2="542.7722992014844"/><line class="valley" x1="650.0" y1="776.713020408296" x2="600.1128311287029" y2="800.0"/><line class="valley" x1="699.98" y1="0.0" x2="650.0" y2="23.315382907749928"/><line class="valley" x1="600.02" y1="0.0" x2="650.0" y2="23.315382907749928"/><line class="valley" x1="750.0" y1="776.6846170922503" x2="700.0200000000002" y2="800.0"/><line class="valley" x1="799.9799999999999" y1="800.0" x2="750.0" y2="776.6846170922502"/><path class="valley" d="M 750.0 98.13052527525765 C 646.0 200.00000000000009 624.0 328.0 700.0 400.0"/><path class="valley" d="M 749.9999999999999 98.13052527525758 C 769.6212602158209 117.34982788701882 786.3237430738876 137.4992425173124 800.0 158.02721867619357"/><path class="valley" d="M 600.0 158.02721867619334 C 658.8130075080265 246.30517531882649 661.6613867653616 341.58394938018375 600.0 400.0"/><path class="valley" d="M 650.0 701.8694747247425 C 754.0 599.9999999999998 776.0 472.0 700.0 400.0"/><path class="valley" d="M 800.0 641.9727813238067 C 741.1869924919735 553.6948246811736 738.3386132346384 458.4160506198163 800.0 400.0"/><path class="valley" d="M 800.0 400.0 C 800.0 400.0 800.0 400.0 800.0 400.0"/><path class="valley" d="M 650.0 701.8694747247425 C 650.0 701.8694747247425 650.0 701.8694747247425 650.0 701.8694747247425"/><path class="valley" d="M 650.0 701.8694747247425 C 630.3787397841791 682.6501721129812 613.6762569261124 662.5007574826877 600.0 641.9727813238067"/><path class="valley" d="M 749.9999999999999 152.00000000000006 C 630.0 270.0000000000001 673.0 347.0 700.0 380.0"/><path class="valley" d="M 750.0 152.0000000000001 C 771.5998045286569 173.2398077865128 787.9185046423681 193.15123961589188 800.0 211.71679996312847"/><path class="valley" d="M 799.9999999999999 380.0 C 799.9999999999999 380.0 799.9999999999999 380.0 799.9999999999999 380.0"/><path class="valley" d="M 600.0 211.71679996312824 C 655.0385307052138 296.2941749472102 622.1400439810523 352.93994624538055 600.0 380.0"/><path class="valley" d="M 600.0 380.0 C 600.0 380.0 600.0 380.0 600.0 380.0"/><path class="valley" d="M 650.0 647.9999999999998 C 770.0 529.9999999999998 726.9999999999999 452.99999999999994 700.0 420.0"/><path class="valley" d="M 800.0 588.2832000368717 C 744.9614692947862 503.7058250527899 777.8599560189477 447.0600537546195 799.9999999999998 420.0"/><path class="valley" d="M 799.9999999999998 420.0 C 799.9999999999999 420.0 799.9999999999999 420.0 800.0 420.0"/><path class="valley" d="M 650.0 647.9999999999998 C 628.4001954713431 626.7601922134871 612.0814953576319 606.848760384108 600.0 588.2832000368716"/><path class="valley" d="M 700.0 380.0 C 720.8294974516155 405.4582746630855 740.8019717642939 409.4909708527462 750.0 481.35489501129973"/><path class="valley" d="M 799.9999999999999 380.0 C 779.1705025483845 405.4582746630855 759.198028235706 409.4909708527462 750.0 481.35489501129973"/><path class="valley" d="M 700.0 420.0 C 679.1705025483845 394.5417253369145 659.1980282357061 390.5090291472538 650.0 318.6451049887004"/><path class="valley" d="M 600.0 420.0 C 620.8294974516155 394.54172533691445 640.8019717642939 390.5090291472538 650.0 318.64510498870027"/><path class="valley" d="M 750.0 204.0 C 668.0 280.0 682.0 330.00000000000006 706.0 366.0"/><path class="valley" d="M 750.0 204.00000000000017 C 774.4289895518386 226.6415025114604 790.337685984955 246.97542563659997 800.0 265.319059240626"/><path class="valley" d="M 799.9999999999999 356.2430617537764 C 798.1143711443467 359.6074057257696 796.0952954959164 362.8570567561252 793.9999999999999 366.00000000000006"/><path class="valley" d="M 600.0 265.31905924062585 C 619.9393178491525 303.17329792191396 613.2783153363819 332.5518565485465 600.0 356.24306175377643"/><path class="valley" d="M 650.0 596.0 C 732.0 520.0 717.9999999999999 469.99999999999994 694.0 434.0"/><path class="valley" d="M 800.0 534.6809407593743 C 780.0606821508475 496.82670207808604 786.721684663618 467.44814345145346 799.9999999999999 443.7569382462237"/><path class="valley" d="M 650.0 596.0 C 625.5710104481614 573.3584974885398 609.662314015045 553.0245743634002 600.0 534.6809407593742"/><path class="valley" d="M 600.0000000000001 443.7569382462236 C 601.8856288556532 440.39259427423036 603.9047045040835 437.1429432438748 606.0 434.0"/><path class="valley" d="M 706.0 366.0 C 722.8653901941215 391.29808529118225 739.7307803882429 390.9964458063672 750.0 456.24216595640996"/><path class="valley" d="M 793.9999999999999 366.00000000000006 C 777.1346098058784 391.29808529118225 760.269219611757 390.99644580636726 750.0 456.24216595640996"/><path class="valley" d="M 694.0 434.0 C 677.1346098058784 408.70191470881775 660.2692196117571 409.00355419363274 650.0 343.75783404359044"/><path class="valley" d="M 606.0 434.0 C 622.8653901941216 408.70191470881775 639.730780388243 409.00355419363274 650.0 343.7578340435902"/><path class="valley" d="M 750.0 260.0 C 710.0 280.00000000000006 696.0 322.0 720.0 358.0"/><path class="valley" d="M 750.0 260.00000000000006 C 789.9999999999999 280.0000000000001 803.9999999999999 322.0 779.9999999999999 358.00000000000006"/><path class="valley" d="M 650.0 540.0 C 690.0 520.0 704.0 477.99999999999994 680.0 442.0"/><path class="valley" d="M 650.0 540.0 C 610.0 520.0 596.0 477.99999999999994 620.0 442.0"/><path class="valley" d="M 720.0 358.0 C 734.5585437956248 379.83781569343716 742.7585516677758 386.83904756543564 750.0 431.46060905616486"/><path class="valley" d="M 779.9999999999999 358.00000000000006 C 765.4414562043751 379.8378156934372 757.2414483322241 386.83904756543564 750.0 431.46060905616486"/><path class="valley" d="M 680.0 442.0 C 665.4414562043752 420.16218430656284 657.2414483322242 413.16095243456436 650.0 368.53939094383526"/><path class="valley" d="M 620.0 442.0 C 634.5585437956248 420.1621843065629 642.7585516677758 413.16095243456436 650.0 368.5393909438353"/><line class="valley" x1="850.0" y1="0.0" x2="850.0" y2="800.0"/><line class="valley" x1="949.9999999999999" y1="0.0" x2="950.0" y2="800.0"/><line class="valley" x1="900.02" y1="0.0" x2="949.9999999999999" y2="98.13052527525737"/><line class="valley" x1="999.9799999999998" y1="0.0" x2="949.9999999999999" y2="98.13052527525738"/><line class="valley" x1="899.98" y1="800.0" x2="850.0" y2="701.8694747247425"/><line class="valley" x1="850.0" y1="701.8694747247425" x2="800.02" y2="800.0"/><line class="valley" x1="899.98" y1="0.0" x2="850.0" y2="257.2277007985154"/><line class="valley" x1="900.112831128703" y1="0.0" x2="950.0" y2="23.286979591704025"/><line class="valley" x1="999.8871688712968" y1="0.0" x2="950.0" y2="23.28697959170404"/><line class="valley" x1="800.02" y1="0.0" x2="850.0" y2="257.22770079851534"/><line class="valley" x1="950.0" y1="542.7722992014847" x2="900.02" y2="800.0"/><line class="valley" x1="899.8871688712969" y1="800.0" x2="850.0" y2="776.713020408296"/><line class="valley" x1="999.98" y1="800.0" x2="950.0" y2="542.7722992014844"/><line class="valley" x1="850.0" y1="776.713020408296" x2="800.1128311287029" y2="800.0"/><line class="valley" x1="899.98" y1="0.0" x2="850.0" y2="23.315382907749928"/><line class="valley" x1="800.02" y1="0.0" x2="850.0" y2="23.315382907749928"/><line class="valley" x1="950.0" y1="776.6846170922503" x2="900.0200000000002" y2="800.0"/><line class="valley" x1="999.9799999999999" y1="800.0" x2="950.0" y2="776.6846170922502"/><path class="valley" d="M 950.0 98.13052527525765 C 846.0 200.00000000000009 824.0 328.0 900.0 400.0"/><path class="valley" d="M 949.9999999999999 98.13052527525758 C 969.6212602158209 117.34982788701882 986.3237430738876 137.4992425173124 1000.0 158.02721867619357"/><path class="valley" d="M 800.0 158.02721867619334 C 858.8130075080265 246.30517531882649 861.6613867653616 341.58394938018375 800.0 400.0"/><path class="valley" d="M 850.0 701.8694747247425 C 954.0 599.9999999999998 976.0 472.0 900.0 400.0"/><path class="valley" d="M 1000.0 641.9727813238067 C 941.1869924919735 553.6948246811736 938.3386132346384 458.4160506198163 1000.0 400.0"/><path class="valley" d="M 1000.0 400.0 C 1000.0 400.0 1000.0 400.0 1000.0 400.0"/><path class="valley" d="M 850.0 701.8694747247425 C 850.0 701.8694747247425 850.0 701.8694747247425 850.0 701.8694747247425"/><path class="valley" d="M 850.0 701.8694747247425 C 830.3787397841791 682.6501721129812 813.6762569261124 662.5007574826877 800.0 641.9727813238067"/><path class="valley" d="M 949.9999999999999 152.00000000000006 C 830.0 270.0000000000001 873.0 347.0 900.0 380.0"/><path class="valley" d="M 950.0 152.0000000000001 C 971.5998045286569 173.2398077865128 987.9185046423681 193.15123961589188 1000.0 211.71679996312847"/><path class="valley" d="M 999.9999999999999 380.0 C 999.9999999999999 380.0 999.9999999999999 380.0 999.9999999999999 380.0"/><path class="valley" d="M 800.0 211.71679996312824 C 855.0385307052138 296.2941749472102 822.1400439810523 352.93994624538055 800.0 380.0"/><path class="valley" d="M 800.0 380.0 C 800.0 380.0 800.0 380.0 800.0 380.0"/><path class="valley" d="M 850.0 647.9999999999998 C 970.0 529.9999999999998 926.9999999999999 452.99999999999994 900.0 420.0"/><path class="valley" d="M 1000.0 588.2832000368717 C 944.9614692947862 503.7058250527899 977.8599560189477 447.0600537546195 999.9999999999998 420.0"/><path class="valley" d="M 999.9999999999998 420.0 C 999.9999999999999 420.0 999.9999999999999 420.0 1000.0 420.0"/><path class="valley" d="M 850.0 647.9999999999998 C 828.4001954713431 626.7601922134871 812.0814953576319 606.848760384108 800.0 588.2832000368716"/><path class="valley" d="M 900.0 380.0 C 920.8294974516155 405.4582746630855 940.8019717642939 409.4909708527462 950.0 481.35489501129973"/><path class="valley" d="M 999.9999999999999 380.0 C 979.1705025483845 405.4582746630855 959.198028235706 409.4909708527462 950.0 481.35489501129973"/><path class="valley" d="M 900.0 420.0 C 879.1705025483845 394.5417253369145 859.1980282357061 390.5090291472538 850.0 318.6451049887004"/><path class="valley" d="M 800.0 420.0 C 820.8294974516155 394.54172533691445 840.8019717642939 390.5090291472538 850.0 318.64510498870027"/><path class="valley" d="M 950.0 204.0 C 868.0 280.0 882.0 330.00000000000006 906.0 366.0"/><path class="valley" d="M 950.0 204.00000000000017 C 974.4289895518386 226.6415025114604 990.337685984955 246.97542563659997 1000.0 265.319059240626"/><path class="valley" d="M 999.9999999999999 356.2430617537764 C 998.1143711443467 359.6074057257696 996.0952954959164 362.8570567561252 993.9999999999999 366.00000000000006"/><path class="valley" d="M 800.0 265.31905924062585 C 819.9393178491525 303.17329792191396 813.2783153363819 332.5518565485465 800.0 356.24306175377643"/><path class="valley" d="M 850.0 596.0 C 932.0 520.0 917.9999999999999 469.99999999999994 894.0 434.0"/><path class="valley" d="M 1000.0 534.6809407593743 C 980.0606821508475 496.82670207808604 986.721684663618 467.44814345145346 999.9999999999999 443.7569382462237"/><path class="valley" d="M 850.0 596.0 C 825.5710104481614 573.3584974885398 809.662314015045 553.0245743634002 800.0 534.6809407593742"/><path class="valley" d="M 800.0000000000001 443.7569382462236 C 801.8856288556532 440.39259427423036 803.9047045040835 437.1429432438748 806.0 434.0"/><path class="valley" d="M 906.0 366.0 C 922.8653901941215 391.29808529118225 939.7307803882429 390.9964458063672 950.0 456.24216595640996"/><path class="valley" d="M 993.9999999999999 366.00000000000006 C 977.1346098058784 391.29808529118225 960.269219611757 390.99644580636726 950.0 456.24216595640996"/><path class="valley" d="M 894.0 434.0 C 877.1346098058784 408.70191470881775 860.2692196117571 409.00355419363274 850.0 343.75783404359044"/><path class="valley" d="M 806.0 434.0 C 822.8653901941216 408.70191470881775 839.730780388243 409.00355419363274 850.0 343.7578340435902"/><path class="valley" d="M 950.0 260.0 C 910.0 280.00000000000006 896.0 322.0 920.0 358.0"/><path class="valley" d="M 950.0 260.00000000000006 C 989.9999999999999 280.0000000000001 1003.9999999999999 322.0 979.9999999999999 358.00000000000006"/><path class="valley" d="M 850.0 540.0 C 890.0 520.0 904.0 477.99999999999994 880.0 442.0"/><path class="valley" d="M 850.0 540.0 C 810.0 520.0 796.0 477.99999999999994 820.0 442.0"/><path class="valley" d="M 920.0 358.0 C 934.5585437956248 379.83781569343716 942.7585516677758 386.83904756543564 950.0 431.46060905616486"/><path class="valley" d="M 979.9999999999999 358.00000000000006 C 965.4414562043751 379.8378156934372 957.2414483322241 386.83904756543564 950.0 431.46060905616486"/><path class="valley" d="M 880.0 442.0 C 865.4414562043752 420.16218430656284 857.2414483322242 413.16095243456436 850.0 368.53939094383526"/><path class="valley" d="M 820.0 442.0 C 834.5585437956248 420.1621843065629 842.7585516677758 413.16095243456436 850.0 368.5393909438353"/><line class="valley" x1="1050.0" y1="0.0" x2="1050.0" y2="800.0"/><line class="valley" x1="1150.0" y1="0.0" x2="1150.0" y2="800.0"/><line class="valley" x1="1100.02" y1="0.0" x2="1150.0" y2="98.13052527525737"/><line class="valley" x1="1199.9799999999998" y1="0.0" x2="1150.0" y2="98.13052527525738"/><line class="valley" x1="1099.98" y1="800.0" x2="1050.0" y2="701.8694747247425"/><line class="valley" x1="1050.0" y1="701.8694747247425" x2="1000.02" y2="800.0"/><line class="valley" x1="1099.98" y1="0.0" x2="1050.0" y2="257.2277007985154"/><line class="valley" x1="1100.112831128703" y1="0.0" x2="1150.0" y2="23.286979591704025"/><line class="valley" x1="1199.8871688712968" y1="0.0" x2="1150.0" y2="23.28697959170404"/><line class="valley" x1="1000.02" y1="0.0" x2="1050.0" y2="257.22770079851534"/><line class="valley" x1="1150.0" y1="542.7722992014847" x2="1100.02" y2="800.0"/><line class="valley" x1="1099.8871688712968" y1="800.0" x2="1050.0" y2="776.713020408296"/><line class="valley" x1="1199.98" y1="800.0" x2="1150.0" y2="542.7722992014844"/><line class="valley" x1="1050.0" y1="776.713020408296" x2="1000.1128311287029" y2="800.0"/><line class="valley" x1="1099.98" y1="0.0" x2="1050.0" y2="23.315382907749928"/><line class="valley" x1="1000.02" y1="0.0" x2="1050.0" y2="23.315382907749928"/><line class="valley" x1="1150.0" y1="776.6846170922503" x2="1100.0200000000002" y2="800.0"/><line class="valley" x1="1199.9799999999998" y1="800.0" x2="1150.0" y2="776.6846170922502"/><path class="valley" d="M 1150.0 98.13052527525765 C 1046.0 200.00000000000009 1024.0 328.0 1100.0 400.0"/><path class="valley" d="M 1150.0 98.13052527525758 C 1169.621260215821 117.34982788701882 1186.3237430738875 137.4992425173124 1200.0 158.02721867619357"/><path class="valley" d="M 1000.0 158.02721867619334 C 1058.8130075080264 246.30517531882649 1061.6613867653616 341.58394938018375 1000.0 400.0"/><path class="valley" d="M 1050.0 701.8694747247425 C 1154.0 599.9999999999998 1176.0 472.0 1100.0 400.0"/><path class="valley" d="M 1200.0 641.9727813238067 C 1141.1869924919733 553.6948246811736 1138.3386132346384 458.4160506198163 1200.0 400.0"/><path class="valley" d="M 1200.0 400.0 C 1200.0 400.0 1200.0 400.0 1200.0 400.0"/><path class="valley" d="M 1050.0 701.8694747247425 C 1050.0 701.8694747247425 1050.0 701.8694747247425 1050.0 701.8694747247425"/><path class="valley" d="M 1050.0 701.8694747247425 C 1030.378739784179 682.6501721129812 1013.6762569261124 662.5007574826877 1000.0 641.9727813238067"/><path class="valley" d="M 1150.0 152.00000000000006 C 1030.0 270.0000000000001 1073.0 347.0 1100.0 380.0"/><path class="valley" d="M 1150.0 152.0000000000001 C 1171.599804528657 173.2398077865128 1187.9185046423681 193.15123961589188 1200.0 211.71679996312847"/><path class="valley" d="M 1200.0 380.0 C 1200.0 380.0 1200.0 380.0 1200.0 380.0"/><path class="valley" d="M 1000.0 211.71679996312824 C 1055.0385307052138 296.2941749472102 1022.1400439810523 352.93994624538055 1000.0 380.0"/><path class="valley" d="M 1000.0 380.0 C 1000.0 380.0 1000.0 380.0 1000.0 380.0"/><path class="valley" d="M 1050.0 647.9999999999998 C 1170.0 529.9999999999998 1127.0 452.99999999999994 1100.0 420.0"/><path class="valley" d="M 1200.0 588.2832000368717 C 1144.9614692947862 503.7058250527899 1177.8599560189477 447.0600537546195 1199.9999999999998 420.0"/><path class="valley" d="M 1199.9999999999998 420.0 C 1199.9999999999998 420.0 1200.0 420.0 1200.0 420.0"/><path class="valley" d="M 1050.0 647.9999999999998 C 1028.400195471343 626.7601922134871 1012.0814953576319 606.848760384108 1000.0 588.2832000368716"/><path class="valley" d="M 1100.0 380.0 C 1120.8294974516155 405.4582746630855 1140.8019717642937 409.4909708527462 1150.0 481.35489501129973"/><path class="valley" d="M 1200.0 380.0 C 1179.1705025483845 405.4582746630855 1159.198028235706 409.4909708527462 1150.0 481.35489501129973"/><path class="valley" d="M 1100.0 420.0 C 1079.1705025483845 394.5417253369145 1059.1980282357063 390.5090291472538 1050.0 318.6451049887004"/><path class="valley" d="M 1000.0 420.0 C 1020.8294974516155 394.54172533691445 1040.801971764294 390.5090291472538 1050.0 318.64510498870027"/><path class="valley" d="M 1150.0 204.0 C 1068.0 280.0 1082.0 330.00000000000006 1106.0 366.0"/><path class="valley" d="M 1150.0 204.00000000000017 C 1174.4289895518386 226.6415025114604 1190.337685984955 246.97542563659997 1200.0 265.319059240626"/><path class="valley" d="M 1200.0 356.2430617537764 C 1198.1143711443467 359.6074057257696 1196.0952954959164 362.8570567561252 1194.0 366.00000000000006"/><path class="valley" d="M 1000.0 265.31905924062585 C 1019.9393178491525 303.17329792191396 1013.2783153363819 332.5518565485465 1000.0 356.24306175377643"/><path class="valley" d="M 1050.0 596.0 C 1132.0 520.0 1118.0 469.99999999999994 1094.0 434.0"/><path class="valley" d="M 1200.0 534.6809407593743 C 1180.0606821508475 496.82670207808604 1186.721684663618 467.44814345145346 1200.0 443.7569382462237"/><path class="valley" d="M 1050.0 596.0 C 1025.5710104481614 573.3584974885398 1009.662314015045 553.0245743634002 1000.0 534.6809407593742"/><path class="valley" d="M 1000.0000000000001 443.7569382462236 C 1001.8856288556532 440.39259427423036 1003.9047045040835 437.1429432438748 1006.0 434.0"/><path class="valley" d="M 1106.0 366.0 C 1122.8653901941216 391.29808529118225 1139.730780388243 390.9964458063672 1150.0 456.24216595640996"/><path class="valley" d="M 1194.0 366.00000000000006 C 1177.1346098058784 391.29808529118225 1160.2692196117569 390.99644580636726 1150.0 456.24216595640996"/><path class="valley" d="M 1094.0 434.0 C 1077.1346098058784 408.70191470881775 1060.269219611757 409.00355419363274 1050.0 343.75783404359044"/><path class="valley" d="M 1006.0 434.0 C 1022.8653901941216 408.70191470881775 1039.730780388243 409.00355419363274 1050.0 343.7578340435902"/><path class="valley" d="M 1150.0 260.0 C 1110.0 280.00000000000006 1096.0 322.0 1120.0 358.0"/><path class="valley" d="M 1150.0 260.00000000000006 C 1190.0 280.0000000000001 1204.0 322.0 1180.0 358.00000000000006"/><path class="valley" d="M 1050.0 540.0 C 1090.0 520.0 1104.0 477.99999999999994 1080.0 442.0"/><path class="valley" d="M 1050.0 540.0 C 1010.0 520.0 996.0 477.99999999999994 1020.0 442.0"/><path class="valley" d="M 1120.0 358.0 C 1134.5585437956247 379.83781569343716 1142.758551667776 386.83904756543564 1150.0 431.46060905616486"/><path class="valley" d="M 1180.0 358.00000000000006 C 1165.441456204375 379.8378156934372 1157.241448332224 386.83904756543564 1150.0 431.46060905616486"/><path class="valley" d="M 1080.0 442.0 C 1065.4414562043753 420.16218430656284 1057.241448332224 413.16095243456436 1050.0 368.53939094383526"/><path class="valley" d="M 1020.0 442.0 C 1034.5585437956247 420.1621843065629 1042.758551667776 413.16095243456436 1050.0 368.5393909438353"/></svg>