<svg xmlns="http://www.w3.org/2000/svg" width="1200" height="800"><style >
.valley {stroke: #00f; stroke-width: 2px; fill:none}
.mountain {stroke: #f00; stroke-width: 2px; fill:none }
.cut {stroke: #000; stroke-width: 3px; fill:none } 
.hint {stroke: #000; stroke-width: 1px; fill:none } 
</style><rect class="cut" x="0" y="0" width="1200" height="800"/><line class="cut" x1="200" y1="0" x2="200" y2="800"/><line class="cut" x1="400" y1="0" x2="400" y2="800"/><line class="cut" x1="600" y1="0" x2="600" y2="800"/><line class="cut" x1="800" y1="0" x2="800" y2="800"/><line class="cut" x1="1000" y1="0" x2="1000" y2="800"/><line class="valley" x1="50.0" y1="0.0" x2="50.0" y2="800.0"/><line class="valley" x1="149.99999999999994" y1="0.0" x2="150.00000000000003" y2="800.0"/><line class="valley" x1="100.02" y1="0.0" x2="149.99999999999994" y2="98.13052527525741"/><line class="valley" x1="199.9799999999999" y1="0.0" x2="149.99999999999994" y2="98.13052527525753"/><line class="valley" x1="99.98000000000003" y1="800.0" x2="50.0" y2="701.8694747247424"/><line class="valley" x1="50.0" y1="701.8694747247424" x2="0.019999999999940225" y2="800.0"/><line class="valley" x1="99.98000000000002" y1="0.0" x2="50.0" y2="257.22770079851534"/><line class="valley" x1="100.11283112870298" y1="0.0" x2="149.99999999999994" y2="23.28697959170404"/><line class="valley" x1="199.88716887129695" y1="0.0" x2="149.99999999999994" y2="23.28697959170407"/><line class="valley" x1="0.019999999999997797" y1="0.0" x2="50.0" y2="257.2277007985153"/><line class="valley" x1="150.0" y1="542.7722992014848" x2="100.02000000000004" y2="800.0"/><line class="valley" x1="99.88716887129708" y1="800.0" x2="50.0" y2="776.7130204082961"/><line class="valley" x1="199.98000000000008" y1="800.0" x2="149.99999999999997" y2="542.7722992014845"/><line class="valley" x1="50.0" y1="776.7130204082961" x2="0.11283112870318975" y2="800.0"/><line class="valley" x1="99.98" y1="0.0" x2="50.0" y2="23.315382907749928"/><line class="valley" x1="0.019999999999997797" y1="0.0" x2="50.0" y2="23.315382907749928"/><line class="valley" x1="150.00000000000003" y1="776.6846170922502" x2="100.02000000000022" y2="800.0"/><line class="valley" x1="199.98" y1="800.0" x2="150.0" y2="776.6846170922502"/><path class="valley" d="M 149.99999999999994 98.13052527525758 C 46.0 200.00000000000006 24.000000000000014 328.0 100.0 400.0"/><path class="valley" d="M 149.99999999999994 98.13052527525755 C 149.99999999999994 98.13052527525755 149.99999999999994 98.13052527525755 149.99999999999994 98.13052527525755"/><path class="valley" d="M 149.99999999999994 98.13052527525755 C 169.6212602158209 117.34982788701878 186.32374307388756 137.4992425173123 200.0 158.02721867619343"/><path class="valley" d="M 149.99999999999994 98.13052527525754 C 149.99999999999994 98.13052527525754 149.99999999999994 98.13052527525754 149.99999999999994 98.13052527525754"/><path class="valley" d="M 4.163336342344337e-15 158.02721867619334 C 58.8130075080265 246.30517531882649 61.66138676536163 341.58394938018375 0.0 400.0"/><path class="valley" d="M 50.00000000000002 701.8694747247425 C 50.00000000000004 701.8694747247424 50.000000000000064 701.8694747247423 50.000000000000085 701.8694747247422"/><path class="valley" d="M 50.000000000000085 701.8694747247422 C 154.00000000000003 599.9999999999999 175.99999999999997 472.00000000000006 100.0 400.0"/><path class="valley" d="M 200.0 641.9727813238065 C 141.1869924919735 553.6948246811736 138.33861323463844 458.4160506198163 199.99999999999986 400.0"/><path class="valley" d="M 199.99999999999986 400.0 C 199.99999999999991 400.0 199.99999999999994 400.0 200.0 400.0"/><path class="valley" d="M 49.99999999999998 701.8694747247425 C 30.378739784179064 682.6501721129813 13.676256926112446 662.5007574826878 1.1102230246251565e-14 641.9727813238068"/><path class="valley" d="M 149.99999999999994 152.0 C 30.0 270.0 73.0 347.0 100.0 380.0"/><path class="valley" d="M 149.99999999999994 152.00000000000006 C 171.5998045286569 173.2398077865127 187.9185046423681 193.15123961589177 200.0 211.7167999631283"/><path class="valley" d="M 5.551115123125783e-15 211.71679996312824 C 55.03853070521383 296.2941749472102 22.14004398105222 352.93994624538055 2.949646391277331e-14 380.0"/><path class="valley" d="M 2.949646391277331e-14 380.0 C 1.9664309275182208e-14 380.0 9.832154637591102e-15 380.0 0.0 380.0"/><path class="valley" d="M 50.00000000000002 648.0 C 170.00000000000003 530.0 127.0 453.0 100.0 420.0"/><path class="valley" d="M 199.99999999999994 588.2832000368717 C 144.9614692947862 503.7058250527898 177.85995601894774 447.0600537546195 199.99999999999994 420.0"/><path class="valley" d="M 199.99999999999994 420.0 C 199.99999999999994 420.0 199.99999999999997 420.0 200.0 420.0"/><path class="valley" d="M 49.99999999999998 648.0 C 28.40019547134306 626.7601922134875 12.081495357631876 606.8487603841083 -9.71445146547012e-15 588.2832000368719"/><path class="valley" d="M 100.0 380.0 C 120.82949745161547 405.45827466308555 140.80197176429394 409.4909708527462 150.00000000000006 481.35489501130024"/><path class="valley" d="M 200.0 380.0 C 179.17050254838452 405.45827466308555 159.19802823570606 409.4909708527462 149.99999999999997 481.35489501130036"/><path class="valley" d="M 100.0 420.0 C 79.17050254838455 394.54172533691445 59.19802823570611 390.50902914725384 49.99999999999998 318.6451049886999"/><path class="valley" d="M 0.0 420.0 C 20.829497451615435 394.54172533691445 40.80197176429386 390.50902914725384 49.99999999999999 318.6451049887001"/><path class="valley" d="M 149.99999999999994 204.0 C 68.0 280.0 82.0 330.0 106.0 366.0"/><path class="valley" d="M 149.99999999999994 204.00000000000006 C 174.42898955183858 226.64150251146023 190.33768598495493 246.97542563659977 200.0 265.31905924062585"/><path class="valley" d="M 199.99999999999997 356.24306175377643 C 198.11437114434685 359.60740572576964 196.09529549591656 362.85705675612525 194.0 366.00000000000006"/><path class="valley" d="M 4.163336342344337e-15 265.31905924062585 C 19.939317849152506 303.17329792191396 13.27831533638191 332.5518565485465 -1.5265566588595902e-14 356.24306175377643"/><path class="valley" d="M 50.00000000000002 596.0 C 132.0 520.0 118.0 469.99999999999994 94.0 434.0"/><path class="valley" d="M 199.99999999999994 534.680940759374 C 180.0606821508475 496.826702078086 186.7216846636181 467.44814345145346 200.0 443.7569382462236"/><path class="valley" d="M 49.99999999999998 596.0 C 25.57101044816138 573.3584974885398 9.662314015045064 553.0245743634001 1.5265566588595902e-14 534.680940759374"/><path class="valley" d="M 4.7878367936959876e-14 443.7569382462234 C 1.8856288556531833 440.3925942742303 3.9047045040834685 437.1429432438748 6.000000000000005 434.0"/><path class="valley" d="M 106.0 366.0 C 122.8653901941215 391.29808529118225 139.73078038824298 390.9964458063672 149.99999999999994 456.24216595640996"/><path class="valley" d="M 194.0 366.00000000000006 C 177.13460980587848 391.2980852911823 160.26921961175697 390.99644580636726 149.99999999999997 456.24216595641036"/><path class="valley" d="M 94.0 434.0 C 77.13460980587851 408.70191470881775 60.269219611757016 409.00355419363274 50.00000000000002 343.7578340435901"/><path class="valley" d="M 6.000000000000005 434.0 C 22.865390194121492 408.70191470881775 39.730780388242984 409.00355419363274 49.99999999999998 343.7578340435901"/><path class="valley" d="M 149.99999999999997 260.0 C 110.00000000000001 280.00000000000006 96.0 322.0 120.0 358.0"/><path class="valley" d="M 149.99999999999997 260.00000000000006 C 189.99999999999997 280.0 204.0 322.0 180.0 358.00000000000006"/><path class="valley" d="M 50.00000000000002 540.0 C 89.99999999999999 520.0 104.0 477.99999999999994 80.0 442.0"/><path class="valley" d="M 49.99999999999998 540.0 C 10.000000000000009 520.0 -4.0000000000000036 477.99999999999994 19.999999999999996 442.0"/><path class="valley" d="M 120.0 358.0 C 134.5585437956248 379.83781569343716 142.75855166777583 386.83904756543564 149.99999999999997 431.46060905616486"/><path class="valley" d="M 180.0 358.00000000000006 C 165.44145620437519 379.83781569343734 157.24144833222414 386.8390475654357 150.0 431.4606090561651"/><path class="valley" d="M 80.0 442.0 C 65.4414562043752 420.16218430656284 57.24144833222415 413.16095243456436 49.999999999999986 368.5393909438351"/><path class="valley" d="M 19.999999999999996 442.0 C 34.5585437956248 420.16218430656284 42.75855166777583 413.16095243456436 50.0 368.5393909438351"/><line class="valley" x1="250.0" y1="0.0" x2="250.0" y2="800.0"/><line class="valley" x1="349.99999999999994" y1="0.0" x2="350.0" y2="800.0"/><line class="valley" x1="300.02" y1="0.0" x2="349.99999999999994" y2="98.13052527525741"/><line class="valley" x1="399.9799999999999" y1="0.0" x2="349.99999999999994" y2="98.13052527525753"/><line class="valley" x1="299.98" y1="800.0" x2="250.0" y2="701.8694747247424"/><line class="valley" x1="250.0" y1="701.8694747247424" x2="200.01999999999995" y2="800.0"/><line class="valley" x1="299.98" y1="0.0" x2="250.0" y2="257.22770079851534"/><line class="valley" x1="300.11283112870296" y1="0.0" x2="349.99999999999994" y2="23.28697959170404"/><line class="valley" x1="399.8871688712969" y1="0.0" x2="349.99999999999994" y2="23.28697959170407"/><line class="valley" x1="200.02" y1="0.0" x2="250.0" y2="257.2277007985153"/><line class="valley" x1="350.0" y1="542.7722992014848" x2="300.02000000000004" y2="800.0"/><line class="valley" x1="299.8871688712971" y1="800.0" x2="250.0" y2="776.7130204082961"/><line class="valley" x1="399.9800000000001" y1="800.0" x2="350.0" y2="542.7722992014845"/><line class="valley" x1="250.0" y1="776.7130204082961" x2="200.1128311287032" y2="800.0"/><line class="valley" x1="299.98" y1="0.0" x2="250.0" y2="23.315382907749928"/><line class="valley" x1="200.02" y1="0.0" x2="250.0" y2="23.315382907749928"/><line class="valley" x1="350.0" y1="776.6846170922502" x2="300.0200000000002" y2="800.0"/><line class="valley" x1="399.98" y1="800.0" x2="350.0" y2="776.6846170922502"/><path class="valley" d="M 349.99999999999994 98.13052527525758 C 246.0 200.00000000000006 224.0 328.0 300.0 400.0"/><path class="valley" d="M 349.99999999999994 98.13052527525755 C 349.99999999999994 98.13052527525755 349.99999999999994 98.13052527525755 349.99999999999994 98.13052527525755"/><path class="valley" d="M 349.99999999999994 98.13052527525755 C 369.62126021582094 117.34982788701878 386.32374307388756 137.4992425173123 400.0 158.02721867619343"/><path class="valley" d="M 349.99999999999994 98.13052527525754 C 349.99999999999994 98.13052527525754 349.99999999999994 98.13052527525754 349.99999999999994 98.13052527525754"/><path class="valley" d="M 200.0 158.02721867619334 C 258.8130075080265 246.30517531882649 261.6613867653616 341.58394938018375 200.0 400.0"/><path class="valley" d="M 250.00000000000003 701.8694747247425 C 250.00000000000006 701.8694747247424 250.00000000000006 701.8694747247423 250.00000000000009 701.8694747247422"/><path class="valley" d="M 250.00000000000009 701.8694747247422 C 354.0 599.9999999999999 376.0 472.00000000000006 300.0 400.0"/><path class="valley" d="M 400.0 641.9727813238065 C 341.1869924919735 553.6948246811736 338.33861323463844 458.4160506198163 399.9999999999999 400.0"/><path class="valley" d="M 399.9999999999999 400.0 C 399.9999999999999 400.0 399.99999999999994 400.0 400.0 400.0"/><path class="valley" d="M 249.99999999999997 701.8694747247425 C 230.37873978417906 682.6501721129813 213.67625692611244 662.5007574826878 200.0 641.9727813238068"/><path class="valley" d="M 349.99999999999994 152.0 C 230.0 270.0 273.0 347.0 300.0 380.0"/><path class="valley" d="M 349.99999999999994 152.00000000000006 C 371.59980452865693 173.2398077865127 387.91850464236813 193.15123961589177 400.0 211.7167999631283"/><path class="valley" d="M 200.0 211.71679996312824 C 255.03853070521382 296.2941749472102 222.14004398105223 352.93994624538055 200.00000000000003 380.0"/><path class="valley" d="M 200.00000000000003 380.0 C 200.00000000000003 380.0 200.0 380.0 200.0 380.0"/><path class="valley" d="M 250.00000000000003 648.0 C 370.0 530.0 327.0 453.0 300.0 420.0"/><path class="valley" d="M 399.99999999999994 588.2832000368717 C 344.9614692947862 503.7058250527898 377.85995601894774 447.0600537546195 399.99999999999994 420.0"/><path class="valley" d="M 399.99999999999994 420.0 C 399.99999999999994 420.0 400.0 420.0 400.0 420.0"/><path class="valley" d="M 249.99999999999997 648.0 C 228.40019547134307 626.7601922134875 212.08149535763187 606.8487603841083 200.0 588.2832000368719"/><path class="valley" d="M 300.0 380.0 C 320.82949745161545 405.45827466308555 340.80197176429397 409.4909708527462 350.00000000000006 481.35489501130024"/><path class="valley" d="M 400.0 380.0 C 379.17050254838455 405.45827466308555 359.19802823570603 409.4909708527462 350.0 481.35489501130036"/><path class="valley" d="M 300.0 420.0 C 279.17050254838455 394.54172533691445 259.1980282357061 390.50902914725384 249.99999999999997 318.6451049886999"/><path class="valley" d="M 200.0 420.0 C 220.82949745161542 394.54172533691445 240.80197176429385 390.50902914725384 250.0 318.6451049887001"/><path class="valley" d="M 349.99999999999994 204.0 C 268.0 280.0 282.0 330.0 306.0 366.0"/><path class="valley" d="M 349.99999999999994 204.00000000000006 C 374.4289895518386 226.64150251146023 390.33768598495493 246.97542563659977 400.0 265.31905924062585"/><path class="valley" d="M 400.0 356.24306175377643 C 398.1143711443468 359.60740572576964 396.09529549591656 362.85705675612525 394.0 366.00000000000006"/><path class="valley" d="M 200.0 265.31905924062585 C 219.9393178491525 303.17329792191396 213.27831533638192 332.5518565485465 199.99999999999997 356.24306175377643"/><path class="valley" d="M 250.00000000000003 596.0 C 332.0 520.0 318.0 469.99999999999994 294.0 434.0"/><path class="valley" d="M 399.99999999999994 534.680940759374 C 380.06068215084747 496.826702078086 386.72168466361813 467.44814345145346 400.0 443.7569382462236"/><path class="valley" d="M 249.99999999999997 596.0 C 225.5710104481614 573.3584974885398 209.66231401504507 553.0245743634001 200.00000000000003 534.680940759374"/><path class="valley" d="M 200.00000000000006 443.7569382462234 C 201.88562885565318 440.3925942742303 203.90470450408347 437.1429432438748 206.0 434.0"/><path class="valley" d="M 306.0 366.0 C 322.8653901941215 391.29808529118225 339.730780388243 390.9964458063672 349.99999999999994 456.24216595640996"/><path class="valley" d="M 394.0 366.00000000000006 C 377.1346098058785 391.2980852911823 360.26921961175697 390.99644580636726 350.0 456.24216595641036"/><path class="valley" d="M 294.0 434.0 C 277.13460980587854 408.70191470881775 260.269219611757 409.00355419363274 250.00000000000003 343.7578340435901"/><path class="valley" d="M 206.0 434.0 C 222.8653901941215 408.70191470881775 239.73078038824298 409.00355419363274 249.99999999999997 343.7578340435901"/><path class="valley" d="M 350.0 260.0 C 310.0 280.00000000000006 296.0 322.0 320.0 358.0"/><path class="valley" d="M 350.0 260.00000000000006 C 390.0 280.0 404.0 322.0 380.0 358.00000000000006"/><path class="valley" d="M 250.00000000000003 540.0 C 290.0 520.0 304.0 477.99999999999994 280.0 442.0"/><path class="valley" d="M 249.99999999999997 540.0 C 210.0 520.0 196.0 477.99999999999994 220.0 442.0"/><path class="valley" d="M 320.0 358.0 C 334.5585437956248 379.83781569343716 342.7585516677758 386.83904756543564 350.0 431.46060905616486"/><path class="valley" d="M 380.0 358.00000000000006 C 365.4414562043752 379.83781569343734 357.24144833222414 386.8390475654357 350.0 431.4606090561651"/><path class="valley" d="M 280.0 442.0 C 265.4414562043752 420.16218430656284 257.24144833222414 413.16095243456436 250.0 368.5393909438351"/><path class="valley" d="M 220.0 442.0 C 234.55854379562481 420.16218430656284 242.75855166777583 413.16095243456436 250.0 368.5393909438351"/><line class="valley" x1="450.0" y1="0.0" x2="450.0" y2="800.0"/><line class="valley" x1="550.0" y1="0.0" x2="550.0" y2="800.0"/><line class="valley" x1="500.02" y1="0.0" x2="550.0" y2="98.13052527525741"/><line class="valley" x1="599.9799999999999" y1="0.0" x2="550.0" y2="98.13052527525753"/><line class="valley" x1="499.98" y1="800.0" x2="450.0" y2="701.8694747247424"/><line class="valley" x1="450.0" y1="701.8694747247424" x2="400.0199999999999" y2="800.0"/><line class="valley" x1="499.98" y1="0.0" x2="450.0" y2="257.22770079851534"/><line class="valley" x1="500.11283112870296" y1="0.0" x2="550.0" y2="23.28697959170404"/><line class="valley" x1="599.8871688712969" y1="0.0" x2="550.0" y2="23.28697959170407"/><line class="valley" x1="400.02" y1="0.0" x2="450.0" y2="257.2277007985153"/><line class="valley" x1="550.0" y1="542.7722992014848" x2="500.02000000000004" y2="800.0"/><line class="valley" x1="499.8871688712971" y1="800.0" x2="450.0" y2="776.7130204082961"/><line class="valley" x1="599.98" y1="800.0" x2="550.0" y2="542.7722992014845"/><line class="valley" x1="450.0" y1="776.7130204082961" x2="400.1128311287032" y2="800.0"/><line class="valley" x1="499.98" y1="0.0" x2="450.0" y2="23.315382907749928"/><line class="valley" x1="400.02" y1="0.0" x2="450.0" y2="23.315382907749928"/><line class="valley" x1="550.0" y1="776.6846170922502" x2="500.0200000000002" y2="800.0"/><line class="valley" x1="599.98" y1="800.0" x2="550.0" y2="776.6846170922502"/><path class="valley" d="M 550.0 98.13052527525758 C 446.0 200.00000000000006 424.0 328.0 500.0 400.0"/><path class="valley" d="M 550.0 98.13052527525755 C 550.0 98.13052527525755 550.0 98.13052527525755 550.0 98.13052527525755"/><path class="valley" d="M 550.0 98.13052527525755 C 569.6212602158209 117.34982788701878 586.3237430738875 137.4992425173123 600.0 158.02721867619343"/><path class="valley" d="M 550.0 98.13052527525754 C 550.0 98.13052527525754 550.0 98.13052527525754 550.0 98.13052527525754"/><path class="valley" d="M 400.0 158.02721867619334 C 458.8130075080265 246.30517531882649 461.6613867653616 341.58394938018375 400.0 400.0"/><path class="valley" d="M 450.0 701.8694747247425 C 450.00000000000006 701.8694747247424 450.00000000000006 701.8694747247423 450.0000000000001 701.8694747247422"/><path class="valley" d="M 450.0000000000001 701.8694747247422 C 554.0 599.9999999999999 576.0 472.00000000000006 500.0 400.0"/><path class="valley" d="M 600.0 641.9727813238065 C 541.1869924919736 553.6948246811736 538.3386132346384 458.4160506198163 599.9999999999999 400.0"/><path class="valley" d="M 599.9999999999999 400.0 C 599.9999999999999 400.0 600.0 400.0 600.0 400.0"/><path class="valley" d="M 450.0 701.8694747247425 C 430.37873978417906 682.6501721129813 413.67625692611244 662.5007574826878 400.0 641.9727813238068"/><path class="valley" d="M 550.0 152.0 C 430.0 270.0 473.0 347.0 500.0 380.0"/><path class="valley" d="M 550.0 152.00000000000006 C 571.5998045286569 173.2398077865127 587.9185046423681 193.15123961589177 600.0 211.7167999631283"/><path class="valley" d="M 400.0 211.71679996312824 C 455.0385307052138 296.2941749472102 422.1400439810522 352.93994624538055 400.00000000000006 380.0"/><path class="valley" d="M 400.00000000000006 380.0 C 400.0 380.0 400.0 380.0 400.0 380.0"/><path class="valley" d="M 450.0 648.0 C 570.0 530.0 527.0 453.0 500.0 420.0"/><path class="valley" d="M 600.0 588.2832000368717 C 544.9614692947862 503.7058250527898 577.8599560189477 447.0600537546195 600.0 420.0"/><path class="valley" d="M 600.0 420.0 C 600.0 420.0 600.0 420.0 600.0 420.0"/><path class="valley" d="M 450.0 648.0 C 428.40019547134307 626.7601922134875 412.08149535763187 606.8487603841083 400.0 588.2832000368719"/><path class="valley" d="M 500.0 380.0 C 520.8294974516155 405.45827466308555 540.801971764294 409.4909708527462 550.0 481.35489501130024"/><path class="valley" d="M 600.0 380.0 C 579.1705025483845 405.45827466308555 559.198028235706 409.4909708527462 550.0 481.35489501130036"/><path class="valley" d="M 500.0 420.0 C 479.17050254838455 394.54172533691445 459.1980282357061 390.50902914725384 450.0 318.6451049886999"/><path class="valley" d="M 400.0 420.0 C 420.82949745161545 394.54172533691445 440.80197176429385 390.50902914725384 450.0 318.6451049887001"/><path class="valley" d="M 550.0 204.0 C 468.0 280.0 482.0 330.0 506.0 366.0"/><path class="valley" d="M 550.0 204.00000000000006 C 574.4289895518386 226.64150251146023 590.337685984955 246.97542563659977 600.0 265.31905924062585"/><path class="valley" d="M 600.0 356.24306175377643 C 598.1143711443468 359.60740572576964 596.0952954959166 362.85705675612525 594.0 366.00000000000006"/><path class="valley" d="M 400.0 265.31905924062585 C 419.93931784915253 303.17329792191396 413.2783153363819 332.5518565485465 400.0 356.24306175377643"/><path class="valley" d="M 450.0 596.0 C 532.0 520.0 518.0 469.99999999999994 494.0 434.0"/><path class="valley" d="M 600.0 534.680940759374 C 580.0606821508475 496.826702078086 586.7216846636181 467.44814345145346 600.0 443.7569382462236"/><path class="valley" d="M 450.0 596.0 C 425.57101044816136 573.3584974885398 409.66231401504507 553.0245743634001 400.0 534.680940759374"/><path class="valley" d="M 400.00000000000006 443.7569382462234 C 401.8856288556532 440.3925942742303 403.90470450408344 437.1429432438748 406.0 434.0"/><path class="valley" d="M 506.0 366.0 C 522.8653901941215 391.29808529118225 539.7307803882429 390.9964458063672 550.0 456.24216595640996"/><path class="valley" d="M 594.0 366.00000000000006 C 577.1346098058784 391.2980852911823 560.269219611757 390.99644580636726 550.0 456.24216595641036"/><path class="valley" d="M 494.0 434.0 C 477.13460980587854 408.70191470881775 460.269219611757 409.00355419363274 450.0 343.7578340435901"/><path class="valley" d="M 406.0 434.0 C 422.8653901941215 408.70191470881775 439.730780388243 409.00355419363274 450.0 343.7578340435901"/><path class="valley" d="M 550.0 260.0 C 510.0 280.00000000000006 496.0 322.0 520.0 358.0"/><path class="valley" d="M 550.0 260.00000000000006 C 590.0 280.0 604.0 322.0 580.0 358.00000000000006"/><path class="valley" d="M 450.0 540.0 C 490.0 520.0 504.0 477.99999999999994 480.0 442.0"/><path class="valley" d="M 450.0 540.0 C 410.0 520.0 396.0 477.99999999999994 420.0 442.0"/><path class="valley" d="M 520.0 358.0 C 534.5585437956248 379.83781569343716 542.7585516677758 386.83904756543564 550.0 431.46060905616486"/><path class="valley" d="M 580.0 358.00000000000006 C 565.4414562043752 379.83781569343734 557.2414483322241 386.8390475654357 550.0 431.4606090561651"/><path class="valley" d="M 480.0 442.0 C 465.4414562043752 420.16218430656284 457.24144833222414 413.16095243456436 450.0 368.5393909438351"/><path class="valley" d="M 420.0 442.0 C 434.5585437956248 420.16218430656284 442.7585516677758 413.16095243456436 450.0 368.5393909438351"/><line class="valley" x1="650.0" y1="0.0" x2="650.0" y2="800.0"/><line class="valley" x1="750.0" y1="0.0" x2="750.0" y2="800.0"/><line class="valley" x1="700.02" y1="0.0" x2="750.0" y2="98.13052527525741"/><line class="valley" x1="799.9799999999999" y1="0.0" x2="750.0" y2="98.13052527525753"/><line class="valley" x1="699.98" y1="800.0" x2="650.0" y2="701.8694747247424"/><line class="valley" x1="650.0" y1="701.8694747247424" x2="600.02" y2="800.0"/><line class="valley" x1="699.98" y1="0.0" x2="650.0" y2="257.22770079851534"/><line class="valley" x1="700.112831128703" y1="0.0" x2="750.0" y2="23.28697959170404"/><line class="valley" x1="799.8871688712969" y1="0.0" x2="750.0" y2="23.28697959170407"/><line class="valley" x1="600.02" y1="0.0" x2="650.0" y2="257.2277007985153"/><line class="valley" x1="750.0" y1="542.7722992014848" x2="700.02" y2="800.0"/><line class="valley" x1="699.887168871297" y1="800.0" x2="650.0" y2="776.7130204082961"/><line class="valley" x1="799.98" y1="800.0" x2="750.0" y2="542.7722992014845"/><line class="valley" x1="650.0" y1="776.7130204082961" x2="600.1128311287032" y2="800.0"/><line class="valley" x1="699.98" y1="0.0" x2="650.0" y2="23.315382907749928"/><line class="valley" x1="600.02" y1="0.0" x2="650.0" y2="23.315382907749928"/><line class="valley" x1="750.0" y1="776.6846170922502" x2="700.0200000000002" y2="800.0"/><line class="valley" x1="799.98" y1="800.0" x2="750.0" y2="776.6846170922502"/><path class="valley" d="M 750.0 98.13052527525758 C 646.0 200.00000000000006 624.0 328.0 700.0 400.0"/><path class="valley" d="M 750.0 98.13052527525755 C 750.0 98.13052527525755 750.0 98.13052527525755 750.0 98.13052527525755"/><path class="valley" d="M 750.0 98.13052527525755 C 769.6212602158209 117.34982788701878 786.3237430738875 137.4992425173123 800.0 158.02721867619343"/><path class="valley" d="M 750.0 98.13052527525754 C 750.0 98.13052527525754 750.0 98.13052527525754 750.0 98.13052527525754"/><path class="valley" d="M 600.0 158.02721867619334 C 658.8130075080265 246.30517531882649 661.6613867653616 341.58394938018375 600.0 400.0"/><path class="valley" d="M 650.0 701.8694747247425 C 650.0 701.8694747247424 650.0000000000001 701.8694747247423 650.0000000000001 701.8694747247422"/><path class="valley" d="M 650.0000000000001 701.8694747247422 C 754.0 599.9999999999999 776.0 472.00000000000006 700.0 400.0"/><path class="valley" d="M 800.0 641.9727813238065 C 741.1869924919736 553.6948246811736 738.3386132346384 458.4160506198163 799.9999999999999 400.0"/><path class="valley" d="M 799.9999999999999 400.0 C 799.9999999999999 400.0 800.0 400.0 800.0 400.0"/><path class="valley" d="M 650.0 701.8694747247425 C 630.3787397841791 682.6501721129813 613.6762569261125 662.5007574826878 600.0 641.9727813238068"/><path class="valley" d="M 750.0 152.0 C 630.0 270.0 673.0 347.0 700.0 380.0"/><path class="valley" d="M 750.0 152.00000000000006 C 771.5998045286569 173.2398077865127 787.9185046423681 193.15123961589177 800.0 211.7167999631283"/><path class="valley" d="M 600.0 211.71679996312824 C 655.0385307052138 296.2941749472102 622.1400439810523 352.93994624538055 600.0 380.0"/><path class="valley" d="M 600.0 380.0 C 600.0 380.0 600.0 380.0 600.0 380.0"/><path class="valley" d="M 650.0 648.0 C 770.0 530.0 727.0 453.0 700.0 420.0"/><path class="valley" d="M 800.0 588.2832000368717 C 744.9614692947862 503.7058250527898 777.8599560189477 447.0600537546195 800.0 420.0"/><path class="valley" d="M 800.0 420.0 C 800.0 420.0 800.0 420.0 800.0 420.0"/><path class="valley" d="M 650.0 648.0 C 628.4001954713431 626.7601922134875 612.0814953576319 606.8487603841083 600.0 588.2832000368719"/><path class="valley" d="M 700.0 380.0 C 720.8294974516155 405.45827466308555 740.801971764294 409.4909708527462 750.0 481.35489501130024"/><path class="valley" d="M 800.0 380.0 C 779.1705025483845 405.45827466308555 759.198028235706 409.4909708527462 750.0 481.35489501130036"/><path class="valley" d="M 700.0 420.0 C 679.1705025483845 394.54172533691445 659.1980282357061 390.50902914725384 650.0 318.6451049886999"/><path class="valley" d="M 600.0 420.0 C 620.8294974516155 394.54172533691445 640.8019717642939 390.50902914725384 650.0 318.6451049887001"/><path class="valley" d="M 750.0 204.0 C 668.0 280.0 682.0 330.0 706.0 366.0"/><path class="valley" d="M 750.0 204.00000000000006 C 774.4289895518386 226.64150251146023 790.337685984955 246.97542563659977 800.0 265.31905924062585"/><path class="valley" d="M 800.0 356.24306175377643 C 798.1143711443468 359.60740572576964 796.0952954959166 362.85705675612525 794.0 366.00000000000006"/><path class="valley" d="M 600.0 265.31905924062585 C 619.9393178491525 303.17329792191396 613.2783153363819 332.5518565485465 600.0 356.24306175377643"/><path class="valley" d="M 650.0 596.0 C 732.0 520.0 718.0 469.99999999999994 694.0 434.0"/><path class="valley" d="M 800.0 534.680940759374 C 780.0606821508475 496.826702078086 786.7216846636181 467.44814345145346 800.0 443.7569382462236"/><path class="valley" d="M 650.0 596.0 C 625.5710104481614 573.3584974885398 609.662314015045 553.0245743634001 600.0 534.680940759374"/><path class="valley" d="M 600.0 443.7569382462234 C 601.8856288556532 440.3925942742303 603.9047045040835 437.1429432438748 606.0 434.0"/><path class="valley" d="M 706.0 366.0 C 722.8653901941215 391.29808529118225 739.7307803882429 390.9964458063672 750.0 456.24216595640996"/><path class="valley" d="M 794.0 366.00000000000006 C 777.1346098058784 391.2980852911823 760.269219611757 390.99644580636726 750.0 456.24216595641036"/><path class="valley" d="M 694.0 434.0 C 677.1346098058785 408.70191470881775 660.269219611757 409.00355419363274 650.0 343.7578340435901"/><path class="valley" d="M 606.0 434.0 C 622.8653901941215 408.70191470881775 639.730780388243 409.00355419363274 650.0 343.7578340435901"/><path class="valley" d="M 750.0 260.0 C 710.0 280.00000000000006 696.0 322.0 720.0 358.0"/><path class="valley" d="M 750.0 260.00000000000006 C 790.0 280.0 804.0 322.0 780.0 358.00000000000006"/><path class="valley" d="M 650.0 540.0 C 690.0 520.0 704.0 477.99999999999994 680.0 442.0"/><path class="valley" d="M 650.0 540.0 C 610.0 520.0 596.0 477.99999999999994 620.0 442.0"/><path class="valley" d="M 720.0 358.0 C 734.5585437956248 379.83781569343716 742.7585516677758 386.83904756543564 750.0 431.46060905616486"/><path class="valley" d="M 780.0 358.00000000000006 C 765.4414562043752 379.83781569343734 757.2414483322241 386.8390475654357 750.0 431.4606090561651"/><path class="valley" d="M 680.0 442.0 C 665.4414562043752 420.16218430656284 657.2414483322242 413.16095243456436 650.0 368.5393909438351"/><path class="valley" d="M 620.0 442.0 C 634.5585437956248 420.16218430656284 642.7585516677758 413.16095243456436 650.0 368.5393909438351"/><line class="valley" x1="850.0" y1="0.0" x2="850.0" y2="800.0"/><line class="valley" x1="950.0" y1="0.0" x2="950.0" y2="800.0"/><line class="valley" x1="900.02" y1="0.0" x2="950.0" y2="98.13052527525741"/><line class="valley" x1="999.9799999999999" y1="0.0" x2="950.0" y2="98.13052527525753"/><line class="valley" x1="899.98" y1="800.0" x2="850.0" y2="701.8694747247424"/><line class="valley" x1="850.0" y1="701.8694747247424" x2="800.02" y2="800.0"/><line class="valley" x1="899.98" y1="0.0" x2="850.0" y2="257.22770079851534"/><line class="valley" x1="900.112831128703" y1="0.0" x2="950.0" y2="23.28697959170404"/><line class="valley" x1="999.8871688712969" y1="0.0" x2="950.0" y2="23.28697959170407"/><line class="valley" x1="800.02" y1="0.0" x2="850.0" y2="257.2277007985153"/><line class="valley" x1="950.0" y1="542.7722992014848" x2="900.02" y2="800.0"/><line class="valley" x1="899.887168871297" y1="800.0" x2="850.0" y2="776.7130204082961"/><line class="valley" x1="999.98" y1="800.0" x2="950.0" y2="542.7722992014845"/><line class="valley" x1="850.0" y1="776.7130204082961" x2="800.1128311287032" y2="800.0"/><line class="valley" x1="899.98" y1="0.0" x2="850.0" y2="23.315382907749928"/><line class="valley" x1="800.02" y1="0.0" x2="850.0" y2="23.315382907749928"/><line class="valley" x1="950.0" y1="776.6846170922502" x2="900.0200000000002" y2="800.0"/><line class="valley" x1="999.98" y1="800.0" x2="950.0" y2="776.6846170922502"/><path class="valley" d="M 950.0 98.13052527525758 C 846.0 200.00000000000006 824.0 328.0 900.0 400.0"/><path class="valley" d="M 950.0 98.13052527525755 C 950.0 98.13052527525755 950.0 98.13052527525755 950.0 98.13052527525755"/><path class="valley" d="M 950.0 98.13052527525755 C 969.6212602158209 117.34982788701878 986.3237430738875 137.4992425173123 1000.0 158.02721867619343"/><path class="valley" d="M 950.0 98.13052527525754 C 950.0 98.13052527525754 950.0 98.13052527525754 950.0 98.13052527525754"/><path class="valley" d="M 800.0 158.02721867619334 C 858.8130075080265 246.30517531882649 861.6613867653616 341.58394938018375 800.0 400.0"/><path class="valley" d="M 850.0 701.8694747247425 C 850.0 701.8694747247424 850.0000000000001 701.8694747247423 850.0000000000001 701.8694747247422"/><path class="valley" d="M 850.0000000000001 701.8694747247422 C 954.0 599.9999999999999 976.0 472.00000000000006 900.0 400.0"/><path class="valley" d="M 1000.0 641.9727813238065 C 941.1869924919736 553.6948246811736 938.3386132346384 458.4160506198163 999.9999999999999 400.0"/><path class="valley" d="M 999.9999999999999 400.0 C 999.9999999999999 400.0 1000.0 400.0 1000.0 400.0"/><path class="valley" d="M 850.0 701.8694747247425 C 830.3787397841791 682.6501721129813 813.6762569261125 662.5007574826878 800.0 641.9727813238068"/><path class="valley" d="M 950.0 152.0 C 830.0 270.0 873.0 347.0 900.0 380.0"/><path class="valley" d="M 950.0 152.00000000000006 C 971.5998045286569 173.2398077865127 987.9185046423681 193.15123961589177 1000.0 211.7167999631283"/><path class="valley" d="M 800.0 211.71679996312824 C 855.0385307052138 296.2941749472102 822.1400439810523 352.93994624538055 800.0 380.0"/><path class="valley" d="M 800.0 380.0 C 800.0 380.0 800.0 380.0 800.0 380.0"/><path class="valley" d="M 850.0 648.0 C 970.0 530.0 927.0 453.0 900.0 420.0"/><path class="valley" d="M 1000.0 588.2832000368717 C 944.9614692947862 503.7058250527898 977.8599560189477 447.0600537546195 1000.0 420.0"/><path class="valley" d="M 1000.0 420.0 C 1000.0 420.0 1000.0 420.0 1000.0 420.0"/><path class="valley" d="M 850.0 648.0 C 828.4001954713431 626.7601922134875 812.0814953576319 606.8487603841083 800.0 588.2832000368719"/><path class="valley" d="M 900.0 380.0 C 920.8294974516155 405.45827466308555 940.801971764294 409.4909708527462 950.0 481.35489501130024"/><path class="valley" d="M 1000.0 380.0 C 979.1705025483845 405.45827466308555 959.198028235706 409.4909708527462 950.0 481.35489501130036"/><path class="valley" d="M 900.0 420.0 C 879.1705025483845 394.54172533691445 859.1980282357061 390.50902914725384 850.0 318.6451049886999"/><path class="valley" d="M 800.0 420.0 C 820.8294974516155 394.54172533691445 840.8019717642939 390.50902914725384 850.0 318.6451049887001"/><path class="valley" d="M 950.0 204.0 C 868.0 280.0 882.0 330.0 906.0 366.0"/><path class="valley" d="M 950.0 204.00000000000006 C 974.4289895518386 226.64150251146023 990.337685984955 246.97542563659977 1000.0 265.31905924062585"/><path class="valley" d="M 1000.0 356.24306175377643 C 998.1143711443468 359.60740572576964 996.0952954959166 362.85705675612525 994.0 366.00000000000006"/><path class="valley" d="M 800.0 265.31905924062585 C 819.9393178491525 303.17329792191396 813.2783153363819 332.5518565485465 800.0 356.24306175377643"/><path class="valley" d="M 850.0 596.0 C 932.0 520.0 918.0 469.99999999999994 894.0 434.0"/><path class="valley" d="M 1000.0 534.680940759374 C 980.0606821508475 496.826702078086 986.7216846636181 467.44814345145346 1000.0 443.7569382462236"/><path class="valley" d="M 850.0 596.0 C 825.5710104481614 573.3584974885398 809.662314015045 553.0245743634001 800.0 534.680940759374"/><path class="valley" d="M 800.0 443.7569382462234 C 801.8856288556532 440.3925942742303 803.9047045040835 437.1429432438748 806.0 434.0"/><path class="valley" d="M 906.0 366.0 C 922.8653901941215 391.29808529118225 939.7307803882429 390.9964458063672 950.0 456.24216595640996"/><path class="valley" d="M 994.0 366.00000000000006 C 977.1346098058784 391.2980852911823 960.269219611757 390.99644580636726 950.0 456.24216595641036"/><path class="valley" d="M 894.0 434.0 C 877.1346098058785 408.70191470881775 860.269219611757 409.00355419363274 850.0 343.7578340435901"/><path class="valley" d="M 806.0 434.0 C 822.8653901941215 408.70191470881775 839.730780388243 409.00355419363274 850.0 343.7578340435901"/><path class="valley" d="M 950.0 260.0 C 910.0 280.00000000000006 896.0 322.0 920.0 358.0"/><path class="valley" d="M 950.0 260.00000000000006 C 990.0 280.0 1004.0 322.0 980.0 358.00000000000006"/><path class="valley" d="M 850.0 540.0 C 890.0 520.0 904.0 477.99999999999994 880.0 442.0"/><path class="valley" d="M 850.0 540.0 C 810.0 520.0 796.0 477.99999999999994 820.0 442.0"/><path class="valley" d="M 920.0 358.0 C 934.5585437956248 379.83781569343716 942.7585516677758 386.83904756543564 950.0 431.46060905616486"/><path class="valley" d="M 980.0 358.00000000000006 C 965.4414562043752 379.83781569343734 957.2414483322241 386.8390475654357 950.0 431.4606090561651"/><path class="valley" d="M 880.0 442.0 C 865.4414562043752 420.16218430656284 857.2414483322242 413.16095243456436 850.0 368.5393909438351"/><path class="valley" d="M 820.0 442.0 C 834.5585437956248 420.16218430656284 842.7585516677758 413.16095243456436 850.0 368.5393909438351"/><line class="valley" x1="1050.0" y1="0.0" x2="1050.0" y2="800.0"/><line class="valley" x1="1150.0" y1="0.0" x2="1150.0" y2="800.0"/><line class="valley" x1="1100.02" y1="0.0" x2="1150.0" y2="98.13052527525741"/><line class="valley" x1="1199.98" y1="0.0" x2="1150.0" y2="98.13052527525753"/><line class="valley" x1="1099.98" y1="800.0" x2="1050.0" y2="701.8694747247424"/><line class="valley" x1="1050.0" y1="701.8694747247424" x2="1000.02" y2="800.0"/><line class="valley" x1="1099.98" y1="0.0" x2="1050.0" y2="257.22770079851534"/><line class="valley" x1="1100.112831128703" y1="0.0" x2="1150.0" y2="23.28697959170404"/><line class="valley" x1="1199.887168871297" y1="0.0" x2="1150.0" y2="23.28697959170407"/><line class="valley" x1="1000.02" y1="0.0" x2="1050.0" y2="257.2277007985153"/><line class="valley" x1="1150.0" y1="542.7722992014848" x2="1100.02" y2="800.0"/><line class="valley" x1="1099.887168871297" y1="800.0" x2="1050.0" y2="776.7130204082961"/><line class="valley" x1="1199.98" y1="800.0" x2="1150.0" y2="542.7722992014845"/><line class="valley" x1="1050.0" y1="776.7130204082961" x2="1000.1128311287032" y2="800.0"/><line class="valley" x1="1099.98" y1="0.0" x2="1050.0" y2="23.315382907749928"/><line class="valley" x1="1000.02" y1="0.0" x2="1050.0" y2="23.315382907749928"/><line class="valley" x1="1150.0" y1="776.6846170922502" x2="1100.0200000000002" y2="800.0"/><line class="valley" x1="1199.98" y1="800.0" x2="1150.0" y2="776.6846170922502"/><path class="valley" d="M 1150.0 98.13052527525758 C 1046.0 200.00000000000006 1024.0 328.0 1100.0 400.0"/><path class="valley" d="M 1150.0 98.13052527525755 C 1150.0 98.13052527525755 1150.0 98.13052527525755 1150.0 98.13052527525755"/><path class="valley" d="M 1150.0 98.13052527525755 C 1169.621260215821 117.34982788701878 1186.3237430738875 137.4992425173123 1200.0 158.02721867619343"/><path class="valley" d="M 1150.0 98.13052527525754 C 1150.0 98.13052527525754 1150.0 98.13052527525754 1150.0 98.13052527525754"/><path class="valley" d="M 1000.0 158.02721867619334 C 1058.8130075080264 246.30517531882649 1061.6613867653616 341.58394938018375 1000.0 400.0"/><path class="valley" d="M 1050.0 701.8694747247425 C 1050.0 701.8694747247424 1050.0 701.8694747247423 1050.0 701.8694747247422"/><path class="valley" d="M 1050.0 701.8694747247422 C 1154.0 599.9999999999999 1176.0 472.00000000000006 1100.0 400.0"/><path class="valley" d="M 1200.0 641.9727813238065 C 1141.1869924919736 553.6948246811736 1138.3386132346384 458.4160506198163 1199.9999999999998 400.0"/><path class="valley" d="M 1199.9999999999998 400.0 C 1200.0 400.0 1200.0 400.0 1200.0 400.0"/><path class="valley" d="M 1050.0 701.8694747247425 C 1030.378739784179 682.6501721129813 1013.6762569261125 662.5007574826878 1000.0 641.9727813238068"/><path class="valley" d="M 1150.0 152.0 C 1030.0 270.0 1073.0 347.0 1100.0 380.0"/><path class="valley" d="M 1150.0 152.00000000000006 C 1171.599804528657 173.2398077865127 1187.9185046423681 193.15123961589177 1200.0 211.7167999631283"/><path class="valley" d="M 1000.0 211.71679996312824 C 1055.0385307052138 296.2941749472102 1022.1400439810523 352.93994624538055 1000.0 380.0"/><path class="valley" d="M 1000.0 380.0 C 1000.0 380.0 1000.0 380.0 1000.0 380.0"/><path class="valley" d="M 1050.0 648.0 C 1170.0 530.0 1127.0 453.0 1100.0 420.0"/><path class="valley" d="M 1200.0 588.2832000368717 C 1144.9614692947862 503.7058250527898 1177.8599560189477 447.0600537546195 1200.0 420.0"/><path class="valley" d="M 1200.0 420.0 C 1200.0 420.0 1200.0 420.0 1200.0 420.0"/><path class="valley" d="M 1050.0 648.0 C 1028.400195471343 626.7601922134875 1012.0814953576319 606.8487603841083 1000.0 588.2832000368719"/><path class="valley" d="M 1100.0 380.0 C 1120.8294974516155 405.45827466308555 1140.801971764294 409.4909708527462 1150.0 481.35489501130024"/><path class="valley" d="M 1200.0 380.0 C 1179.1705025483845 405.45827466308555 1159.198028235706 409.4909708527462 1150.0 481.35489501130036"/><path class="valley" d="M 1100.0 420.0 C 1079.1705025483845 394.54172533691445 1059.198028235706 390.50902914725384 1050.0 318.6451049886999"/><path class="valley" d="M 1000.0 420.0 C 1020.8294974516155 394.54172533691445 1040.801971764294 390.50902914725384 1050.0 318.6451049887001"/><path class="valley" d="M 1150.0 204.0 C 1068.0 280.0 1082.0 330.0 1106.0 366.0"/><path class="valley" d="M 1150.0 204.00000000000006 C 1174.4289895518386 226.64150251146023 1190.337685984955 246.97542563659977 1200.0 265.31905924062585"/><path class="valley" d="M 1200.0 356.24306175377643 C 1198.114371144347 359.60740572576964 1196.0952954959166 362.85705675612525 1194.0 366.00000000000006"/><path class="valley" d="M 1000.0 265.31905924062585 C 1019.9393178491525 303.17329792191396 1013.2783153363819 332.5518565485465 1000.0 356.24306175377643"/><path class="valley" d="M 1050.0 596.0 C 1132.0 520.0 1118.0 469.99999999999994 1094.0 434.0"/><path class="valley" d="M 1200.0 534.680940759374 C 1180.0606821508475 496.826702078086 1186.7216846636181 467.44814345145346 1200.0 443.7569382462236"/><path class="valley" d="M 1050.0 596.0 C 1025.5710104481614 573.3584974885398 1009.662314015045 553.0245743634001 1000.0 534.680940759374"/><path class="valley" d="M 1000.0 443.7569382462234 C 1001.8856288556532 440.3925942742303 1003.9047045040835 437.1429432438748 1006.0 434.0"/><path class="valley" d="M 1106.0 366.0 C 1122.8653901941216 391.29808529118225 1139.730780388243 390.9964458063672 1150.0 456.24216595640996"/><path class="valley" d="M 1194.0 366.00000000000006 C 1177.1346098058784 391.2980852911823 1160.2692196117569 390.99644580636726 1150.0 456.24216595641036"/><path class="valley" d="M 1094.0 434.0 C 1077.1346098058784 408.70191470881775 1060.269219611757 409.00355419363274 1050.0 343.7578340435901"/><path class="valley" d="M 1006.0 434.0 C 1022.8653901941215 408.70191470881775 1039.730780388243 409.00355419363274 1050.0 343.7578340435901"/><path class="valley" d="M 1150.0 260.0 C 1110.0 280.00000000000006 1096.0 322.0 1120.0 358.0"/><path class="valley" d="M 1150.0 260.00000000000006 C 1190.0 280.0 1204.0 322.0 1180.0 358.00000000000006"/><path class="valley" d="M 1050.0 540.0 C 1090.0 520.0 1104.0 477.99999999999994 1080.0 442.0"/><path class="valley" d="M 1050.0 540.0 C 1010.0 520.0 996.0 477.99999999999994 1020.0 442.0"/><path class="valley" d="M 1120.0 358.0 C 1134.5585437956247 379.83781569343716 1142.758551667776 386.83904756543564 1150.0 431.46060905616486"/><path class="valley" d="M 1180.0 358.00000000000006 C 1165.4414562043753 379.83781569343734 1157.241448332224 386.8390475654357 1150.0 431.4606090561651"/><path class="valley" d="M 1080.0 442.0 C 1065.4414562043753 420.16218430656284 1057.241448332224 413.16095243456436 1050.0 368.5393909438351"/><path class="valley" d="M 1020.0 442.0 C 1034.5585437956247 420.16218430656284 1042.758551667776 413.16095243456436 1050.0 368.5393909438351"/></svg>