<svg xmlns="http://www.w3.org/2000/svg" width="180mm" height="111.9mm"><style >
.valley {stroke: #00f; stroke-width: 2px; fill:none}
.mountain {stroke: #f00; stroke-width: 2px; fill:none }
.cut {stroke: #000; stroke-width: 3px; fill:none } 
.hint {stroke: #000; stroke-width: 1px; fill:none } 
</style><rect class="cut" x="0" y="0" width="180mm" height="111.9mm"/><line class="cut" x1="30mm" y1="0" x2="30mm" y2="111.9mm"/><line class="cut" x1="60mm" y1="0" x2="60mm" y2="111.9mm"/><line class="cut" x1="90mm" y1="0" x2="90mm" y2="111.9mm"/><line class="cut" x1="120mm" y1="0" x2="120mm" y2="111.9mm"/><line class="cut" x1="150mm" y1="0" x2="150mm" y2="111.9mm"/><line class="valley" x1="7.5mm" y1="0mm" x2="7.5mm" y2="111.9mm"/><line class="valley" x1="15.0mm" y1="0mm" x2="15.0mm" y2="111.9mm"/><line class="valley" x1="22.5mm" y1="0mm" x2="22.5mm" y2="111.9mm"/><line class="valley" x1="15.0mm" y1="0mm" x2="22.5mm" y2="9.616848863977998mm"/><line class="valley" x1="22.5mm" y1="9.616848863977998mm" x2="30.0mm" y2="0.0mm"/><line class="valley" x1="15.000000000000007mm" y1="111.9mm" x2="7.500000000000007mm" y2="98.90961894323343mm"/><line class="valley" x1="7.500000000000007mm" y1="98.90961894323343mm" x2="7.105427357601002e-15mm" y2="111.9mm"/><line class="valley" x1="37.5mm" y1="0mm" x2="37.5mm" y2="111.9mm"/><line class="valley" x1="45.0mm" y1="0mm" x2="45.0mm" y2="111.9mm"/><line class="valley" x1="52.5mm" y1="0mm" x2="52.5mm" y2="111.9mm"/><line class="valley" x1="45.0mm" y1="0mm" x2="52.5mm" y2="9.616848863977998mm"/><line class="valley" x1="52.5mm" y1="9.616848863977998mm" x2="60.0mm" y2="0.0mm"/><line class="valley" x1="45.00000000000001mm" y1="111.9mm" x2="37.50000000000001mm" y2="98.90961894323343mm"/><line class="valley" x1="37.50000000000001mm" y1="98.90961894323343mm" x2="30.000000000000007mm" y2="111.9mm"/><line class="valley" x1="67.5mm" y1="0mm" x2="67.5mm" y2="111.9mm"/><line class="valley" x1="75.0mm" y1="0mm" x2="75.0mm" y2="111.9mm"/><line class="valley" x1="82.5mm" y1="0mm" x2="82.5mm" y2="111.9mm"/><line class="valley" x1="75.0mm" y1="0mm" x2="82.5mm" y2="9.616848863977998mm"/><line class="valley" x1="82.5mm" y1="9.616848863977998mm" x2="90.0mm" y2="0.0mm"/><line class="valley" x1="75.0mm" y1="111.9mm" x2="67.5mm" y2="98.90961894323343mm"/><line class="valley" x1="67.5mm" y1="98.90961894323343mm" x2="60.0mm" y2="111.9mm"/><line class="valley" x1="97.5mm" y1="0mm" x2="97.5mm" y2="111.9mm"/><line class="valley" x1="105.0mm" y1="0mm" x2="105.0mm" y2="111.9mm"/><line class="valley" x1="112.5mm" y1="0mm" x2="112.5mm" y2="111.9mm"/><line class="valley" x1="105.0mm" y1="0mm" x2="112.5mm" y2="9.616848863977998mm"/><line class="valley" x1="112.5mm" y1="9.616848863977998mm" x2="120.0mm" y2="0.0mm"/><line class="valley" x1="105.0mm" y1="111.9mm" x2="97.5mm" y2="98.90961894323343mm"/><line class="valley" x1="97.5mm" y1="98.90961894323343mm" x2="90.0mm" y2="111.9mm"/><line class="valley" x1="127.5mm" y1="0mm" x2="127.5mm" y2="111.9mm"/><line class="valley" x1="135.0mm" y1="0mm" x2="135.0mm" y2="111.9mm"/><line class="valley" x1="142.5mm" y1="0mm" x2="142.5mm" y2="111.9mm"/><line class="valley" x1="135.0mm" y1="0mm" x2="142.5mm" y2="9.616848863977998mm"/><line class="valley" x1="142.5mm" y1="9.616848863977998mm" x2="150.0mm" y2="0.0mm"/><line class="valley" x1="135.0mm" y1="111.9mm" x2="127.5mm" y2="98.90961894323343mm"/><line class="valley" x1="127.5mm" y1="98.90961894323343mm" x2="120.0mm" y2="111.9mm"/><line class="valley" x1="157.5mm" y1="0mm" x2="157.5mm" y2="111.9mm"/><line class="valley" x1="165.0mm" y1="0mm" x2="165.0mm" y2="111.9mm"/><line class="valley" x1="172.5mm" y1="0mm" x2="172.5mm" y2="111.9mm"/><line class="valley" x1="165.0mm" y1="0mm" x2="172.5mm" y2="9.616848863977998mm"/><line class="valley" x1="172.5mm" y1="9.616848863977998mm" x2="180.0mm" y2="0.0mm"/><line class="valley" x1="165.0mm" y1="111.9mm" x2="157.5mm" y2="98.90961894323343mm"/><line class="valley" x1="157.5mm" y1="98.90961894323343mm" x2="150.0mm" y2="111.9mm"/></svg>