<svg xmlns="http://www.w3.org/2000/svg" width="155mm" height="308132.0881913721mmmmmm"><style >
.valley {stroke: #00f; stroke-width: 2px; fill:none}
.mountain {stroke: #f00; stroke-width: 2px; fill:none }
.cut {stroke: #000; stroke-width: 3px; fill:none } 
.hint {stroke: #000; stroke-width: 1px; fill:none } 
</style><text font-family="sans-serif" font-size="20" font-weight="bold" x="25mm" y="12mm">Triangle Unit x60</text> <text font-family="sans-serif" font-size="20" font-weight="bold" x="25mm" y="20mm">Length ratio 3.85</text> <rect class="cut" x="25mm" y="25mm" width="40mm" height="154.06604409568604mm"/> <line class="valley" x1="35.0mm" y1="25mm" x2="35.0mm" y2="179.06604409568604mm"/> <line class="valley" x1="45.0mm" y1="25mm" x2="45.0mm" y2="179.06604409568604mm"/> <line class="valley" x1="55.0mm" y1="25mm" x2="55.0mm" y2="179.06604409568604mm"/> <line class="valley" x1="41.67mm" y1="25mm" x2="55.0mm" y2="39.675185524172726mm"/> <line class="valley" x1="55.0mm" y1="39.675185524172726mm" x2="65.0mm" y2="28.666044095686058mm"/> <circle class="hint" cx="65.0mm" cy="25mm" r="2mm"/> <circle class="hint" cx="39.433918593703176mm" cy="48.22259330790629mm" r="2mm"/> <line class="hint" x1="65.0mm" y1="25mm" x2="39.433918593703176mm" y2="48.22259330790629mm"/> <line class="valley" x1="45.0mm" y1="179.06604409568604mm" x2="35.0mm" y2="161.74553601999727mm"/> <line class="valley" x1="35.0mm" y1="161.74553601999727mm" x2="25.0mm" y2="179.06604409568604mm"/> <circle class="hint" cx="25.0mm" cy="179.06604409568604mm" r="2mm"/> <circle class="hint" cx="54.99999999999999mm" cy="161.74553601999727mm" r="2mm"/> <line class="hint" x1="25.0mm" y1="179.06604409568604mm" x2="54.99999999999999mm" y2="161.74553601999727mm"/><text font-family="sans-serif" font-size="20" font-weight="bold" x="90mm" y="12mm">Star Unit x60</text> <text font-family="sans-serif" font-size="20" font-weight="bold" x="90mm" y="20mm">Length ratio 3.60</text> <rect class="cut" x="90mm" y="25mm" width="40mm" height="143.90275727594238mm"/> <line class="valley" x1="100.0mm" y1="25mm" x2="100.0mm" y2="168.90275727594238mm"/> <line class="valley" x1="110.0mm" y1="25mm" x2="110.0mm" y2="168.90275727594238mm"/> <line class="valley" x1="120.0mm" y1="25mm" x2="120.0mm" y2="168.90275727594238mm"/> <line class="valley" x1="103.7mm" y1="25mm" x2="120.0mm" y2="42.3395342263474mm"/> <line class="valley" x1="120.0mm" y1="42.3395342263474mm" x2="130.0mm" y2="31.701783167238567mm"/> <circle class="hint" cx="130.0mm" cy="25mm" r="2mm"/> <circle class="hint" cx="102.07609718597224mm" cy="51.249817897474884mm" r="2mm"/> <line class="hint" x1="130.0mm" y1="25mm" x2="102.07609718597224mm" y2="51.249817897474884mm"/> <line class="valley" x1="113.33mm" y1="168.90275727594238mm" x2="100.0mm" y2="148.0832423002601mm"/> <line class="valley" x1="100.0mm" y1="148.0832423002601mm" x2="90.0mm" y2="163.70178316723857mm"/> <circle class="hint" cx="97.39217349568032mm" cy="168.90275727594238mm" r="2mm"/> <circle class="hint" cx="120.0mm" cy="154.42776457536408mm" r="2mm"/> <line class="hint" x1="97.39217349568032mm" y1="168.90275727594238mm" x2="120.0mm" y2="154.42776457536408mm"/></svg>