<svg xmlns="http://www.w3.org/2000/svg" width="90mm" height="111.9mm"><style >
.valley {stroke: #00f; stroke-width: 2px; fill:none}
.mountain {stroke: #f00; stroke-width: 2px; fill:none }
.cut {stroke: #000; stroke-width: 3px; fill:none } 
</style><rect class="cut" x="0" y="0" width="90mm" height="100%"/><line class="cut" x1="30mm" y1="0" x2="30mm" y2="100%"/><line class="cut" x1="60mm" y1="0" x2="60mm" y2="100%"/><line class="valley" x1="7.5mm" y1="0mm" x2="7.5mm" y2="111.9mm"/><line class="valley" x1="15.0mm" y1="0mm" x2="15.0mm" y2="111.9mm"/><line class="valley" x1="22.5mm" y1="0mm" x2="22.5mm" y2="111.9mm"/><line class="valley" x1="15.0mm" y1="0mm" x2="22.5mm" y2="9.616848863977998mm"/><line class="valley" x1="22.5mm" y1="9.616848863977998mm" x2="30.0mm" y2="0.0mm"/><line class="valley" x1="15.0mm" y1="111.9mm" x2="7.5mm" y2="98.90961894323343mm"/><line class="valley" x1="7.5mm" y1="98.90961894323343mm" x2="0.0mm" y2="111.9mm"/><line class="valley" x1="37.5mm" y1="0mm" x2="37.5mm" y2="111.9mm"/><line class="valley" x1="45.0mm" y1="0mm" x2="45.0mm" y2="111.9mm"/><line class="valley" x1="52.5mm" y1="0mm" x2="52.5mm" y2="111.9mm"/><line class="valley" x1="45.0mm" y1="0mm" x2="52.5mm" y2="9.616848863977998mm"/><line class="valley" x1="52.5mm" y1="9.616848863977998mm" x2="60.0mm" y2="0.0mm"/><line class="valley" x1="45.0mm" y1="111.9mm" x2="37.5mm" y2="98.90961894323343mm"/><line class="valley" x1="37.5mm" y1="98.90961894323343mm" x2="30.0mm" y2="111.9mm"/><line class="valley" x1="67.5mm" y1="0mm" x2="67.5mm" y2="111.9mm"/><line class="valley" x1="75.0mm" y1="0mm" x2="75.0mm" y2="111.9mm"/><line class="valley" x1="82.5mm" y1="0mm" x2="82.5mm" y2="111.9mm"/><line class="valley" x1="75.0mm" y1="0mm" x2="82.5mm" y2="9.616848863977998mm"/><line class="valley" x1="82.5mm" y1="9.616848863977998mm" x2="90.0mm" y2="0.0mm"/><line class="valley" x1="75.0mm" y1="111.9mm" x2="67.5mm" y2="98.90961894323343mm"/><line class="valley" x1="67.5mm" y1="98.90961894323343mm" x2="60.0mm" y2="111.9mm"/></svg>