<svg xmlns="http://www.w3.org/2000/svg" width="90mm" height="100.66551205763733mm"><style >
.valley {stroke: #00f; stroke-width: 2px; fill:none}
.mountain {stroke: #f00; stroke-width: 2px; fill:none }
.cut {stroke: #000; stroke-width: 3px; fill:none } 
</style><rect class="cut" x="0" y="0" width="90mm" height="100%"/><line class="cut" x1="30mm" y1="0" x2="30mm" y2="100%"/><line class="cut" x1="60mm" y1="0" x2="60mm" y2="100%"/><line class="valley" x1="7.5mm" y1="0mm" x2="7.5mm" y2="100.66551205763733mm"/><line class="valley" x1="15.0mm" y1="0mm" x2="15.0mm" y2="100.66551205763733mm"/><line class="valley" x1="22.5mm" y1="0mm" x2="22.5mm" y2="100.66551205763733mm"/><line class="valley" x1="7.5mm" y1="0mm" x2="22.5mm" y2="10.106204543169776mm"/><line class="valley" x1="22.5mm" y1="10.106204543169776mm" x2="30.0mm" y2="5.053102271584888mm"/><line class="valley" x1="16.875mm" y1="100.66551205763733mm" x2="7.4999999999999964mm" y2="80.10346312737508mm"/><line class="valley" x1="7.4999999999999964mm" y1="80.10346312737508mm" x2="0.0mm" y2="96.55310227158488mm"/><line class="valley" x1="37.5mm" y1="0mm" x2="37.5mm" y2="100.66551205763733mm"/><line class="valley" x1="45.0mm" y1="0mm" x2="45.0mm" y2="100.66551205763733mm"/><line class="valley" x1="52.5mm" y1="0mm" x2="52.5mm" y2="100.66551205763733mm"/><line class="valley" x1="37.5mm" y1="0mm" x2="52.5mm" y2="10.106204543169776mm"/><line class="valley" x1="52.5mm" y1="10.106204543169776mm" x2="60.0mm" y2="5.053102271584888mm"/><line class="valley" x1="46.875mm" y1="100.66551205763733mm" x2="37.5mm" y2="80.10346312737508mm"/><line class="valley" x1="37.5mm" y1="80.10346312737508mm" x2="30.0mm" y2="96.55310227158488mm"/><line class="valley" x1="67.5mm" y1="0mm" x2="67.5mm" y2="100.66551205763733mm"/><line class="valley" x1="75.0mm" y1="0mm" x2="75.0mm" y2="100.66551205763733mm"/><line class="valley" x1="82.5mm" y1="0mm" x2="82.5mm" y2="100.66551205763733mm"/><line class="valley" x1="67.5mm" y1="0mm" x2="82.5mm" y2="10.106204543169776mm"/><line class="valley" x1="82.5mm" y1="10.106204543169776mm" x2="90.0mm" y2="5.053102271584888mm"/><line class="valley" x1="76.875mm" y1="100.66551205763733mm" x2="67.5mm" y2="80.10346312737508mm"/><line class="valley" x1="67.5mm" y1="80.10346312737508mm" x2="60.0mm" y2="96.55310227158488mm"/></svg>