<svg xmlns="http://www.w3.org/2000/svg" width="170mm" height="197.04749208004705mm"><style >
.valley {stroke: #00f; stroke-width: 2px; fill:none}
.mountain {stroke: #f00; stroke-width: 2px; fill:none }
.cut {stroke: #000; stroke-width: 3px; fill:none } 
.hint {stroke: #000; stroke-width: 1px; fill:none } 
</style><text font-family="sans-serif" font-size="20" font-weight="bold" x="30mm" y="17mm">Short Unit x30</text> <text font-family="sans-serif" font-size="20" font-weight="bold" x="30mm" y="25mm">Length ratio 2.95</text> <rect class="cut" x="30mm" y="30mm" width="40mm" height="118.15121267207289mm"/> <line class="valley" x1="40.0mm" y1="30mm" x2="40.0mm" y2="148.1512126720729mm"/> <line class="valley" x1="50.0mm" y1="30mm" x2="50.0mm" y2="148.1512126720729mm"/> <line class="valley" x1="60.0mm" y1="30mm" x2="60.0mm" y2="148.1512126720729mm"/> <line class="valley" x1="30.0mm" y1="35.77538585020501mm" x2="60.0mm" y2="40.725716578952174mm"/> <line class="valley" x1="60.0mm" y1="40.725716578952174mm" x2="70.0mm" y2="39.07560633603645mm"/> <line class="valley" x1="50.0mm" y1="39.07560633603645mm" x2="40.0mm" y2="44.837479356048206mm"/> <line class="valley" x1="40.0mm" y1="44.837479356048206mm" x2="30mm" y2="39.07560633603645mm"/> <line class="valley" x1="50.0mm" y1="39.07560633603645mm" x2="40.0mm" y2="33.278809090657006mm"/> <line class="valley" x1="40.0mm" y1="33.278809090657006mm" x2="30mm" y2="39.07560633603645mm"/> <circle class="hint" cx="70.0mm" cy="30mm" r="2mm"/> <circle class="hint" cx="66.02396626318031mm" cy="54.095564244205306mm" r="2mm"/> <line class="hint" x1="70.0mm" y1="30mm" x2="66.02396626318031mm" y2="54.095564244205306mm"/> <circle class="hint" cx="32.0mm" cy="30mm" r="2mm"/> <circle class="hint" cx="30.038490023168954mm" cy="41.88714502714129mm" r="2mm"/> <line class="hint" x1="32.0mm" y1="30mm" x2="30.038490023168954mm" y2="41.88714502714129mm"/> <line class="valley" x1="70.0mm" y1="142.37582682186786mm" x2="40.0mm" y2="137.42549609312073mm"/> <line class="valley" x1="40.0mm" y1="137.42549609312073mm" x2="30.0mm" y2="139.07560633603643mm"/> <line class="valley" x1="50.0mm" y1="139.07560633603643mm" x2="60.0mm" y2="133.31373331602467mm"/> <line class="valley" x1="60.0mm" y1="133.31373331602467mm" x2="70.0mm" y2="139.07560633603643mm"/> <line class="valley" x1="50.0mm" y1="139.07560633603643mm" x2="60.0mm" y2="144.87240358141588mm"/> <line class="valley" x1="60.0mm" y1="144.87240358141588mm" x2="70.0mm" y2="139.07560633603643mm"/> <circle class="hint" cx="30.0mm" cy="148.1512126720729mm" r="2mm"/> <circle class="hint" cx="33.97603373681969mm" cy="124.05564842786758mm" r="2mm"/> <line class="hint" x1="30.0mm" y1="148.1512126720729mm" x2="33.97603373681969mm" y2="124.05564842786758mm"/><text font-family="sans-serif" font-size="20" font-weight="bold" x="100mm" y="17mm">Long Unit x30</text> <text font-family="sans-serif" font-size="20" font-weight="bold" x="100mm" y="25mm">Length ratio 3.43</text> <rect class="cut" x="100mm" y="30mm" width="40mm" height="137.04749208004705mm"/> <line class="valley" x1="110.0mm" y1="30mm" x2="110.0mm" y2="167.04749208004705mm"/> <line class="valley" x1="120.0mm" y1="30mm" x2="120.0mm" y2="167.04749208004705mm"/> <line class="valley" x1="130.0mm" y1="30mm" x2="130.0mm" y2="167.04749208004705mm"/> <line class="valley" x1="100mm" y1="30mm" x2="130.0mm" y2="47.28561906003527mm"/> <line class="valley" x1="130.0mm" y1="47.28561906003527mm" x2="140.0mm" y2="41.52374604002352mm"/> <line class="valley" x1="120.0mm" y1="41.52374604002352mm" x2="110.0mm" y2="43.173856282939234mm"/> <line class="valley" x1="110.0mm" y1="43.173856282939234mm" x2="100mm" y2="41.52374604002352mm"/> <line class="valley" x1="120.0mm" y1="41.52374604002352mm" x2="116.09045822627846mm" y2="30mm"/> <line class="valley" x1="103.90954177372154mm" y1="30mm" x2="100mm" y2="41.52374604002352mm"/> <circle class="hint" cx="140.0mm" cy="30mm" r="2mm"/> <circle class="hint" cx="120.0604294863783mm" cy="64.60605682278819mm" r="2mm"/> <line class="hint" x1="140.0mm" y1="30mm" x2="120.0604294863783mm" y2="64.60605682278819mm"/> <line class="valley" x1="140.0mm" y1="167.04749208004705mm" x2="110.0mm" y2="149.76187302001176mm"/> <line class="valley" x1="110.0mm" y1="149.76187302001176mm" x2="100.0mm" y2="155.52374604002352mm"/> <line class="valley" x1="120.0mm" y1="155.52374604002352mm" x2="130.0mm" y2="153.87363579710782mm"/> <line class="valley" x1="130.0mm" y1="153.87363579710782mm" x2="140.0mm" y2="155.52374604002352mm"/> <line class="valley" x1="120.0mm" y1="155.52374604002352mm" x2="123.90954177372154mm" y2="167.04749208004705mm"/> <line class="valley" x1="136.09045822627846mm" y1="167.04749208004705mm" x2="140.0mm" y2="155.52374604002352mm"/> <circle class="hint" cx="100.0mm" cy="167.04749208004705mm" r="2mm"/> <circle class="hint" cx="119.9395705136217mm" cy="132.44143525725886mm" r="2mm"/> <line class="hint" x1="100.0mm" y1="167.04749208004705mm" x2="119.9395705136217mm" y2="132.44143525725886mm"/></svg>