<svg xmlns="http://www.w3.org/2000/svg" width="850.3937007874017" height="827.7165354330709"><style >
.valley {stroke: #00f; stroke-width: 2px; fill:none}
.mountain {stroke: #f00; stroke-width: 2px; fill:none }
.cut {stroke: #000; stroke-width: 3px; fill:none } 
.hint {stroke: #000; stroke-width: 1px; fill:none } 
</style><line class="valley" x1="20.551181102362207" y1="0mm" x2="20.551181102362207" y2="242.81469690874826"/><line class="valley" x1="41.102362204724415" y1="0mm" x2="41.102362204724415" y2="242.81469690874826"/><line class="valley" x1="61.65354330708662" y1="0mm" x2="61.65354330708662" y2="242.81469690874826"/><line class="valley" x1="-7.105427357601002e-15" y1="11.869100054358338" x2="61.65354330708662" y2="22.042614386665484"/><line class="valley" x1="61.65354330708662" y1="22.042614386665484" x2="82.20472440944883" y2="18.6514429425631"/><line class="valley" x1="41.102362204724415" y1="18.6514429425631" x2="20.551181102362207" y2="30.49277253487073"/><line class="valley" x1="20.551181102362207" y1="30.49277253487073" x2="0mm" y2="18.6514429425631"/><line class="valley" x1="41.102362204724415" y1="18.6514429425631" x2="20.551181102362207" y2="6.738339942216376"/><line class="valley" x1="20.551181102362207" y1="6.738339942216376" x2="0mm" y2="18.6514429425631"/><line class="valley" x1="82.20472440944884" y1="230.94559685438992" x2="20.55118110236222" y2="220.77208252208277"/><line class="valley" x1="20.55118110236222" y1="220.77208252208277" x2="1.4210854715202004e-14" y2="224.16325396618518"/><line class="valley" x1="41.10236220472443" y1="224.16325396618515" x2="61.653543307086636" y2="212.32192437387752"/><line class="valley" x1="61.653543307086636" y1="212.32192437387752" x2="82.20472440944884" y2="224.16325396618515"/><line class="valley" x1="41.10236220472443" y1="224.16325396618515" x2="61.653543307086636" y2="236.07635696653188"/><line class="valley" x1="61.653543307086636" y1="236.07635696653188" x2="82.20472440944884" y2="224.16325396618515"/><line class="valley" x1="102.75590551181104" y1="0mm" x2="102.75590551181104" y2="242.81469690874826"/><line class="valley" x1="123.30708661417324" y1="0mm" x2="123.30708661417324" y2="242.81469690874826"/><line class="valley" x1="143.85826771653547" y1="0mm" x2="143.85826771653547" y2="242.81469690874826"/><line class="valley" x1="82.20472440944883" y1="11.869100054358338" x2="143.85826771653547" y2="22.042614386665484"/><line class="valley" x1="143.85826771653547" y1="22.042614386665484" x2="164.40944881889766" y2="18.6514429425631"/><line class="valley" x1="123.30708661417324" y1="18.6514429425631" x2="102.75590551181104" y2="30.49277253487073"/><line class="valley" x1="102.75590551181104" y1="30.49277253487073" x2="82.20472440944883" y2="18.6514429425631"/><line class="valley" x1="123.30708661417324" y1="18.6514429425631" x2="102.75590551181104" y2="6.738339942216376"/><line class="valley" x1="102.75590551181104" y1="6.738339942216376" x2="82.20472440944883" y2="18.6514429425631"/><line class="valley" x1="164.40944881889766" y1="230.94559685438992" x2="102.75590551181104" y2="220.77208252208277"/><line class="valley" x1="102.75590551181104" y1="220.77208252208277" x2="82.20472440944883" y2="224.16325396618518"/><line class="valley" x1="123.30708661417324" y1="224.16325396618515" x2="143.85826771653544" y2="212.32192437387752"/><line class="valley" x1="143.85826771653544" y1="212.32192437387752" x2="164.40944881889766" y2="224.16325396618515"/><line class="valley" x1="123.30708661417324" y1="224.16325396618515" x2="143.85826771653547" y2="236.07635696653188"/><line class="valley" x1="143.85826771653547" y1="236.07635696653188" x2="164.40944881889766" y2="224.16325396618515"/><line class="valley" x1="184.96062992125985" y1="0mm" x2="184.96062992125985" y2="242.81469690874826"/><line class="valley" x1="205.51181102362207" y1="0mm" x2="205.51181102362207" y2="242.81469690874826"/><line class="valley" x1="226.0629921259843" y1="0mm" x2="226.0629921259843" y2="242.81469690874826"/><line class="valley" x1="164.40944881889766" y1="11.869100054358338" x2="226.0629921259843" y2="22.042614386665484"/><line class="valley" x1="226.0629921259843" y1="22.042614386665484" x2="246.6141732283465" y2="18.6514429425631"/><line class="valley" x1="205.51181102362207" y1="18.6514429425631" x2="184.96062992125985" y2="30.49277253487073"/><line class="valley" x1="184.96062992125985" y1="30.49277253487073" x2="164.40944881889766" y2="18.6514429425631"/><line class="valley" x1="205.51181102362207" y1="18.6514429425631" x2="184.96062992125985" y2="6.738339942216376"/><line class="valley" x1="184.96062992125985" y1="6.738339942216376" x2="164.40944881889766" y2="18.6514429425631"/><line class="valley" x1="246.6141732283465" y1="230.94559685438992" x2="184.96062992125985" y2="220.77208252208277"/><line class="valley" x1="184.96062992125985" y1="220.77208252208277" x2="164.40944881889766" y2="224.16325396618518"/><line class="valley" x1="205.51181102362207" y1="224.16325396618515" x2="226.06299212598427" y2="212.32192437387752"/><line class="valley" x1="226.06299212598427" y1="212.32192437387752" x2="246.6141732283465" y2="224.16325396618515"/><line class="valley" x1="205.51181102362207" y1="224.16325396618515" x2="226.0629921259843" y2="236.07635696653188"/><line class="valley" x1="226.0629921259843" y1="236.07635696653188" x2="246.6141732283465" y2="224.16325396618515"/><line class="valley" x1="267.1653543307087" y1="0mm" x2="267.1653543307087" y2="242.81469690874826"/><line class="valley" x1="287.71653543307093" y1="0mm" x2="287.71653543307093" y2="242.81469690874826"/><line class="valley" x1="308.2677165354331" y1="0mm" x2="308.2677165354331" y2="242.81469690874826"/><line class="valley" x1="246.6141732283465" y1="11.869100054358338" x2="308.2677165354331" y2="22.042614386665484"/><line class="valley" x1="308.2677165354331" y1="22.042614386665484" x2="328.8188976377953" y2="18.6514429425631"/><line class="valley" x1="287.71653543307093" y1="18.6514429425631" x2="267.1653543307087" y2="30.49277253487073"/><line class="valley" x1="267.1653543307087" y1="30.49277253487073" x2="246.6141732283465" y2="18.6514429425631"/><line class="valley" x1="287.71653543307093" y1="18.6514429425631" x2="267.1653543307087" y2="6.738339942216376"/><line class="valley" x1="267.1653543307087" y1="6.738339942216376" x2="246.6141732283465" y2="18.6514429425631"/><line class="valley" x1="328.8188976377953" y1="230.94559685438992" x2="267.1653543307087" y2="220.77208252208277"/><line class="valley" x1="267.1653543307087" y1="220.77208252208277" x2="246.6141732283465" y2="224.16325396618518"/><line class="valley" x1="287.71653543307093" y1="224.16325396618515" x2="308.2677165354331" y2="212.32192437387752"/><line class="valley" x1="308.2677165354331" y1="212.32192437387752" x2="328.8188976377953" y2="224.16325396618515"/><line class="valley" x1="287.71653543307093" y1="224.16325396618515" x2="308.2677165354331" y2="236.07635696653188"/><line class="valley" x1="308.2677165354331" y1="236.07635696653188" x2="328.8188976377953" y2="224.16325396618515"/><line class="valley" x1="349.3700787401575" y1="0mm" x2="349.3700787401575" y2="242.81469690874826"/><line class="valley" x1="369.9212598425197" y1="0mm" x2="369.9212598425197" y2="242.81469690874826"/><line class="valley" x1="390.47244094488195" y1="0mm" x2="390.47244094488195" y2="242.81469690874826"/><line class="valley" x1="328.8188976377953" y1="11.869100054358338" x2="390.47244094488195" y2="22.042614386665484"/><line class="valley" x1="390.47244094488195" y1="22.042614386665484" x2="411.02362204724415" y2="18.6514429425631"/><line class="valley" x1="369.9212598425197" y1="18.6514429425631" x2="349.3700787401575" y2="30.49277253487073"/><line class="valley" x1="349.3700787401575" y1="30.49277253487073" x2="328.8188976377953" y2="18.6514429425631"/><line class="valley" x1="369.9212598425197" y1="18.6514429425631" x2="349.3700787401575" y2="6.738339942216376"/><line class="valley" x1="349.3700787401575" y1="6.738339942216376" x2="328.8188976377953" y2="18.6514429425631"/><line class="valley" x1="411.02362204724415" y1="230.94559685438992" x2="349.3700787401575" y2="220.77208252208277"/><line class="valley" x1="349.3700787401575" y1="220.77208252208277" x2="328.8188976377953" y2="224.16325396618518"/><line class="valley" x1="369.9212598425197" y1="224.16325396618515" x2="390.47244094488195" y2="212.32192437387752"/><line class="valley" x1="390.47244094488195" y1="212.32192437387752" x2="411.02362204724415" y2="224.16325396618515"/><line class="valley" x1="369.9212598425197" y1="224.16325396618515" x2="390.47244094488195" y2="236.07635696653188"/><line class="valley" x1="390.47244094488195" y1="236.07635696653188" x2="411.02362204724415" y2="224.16325396618515"/><line class="valley" x1="431.57480314960634" y1="0mm" x2="431.57480314960634" y2="281.6487829361597"/><line class="valley" x1="452.1259842519686" y1="0mm" x2="452.1259842519686" y2="281.6487829361597"/><line class="valley" x1="472.6771653543308" y1="0mm" x2="472.6771653543308" y2="281.6487829361597"/><line class="valley" x1="411.02362204724415" y1="0mm" x2="472.6771653543308" y2="35.52398877692289"/><line class="valley" x1="472.6771653543308" y1="35.52398877692289" x2="493.228346456693" y2="23.68265918461526"/><line class="valley" x1="452.1259842519686" y1="23.68265918461526" x2="431.57480314960634" y2="27.073830628717644"/><line class="valley" x1="431.57480314960634" y1="27.073830628717644" x2="411.02362204724415" y2="23.68265918461526"/><line class="valley" x1="452.1259842519686" y1="23.68265918461526" x2="444.0914141500684" y2="0.0"/><line class="valley" x1="419.05819214914436" y1="0.0" x2="411.02362204724415" y2="23.68265918461526"/><line class="valley" x1="493.228346456693" y1="281.6487829361597" x2="431.57480314960634" y2="246.1247941592368"/><line class="valley" x1="431.57480314960634" y1="246.1247941592368" x2="411.02362204724415" y2="257.96612375154444"/><line class="valley" x1="452.1259842519686" y1="257.96612375154444" x2="472.6771653543308" y2="254.57495230744206"/><line class="valley" x1="472.6771653543308" y1="254.57495230744206" x2="493.228346456693" y2="257.96612375154444"/><line class="valley" x1="452.1259842519686" y1="257.96612375154444" x2="460.16055435386875" y2="281.6487829361597"/><line class="valley" x1="485.1937763547928" y1="281.6487829361597" x2="493.228346456693" y2="257.96612375154444"/><line class="valley" x1="513.7795275590552" y1="0mm" x2="513.7795275590552" y2="281.6487829361597"/><line class="valley" x1="534.3307086614174" y1="0mm" x2="534.3307086614174" y2="281.6487829361597"/><line class="valley" x1="554.8818897637796" y1="0mm" x2="554.8818897637796" y2="281.6487829361597"/><line class="valley" x1="493.228346456693" y1="0mm" x2="554.8818897637796" y2="35.52398877692289"/><line class="valley" x1="554.8818897637796" y1="35.52398877692289" x2="575.4330708661419" y2="23.68265918461526"/><line class="valley" x1="534.3307086614174" y1="23.68265918461526" x2="513.7795275590552" y2="27.073830628717644"/><line class="valley" x1="513.7795275590552" y1="27.073830628717644" x2="493.228346456693" y2="23.68265918461526"/><line class="valley" x1="534.3307086614174" y1="23.68265918461526" x2="526.2961385595172" y2="0.0"/><line class="valley" x1="501.26291655859313" y1="0.0" x2="493.228346456693" y2="23.68265918461526"/><line class="valley" x1="575.4330708661419" y1="281.6487829361597" x2="513.7795275590553" y2="246.1247941592368"/><line class="valley" x1="513.7795275590553" y1="246.1247941592368" x2="493.22834645669303" y2="257.96612375154444"/><line class="valley" x1="534.3307086614175" y1="257.96612375154444" x2="554.8818897637797" y2="254.57495230744206"/><line class="valley" x1="554.8818897637797" y1="254.57495230744206" x2="575.4330708661419" y2="257.96612375154444"/><line class="valley" x1="534.3307086614175" y1="257.96612375154444" x2="542.3652787633176" y2="281.6487829361597"/><line class="valley" x1="567.3985007642417" y1="281.6487829361597" x2="575.4330708661419" y2="257.96612375154444"/><line class="valley" x1="595.984251968504" y1="0mm" x2="595.984251968504" y2="281.6487829361597"/><line class="valley" x1="616.5354330708662" y1="0mm" x2="616.5354330708662" y2="281.6487829361597"/><line class="valley" x1="637.0866141732284" y1="0mm" x2="637.0866141732284" y2="281.6487829361597"/><line class="valley" x1="575.4330708661419" y1="0mm" x2="637.0866141732284" y2="35.52398877692289"/><line class="valley" x1="637.0866141732284" y1="35.52398877692289" x2="657.6377952755906" y2="23.68265918461526"/><line class="valley" x1="616.5354330708662" y1="23.68265918461526" x2="595.984251968504" y2="27.073830628717644"/><line class="valley" x1="595.984251968504" y1="27.073830628717644" x2="575.4330708661419" y2="23.68265918461526"/><line class="valley" x1="616.5354330708662" y1="23.68265918461526" x2="608.5008629689661" y2="0.0"/><line class="valley" x1="583.467640968042" y1="0.0" x2="575.4330708661419" y2="23.68265918461526"/><line class="valley" x1="657.6377952755907" y1="281.6487829361597" x2="595.9842519685042" y2="246.1247941592368"/><line class="valley" x1="595.9842519685042" y1="246.1247941592368" x2="575.4330708661419" y2="257.96612375154444"/><line class="valley" x1="616.5354330708664" y1="257.96612375154444" x2="637.0866141732286" y2="254.57495230744206"/><line class="valley" x1="637.0866141732286" y1="254.57495230744206" x2="657.6377952755907" y2="257.96612375154444"/><line class="valley" x1="616.5354330708664" y1="257.96612375154444" x2="624.5700031727665" y2="281.6487829361597"/><line class="valley" x1="649.6032251736906" y1="281.6487829361597" x2="657.6377952755907" y2="257.96612375154444"/><line class="valley" x1="678.1889763779528" y1="0mm" x2="678.1889763779528" y2="281.6487829361597"/><line class="valley" x1="698.740157480315" y1="0mm" x2="698.740157480315" y2="281.6487829361597"/><line class="valley" x1="719.2913385826772" y1="0mm" x2="719.2913385826772" y2="281.6487829361597"/><line class="valley" x1="657.6377952755906" y1="0mm" x2="719.2913385826772" y2="35.52398877692289"/><line class="valley" x1="719.2913385826772" y1="35.52398877692289" x2="739.8425196850394" y2="23.68265918461526"/><line class="valley" x1="698.740157480315" y1="23.68265918461526" x2="678.1889763779528" y2="27.073830628717644"/><line class="valley" x1="678.1889763779528" y1="27.073830628717644" x2="657.6377952755906" y2="23.68265918461526"/><line class="valley" x1="698.740157480315" y1="23.68265918461526" x2="690.7055873784149" y2="0.0"/><line class="valley" x1="665.6723653774908" y1="0.0" x2="657.6377952755906" y2="23.68265918461526"/><line class="valley" x1="739.8425196850395" y1="281.6487829361597" x2="678.1889763779529" y2="246.1247941592368"/><line class="valley" x1="678.1889763779529" y1="246.1247941592368" x2="657.6377952755906" y2="257.96612375154444"/><line class="valley" x1="698.7401574803151" y1="257.96612375154444" x2="719.2913385826773" y2="254.57495230744206"/><line class="valley" x1="719.2913385826773" y1="254.57495230744206" x2="739.8425196850395" y2="257.96612375154444"/><line class="valley" x1="698.7401574803151" y1="257.96612375154444" x2="706.7747275822153" y2="281.6487829361597"/><line class="valley" x1="731.8079495831394" y1="281.6487829361597" x2="739.8425196850395" y2="257.96612375154444"/><line class="valley" x1="760.3937007874016" y1="0mm" x2="760.3937007874016" y2="281.6487829361597"/><line class="valley" x1="780.9448818897638" y1="0mm" x2="780.9448818897638" y2="281.6487829361597"/><line class="valley" x1="801.496062992126" y1="0mm" x2="801.496062992126" y2="281.6487829361597"/><line class="valley" x1="739.8425196850394" y1="0mm" x2="801.496062992126" y2="35.52398877692289"/><line class="valley" x1="801.496062992126" y1="35.52398877692289" x2="822.0472440944882" y2="23.68265918461526"/><line class="valley" x1="780.9448818897638" y1="23.68265918461526" x2="760.3937007874016" y2="27.073830628717644"/><line class="valley" x1="760.3937007874016" y1="27.073830628717644" x2="739.8425196850394" y2="23.68265918461526"/><line class="valley" x1="780.9448818897638" y1="23.68265918461526" x2="772.9103117878636" y2="0.0"/><line class="valley" x1="747.8770897869396" y1="0.0" x2="739.8425196850394" y2="23.68265918461526"/><line class="valley" x1="822.0472440944883" y1="281.6487829361597" x2="760.3937007874017" y2="246.1247941592368"/><line class="valley" x1="760.3937007874017" y1="246.1247941592368" x2="739.8425196850394" y2="257.96612375154444"/><line class="valley" x1="780.9448818897639" y1="257.96612375154444" x2="801.4960629921261" y2="254.57495230744206"/><line class="valley" x1="801.4960629921261" y1="254.57495230744206" x2="822.0472440944883" y2="257.96612375154444"/><line class="valley" x1="780.9448818897639" y1="257.96612375154444" x2="788.9794519916641" y2="281.6487829361597"/><line class="valley" x1="814.0126739925881" y1="281.6487829361597" x2="822.0472440944883" y2="257.96612375154444"/><line class="cut" x1="0.0" y1="0.0" x2="822.0472440944883" y2="0.0"/><line class="cut" x1="0.0" y1="242.81469690874826" x2="411.02362204724415" y2="242.81469690874826"/><line class="cut" x1="411.02362204724415" y1="281.6487829361597" x2="822.0472440944883" y2="281.6487829361597"/><line class="cut" x1="0.0" y1="0.0" x2="0.0" y2="242.81469690874826"/><line class="cut" x1="82.20472440944883" y1="0.0" x2="82.20472440944883" y2="242.81469690874826"/><line class="cut" x1="164.40944881889766" y1="0.0" x2="164.40944881889766" y2="242.81469690874826"/><line class="cut" x1="246.6141732283465" y1="0.0" x2="246.6141732283465" y2="242.81469690874826"/><line class="cut" x1="328.8188976377953" y1="0.0" x2="328.8188976377953" y2="242.81469690874826"/><line class="cut" x1="411.02362204724415" y1="0.0" x2="411.02362204724415" y2="281.6487829361597"/><line class="cut" x1="493.228346456693" y1="0.0" x2="493.228346456693" y2="281.6487829361597"/><line class="cut" x1="575.4330708661419" y1="0.0" x2="575.4330708661419" y2="281.6487829361597"/><line class="cut" x1="657.6377952755906" y1="0.0" x2="657.6377952755906" y2="281.6487829361597"/><line class="cut" x1="739.8425196850394" y1="0.0" x2="739.8425196850394" y2="281.6487829361597"/><line class="cut" x1="822.0472440944883" y1="0.0" x2="822.0472440944883" y2="281.6487829361597"/></svg>